<svg version="1.2" xmlns="http://www.w3.org/2000/svg" viewBox="0 0 59 59" width="59" height="59">
	<title>Logo-2</title>
	<defs>
		<clipPath clipPathUnits="userSpaceOnUse" id="cp1">
			<path d="m29.93 5.06c13.25 0 24 10.75 24 24 0 13.26-10.75 24-24 24-13.26 0-24-10.74-24-24 0-13.25 10.74-24 24-24z"/>
		</clipPath>
		<linearGradient id="g1" x2="1" gradientUnits="userSpaceOnUse" gradientTransform="matrix(0,48,-48,0,29.93,5.064)">
			<stop offset="0" stop-color="#e2e2e2" stop-opacity="1"/>
			<stop offset="1" stop-color="#ffffff" stop-opacity="0"/>
		</linearGradient>
		<filter x="-50%" y="-50%" width="200%" height="200%" id="f1"> <feGaussianBlur stdDeviation="8"/> </filter>
		<linearGradient id="g2" x2="1" gradientUnits="userSpaceOnUse" gradientTransform="matrix(0,24.308,-23.395,0,29.942,17.886)">
			<stop offset="0" stop-color="#4fa8df"/>
			<stop offset="1" stop-color="#d781c7"/>
		</linearGradient>
		<linearGradient id="g3" x2="1" gradientUnits="userSpaceOnUse" gradientTransform="matrix(0,24.308,-23.426,0,29.942,17.886)">
			<stop offset="0" stop-color="#4fa8df"/>
			<stop offset="1" stop-color="#d781c7"/>
		</linearGradient>
		<linearGradient id="g4" x2="1" gradientUnits="userSpaceOnUse" gradientTransform="matrix(0,24.308,-24.161,0,29.942,17.886)">
			<stop offset="0" stop-color="#4fa8df"/>
			<stop offset="1" stop-color="#d781c7"/>
		</linearGradient>
		<linearGradient id="g5" x2="1" gradientUnits="userSpaceOnUse" gradientTransform="matrix(0,24.308,-23.619,0,29.942,17.886)">
			<stop offset="0" stop-color="#4fa8df"/>
			<stop offset="1" stop-color="#d781c7"/>
		</linearGradient>
		<linearGradient id="g6" x2="1" gradientUnits="userSpaceOnUse" gradientTransform="matrix(0,24.308,-23.395,0,29.942,16.886)">
			<stop offset="0" stop-color="#4fa8df"/>
			<stop offset="1" stop-color="#d781c7"/>
		</linearGradient>
		<linearGradient id="g7" x2="1" gradientUnits="userSpaceOnUse" gradientTransform="matrix(0,24.308,-23.426,0,29.942,16.886)">
			<stop offset="0" stop-color="#4fa8df"/>
			<stop offset="1" stop-color="#d781c7"/>
		</linearGradient>
		<linearGradient id="g8" x2="1" gradientUnits="userSpaceOnUse" gradientTransform="matrix(0,24.308,-24.161,0,29.942,16.886)">
			<stop offset="0" stop-color="#4fa8df"/>
			<stop offset="1" stop-color="#d781c7"/>
		</linearGradient>
		<linearGradient id="g9" x2="1" gradientUnits="userSpaceOnUse" gradientTransform="matrix(0,24.308,-23.619,0,29.942,16.886)">
			<stop offset="0" stop-color="#4fa8df"/>
			<stop offset="1" stop-color="#d781c7"/>
		</linearGradient>
	</defs>
	<style>
		.s0 { fill: #ffffff } 
		.s1 { opacity: .3;fill: url(#g1) } 
		.s2 { filter: url(#f1);fill: url(#g2) } 
		.s3 { filter: url(#f1);fill: url(#g3) } 
		.s4 { filter: url(#f1);fill: url(#g4) } 
		.s5 { filter: url(#f1);fill: url(#g5) } 
		.s6 { fill: url(#g6) } 
		.s7 { fill: url(#g7) } 
		.s8 { fill: url(#g8) } 
		.s9 { fill: url(#g9) } 
		.s10 { opacity: .5;fill: none;stroke: #e2e8f0;stroke-width: 2 } 
	</style>
	<g>
		<g id="Clip-Path" clip-path="url(#cp1)">
			<g>
				<path fill-rule="evenodd" class="s0" d="m29.9 5.1c13.3 0 24 10.7 24 24 0 13.2-10.7 24-24 24-13.2 0-24-10.8-24-24 0-13.3 10.8-24 24-24z"/>
				<path fill-rule="evenodd" class="s1" d="m29.9 5.1c13.3 0 24 10.7 24 24 0 13.2-10.7 24-24 24-13.2 0-24-10.8-24-24 0-13.3 10.8-24 24-24z"/>
				<g style="opacity: .6">
					<path class="s2" d="m38.6 28.1c0-3.4-2.9-6.6-6.5-7q-0.1 0-0.3-0.1-0.2 0-0.5 0c-0.8 0-0.9 0.5-1 0.8q-0.1 0.5 0.1 0.8c0.3 0.3 0.7 0.4 1.1 0.4q0.1 0 0.2 0.1c3.3 0.7 4.4 1.8 4.9 5q0 0.2 0 0.3c0.1 0.4 0.1 1.2 1 1.2q0.1 0 0.2 0c0.8-0.1 0.8-0.9 0.8-1.2q0-0.2 0-0.3 0 0 0 0z"/>
					<path class="s3" d="m31.1 19.8q0.1 0 0.2 0.1c5.4 0.8 7.8 3.3 8.5 8.7q0 0.1 0 0.3c0 0.4 0 1.3 1 1.3q0.5 0 0.7-0.3c0.3-0.3 0.3-0.7 0.3-1.1q0-0.1 0-0.2c0-5.5-4.7-10.5-10.2-10.7q-0.1 0-0.1 0 0 0-0.1 0 0 0-0.2 0-0.1 0-0.2 0c-0.9 0-1.1 0.6-1.1 1 0 0.8 0.8 0.9 1.2 0.9z"/>
					<path class="s4" d="m39.6 35.5q-0.2-0.1-0.4-0.2-0.9-0.7-1.8-1.4-0.2-0.1-0.4-0.2-1.1-0.8-2.1-0.8-1.3 0-2.2 1.4-0.5 0.7-1.1 0.7-0.4 0-0.8-0.3c-2.5-1.1-4.3-2.8-5.3-5.1-0.5-1.1-0.3-1.8 0.5-2.4 0.5-0.3 1.4-0.9 1.4-2.1-0.1-1.4-3.1-5.4-4.3-5.9q-0.8-0.2-1.7 0c-1.4 0.5-2.4 1.4-2.9 2.5-0.5 1.1-0.5 2.3 0 3.7 1.6 3.8 3.8 7.1 6.5 9.9 2.7 2.7 6.1 4.9 9.9 6.5 0.4 0.2 0.7 0.3 1 0.3q0.1 0.1 0.2 0.1 0.1 0 0.1 0 0 0 0 0c1.9 0 4-1.7 4.7-3.5 0.6-1.7-0.5-2.5-1.3-3.2z"/>
					<path class="s5" d="m31.9 24.2c-0.3 0-1 0-1.2 0.7q-0.2 0.4 0 0.8c0.2 0.3 0.6 0.4 0.9 0.4 1.2 0.2 1.9 0.9 2 2.2 0.1 0.5 0.4 0.9 0.9 0.9q0.1 0 0.2 0 0.9-0.1 0.8-1.3c0-0.8-0.4-1.8-1.1-2.5-0.8-0.8-1.7-1.2-2.5-1.2z"/>
				</g>
				<path class="s6" d="m38.6 27.1c0-3.4-2.9-6.6-6.5-7q-0.1 0-0.3-0.1-0.2 0-0.5 0c-0.8 0-0.9 0.5-1 0.8q-0.1 0.5 0.1 0.8c0.3 0.3 0.7 0.4 1.1 0.4q0.1 0 0.2 0.1c3.3 0.7 4.4 1.8 4.9 5q0 0.2 0 0.3c0.1 0.4 0.1 1.2 1 1.2q0.1 0 0.2 0c0.8-0.1 0.8-0.9 0.8-1.2q0-0.2 0-0.3 0 0 0 0z"/>
				<path class="s7" d="m31.1 18.8q0.1 0 0.2 0.1c5.4 0.8 7.8 3.3 8.5 8.7q0 0.1 0 0.3c0 0.4 0 1.3 1 1.3q0.5 0 0.7-0.3c0.3-0.3 0.3-0.7 0.3-1.1q0-0.1 0-0.2c0-5.5-4.7-10.5-10.2-10.7q-0.1 0-0.1 0 0 0-0.1 0 0 0-0.2 0-0.1 0-0.2 0c-0.9 0-1.1 0.6-1.1 1 0 0.8 0.8 0.9 1.2 0.9z"/>
				<path class="s8" d="m39.6 34.5q-0.2-0.1-0.4-0.2-0.9-0.7-1.8-1.4-0.2-0.1-0.4-0.2-1.1-0.8-2.1-0.8-1.3 0-2.2 1.4-0.5 0.7-1.1 0.7-0.4 0-0.8-0.3c-2.5-1.1-4.3-2.8-5.3-5.1-0.5-1.1-0.3-1.8 0.5-2.4 0.5-0.3 1.4-0.9 1.4-2.1-0.1-1.4-3.1-5.4-4.3-5.9q-0.8-0.2-1.7 0c-1.4 0.5-2.4 1.4-2.9 2.5-0.5 1.1-0.5 2.3 0 3.7 1.6 3.8 3.8 7.1 6.5 9.9 2.7 2.7 6.1 4.9 9.9 6.5 0.4 0.2 0.7 0.3 1 0.3q0.1 0.1 0.2 0.1 0.1 0 0.1 0 0 0 0 0c1.9 0 4-1.7 4.7-3.5 0.6-1.7-0.5-2.5-1.3-3.2z"/>
				<path class="s9" d="m31.9 23.2c-0.3 0-1 0-1.2 0.7q-0.2 0.4 0 0.8c0.2 0.3 0.6 0.4 0.9 0.4 1.2 0.2 1.9 0.9 2 2.2 0.1 0.5 0.4 0.9 0.9 0.9q0.1 0 0.2 0 0.9-0.1 0.8-1.3c0-0.8-0.4-1.8-1.1-2.5-0.8-0.8-1.7-1.2-2.5-1.2z"/>
			</g>
		</g>
		<path fill-rule="evenodd" class="s10" d="m29.9 4.1c13.8 0 25 11.2 25 25 0 13.8-11.2 25-25 25-13.8 0-25-11.2-25-25 0-13.8 11.2-25 25-25z"/>
	</g>
</svg>