<svg version="1.2" xmlns="http://www.w3.org/2000/svg" viewBox="0 0 59 59" width="59" height="59">
	<title>Logo-4</title>
	<defs>
		<clipPath clipPathUnits="userSpaceOnUse" id="cp1">
			<path d="m29.46 3.2c14.48 0 26.22 11.74 26.22 26.22 0 14.49-11.74 26.23-26.22 26.23-14.48 0-26.22-11.74-26.22-26.23 0-14.48 11.74-26.22 26.22-26.22z"/>
		</clipPath>
		<linearGradient id="g1" x2="1" gradientUnits="userSpaceOnUse" gradientTransform="matrix(0,52.445,-52.445,0,29.459,3.203)">
			<stop offset="0" stop-color="#e2e2e2" stop-opacity="1"/>
			<stop offset="1" stop-color="#ffffff" stop-opacity="0"/>
		</linearGradient>
		<filter x="-50%" y="-50%" width="200%" height="200%" id="f1"> <feGaussianBlur stdDeviation="5.6"/> </filter>
		<linearGradient id="g2" x2="1" gradientUnits="userSpaceOnUse" gradientTransform="matrix(9.894,17.146,-17.149,9.895,16.328,22.727)">
			<stop offset="0" stop-color="#5a62c3"/>
			<stop offset=".5" stop-color="#4d55bd"/>
			<stop offset="1" stop-color="#3940ab"/>
		</linearGradient>
		<linearGradient id="g3" x2="1" gradientUnits="userSpaceOnUse" gradientTransform="matrix(9.894,17.146,-17.149,9.895,16.328,20.854)">
			<stop offset="0" stop-color="#5a62c3"/>
			<stop offset=".5" stop-color="#4d55bd"/>
			<stop offset="1" stop-color="#3940ab"/>
		</linearGradient>
	</defs>
	<style>
		.s0 { fill: #ffffff } 
		.s1 { opacity: .3;fill: url(#g1) } 
		.s2 { filter: url(#f1);fill: #5059c9 } 
		.s3 { filter: url(#f1);fill: #7b83eb } 
		.s4 { opacity: .1;filter: url(#f1);fill: #000000 } 
		.s5 { opacity: .2;filter: url(#f1);fill: #000000 } 
		.s6 { filter: url(#f1);fill: url(#g2) } 
		.s7 { filter: url(#f1);fill: #ffffff } 
		.s8 { fill: #5059c9 } 
		.s9 { fill: #7b83eb } 
		.s10 { opacity: .1;fill: #000000 } 
		.s11 { opacity: .2;fill: #000000 } 
		.s12 { fill: url(#g3) } 
		.s13 { opacity: .5;fill: none;stroke: #e2e8f0;stroke-width: 1.9 } 
	</style>
	<g>
		<g id="Clip-Path" clip-path="url(#cp1)">
			<g>
				<path fill-rule="evenodd" class="s0" d="m29.5 3.2c14.4 0 26.2 11.7 26.2 26.2 0 14.5-11.8 26.2-26.2 26.2-14.5 0-26.3-11.7-26.3-26.2 0-14.5 11.8-26.2 26.3-26.2z"/>
				<path fill-rule="evenodd" class="s1" d="m29.5 3.2c14.4 0 26.2 11.7 26.2 26.2 0 14.5-11.8 26.2-26.2 26.2-14.5 0-26.3-11.7-26.3-26.2 0-14.5 11.8-26.2 26.3-26.2z"/>
				<g style="opacity: .6">
					<path class="s2" d="m34.4 27.9h7.6c0.8 0 1.4 0.5 1.4 1.3v6.9c0 2.7-2.2 4.8-4.9 4.8-2.6 0-4.8-2.1-4.8-4.8q0 0 0 0v-7.6c0-0.3 0.3-0.6 0.7-0.6z"/>
					<path fill-rule="evenodd" class="s2" d="m39.6 26.5c-1.8 0-3.1-1.4-3.1-3.1 0-1.7 1.3-3.1 3.1-3.1 1.7 0 3.1 1.4 3.1 3.1 0 1.7-1.4 3.1-3.1 3.1z"/>
					<path fill-rule="evenodd" class="s3" d="m29.9 26.5c-2.5 0-4.5-2-4.5-4.5 0-2.5 2-4.5 4.5-4.5 2.5 0 4.5 2 4.5 4.5 0 2.5-2 4.5-4.5 4.5z"/>
					<path class="s3" d="m35.9 27.9h-12.7c-0.7 0-1.2 0.6-1.2 1.3v7.9c-0.1 4.3 3.3 7.9 7.6 8 4.2-0.1 7.6-3.7 7.5-8v-7.9c0.1-0.7-0.5-1.3-1.2-1.3z"/>
					<path class="s4" d="m30.2 27.9v11.1c0 0.5-0.3 1-0.7 1.2q-0.3 0.1-0.5 0.1h-6.4q-0.2-0.4-0.3-0.7-0.3-1.2-0.3-2.5v-7.9c0-0.7 0.5-1.3 1.2-1.3z"/>
					<path class="s5" d="m29.6 27.9v11.8q0 0.2-0.1 0.5c-0.2 0.4-0.7 0.7-1.2 0.7h-5.4q-0.2-0.3-0.3-0.6-0.2-0.4-0.3-0.7-0.3-1.2-0.3-2.5v-7.9c0-0.7 0.5-1.3 1.2-1.3z"/>
					<path class="s5" d="m29.6 27.9v10.4c0 0.7-0.6 1.3-1.3 1.3h-6q-0.3-1.2-0.3-2.5v-7.9c0-0.7 0.5-1.3 1.2-1.3z"/>
					<path class="s5" d="m28.9 27.9v10.4c0 0.7-0.6 1.3-1.3 1.3h-5.3q-0.3-1.2-0.3-2.5v-7.9c0-0.7 0.5-1.3 1.2-1.3z"/>
					<path class="s4" d="m30.2 24.3v2.2q-0.1 0-0.3 0-0.2 0-0.3 0-0.4-0.1-0.7-0.2c-1.4-0.3-2.6-1.3-3.1-2.6q-0.2-0.3-0.3-0.7h3.5c0.7 0 1.2 0.6 1.2 1.3z"/>
					<path class="s5" d="m29.6 25v1.5q-0.4-0.1-0.7-0.2c-1.4-0.3-2.6-1.3-3.1-2.6h2.5c0.7 0 1.3 0.6 1.3 1.3z"/>
					<path class="s5" d="m29.6 25v1.5q-0.4-0.1-0.7-0.2c-1.4-0.3-2.6-1.3-3.1-2.6h2.5c0.7 0 1.3 0.6 1.3 1.3z"/>
					<path class="s5" d="m28.9 25v1.3c-1.4-0.3-2.6-1.3-3.1-2.6h1.8c0.7 0 1.3 0.6 1.3 1.3z"/>
					<path class="s6" d="m15 23.7h12.6c0.7 0 1.3 0.6 1.3 1.3v12.6c0 0.7-0.6 1.3-1.3 1.3h-12.6c-0.7 0-1.3-0.6-1.3-1.3v-12.6c0-0.7 0.6-1.3 1.3-1.3z"/>
					<path class="s7" d="m24.6 28.5h-2.5v6.9h-1.6v-6.9h-2.5v-1.3h6.6z"/>
				</g>
				<path class="s8" d="m34.4 26h7.6c0.8 0 1.4 0.6 1.4 1.3v7c0 2.6-2.2 4.8-4.9 4.8-2.6 0-4.8-2.2-4.8-4.8q0 0 0 0v-7.6c0-0.4 0.3-0.7 0.7-0.7z"/>
				<path fill-rule="evenodd" class="s8" d="m39.6 24.6c-1.8 0-3.1-1.4-3.1-3.1 0-1.7 1.3-3.1 3.1-3.1 1.7 0 3.1 1.4 3.1 3.1 0 1.7-1.4 3.1-3.1 3.1z"/>
				<path fill-rule="evenodd" class="s9" d="m29.9 24.6c-2.5 0-4.5-2-4.5-4.5 0-2.5 2-4.5 4.5-4.5 2.5 0 4.5 2 4.5 4.5 0 2.5-2 4.5-4.5 4.5z"/>
				<path class="s9" d="m35.9 26h-12.7c-0.7 0-1.2 0.6-1.2 1.3v8c-0.1 4.2 3.3 7.8 7.6 7.9 4.2-0.1 7.6-3.7 7.5-7.9v-8c0.1-0.7-0.5-1.3-1.2-1.3z"/>
				<path class="s10" d="m30.2 26v11.1c0 0.5-0.3 1-0.7 1.2q-0.3 0.1-0.5 0.1h-6.4q-0.2-0.4-0.3-0.7-0.3-1.2-0.3-2.4v-8c0-0.7 0.5-1.3 1.2-1.3z"/>
				<path class="s11" d="m29.6 26v11.8q0 0.3-0.1 0.5c-0.2 0.5-0.7 0.8-1.2 0.8h-5.4q-0.2-0.4-0.3-0.7-0.2-0.4-0.3-0.7-0.3-1.2-0.3-2.4v-8c0-0.7 0.5-1.3 1.2-1.3z"/>
				<path class="s11" d="m29.6 26v10.4c0 0.7-0.6 1.3-1.3 1.3h-6q-0.3-1.2-0.3-2.4v-8c0-0.7 0.5-1.3 1.2-1.3z"/>
				<path class="s11" d="m28.9 26v10.4c0 0.7-0.6 1.3-1.3 1.3h-5.3q-0.3-1.2-0.3-2.4v-8c0-0.7 0.5-1.3 1.2-1.3z"/>
				<path class="s10" d="m30.2 22.4v2.2q-0.1 0-0.3 0-0.2 0-0.3 0-0.4 0-0.7-0.1c-1.4-0.4-2.6-1.3-3.1-2.7q-0.2-0.3-0.3-0.6h3.5c0.7 0 1.2 0.5 1.2 1.2z"/>
				<path class="s11" d="m29.6 23.1v1.5q-0.4 0-0.7-0.1c-1.4-0.4-2.6-1.3-3.1-2.7h2.5c0.7 0 1.3 0.6 1.3 1.3z"/>
				<path class="s11" d="m29.6 23.1v1.5q-0.4 0-0.7-0.1c-1.4-0.4-2.6-1.3-3.1-2.7h2.5c0.7 0 1.3 0.6 1.3 1.3z"/>
				<path class="s11" d="m28.9 23.1v1.4c-1.4-0.4-2.6-1.3-3.1-2.7h1.8c0.7 0 1.3 0.6 1.3 1.3z"/>
				<path class="s12" d="m15 21.8h12.6c0.7 0 1.3 0.6 1.3 1.3v12.6c0 0.7-0.6 1.3-1.3 1.3h-12.6c-0.7 0-1.3-0.6-1.3-1.3v-12.6c0-0.7 0.6-1.3 1.3-1.3z"/>
				<path class="s0" d="m24.6 26.7h-2.5v6.8h-1.6v-6.8h-2.5v-1.4h6.6z"/>
			</g>
		</g>
		<path fill-rule="evenodd" class="s13" d="m29.5 2.3c15 0 27.1 12.1 27.1 27.1 0 15-12.1 27.2-27.1 27.2-15 0-27.2-12.2-27.2-27.2 0-15 12.2-27.1 27.2-27.1z"/>
	</g>
</svg>