<svg version="1.2" xmlns="http://www.w3.org/2000/svg" viewBox="0 0 59 59" width="59" height="59">
	<title>Logo-5</title>
	<defs>
		<linearGradient id="g1" x2="1" gradientUnits="userSpaceOnUse" gradientTransform="matrix(0,50,-50,0,29.543,4)">
			<stop offset="0" stop-color="#e2e2e2" stop-opacity="1"/>
			<stop offset="1" stop-color="#ffffff" stop-opacity="0"/>
		</linearGradient>
		<filter x="-50%" y="-50%" width="200%" height="200%" id="f1"> <feGaussianBlur stdDeviation="5"/> </filter>
		<linearGradient id="g2" x2="1" gradientUnits="userSpaceOnUse" gradientTransform="matrix(0,26.466,-26.466,0,29.556,24.957)">
			<stop offset="0" stop-color="#547ce3"/>
			<stop offset="1" stop-color="#75fb4c"/>
		</linearGradient>
		<linearGradient id="g3" x2="1" gradientUnits="userSpaceOnUse" gradientTransform="matrix(0,26.466,-26.466,0,29.556,22.957)">
			<stop offset="0" stop-color="#547ce3"/>
			<stop offset="1" stop-color="#75fb4c"/>
		</linearGradient>
	</defs>
	<style>
		.s0 { fill: #ffffff } 
		.s1 { opacity: .3;fill: url(#g1) } 
		.s2 { opacity: .5;fill: none;stroke: #e2e8f0;stroke-width: 2 } 
		.s3 { filter: url(#f1);fill: url(#g2) } 
		.s4 { fill: url(#g3) } 
	</style>
	<g>
		<path fill-rule="evenodd" class="s0" d="m29.5 4c13.9 0 25 11.2 25 25 0 13.8-11.1 25-25 25-13.8 0-25-11.2-25-25 0-13.8 11.2-25 25-25z"/>
		<path fill-rule="evenodd" class="s1" d="m29.5 4c13.9 0 25 11.2 25 25 0 13.8-11.1 25-25 25-13.8 0-25-11.2-25-25 0-13.8 11.2-25 25-25z"/>
		<path fill-rule="evenodd" class="s2" d="m29.5 3c14.4 0 26 11.6 26 26 0 14.4-11.6 26-26 26-14.3 0-26-11.6-26-26 0-14.4 11.7-26 26-26z"/>
		<g style="opacity: .6">
			<path fill-rule="evenodd" class="s3" d="m29.6 18c1.9 0 3.8 0.4 5.6 1.3 1.8 0.8 3.3 2.1 4.5 3.6 1.2 1.5 2.1 3.3 2.5 5.2 0.5 1.9 0.5 3.9 0 5.8-0.4 1.9-1.3 3.7-2.5 5.2-1.2 1.5-2.8 2.8-4.6 3.6-1.7 0.8-3.7 1.3-5.6 1.3-1.9 0-3.7-0.5-5.4-1.2l-6.4 1.1c-0.4 0.1-0.7 0-0.9-0.3-0.2-0.2-0.3-0.6-0.2-0.9l1.9-4.9c-1.2-1.9-1.8-4-1.9-6.2-0.1-2.4 0.4-4.7 1.5-6.8 1.1-2 2.8-3.8 4.8-5 2-1.2 4.3-1.8 6.7-1.8zm-6.1 11.1c-1 0-1.8 0.8-1.8 1.9 0 1 0.8 1.8 1.8 1.8 1.1 0 1.9-0.8 1.9-1.8 0-1.1-0.8-1.9-1.9-1.9zm0 1.9zm6.1 1.8c1 0 1.8-0.8 1.8-1.8 0-1.1-0.8-1.9-1.8-1.9-1.1 0-1.9 0.8-1.9 1.9 0 1 0.8 1.8 1.9 1.8zm0-1.8h-0.1 0.1zm6-1.9c-1 0-1.9 0.8-1.9 1.9 0 1 0.9 1.8 1.9 1.8 1 0 1.8-0.8 1.8-1.8 0-1.1-0.8-1.9-1.8-1.9zm0 1.9z"/>
		</g>
		<path fill-rule="evenodd" class="s0" d="m29.4 32.5c-5.4 0-9.8-1.6-9.8-3.5 0-1.9 4.4-3.5 9.8-3.5 5.4 0 9.7 1.6 9.7 3.5 0 1.9-4.3 3.5-9.7 3.5z"/>
		<path fill-rule="evenodd" class="s4" d="m29.6 16c1.9 0 3.8 0.4 5.6 1.3 1.8 0.8 3.3 2.1 4.5 3.6 1.2 1.5 2.1 3.3 2.5 5.2 0.5 1.9 0.5 3.9 0 5.8-0.4 1.9-1.3 3.7-2.5 5.2-1.2 1.5-2.8 2.8-4.6 3.6-1.7 0.8-3.7 1.3-5.6 1.3-1.9 0-3.7-0.5-5.4-1.2l-6.4 1.1c-0.4 0.1-0.7 0-0.9-0.3-0.2-0.2-0.3-0.6-0.2-0.9l1.9-4.9c-1.2-1.9-1.8-4-1.9-6.2-0.1-2.4 0.4-4.7 1.5-6.8 1.1-2 2.8-3.8 4.8-5 2-1.2 4.3-1.8 6.7-1.8zm-6.1 11.1c-1 0-1.8 0.8-1.8 1.9 0 1 0.8 1.8 1.8 1.8 1.1 0 1.9-0.8 1.9-1.8 0-1.1-0.8-1.9-1.9-1.9zm0 1.9zm6.1 1.8c1 0 1.8-0.8 1.8-1.8 0-1.1-0.8-1.9-1.8-1.9-1.1 0-1.9 0.8-1.9 1.9 0 1 0.8 1.8 1.9 1.8zm0-1.8h-0.1 0.1zm6-1.9c-1 0-1.9 0.8-1.9 1.9 0 1 0.9 1.8 1.9 1.8 1 0 1.8-0.8 1.8-1.8 0-1.1-0.8-1.9-1.8-1.9zm0 1.9z"/>
	</g>
</svg>