<svg version="1.2" xmlns="http://www.w3.org/2000/svg" viewBox="0 0 59 59" width="59" height="59">
	<title>Logo-3</title>
	<defs>
		<clipPath clipPathUnits="userSpaceOnUse" id="cp1">
			<path d="m29.96 4.49c13.81 0 25 11.19 25 25 0 13.81-11.19 25-25 25-13.81 0-25-11.19-25-25 0-13.81 11.19-25 25-25z"/>
		</clipPath>
		<linearGradient id="g1" x2="1" gradientUnits="userSpaceOnUse" gradientTransform="matrix(0,50,-50,0,29.96,4.489)">
			<stop offset="0" stop-color="#e2e2e2" stop-opacity="1"/>
			<stop offset="1" stop-color="#ffffff" stop-opacity="0"/>
		</linearGradient>
		<filter x="-50%" y="-50%" width="200%" height="200%" id="f1"> <feGaussianBlur stdDeviation="6"/> </filter>
	</defs>
	<style>
		.s0 { fill: #ffffff } 
		.s1 { opacity: .3;fill: url(#g1) } 
		.s2 { filter: url(#f1);fill: #25d366 } 
		.s3 { fill: #25d366 } 
		.s4 { opacity: .5;fill: none;stroke: #e2e8f0;stroke-width: 2 } 
	</style>
	<g>
		<g id="Clip-Path" clip-path="url(#cp1)">
			<g>
				<path fill-rule="evenodd" class="s0" d="m30 4.5c13.8 0 25 11.2 25 25 0 13.8-11.2 25-25 25-13.8 0-25-11.2-25-25 0-13.8 11.2-25 25-25z"/>
				<path fill-rule="evenodd" class="s1" d="m30 4.5c13.8 0 25 11.2 25 25 0 13.8-11.2 25-25 25-13.8 0-25-11.2-25-25 0-13.8 11.2-25 25-25z"/>
				<g style="opacity: .5">
					<path class="s2" d="m30 13.6c-8.8 0-15.9 7.1-15.9 15.9 0 3.4 1.2 6.6 3.1 9.2l-2 5.9 6.1-1.9c2.5 1.6 5.5 2.6 8.7 2.6 8.7 0 15.8-7.1 15.8-15.8 0-8.8-7.1-15.9-15.8-15.9zm9.2 22.4c-0.4 1.1-1.9 2-3.1 2.2-0.8 0.2-1.9 0.3-5.6-1.2-4.6-1.9-7.6-6.6-7.8-6.9-0.3-0.3-1.9-2.5-1.9-4.8 0-2.3 1.1-3.4 1.6-3.9 0.4-0.4 1-0.5 1.6-0.5q0.3 0 0.5 0c0.5 0 0.7 0 1 0.8 0.4 0.9 1.4 3.2 1.5 3.4 0.1 0.2 0.2 0.5 0 0.9-0.1 0.3-0.2 0.4-0.5 0.7-0.2 0.3-0.4 0.5-0.7 0.7-0.2 0.3-0.4 0.6-0.2 1 0.3 0.5 1.2 2 2.6 3.2 1.8 1.6 3.2 2.1 3.7 2.3 0.4 0.2 0.9 0.1 1.1-0.2 0.4-0.3 0.8-1 1.3-1.6 0.3-0.4 0.7-0.5 1.1-0.3 0.4 0.1 2.7 1.2 3.2 1.5 0.4 0.2 0.7 0.3 0.9 0.5 0.1 0.2 0.1 1.1-0.3 2.2z"/>
				</g>
				<path fill-rule="evenodd" class="s0" d="m29.4 41c-6.5 0-11.7-5.1-11.7-11.3 0-6.2 5.2-11.2 11.7-11.2 6.5 0 11.7 5 11.7 11.2 0 6.2-5.2 11.3-11.7 11.3z"/>
				<path class="s3" d="m30 13.6c-8.8 0-15.9 7.1-15.9 15.9 0 3.4 1.2 6.6 3.1 9.2l-2 5.9 6.1-1.9c2.5 1.6 5.5 2.6 8.7 2.6 8.7 0 15.8-7.1 15.8-15.8 0-8.8-7.1-15.9-15.8-15.9zm9.2 22.4c-0.4 1.1-1.9 2-3.1 2.2-0.8 0.2-1.9 0.3-5.6-1.2-4.6-1.9-7.6-6.6-7.8-6.9-0.3-0.3-1.9-2.5-1.9-4.8 0-2.3 1.1-3.4 1.6-3.9 0.4-0.4 1-0.5 1.6-0.5q0.3 0 0.5 0c0.5 0 0.7 0 1 0.8 0.4 0.9 1.4 3.2 1.5 3.4 0.1 0.2 0.2 0.5 0 0.9-0.1 0.3-0.2 0.4-0.5 0.7-0.2 0.3-0.4 0.5-0.7 0.7-0.2 0.3-0.4 0.6-0.2 1 0.3 0.5 1.2 2 2.6 3.2 1.8 1.6 3.2 2.1 3.7 2.3 0.4 0.2 0.9 0.1 1.1-0.2 0.4-0.3 0.8-1 1.3-1.6 0.3-0.4 0.7-0.5 1.1-0.3 0.4 0.1 2.7 1.2 3.2 1.5 0.4 0.2 0.7 0.3 0.9 0.5 0.1 0.2 0.1 1.1-0.3 2.2z"/>
			</g>
		</g>
		<path fill-rule="evenodd" class="s4" d="m30 3.5c14.3 0 26 11.6 26 26 0 14.3-11.7 26-26 26-14.4 0-26-11.7-26-26 0-14.4 11.6-26 26-26z"/>
	</g>
</svg>