<svg version="1.2" xmlns="http://www.w3.org/2000/svg" viewBox="0 0 59 59" width="59" height="59">
	<title>Logo-1</title>
	<defs>
		<linearGradient id="g1" x2="1" gradientUnits="userSpaceOnUse" gradientTransform="matrix(0,50,-50,0,29.176,4.59)">
			<stop offset="0" stop-color="#e2e2e2" stop-opacity="1"/>
			<stop offset="1" stop-color="#ffffff" stop-opacity="0"/>
		</linearGradient>
		<filter x="-50%" y="-50%" width="200%" height="200%" id="f1"> <feGaussianBlur stdDeviation="6"/> </filter>
		<linearGradient id="g2" x2="1" gradientUnits="userSpaceOnUse" gradientTransform="matrix(0,16.563,-27.544,0,29.189,21.284)">
			<stop offset="0" stop-color="#2b4cc7" stop-opacity="1"/>
			<stop offset="1" stop-color="#2b4cc7" stop-opacity=".2"/>
		</linearGradient>
		<linearGradient id="g3" x2="1" gradientUnits="userSpaceOnUse" gradientTransform="matrix(0,16.563,-46.303,0,29.189,21.284)">
			<stop offset="0" stop-color="#2b4cc7" stop-opacity="1"/>
			<stop offset="1" stop-color="#2b4cc7" stop-opacity=".2"/>
		</linearGradient>
		<linearGradient id="g4" x2="1" gradientUnits="userSpaceOnUse" gradientTransform="matrix(0,24.391,-40.561,0,29.189,21.284)">
			<stop offset="0" stop-color="#2b4cc7" stop-opacity="1"/>
			<stop offset="1" stop-color="#2fa0d0" stop-opacity=".6"/>
		</linearGradient>
		<linearGradient id="g5" x2="1" gradientUnits="userSpaceOnUse" gradientTransform="matrix(0,24.391,-68.184,0,29.189,21.284)">
			<stop offset="0" stop-color="#2b4cc7" stop-opacity="1"/>
			<stop offset="1" stop-color="#2fa0d0" stop-opacity=".6"/>
		</linearGradient>
	</defs>
	<style>
		.s0 { fill: #ffffff } 
		.s1 { opacity: .3;fill: url(#g1) } 
		.s2 { opacity: .5;fill: none;stroke: #e2e8f0;stroke-width: 2 } 
		.s3 { filter: url(#f1);fill: url(#g2) } 
		.s4 { filter: url(#f1);fill: url(#g3) } 
		.s5 { fill: url(#g4) } 
		.s6 { fill: url(#g5) } 
	</style>
	<g>
		<path fill-rule="evenodd" class="s0" d="m29.2 4.6c13.8 0 25 11.2 25 25 0 13.8-11.2 25-25 25-13.8 0-25-11.2-25-25 0-13.8 11.2-25 25-25z"/>
		<path fill-rule="evenodd" class="s1" d="m29.2 4.6c13.8 0 25 11.2 25 25 0 13.8-11.2 25-25 25-13.8 0-25-11.2-25-25 0-13.8 11.2-25 25-25z"/>
		<path fill-rule="evenodd" class="s2" d="m29.2 3.6c14.3 0 26 11.6 26 26 0 14.3-11.7 26-26 26-14.4 0-26-11.7-26-26 0-14.4 11.6-26 26-26z"/>
		<g style="opacity: .6">
			<path class="s3" d="m28.1 31.4l-10.7-7.8q0 0 0 0v11.9c0 1.3 1 2.3 2.3 2.3h19c1.3 0 2.3-1 2.3-2.3v-11.9q0 0 0 0l-10.8 7.8c-0.6 0.5-1.4 0.5-2.1 0z"/>
			<path class="s4" d="m30.2 28.5l9.6-6.9q-0.5-0.3-1.1-0.3h-19q-0.6 0-1.1 0.3l9.5 6.9c0.7 0.5 1.5 0.5 2.1 0z"/>
		</g>
		<path class="s5" d="m28.1 31.4l-10.7-7.8q0 0 0 0v11.9c0 1.3 1 2.3 2.3 2.3h19c1.3 0 2.3-1 2.3-2.3v-11.9q0 0 0 0l-10.8 7.8c-0.6 0.5-1.4 0.5-2.1 0z"/>
		<path class="s6" d="m30.2 28.5l9.6-6.9q-0.5-0.3-1.1-0.3h-19q-0.6 0-1.1 0.3l9.5 6.9c0.7 0.5 1.5 0.5 2.1 0z"/>
	</g>
</svg>