<svg version="1.2" xmlns="http://www.w3.org/2000/svg" viewBox="0 0 59 59" width="59" height="59">
	<title>Logo</title>
	<defs>
		<clipPath clipPathUnits="userSpaceOnUse" id="cp1">
			<path d="m29.64 4.06c13.81 0 25 11.2 25 25 0 13.81-11.19 25-25 25-13.8 0-25-11.19-25-25 0-13.8 11.2-25 25-25z"/>
		</clipPath>
		<linearGradient id="g1" x2="1" gradientUnits="userSpaceOnUse" gradientTransform="matrix(0,50,-50,0,29.644,4.064)">
			<stop offset="0" stop-color="#e2e2e2" stop-opacity="1"/>
			<stop offset="1" stop-color="#ffffff" stop-opacity="0"/>
		</linearGradient>
		<filter x="-50%" y="-50%" width="200%" height="200%" id="f1"> <feGaussianBlur stdDeviation="6"/> </filter>
	</defs>
	<style>
		.s0 { fill: #ffffff } 
		.s1 { opacity: .3;fill: url(#g1) } 
		.s2 { filter: url(#f1);fill: #e01e5a } 
		.s3 { filter: url(#f1);fill: #36c5f0 } 
		.s4 { filter: url(#f1);fill: #2eb67d } 
		.s5 { filter: url(#f1);fill: #ecb22e } 
		.s6 { fill: #e01e5a } 
		.s7 { fill: #36c5f0 } 
		.s8 { fill: #2eb67d } 
		.s9 { fill: #ecb22e } 
		.s10 { opacity: .5;fill: none;stroke: #e2e8f0;stroke-width: 2 } 
	</style>
	<g>
		<g id="Clip-Path" clip-path="url(#cp1)">
			<g>
				<path fill-rule="evenodd" class="s0" d="m29.6 4.1c13.9 0 25 11.2 25 25 0 13.8-11.1 25-25 25-13.8 0-25-11.2-25-25 0-13.8 11.2-25 25-25z"/>
				<path fill-rule="evenodd" class="s1" d="m29.6 4.1c13.9 0 25 11.2 25 25 0 13.8-11.1 25-25 25-13.8 0-25-11.2-25-25 0-13.8 11.2-25 25-25z"/>
				<g style="opacity: .3">
					<path class="s2" d="m20.5 36.2c0 1.9-1.5 3.3-3.3 3.3-1.9 0-3.4-1.4-3.4-3.3 0-1.8 1.5-3.3 3.4-3.3h3.3zm1.7 0c0-1.8 1.4-3.3 3.3-3.3 1.8 0 3.3 1.5 3.3 3.3v8.3c0 1.9-1.5 3.3-3.3 3.3-1.9 0-3.3-1.4-3.3-3.3z"/>
					<path class="s3" d="m25.5 22.9c-1.9 0-3.3-1.5-3.3-3.4 0-1.8 1.4-3.3 3.3-3.3 1.8 0 3.3 1.5 3.3 3.3v3.4zm0 1.7c1.9 0 3.3 1.4 3.3 3.3 0 1.8-1.4 3.3-3.3 3.3h-8.3c-1.9 0-3.4-1.5-3.4-3.3 0-1.9 1.5-3.3 3.4-3.3z"/>
					<path class="s4" d="m38.8 27.9c0-1.9 1.5-3.3 3.3-3.3 1.9 0 3.4 1.4 3.4 3.3 0 1.8-1.5 3.3-3.4 3.3h-3.3zm-1.6 0c0 1.8-1.5 3.3-3.4 3.3-1.8 0-3.3-1.5-3.3-3.3v-8.3c0-1.9 1.5-3.4 3.3-3.4 1.9 0 3.4 1.5 3.4 3.4z"/>
					<path class="s5" d="m33.8 41.2c1.9 0 3.4 1.5 3.4 3.3 0 1.9-1.5 3.4-3.4 3.4-1.8 0-3.3-1.5-3.3-3.4v-3.3zm0-1.7c-1.8 0-3.3-1.4-3.3-3.3 0-1.8 1.5-3.3 3.3-3.3h8.3c1.9 0 3.4 1.5 3.4 3.3 0 1.9-1.5 3.3-3.4 3.3z"/>
				</g>
				<path class="s6" d="m20.5 33.2c0 1.9-1.5 3.3-3.3 3.3-1.9 0-3.4-1.4-3.4-3.3 0-1.8 1.5-3.3 3.4-3.3h3.3zm1.7 0c0-1.8 1.4-3.3 3.3-3.3 1.8 0 3.3 1.5 3.3 3.3v8.3c0 1.9-1.5 3.3-3.3 3.3-1.9 0-3.3-1.4-3.3-3.3z"/>
				<path class="s7" d="m25.5 19.9c-1.9 0-3.3-1.5-3.3-3.4 0-1.8 1.4-3.3 3.3-3.3 1.8 0 3.3 1.5 3.3 3.3v3.4zm0 1.7c1.9 0 3.3 1.4 3.3 3.3 0 1.8-1.4 3.3-3.3 3.3h-8.3c-1.9 0-3.4-1.5-3.4-3.3 0-1.9 1.5-3.3 3.4-3.3z"/>
				<path class="s8" d="m38.8 24.9c0-1.9 1.5-3.3 3.3-3.3 1.9 0 3.4 1.4 3.4 3.3 0 1.8-1.5 3.3-3.4 3.3h-3.3zm-1.6 0c0 1.8-1.5 3.3-3.4 3.3-1.8 0-3.3-1.5-3.3-3.3v-8.3c0-1.9 1.5-3.4 3.3-3.4 1.9 0 3.4 1.5 3.4 3.4z"/>
				<path class="s9" d="m33.8 38.2c1.9 0 3.4 1.5 3.4 3.3 0 1.9-1.5 3.4-3.4 3.4-1.8 0-3.3-1.5-3.3-3.4v-3.3zm0-1.7c-1.8 0-3.3-1.4-3.3-3.3 0-1.8 1.5-3.3 3.3-3.3h8.3c1.9 0 3.4 1.5 3.4 3.3 0 1.9-1.5 3.3-3.4 3.3z"/>
			</g>
		</g>
		<path fill-rule="evenodd" class="s10" d="m29.6 3.1c14.4 0 26 11.6 26 26 0 14.3-11.6 26-26 26-14.3 0-26-11.7-26-26 0-14.4 11.7-26 26-26z"/>
	</g>
</svg>