<svg width="176" height="32" viewBox="0 0 176 32" fill="none" xmlns="http://www.w3.org/2000/svg">
<g clip-path="url(#clip0_52891_15599)">
<path d="M40.3984 21.0054L46.3006 4.63621H49.9664L55.8685 21.0054H52.733L51.3727 17.1321H44.8942L43.5339 21.0054H40.3984ZM45.7703 14.573H50.4966L48.145 7.65644L45.7703 14.573Z" fill="#000C8F"/>
<path d="M57.7925 21.0054V8.69393H60.4669L60.5361 10.792C61.2047 9.10892 62.588 8.41727 64.2249 8.41727C66.9455 8.41727 68.421 10.3309 68.421 13.0975V21.0054H65.4699V14.0427C65.4699 11.9678 64.9166 10.815 63.3258 10.815C61.735 10.815 60.7436 11.9678 60.7436 14.0427V21.0054H57.7925Z" fill="#000C8F"/>
<path d="M76.9259 24.7404C73.6751 24.7404 71.8768 23.334 71.3234 21.236L74.3667 21.0285C74.6664 21.9737 75.335 22.504 76.9259 22.504C78.7472 22.504 79.7617 21.7201 79.7617 19.991V18.4232C79.1853 19.6221 77.7789 20.406 76.1881 20.406C73.1217 20.406 70.9546 18.0082 70.9546 14.4347C70.9546 10.9072 73.0987 8.41727 76.142 8.41727C77.9172 8.41727 79.2544 9.27031 79.8539 10.6075V8.69393H82.7358V19.9218C82.7358 23.0804 80.4303 24.7404 76.9259 24.7404ZM76.8797 18.1005C78.6319 18.1005 79.7617 16.7172 79.7847 14.4116C79.8078 12.1292 78.655 10.7228 76.8797 10.7228C75.0814 10.7228 74.0209 12.1522 74.0209 14.4116C74.0209 16.671 75.1276 18.1005 76.8797 18.1005Z" fill="#000C8F"/>
<path d="M91.3896 21.2821C87.7008 21.2821 85.3491 18.746 85.3491 14.8497C85.3491 10.9764 87.7008 8.41727 91.3204 8.41727C94.8479 8.41727 97.1534 10.8611 97.1534 15.0111V15.6797H88.4155C88.5077 17.8469 89.6374 18.9305 91.4127 18.9305C92.7268 18.9305 93.6029 18.308 93.9718 17.2244L96.992 17.4088C96.3234 19.8066 94.2254 21.2821 91.3896 21.2821ZM88.4155 13.6969H94.1101C93.9718 11.6911 92.8882 10.7458 91.3204 10.7458C89.7296 10.7458 88.646 11.7833 88.4155 13.6969Z" fill="#000C8F"/>
<path d="M102.847 21.0054C101.048 21.0054 99.8955 20.1524 99.8955 18.1005V4.63621H102.847V17.8007C102.847 18.4463 103.169 18.723 103.769 18.723H104.668V21.0054H102.847Z" fill="#000C8F"/>
<path d="M107.113 21.0054V4.63621H113.453C117.281 4.63621 119.563 6.5959 119.563 9.84669C119.563 13.1205 117.281 15.1033 113.453 15.1033H110.11V21.0054H107.113ZM110.11 12.498H113.315C115.344 12.498 116.474 11.5989 116.474 9.84669C116.474 8.1406 115.367 7.24145 113.315 7.24145H110.11V12.498Z" fill="#000C8F"/>
<path d="M122.296 21.0054V4.63621H128.429C132.417 4.63621 134.538 5.99647 134.538 9.06281C134.538 10.9995 133.362 12.2905 131.31 12.5442C133.823 12.7978 135.23 14.2733 135.23 16.5097C135.23 19.5068 133.086 21.0054 129.259 21.0054H122.296ZM125.293 11.5067H128.336C130.296 11.5067 131.472 10.7458 131.472 9.33948C131.472 7.86394 130.365 7.17228 128.336 7.17228H125.293V11.5067ZM125.293 18.4693H129.12C130.988 18.4693 132.164 17.6855 132.164 16.1869C132.164 14.6652 131.011 13.8583 129.12 13.8583H125.293V18.4693Z" fill="#000C8F"/>
<path d="M137.105 21.0054L142.615 12.7978L137.151 4.63621H140.655L144.459 10.5153L148.171 4.63621H151.652L146.211 12.7517L151.722 21.0054H148.24L144.413 15.0341L140.586 21.0054H137.105Z" fill="#000C8F"/>
<path d="M153.247 21.0054V17.7777H156.613V21.0054H153.247Z" fill="#000C8F"/>
<path d="M163.036 21.2821C160.454 21.2821 158.748 20.0602 158.748 17.916C158.748 15.7949 160.062 14.6652 162.76 14.135L166.84 13.328C166.84 11.5989 166.033 10.6997 164.466 10.6997C163.036 10.6997 162.229 11.3683 161.953 12.6133L158.955 12.475C159.44 9.8928 161.422 8.41727 164.466 8.41727C167.97 8.41727 169.791 10.2617 169.791 13.5355V18.0082C169.791 18.6768 170.022 18.8613 170.483 18.8613H170.875V21.0054C170.668 21.0515 170.206 21.0976 169.791 21.0976C168.454 21.0976 167.463 20.6135 167.232 19.1149C166.61 20.429 165.042 21.2821 163.036 21.2821ZM163.636 19.138C165.595 19.138 166.84 17.893 166.84 16.0255V15.3338L163.659 15.9794C162.345 16.233 161.814 16.7863 161.814 17.6394C161.814 18.6077 162.46 19.138 163.636 19.138Z" fill="#000C8F"/>
<path d="M172.933 7.05701V4.42871H175.999V7.05701H172.933ZM172.979 21.0054V8.69393H175.93V21.0054H172.979Z" fill="#000C8F"/>
<path d="M28.2156 32.8945L32.8945 21.2267L25.1817 1.90537C24.7224 0.754657 23.6114 0 22.3723 0H11.8981C9.61742 0 7.57173 1.38621 6.71713 3.50568L0.270271 19.5943C-0.707173 22.0349 1.08748 24.6949 3.71002 24.6949H12.2293L16.8067 13.2734H11.0702L15.7385 1.63777L28.2156 32.8945Z" fill="#305CFD"/>
</g>
<defs>
<clipPath id="clip0_52891_15599">
<rect width="176" height="32" fill="white"/>
</clipPath>
</defs>
</svg>
