<svg width="194" height="36" viewBox="0 0 194 36" fill="none" xmlns="http://www.w3.org/2000/svg">
<path d="M44.9062 25.1068L51.3655 7.19217H55.3774L61.8367 25.1068H58.4052L56.9165 20.8678H49.8264L48.3378 25.1068H44.9062ZM50.7852 18.0671H55.9577L53.3841 10.4975L50.7852 18.0671Z" fill="#000C8F"/>
<path d="M63.9423 25.1068V11.633H66.8692L66.9449 13.9291C67.6766 12.0872 69.1905 11.3302 70.982 11.3302C73.9593 11.3302 75.5741 13.4244 75.5741 16.4523V25.1068H72.3445V17.4868C72.3445 15.2159 71.7389 13.9543 69.9979 13.9543C68.2569 13.9543 67.172 15.2159 67.172 17.4868V25.1068H63.9423Z" fill="#000C8F"/>
<path d="M84.8818 29.1943C81.3242 29.1943 79.3561 27.6552 78.7505 25.3591L82.0811 25.132C82.4091 26.1665 83.1408 26.7469 84.8818 26.7469C86.8751 26.7469 87.9853 25.889 87.9853 23.9966V22.2808C87.3545 23.5929 85.8154 24.4508 84.0744 24.4508C80.7186 24.4508 78.3468 21.8266 78.3468 17.9157C78.3468 14.0552 80.6934 11.3302 84.0239 11.3302C85.9668 11.3302 87.4302 12.2638 88.0862 13.7272V11.633H91.2402V23.9209C91.2402 27.3777 88.717 29.1943 84.8818 29.1943ZM84.8314 21.9276C86.749 21.9276 87.9853 20.4137 88.0105 17.8905C88.0358 15.3925 86.7742 13.8534 84.8314 13.8534C82.8633 13.8534 81.7026 15.4178 81.7026 17.8905C81.7026 20.3632 82.9138 21.9276 84.8314 21.9276Z" fill="#000C8F"/>
<path d="M100.711 25.4096C96.6739 25.4096 94.1002 22.6341 94.1002 18.3699C94.1002 14.1309 96.6739 11.3302 100.635 11.3302C104.496 11.3302 107.019 14.0048 107.019 18.5465V19.2782H97.4561C97.557 21.65 98.7933 22.8359 100.736 22.8359C102.174 22.8359 103.133 22.1547 103.537 20.9688L106.842 21.1706C106.111 23.7947 103.814 25.4096 100.711 25.4096ZM97.4561 17.1083H103.688C103.537 14.9131 102.351 13.8786 100.635 13.8786C98.8943 13.8786 97.7084 15.014 97.4561 17.1083Z" fill="#000C8F"/>
<path d="M113.249 25.1068C111.281 25.1068 110.02 24.1732 110.02 21.9276V7.19217H113.249V21.5996C113.249 22.3061 113.603 22.6088 114.259 22.6088H115.243V25.1068H113.249Z" fill="#000C8F"/>
<path d="M117.919 25.1068V7.19217H124.858C129.046 7.19217 131.544 9.33688 131.544 12.8946C131.544 16.4775 129.046 18.6474 124.858 18.6474H121.199V25.1068H117.919ZM121.199 15.7962H124.706C126.927 15.7962 128.163 14.8122 128.163 12.8946C128.163 11.0274 126.952 10.0434 124.706 10.0434H121.199V15.7962Z" fill="#000C8F"/>
<path d="M134.535 25.1068V7.19217H141.246C145.611 7.19217 147.933 8.68085 147.933 12.0367C147.933 14.1562 146.646 15.5691 144.4 15.8467C147.151 16.1242 148.69 17.7391 148.69 20.1866C148.69 23.4667 146.343 25.1068 142.155 25.1068H134.535ZM137.815 14.7113H141.145C143.29 14.7113 144.577 13.8786 144.577 12.3395C144.577 10.7246 143.366 9.96768 141.145 9.96768H137.815V14.7113ZM137.815 22.3313H142.003C144.047 22.3313 145.334 21.4734 145.334 19.8333C145.334 18.168 144.072 17.2849 142.003 17.2849H137.815V22.3313Z" fill="#000C8F"/>
<path d="M150.741 25.1068L156.772 16.1242L150.792 7.19217H154.627L158.79 13.6263L162.853 7.19217H166.662L160.708 16.0738L166.738 25.1068H162.928L158.74 18.5717L154.551 25.1068H150.741Z" fill="#000C8F"/>
<path d="M168.407 25.1068V21.5743H172.091V25.1068H168.407Z" fill="#000C8F"/>
<path d="M179.121 25.4096C176.295 25.4096 174.428 24.0723 174.428 21.7257C174.428 19.4044 175.866 18.168 178.818 17.5877L183.284 16.7046C183.284 14.8122 182.401 13.8282 180.685 13.8282C179.121 13.8282 178.238 14.5599 177.935 15.9224L174.655 15.771C175.185 12.945 177.355 11.3302 180.685 11.3302C184.521 11.3302 186.514 13.3487 186.514 16.9317V21.8266C186.514 22.5584 186.766 22.7602 187.271 22.7602H187.7V25.1068C187.473 25.1573 186.968 25.2077 186.514 25.2077C185.05 25.2077 183.965 24.6778 183.713 23.0378C183.032 24.476 181.316 25.4096 179.121 25.4096ZM179.777 23.063C181.922 23.063 183.284 21.7005 183.284 19.6567V18.8998L179.802 19.6062C178.364 19.8838 177.784 20.4894 177.784 21.4229C177.784 22.4827 178.49 23.063 179.777 23.063Z" fill="#000C8F"/>
<path d="M189.952 9.84152V6.96509H193.308V9.84152H189.952ZM190.003 25.1068V11.633H193.232V25.1068H190.003Z" fill="#000C8F"/>
<path d="M31.5715 36L36.6921 23.2307L28.2513 2.08526C27.7486 0.825903 26.5327 0 25.1766 0H13.7137C11.2177 0 8.97887 1.51708 8.0436 3.83664L0.988167 21.4442C-0.0815471 24.1152 1.88252 27.0264 4.75263 27.0264H14.0761L19.0856 14.5265H12.8076L17.9165 1.79239L31.5715 36Z" fill="#305CFD"/>
</svg>
