<svg width="42" height="42" viewBox="0 0 42 42" fill="none" xmlns="http://www.w3.org/2000/svg">
<circle cx="21" cy="21" r="19.75" fill="white" stroke="url(#paint0_linear_53098_9663)" stroke-width="2.5"/>
<path d="M20.9998 5.61523C12.5135 5.61523 5.61523 12.5135 5.61523 20.9998C5.61523 29.4862 12.5135 36.3845 20.9998 36.3845C29.4862 36.3845 36.3845 29.4862 36.3845 20.9998C36.3845 12.5135 29.4862 5.61523 20.9998 5.61523ZM28.0966 18.3894L20.7616 25.7244C20.4639 26.0122 20.0867 26.1611 19.7095 26.1611C19.3224 26.1611 18.9452 26.0122 18.6475 25.7244L14.985 22.052C14.3993 21.4663 14.3993 20.5333 14.985 19.9477C15.5706 19.3621 16.5035 19.3621 17.0892 19.9477L19.7095 22.5582L25.9924 16.2753C26.5681 15.6996 27.511 15.6996 28.0967 16.2753C28.6723 16.8609 28.6723 17.8038 28.0966 18.3894Z" fill="#24B985"/>
<defs>
<linearGradient id="paint0_linear_53098_9663" x1="21" y1="0" x2="21" y2="42" gradientUnits="userSpaceOnUse">
<stop stop-color="#24B985"/>
<stop offset="1" stop-color="white"/>
</linearGradient>
</defs>
</svg>
