<svg width="100" height="26" viewBox="0 0 100 26" fill="none" xmlns="http://www.w3.org/2000/svg">
<path fill-rule="evenodd" clip-rule="evenodd" d="M4.66775 1.83004e-07H21.9789C23.1313 -0.000334075 24.2368 0.457238 25.0518 1.27203C25.8667 2.08681 26.3247 3.19203 26.3247 4.34448V21.6542C26.3247 24.0544 24.3789 26 21.9789 26H4.66775C2.26814 25.9993 0.323242 24.0539 0.323242 21.6542V4.34448C0.323242 1.94508 2.26834 1.83004e-07 4.66775 1.83004e-07ZM20.2292 21.2733C20.9865 21.2733 21.6005 20.6594 21.6005 19.9021L21.5967 6.09916C21.5967 5.34187 20.9827 4.72796 20.2254 4.72796H6.42371C6.05982 4.72796 5.71085 4.8726 5.45366 5.13002C5.19648 5.38745 5.05216 5.73655 5.05249 6.10043V19.9021C5.05249 20.6594 5.6664 21.2733 6.42371 21.2733H20.2292Z" fill="#525665"/>
<path d="M10.5665 16.525C10.1342 16.5216 9.78564 16.1702 9.78565 15.7379V10.2278C9.78465 10.0184 9.86713 9.81721 10.0149 9.66877C10.1626 9.52034 10.3634 9.43689 10.5728 9.43689H16.0905C16.2998 9.43722 16.5004 9.52078 16.6481 9.66914C16.7957 9.81752 16.8783 10.0185 16.8776 10.2278V15.7366C16.8783 15.9459 16.7957 16.1469 16.6481 16.2953C16.5004 16.4437 16.2998 16.5272 16.0905 16.5276L10.5665 16.525Z" fill="#525665"/>
<path d="M39.5558 11.8414C38.751 11.6219 37.989 11.415 37.3974 11.1514C36.3024 10.6619 35.7928 9.98324 35.7928 9.01696C35.7928 7.19037 37.5588 6.36789 39.3174 6.36789C40.9887 6.36789 42.4483 7.05917 43.4285 8.31307L43.4953 8.39885L44.9081 7.29381L44.8401 7.20802C43.537 5.55046 41.6069 4.64221 39.4031 4.64221C37.9361 4.64221 36.5913 5.03831 35.6188 5.7586C34.5238 6.55963 33.946 7.72144 33.946 9.10778C33.946 12.3309 36.981 13.1167 39.4208 13.7487C41.8895 14.3996 43.402 14.8941 43.402 16.7762C43.402 18.6293 41.9034 19.8264 39.5847 19.8264C38.4381 19.8264 36.3151 19.5225 34.9805 17.484L34.9186 17.388L33.4326 18.464L33.4906 18.5511C34.7521 20.461 36.9294 21.5572 39.4713 21.5572C42.9239 21.5572 45.245 19.6082 45.245 16.7094C45.245 13.3917 42.0888 12.5326 39.5558 11.8414Z" fill="#525665"/>
<path fill-rule="evenodd" clip-rule="evenodd" d="M56.5054 11.1717V9.42705H58.1667V25.9977H56.5054V19.5238C55.5567 20.8244 54.1338 21.5358 52.461 21.5358C49.3024 21.5358 47.0947 19.0066 47.0947 15.3547C47.0947 11.7027 49.3073 9.15332 52.461 9.15332C54.1225 9.15332 55.5454 9.86857 56.5054 11.1717ZM48.8457 15.3345C48.8457 18.7152 50.782 19.9199 52.5947 19.9199L52.5985 19.9211C54.9714 19.9211 56.5054 18.1046 56.5054 15.3345C56.5054 12.5643 54.9689 10.773 52.5947 10.773C49.8309 10.773 48.8457 13.1294 48.8457 15.3345Z" fill="#525665"/>
<path d="M69.151 9.42664V15.9673C69.151 18.2569 67.583 19.9195 65.4233 19.9195C63.6295 19.9195 62.7566 18.8548 62.7566 16.6662V9.42664H61.0952V17.0055C61.0952 19.8437 62.638 21.5379 65.2214 21.5379C66.8311 21.5379 68.2137 20.8555 69.1522 19.6079V21.268H70.8136V9.42664H69.151Z" fill="#525665"/>
<path fill-rule="evenodd" clip-rule="evenodd" d="M73.9434 10.6705C75.1682 9.708 76.8308 9.15674 78.5023 9.15674C81.1426 9.15674 82.7181 10.4699 82.7131 12.6724V21.2706H81.0505V19.9574C80.2116 21.0081 78.9981 21.5405 77.4364 21.5405C74.8919 21.5405 73.3101 20.1491 73.3101 17.9113C73.3101 15.0011 76.0525 14.5444 77.2207 14.3501C77.4111 14.3187 77.6079 14.2884 77.8045 14.2581L77.8119 14.257C79.4079 14.0113 81.0555 13.7578 81.0555 12.4038C81.0555 10.8711 79.0661 10.7525 78.4569 10.7525C77.3809 10.7525 75.8608 11.0716 74.8276 11.9672L74.7331 12.0492L73.8652 10.7323L73.9434 10.6705ZM75.0446 17.8179C75.0446 19.7152 76.8308 19.9207 77.5991 19.9207C79.2694 19.9207 81.0581 19.0302 81.0543 16.5275V14.8143C80.2439 15.3262 79.0906 15.5261 78.0618 15.7045L78.0445 15.7076L77.5285 15.7996C75.881 16.1049 75.0446 16.4984 75.0446 17.8179Z" fill="#525665"/>
<path d="M92.3364 9.65062C91.9416 9.36932 91.3197 9.20154 90.6713 9.20154C89.3389 9.21905 88.0922 9.86136 87.3044 10.9361V9.4223H85.6431V21.2624H87.3044V14.9299C87.3044 12.1219 88.8826 10.8641 90.4454 10.8641C90.9029 10.858 91.3558 10.9541 91.7713 11.1455L91.8836 11.2047L92.4096 9.69856L92.3364 9.65062Z" fill="#525665"/>
<path fill-rule="evenodd" clip-rule="evenodd" d="M92.8237 15.3795C92.8237 11.7162 95.1082 9.15674 98.3742 9.15674C101.52 9.15674 103.719 11.4286 103.713 14.6869C103.712 14.9702 103.696 15.2531 103.666 15.5347L103.656 15.6318H94.5733C94.6149 18.2392 96.1843 19.9207 98.5923 19.9207C99.9725 19.9207 101.168 19.3595 101.959 18.3389L102.031 18.2456L103.235 19.3178L103.168 19.3985C102.368 20.3736 100.91 21.5368 98.5003 21.5368C95.1069 21.5368 92.8237 19.063 92.8237 15.3795ZM98.3287 10.7512C96.299 10.7512 94.8597 12.0871 94.6351 14.1673H101.957C101.813 12.4945 100.791 10.7512 98.3287 10.7512Z" fill="#525665"/>
</svg>
