<svg width="74" height="30" viewBox="0 0 74 30" fill="none" xmlns="http://www.w3.org/2000/svg">
<path d="M67.6408 21.0131C67.4455 21.0131 67.311 20.8777 67.311 20.683V11.0107H64.0252C63.8299 11.0107 63.6951 10.8759 63.6951 10.681V9.34679C63.6951 9.15142 63.8299 9.01625 64.0252 9.01625H72.7714C72.9666 9.01625 73.101 9.15156 73.101 9.34679V10.6809C73.101 10.8757 72.9666 11.0107 72.7714 11.0107H69.4859V20.6829C69.4859 20.8777 69.3507 21.0131 69.156 21.0131H67.6408ZM42.4711 16.1842L40.7463 11.2359L39.006 16.1842H42.4711ZM46.2966 20.6223C46.372 20.8178 46.2518 21.0131 46.0417 21.0131H44.4818C44.2567 21.0131 44.1215 20.9085 44.0463 20.6976L43.1616 18.1491H38.3165L37.4302 20.6976C37.3558 20.9085 37.2203 21.0131 36.9957 21.0131H35.526C35.3307 21.0131 35.1955 20.8177 35.2706 20.6223L39.3359 9.31679C39.4111 9.10617 39.5461 9.01676 39.7707 9.01676H41.7809C42.0062 9.01676 42.1562 9.10624 42.2312 9.31679L46.2966 20.6223ZM57.9495 19.3933C58.9092 19.3933 59.5545 18.9292 60.0797 18.134L57.6499 15.5245C56.7194 16.0497 56.119 16.5739 56.119 17.6239C56.1191 18.6588 56.9588 19.3933 57.9495 19.3933ZM58.6244 10.6057C57.8446 10.6057 57.3946 11.1011 57.3946 11.7608C57.3946 12.2705 57.6641 12.7205 58.2794 13.3805C59.3444 12.7652 59.7947 12.3905 59.7947 11.7309C59.7947 11.1156 59.4048 10.6057 58.6244 10.6057ZM65.2707 20.5932C65.4655 20.8033 65.3457 21.0131 65.105 21.0131H63.1999C62.9449 21.0131 62.8099 20.9528 62.645 20.7577L61.5049 19.4986C60.7399 20.5184 59.6739 21.2829 57.9042 21.2829C55.7141 21.2829 53.9884 19.9634 53.9884 17.6995C53.9884 15.9595 54.919 15.0295 56.3293 14.2499C55.6387 13.4552 55.3243 12.6154 55.3243 11.881C55.3243 10.021 56.6293 8.74658 58.5942 8.74658C60.6044 8.74658 61.8348 9.93167 61.8348 11.6858C61.8348 13.1854 60.7549 14.0244 59.6144 14.6547L61.2948 16.4697L62.2398 14.8196C62.3597 14.625 62.4948 14.5497 62.7344 14.5497H64.1893C64.4297 14.5497 64.5647 14.7151 64.4152 14.9699L62.7347 17.8486L65.2707 20.5932ZM50.2995 21.0131C50.4945 21.0131 50.6302 20.8777 50.6302 20.683V11.0107H53.915C54.11 11.0107 54.2449 10.8759 54.2449 10.681V9.34679C54.2449 9.15142 54.11 9.01625 53.915 9.01625H45.1688C44.9735 9.01625 44.8388 9.15156 44.8388 9.34679V10.6809C44.8388 10.8757 44.9736 11.0107 45.1688 11.0107H48.4537V20.6829C48.4537 20.8777 48.5891 21.0131 48.7839 21.0131H50.2995Z" fill="#525665"/>
<path d="M5.9028 26.8474C8.44693 28.8167 11.6403 30 15.1049 30C18.8963 30 22.3527 28.5924 24.9906 26.2818C25.0226 26.2535 25.0068 26.2348 24.9753 26.2535C23.7916 27.0441 20.4178 28.7697 15.105 28.7697C10.4879 28.7697 7.57011 27.7396 5.92236 26.8199C5.89083 26.8043 5.87915 26.828 5.9028 26.8474ZM16.1235 27.6141C19.8163 27.6141 23.8743 26.6075 26.3013 24.6148C26.9654 24.0719 27.598 23.3493 28.1646 22.3782C28.4908 21.8195 28.8098 21.1556 29.0696 20.5031C29.0811 20.4712 29.0615 20.4558 29.0376 20.4915C26.7806 23.8128 20.245 25.8844 13.4967 25.8844C8.72668 25.8844 3.59425 24.3591 1.58487 21.4466C1.56509 21.4197 1.54531 21.4312 1.55736 21.4621C3.42924 25.4407 9.10809 27.6141 16.1235 27.6141ZM12.0887 21.0139C4.40839 21.0139 0.786941 17.4369 0.130016 14.9958C0.121915 14.9605 0.0986328 14.9682 0.0986328 15C0.0986328 15.8217 0.180885 16.8823 0.3224 17.5862C0.38991 17.9288 0.668781 18.4666 1.07763 18.8952C2.9374 20.8337 7.57405 23.5499 15.604 23.5499C26.5445 23.5499 29.046 19.9056 29.5568 18.7072C29.9221 17.8501 30.1113 16.3012 30.1113 15C30.1113 14.6852 30.1034 14.4337 30.0915 14.1868C30.0915 14.1467 30.0683 14.1434 30.0603 14.1825C29.5136 17.115 20.1662 21.0139 12.0887 21.0139ZM1.54531 8.56494C1.10522 9.43833 0.6174 10.9118 0.472382 11.6744C0.408813 12.0011 0.43589 12.158 0.550474 12.4019C1.47102 14.3549 6.1273 17.4799 16.9886 17.4799C23.6147 17.4799 28.7621 15.852 29.596 12.8814C29.7496 12.3346 29.7578 11.7572 29.5606 10.9792C29.3402 10.1098 28.9274 9.09604 28.578 8.38417C28.5665 8.36096 28.5461 8.36439 28.5503 8.39183C28.68 12.2881 17.8144 14.7992 12.3321 14.7992C6.39383 14.7992 1.43963 12.4332 1.43963 9.44577C1.43963 9.15873 1.49904 8.87162 1.57319 8.57283C1.58064 8.54553 1.55728 8.54101 1.54531 8.56494ZM25.0149 3.78115C25.078 3.87997 25.1094 3.98543 25.1094 4.12738C25.1094 5.79401 20.0086 8.74236 11.8886 8.74236C5.92236 8.74236 4.80534 6.52909 4.80534 5.12155C4.80534 4.61841 4.99831 4.10359 5.4233 3.58074C5.44651 3.54965 5.4268 3.53768 5.40001 3.56082C4.62493 4.21766 3.91276 4.95676 3.28802 5.7546C2.98951 6.13192 2.80421 6.46618 2.80421 6.66645C2.80421 9.58334 10.1183 11.6982 16.9573 11.6982C24.2442 11.6982 27.4964 9.31944 27.4964 7.22892C27.4964 6.4818 27.2055 6.04566 26.4615 5.20008C25.9786 4.65001 25.5218 4.20212 25.0383 3.76123C25.0149 3.74196 24.9987 3.75765 25.0149 3.78115ZM22.781 2.11489C20.5321 0.766901 17.9205 0 15.105 0C12.2699 0 9.57964 0.793686 7.32262 2.17736C6.64563 2.59402 6.26458 2.92792 6.26458 3.35713C6.26458 4.62235 9.22151 5.98275 14.4675 5.98275C19.659 5.98275 23.6857 4.49266 23.6857 3.05834C23.6857 2.71597 23.3865 2.47644 22.781 2.11489Z" fill="#525665"/>
</svg>
