<svg width="93" height="26" viewBox="0 0 93 26" fill="none" xmlns="http://www.w3.org/2000/svg">
<path d="M10.4682 4.30444V11.6352H3.73338V4.30444H0.538086V21.8039H3.73424V14.7111H10.4674V21.8039H13.6644V4.30444H10.4682ZM23.8947 16.1478C23.8947 16.8492 23.616 17.5219 23.12 18.0179C22.6241 18.5138 21.9514 18.7925 21.2499 18.7925C20.5485 18.7925 19.8758 18.5138 19.3798 18.0179C18.8839 17.5219 18.6052 16.8492 18.6052 16.1478V8.65185H15.5734V16.1478C15.5734 17.6518 16.1709 19.0942 17.2344 20.1577C18.2979 21.2212 19.7403 21.8186 21.2443 21.8186C22.7483 21.8186 24.1908 21.2212 25.2543 20.1577C26.3178 19.0942 26.9152 17.6518 26.9152 16.1478V8.65185H23.8947V16.1478ZM46.3594 9.42428C46.3594 7.8872 47.3758 7.40022 48.4891 7.40022C49.3869 7.40022 50.572 8.08355 51.3479 8.91221L53.333 6.57156C52.3417 5.23084 50.3315 4.30444 48.6854 4.30444C45.3958 4.30444 43.0171 6.23076 43.0171 9.42428C43.0171 15.3494 50.2588 13.4689 50.2588 16.7853C50.2588 17.8077 49.2658 18.7107 48.1292 18.7107C46.3361 18.7107 45.7548 17.8345 44.9313 16.9072L42.7273 19.1986C44.1373 20.9285 45.8759 21.8074 47.9579 21.8074C51.0832 21.8074 53.5968 19.8577 53.5968 16.8095C53.5968 10.2322 46.3542 12.2761 46.3542 9.42428M91.1609 19.0083C89.3696 19.0083 88.8601 18.2333 88.8601 17.0465V11.7917H91.6454V9.12932H88.8601V5.61662L85.7859 6.99627V17.6996C85.7859 20.4372 87.675 21.8169 90.2648 21.8169C90.6714 21.8238 91.0779 21.7909 91.4775 21.72L92.2275 18.959C91.8893 18.9823 91.5009 19.0057 91.1609 19.0057M35.4354 8.73921C33.9338 8.73921 32.8854 9.17516 31.8716 10.169V4.40911H28.8355V15.0856C28.8355 19.0818 31.7246 21.8203 34.9718 21.8203C38.5736 21.8203 41.7421 19.0334 41.7421 15.2811C41.7421 11.5755 38.8262 8.74181 35.4354 8.74181M35.4164 18.7644C34.9639 18.7644 34.5158 18.6752 34.0978 18.5021C33.6797 18.3289 33.2999 18.0751 32.9799 17.7551C32.6599 17.4352 32.4061 17.0553 32.233 16.6373C32.0598 16.2193 31.9707 15.7712 31.9707 15.3187C31.9707 14.8662 32.0598 14.4182 32.233 14.0001C32.4061 13.5821 32.6599 13.2022 32.9799 12.8823C33.2999 12.5623 33.6797 12.3085 34.0978 12.1353C34.5158 11.9622 34.9639 11.873 35.4164 11.873C36.3302 11.873 37.2067 12.2361 37.8529 12.8823C38.4991 13.5284 38.8621 14.4049 38.8621 15.3187C38.8621 16.2325 38.4991 17.109 37.8529 17.7551C37.2067 18.4013 36.3302 18.7644 35.4164 18.7644ZM68.409 15.1219C68.409 11.3627 65.2475 8.58265 61.6387 8.58265C58.3924 8.58265 55.5024 11.3203 55.5024 15.3174V25.9999H58.5386V20.2322C59.5506 21.2244 60.6007 21.6621 62.1006 21.6621C65.4914 21.6621 68.409 18.8284 68.409 15.1219ZM65.5338 15.0839C65.5338 15.9977 65.1707 16.8741 64.5245 17.5203C63.8783 18.1665 63.0019 18.5295 62.0881 18.5295C61.1742 18.5295 60.2978 18.1665 59.6516 17.5203C59.0054 16.8741 58.6424 15.9977 58.6424 15.0839C58.6424 14.17 59.0054 13.2936 59.6516 12.6474C60.2978 12.0012 61.1742 11.6382 62.0881 11.6382C63.0019 11.6382 63.8783 12.0012 64.5245 12.6474C65.1707 13.2936 65.5338 14.17 65.5338 15.0839Z" fill="#525665"/>
<path d="M78.2201 8.43531V5.38452C78.6232 5.1961 78.9646 4.89705 79.2044 4.52218C79.4442 4.14731 79.5726 3.71204 79.5747 3.26704V3.19698C79.5747 1.8995 78.5228 0.847682 77.2253 0.847682H77.1553C76.5322 0.847682 75.9346 1.0952 75.494 1.53577C75.0535 1.97635 74.8059 2.5739 74.8059 3.19698V3.26704C74.808 3.71204 74.9364 4.14731 75.1762 4.52218C75.416 4.89705 75.7574 5.1961 76.1605 5.38452V8.43531C75.0018 8.61273 73.9106 9.09315 72.9972 9.82793L64.6301 3.31115C64.6898 3.09577 64.721 2.87434 64.7244 2.65204C64.7255 2.12847 64.5712 1.61635 64.2811 1.18048C63.991 0.744597 63.5782 0.404536 63.0949 0.203305C62.6115 0.00207415 62.0793 -0.0512848 61.5656 0.0499774C61.0519 0.15124 60.5798 0.402574 60.209 0.772188C59.8382 1.1418 59.5853 1.61309 59.4823 2.12644C59.3794 2.63979 59.431 3.17214 59.6307 3.65615C59.8303 4.14016 60.169 4.55409 60.604 4.84557C61.0389 5.13706 61.5505 5.29301 62.0741 5.29369C62.5321 5.29154 62.9816 5.16925 63.3776 4.93905L71.6167 11.3503C70.8766 12.4684 70.4904 13.7836 70.5086 15.1244C70.5268 16.4652 70.9485 17.7694 71.7188 18.867L69.2129 21.3737C69.0103 21.3089 68.7993 21.2745 68.5866 21.2717C68.1569 21.272 67.7368 21.3997 67.3796 21.6387C67.0224 21.8777 66.7441 22.2172 66.5798 22.6143C66.4155 23.0114 66.3725 23.4484 66.4565 23.8699C66.5404 24.2913 66.7474 24.6785 67.0513 24.9824C67.3552 25.2863 67.7424 25.4933 68.1639 25.5772C68.5854 25.6611 69.0223 25.6182 69.4194 25.4539C69.8165 25.2896 70.156 25.0113 70.395 24.6541C70.634 24.2969 70.7617 23.8769 70.7621 23.4471C70.7593 23.2344 70.7249 23.0234 70.66 22.8208L73.1391 20.3409C73.9475 20.9633 74.8876 21.3924 75.8875 21.5953C76.8873 21.7982 77.9204 21.7695 78.9074 21.5115C79.8945 21.2535 80.8094 20.773 81.5821 20.1068C82.3548 19.4406 82.9647 18.6063 83.3651 17.668C83.7656 16.7297 83.9459 15.7121 83.8924 14.6933C83.8388 13.6745 83.5528 12.6815 83.0562 11.7903C82.5595 10.8991 81.8655 10.1334 81.0273 9.55189C80.189 8.97035 79.2287 8.58841 78.2201 8.43531ZM77.1925 18.4691C76.7343 18.4817 76.2783 18.4024 75.8513 18.2357C75.4243 18.0691 75.0351 17.8186 74.7065 17.499C74.378 17.1794 74.1169 16.7972 73.9386 16.375C73.7603 15.9528 73.6684 15.4991 73.6684 15.0408C73.6684 14.5824 73.7603 14.1287 73.9386 13.7065C74.1169 13.2843 74.378 12.9021 74.7065 12.5825C75.0351 12.2629 75.4243 12.0124 75.8513 11.8458C76.2783 11.6791 76.7343 11.5998 77.1925 11.6124C78.0804 11.6435 78.9217 12.018 79.5391 12.657C80.1564 13.296 80.5017 14.1497 80.5021 15.0382C80.5026 15.9267 80.1582 16.7808 79.5415 17.4204C78.9248 18.06 78.0839 18.4354 77.1959 18.4674" fill="#525665"/>
</svg>
