<svg width="152" height="26" viewBox="0 0 152 26" fill="none" xmlns="http://www.w3.org/2000/svg">
<path d="M59.7833 4.08762H44.4655V7.47485H50.121V21.9142H54.1339V7.47485H59.7893V4.08762M74.7642 15.8617C74.4553 16.6401 73.9528 17.3266 73.3042 17.8562C72.6556 18.3858 71.8824 18.741 71.0581 18.888C70.7522 18.9427 70.4422 18.9709 70.1315 18.9722C69.8127 18.9722 69.4998 18.9421 69.199 18.888C68.3753 18.7411 67.6029 18.386 66.9552 17.8563C66.3075 17.3265 65.8062 16.6399 65.4989 15.8617C65.1406 14.9495 64.9569 13.978 64.9574 12.9979C64.9576 12.0198 65.1413 11.0505 65.4989 10.1401C65.8059 9.36111 66.307 8.67355 66.9546 8.14281C67.6022 7.61208 68.3748 7.2558 69.199 7.10785C69.8155 6.9938 70.4476 6.9938 71.0641 7.10785C71.8876 7.25524 72.6597 7.61061 73.3073 8.14024C73.9549 8.66988 74.4564 9.35621 74.7642 10.1341C75.4824 11.9758 75.4824 14.0201 74.7642 15.8617ZM70.1315 3.55216C67.6256 3.55216 65.2222 4.54765 63.4502 6.31964C61.6783 8.09162 60.6828 10.495 60.6828 13.0009C60.6828 15.5069 61.6783 17.9102 63.4502 19.6822C65.2222 21.4542 67.6256 22.4497 70.1315 22.4497C72.6375 22.4497 75.0408 21.4542 76.8128 19.6822C78.5848 17.9102 79.5803 15.5069 79.5803 13.0009C79.5803 10.495 78.5848 8.09162 76.8128 6.31964C75.0408 4.54765 72.6375 3.55216 70.1315 3.55216ZM79.6374 4.09363H84.3663L88.7764 11.7525L93.1864 4.08762H97.9093L90.7798 15.3202V21.9142H86.7729V15.3202L79.6374 4.08762M107.433 18.9722C107.746 18.9722 108.059 18.9421 108.36 18.888C109.183 18.7411 109.956 18.386 110.604 17.8563C111.251 17.3265 111.753 16.6399 112.06 15.8617C112.782 14.023 112.782 11.9789 112.06 10.1401C111.753 9.36192 111.251 8.67529 110.604 8.14559C109.956 7.61588 109.183 7.26071 108.36 7.11387C107.743 7.00325 107.111 7.00325 106.495 7.11387C105.672 7.26165 104.901 7.61725 104.254 8.1469C103.608 8.67656 103.107 9.36268 102.801 10.1401C102.443 11.0504 102.259 12.0198 102.259 12.9979C102.259 14.0087 102.452 14.9773 102.801 15.8617C103.107 16.6402 103.609 17.3272 104.256 17.8569C104.904 18.3867 105.677 18.7417 106.501 18.888C106.808 18.9434 107.121 18.9716 107.433 18.9722ZM97.9875 12.9979C97.9875 10.4927 98.9827 8.09018 100.754 6.31876C102.525 4.54733 104.928 3.55216 107.433 3.55216C109.938 3.55216 112.341 4.54733 114.112 6.31876C115.884 8.09018 116.879 10.4927 116.879 12.9979C116.879 15.5031 115.884 17.9056 114.112 19.6771C112.341 21.4485 109.938 22.4437 107.433 22.4437C104.928 22.4437 102.525 21.4485 100.754 19.6771C98.9827 17.9056 97.9875 15.5031 97.9875 12.9979ZM144.236 14.863L141.612 7.81779L138.983 14.857H144.236M145.397 17.9795H137.816L136.354 21.9022H131.89L139.11 4.07558H144.103L151.323 21.9022H146.871L145.397 17.9795ZM133.069 4.08762H117.751V7.47485H123.407V21.9142H127.42V7.47485H133.063V4.08762M28.1009 1.72919C25.3086 0.882645 22.4031 0.468731 19.4854 0.50184C16.5678 0.468731 13.6623 0.882645 10.8699 1.72919C4.49256 3.78078 0.100586 8.04039 0.100586 12.9498C0.100586 19.8626 8.76421 25.5 19.4854 25.5C30.1826 25.5 38.8703 19.8867 38.8703 12.9498C38.8703 8.04039 34.4904 3.78078 28.1009 1.72919ZM19.4854 20.1153C17.8851 20.1153 16.5795 16.9868 16.5073 13.022C17.4579 13.1243 18.4566 13.1483 19.4854 13.1483C20.5082 13.1483 21.513 13.1002 22.4696 13.028C22.3914 16.9808 21.0858 20.1153 19.4854 20.1153ZM16.7059 9.9476C17.127 7.162 18.21 5.21268 19.4854 5.21268C20.7369 5.21268 21.8138 7.162 22.265 9.94158C20.4157 10.1069 18.5555 10.1089 16.7059 9.9476ZM23.9677 9.71897C23.3179 5.38716 21.5611 2.25863 19.4854 2.25863C17.4098 2.25863 15.653 5.36309 15.0032 9.71897C11.0685 9.09327 8.31298 7.71551 8.31298 6.08506C8.31298 3.88306 13.3246 2.1022 19.4854 2.1022C25.6462 2.1022 30.6639 3.88306 30.6639 6.08506C30.6639 7.70949 27.9084 9.11733 23.9737 9.71897H23.9677ZM2.9283 12.4986C2.9283 10.3687 3.75856 8.38935 5.18445 6.66264C5.16038 6.78297 5.16038 6.91533 5.16038 7.01159C5.16038 9.69491 9.16731 11.945 14.7505 12.7994V13.401C14.7505 18.3585 16.1343 22.57 18.0355 24.02C9.57041 23.5206 2.93431 18.5571 2.93431 12.4986H2.9283ZM20.9414 24.05C22.8426 22.5941 24.2204 18.3826 24.2204 13.4251V12.8234C29.8036 11.9992 33.8105 9.71897 33.8105 7.04167C33.8105 6.91533 33.8105 6.78898 33.7864 6.6867C35.2076 8.30239 36.0074 10.3711 36.0426 12.5226C36.0426 18.5571 29.4065 23.5206 20.9414 24.044V24.05Z" fill="#525665"/>
</svg>
