<svg width="106" height="26" viewBox="0 0 106 26" fill="none" xmlns="http://www.w3.org/2000/svg">
<path d="M13.1128 0C20.2922 6.04093e-05 26.1099 5.82057 26.1099 13C26.1098 20.1794 20.2922 25.9999 13.1128 26C5.93337 26 0.112818 20.1795 0.112793 13C0.112793 5.82053 5.93336 0 13.1128 0ZM17.7437 1.14648C15.0403 1.15614 12.0575 2.31463 9.87939 4.11523C7.64866 5.96384 5.89966 9.08111 5.91162 12.3174C5.92838 17.2133 9.64485 20.261 13.2153 20.249C17.6242 20.2347 20.2326 16.6141 20.2231 13.3086C20.2112 10.0055 18.415 7.61726 14.4575 6.65234C14.448 6.61172 14.4409 6.52298 14.4409 6.43945C14.4338 3.94361 16.3157 1.74161 18.6802 1.25195C18.4581 1.17553 18.0923 1.14648 17.7437 1.14648Z" fill="#525665"/>
<path d="M34.505 18.3834L30.5308 8.89917H33.1269L35.606 15.1973L38.0087 8.89917H40.4879L36.6307 18.3834H34.505Z" fill="#525665"/>
<path d="M47.4052 13.5919C47.4052 13.1978 47.3598 12.8228 47.2666 12.4669C47.1759 12.1111 47.0373 11.8053 46.8534 11.5498C46.6695 11.2918 46.4474 11.0888 46.1847 10.9384C45.922 10.7855 45.6139 10.7091 45.2604 10.7091C44.9069 10.7091 44.5964 10.7855 44.3361 10.9384C44.0734 11.0888 43.8489 11.2918 43.6673 11.5498C43.4834 11.8053 43.3449 12.1111 43.2542 12.4669C43.161 12.8228 43.1156 13.1978 43.1156 13.5919C43.1156 14.0003 43.161 14.38 43.2542 14.7287C43.3449 15.0774 43.4787 15.3831 43.6554 15.6459C43.8321 15.9086 44.0567 16.1163 44.3265 16.2692C44.594 16.4197 44.9069 16.4961 45.2604 16.4961C45.6139 16.4961 45.922 16.4197 46.1847 16.2692C46.4474 16.1163 46.6695 15.9086 46.8534 15.6459C47.0373 15.3831 47.1759 15.0774 47.2666 14.7287C47.3598 14.38 47.4052 14.0003 47.4052 13.5919ZM49.8055 13.6023C49.8055 14.2208 49.7099 14.8275 49.5212 15.4246C49.3302 16.0217 49.0483 16.5543 48.6734 17.0272C48.3008 17.5001 47.8279 17.8798 47.2571 18.1688C46.6863 18.4578 46.0199 18.6011 45.2604 18.6011C44.4985 18.6011 43.8321 18.4578 43.2637 18.1688C42.6929 17.8799 42.22 17.5001 41.845 17.0272C41.4724 16.5543 41.1906 16.0217 40.9995 15.4246C40.8109 14.8275 40.7153 14.2208 40.7153 13.6023C40.7153 12.9861 40.8109 12.3842 40.9995 11.7919C41.1906 11.2019 41.4724 10.6741 41.845 10.2084C42.22 9.74262 42.6929 9.37002 43.2637 9.08821C43.8321 8.80638 44.4985 8.66309 45.2604 8.66309C46.0199 8.66309 46.6839 8.80641 47.2475 9.08821C47.8112 9.37002 48.2841 9.74262 48.6638 10.2084C49.046 10.6741 49.3302 11.2019 49.5212 11.7919C49.7099 12.3842 49.8055 12.9861 49.8055 13.6023Z" fill="#525665"/>
<path d="M57.136 10.9864C56.6655 10.8025 56.2284 10.7093 55.8224 10.7093C55.4068 10.7093 55.0462 10.7906 54.7477 10.9482C54.4467 11.1057 54.1983 11.3183 54.0025 11.5882C53.8066 11.8581 53.661 12.1614 53.563 12.4982C53.4651 12.8326 53.415 13.1789 53.415 13.5348C53.415 13.9289 53.4579 14.3062 53.5439 14.6692C53.6275 15.0299 53.7589 15.3476 53.9356 15.6174C54.11 15.8873 54.3321 16.1047 54.5996 16.2695C54.8671 16.4319 55.1847 16.5155 55.5502 16.5155C55.8511 16.5155 56.1568 16.4319 56.4697 16.2695C56.7826 16.1046 57.0047 15.9088 57.136 15.6867L57.136 10.9864ZM57.3319 18.3832L57.234 17.6571C57.0118 17.9055 56.7181 18.1252 56.3503 18.3139C55.9848 18.505 55.5525 18.6005 55.0558 18.6005C54.4037 18.6005 53.8258 18.4621 53.3314 18.1873C52.8322 17.9127 52.4142 17.5449 52.0751 17.0863C51.7359 16.6277 51.4756 16.0951 51.2989 15.4909C51.1245 14.889 51.0361 14.2585 51.0361 13.6017C51.0361 12.9855 51.1269 12.3812 51.3084 11.7913C51.4923 11.2013 51.7694 10.6735 52.142 10.2078C52.5169 9.74203 52.9827 9.36945 53.5463 9.08762C54.1076 8.80579 54.7692 8.66247 55.5263 8.66247C56.023 8.66247 56.5604 8.75555 57.136 8.93714V5.25903H59.5746V18.3832H57.3319Z" fill="#525665"/>
<path d="M66.4423 13.9358C66.1796 13.9496 65.9073 13.9741 65.6302 14.0051C65.3532 14.0385 65.0905 14.0815 64.8397 14.134C64.3095 14.2391 63.9441 14.4183 63.7387 14.6738C63.5357 14.9318 63.4329 15.2088 63.4329 15.5122C63.4329 15.825 63.5476 16.0782 63.7793 16.2693C64.0109 16.458 64.3358 16.5535 64.7585 16.5535C65.0761 16.5535 65.3842 16.489 65.6804 16.3576C65.9766 16.2263 66.2321 16.0615 66.4423 15.8656V13.9358ZM66.6381 18.3758L66.5426 17.6664C66.2775 17.9578 65.9431 18.1871 65.5347 18.3519C65.1263 18.5167 64.6797 18.6003 64.1925 18.6003C63.7841 18.6003 63.39 18.531 63.0174 18.3925C62.64 18.2565 62.308 18.0581 62.019 17.8026C61.7301 17.547 61.496 17.2342 61.3193 16.8592C61.1401 16.4842 61.0518 16.0615 61.0518 15.5886C61.0518 15.1181 61.1425 14.7001 61.3288 14.3394C61.5127 13.9788 61.7611 13.6755 62.0787 13.4247C62.394 13.1763 62.757 12.9733 63.1655 12.8157C63.5715 12.6581 64.0014 12.5386 64.448 12.4598C64.7633 12.3953 65.1096 12.3474 65.4846 12.314C65.8595 12.2805 66.1724 12.252 66.4232 12.2256V12.0871C66.4232 11.5617 66.2894 11.1891 66.0172 10.9646C65.7473 10.7425 65.3747 10.6302 64.9018 10.6302C64.6248 10.6302 64.3596 10.6637 64.1089 10.7306C63.8581 10.795 63.636 10.8763 63.4377 10.9742C63.2395 11.0745 63.0651 11.1724 62.9123 11.2704C62.7618 11.3683 62.64 11.4566 62.5469 11.5354L61.7396 9.82536C61.8447 9.73229 62.0047 9.62236 62.2221 9.491C62.4394 9.35963 62.6997 9.23065 63.0102 9.10645C63.3183 8.98218 63.6646 8.87717 64.0515 8.79118C64.4385 8.70522 64.8564 8.66223 65.3007 8.66223C65.8261 8.66223 66.3062 8.73158 66.7385 8.87005C67.1707 9.00853 67.5457 9.22352 67.861 9.51967C68.1739 9.81344 68.4199 10.186 68.599 10.6398C68.7757 11.0912 68.8641 11.6382 68.8641 12.2806V18.3758H66.6381Z" fill="#525665"/>
<path d="M76.4025 7.4229C76.3237 7.38477 76.1709 7.32741 75.9416 7.25565C75.7099 7.18407 75.4066 7.1482 75.0245 7.1482C74.6853 7.1482 74.3987 7.25098 74.1694 7.45392C73.9401 7.65693 73.8255 7.98891 73.8255 8.44747V8.89888H75.8723V10.8669H73.8446V18.3831H71.4037V10.8669H70.145V8.89888H71.4037V8.38776C71.4037 7.77156 71.4825 7.25091 71.6401 6.82339C71.7978 6.39826 72.0175 6.04954 72.2993 5.78205C72.5811 5.51216 72.9131 5.31393 73.2929 5.18973C73.675 5.06546 74.0882 5.00342 74.5348 5.00342C75.1248 5.00342 75.612 5.05835 75.9989 5.17066C76.3858 5.28297 76.6127 5.35696 76.6772 5.39757L76.4025 7.4229Z" fill="#525665"/>
<path d="M83.0536 13.5919C83.0536 13.1978 83.0058 12.8228 82.9151 12.4669C82.8243 12.1111 82.6858 11.8053 82.5019 11.5498C82.318 11.2918 82.0958 11.0888 81.8331 10.9384C81.5704 10.7855 81.2623 10.7091 80.9088 10.7091C80.5554 10.7091 80.2449 10.7855 79.9845 10.9384C79.7218 11.0888 79.4973 11.2918 79.3134 11.5498C79.1319 11.8053 78.9934 12.1111 78.9002 12.4669C78.8094 12.8228 78.7641 13.1978 78.7641 13.5919C78.7641 14.0003 78.8094 14.38 78.9002 14.7287C78.9934 15.0774 79.1271 15.3831 79.3039 15.6459C79.4806 15.9086 79.7051 16.1163 79.9726 16.2692C80.2425 16.4197 80.5554 16.4961 80.9088 16.4961C81.2623 16.4961 81.5704 16.4197 81.8331 16.2692C82.0958 16.1163 82.318 15.9086 82.5019 15.6459C82.6858 15.3831 82.8243 15.0774 82.9151 14.7287C83.0058 14.38 83.0536 14.0003 83.0536 13.5919ZM85.4539 13.6023C85.4539 14.2208 85.3584 14.8275 85.1673 15.4246C84.9786 16.0217 84.6968 16.5543 84.3218 17.0272C83.9492 17.5001 83.4763 17.8798 82.9055 18.1688C82.3347 18.4578 81.6683 18.6011 80.9088 18.6011C80.1469 18.6011 79.4806 18.4578 78.9122 18.1688C78.3413 17.8799 77.8684 17.5001 77.4935 17.0272C77.1209 16.5543 76.8391 16.0217 76.648 15.4246C76.4569 14.8275 76.3638 14.2208 76.3638 13.6023C76.3638 12.9861 76.4569 12.3842 76.648 11.7919C76.8391 11.2019 77.1209 10.6741 77.4935 10.2084C77.8684 9.74262 78.3413 9.37002 78.9122 9.08821C79.4806 8.80638 80.1469 8.66309 80.9088 8.66309C81.6683 8.66309 82.3323 8.80641 82.896 9.08821C83.4596 9.37002 83.9325 9.74262 84.3123 10.2084C84.6944 10.6741 84.9786 11.2019 85.1673 11.7919C85.3584 12.3842 85.4539 12.9861 85.4539 13.6023Z" fill="#525665"/>
<path d="M93.0275 18.383V12.9733C93.0275 12.252 92.877 11.6931 92.5761 11.2991C92.2728 10.9074 91.8548 10.7091 91.315 10.7091C90.9353 10.7091 90.5842 10.807 90.2641 11.0053C89.9417 11.2011 89.6623 11.4185 89.4258 11.6549V18.383H86.9873V8.89872H89.2109L89.3279 9.6463C89.71 9.33343 90.1376 9.0898 90.6176 8.92022C91.0953 8.74829 91.5777 8.66467 92.0626 8.66467C92.5617 8.66467 93.0203 8.73868 93.4407 8.88917C93.861 9.04204 94.2217 9.28085 94.5226 9.60806C94.8259 9.93527 95.0576 10.3628 95.2224 10.8859C95.3848 11.4113 95.4684 12.0418 95.4684 12.7751V18.383H93.0275Z" fill="#525665"/>
<path d="M103.059 12.5004C103.033 12.1732 102.964 11.8866 102.852 11.6454C102.739 11.4017 102.601 11.2059 102.436 11.0554C102.271 10.9026 102.095 10.7927 101.903 10.7187C101.71 10.6471 101.517 10.6112 101.318 10.6112C100.896 10.6112 100.494 10.7688 100.112 11.0841C99.7301 11.3994 99.5055 11.8699 99.4387 12.5004H103.059ZM99.3814 14.2511C99.4339 15.0512 99.6823 15.6292 100.131 15.9827C100.578 16.3362 101.158 16.5153 101.868 16.5153C102.197 16.5153 102.508 16.4842 102.797 16.4269C103.086 16.3673 103.344 16.2931 103.568 16.2C103.793 16.1092 103.984 16.0161 104.141 15.9253C104.299 15.8323 104.416 15.7462 104.497 15.6674L105.147 17.6569C105.054 17.7214 104.906 17.8098 104.703 17.922C104.5 18.0343 104.246 18.137 103.946 18.2373C103.645 18.3352 103.289 18.4188 102.883 18.4928C102.477 18.5644 102.03 18.6003 101.545 18.6003C100.927 18.6003 100.341 18.5024 99.7826 18.3065C99.2261 18.1083 98.7365 17.8026 98.3185 17.3894C97.8982 16.9762 97.5638 16.4627 97.3154 15.8465C97.0646 15.2303 96.9404 14.4947 96.9404 13.642C96.9404 12.8419 97.0551 12.1326 97.2844 11.5164C97.5136 10.9002 97.8289 10.3819 98.2278 9.9615C98.629 9.54353 99.0948 9.22111 99.625 8.99659C100.158 8.77448 100.724 8.66223 101.328 8.66223C101.932 8.66223 102.489 8.76258 103.002 8.95838C103.513 9.15422 103.955 9.45996 104.33 9.87315C104.703 10.2863 104.999 10.8213 105.214 11.4781C105.431 12.1325 105.539 12.9136 105.539 13.8188V14.251L99.3814 14.2511Z" fill="#525665"/>
</svg>
