<svg width="114" height="26" viewBox="0 0 114 26" fill="none" xmlns="http://www.w3.org/2000/svg">
<path d="M15.3493 7.10168V25.4984H0.227539L15.3493 7.10168ZM15.3493 0.5C15.3493 2.52064 14.5527 4.45852 13.1348 5.88733C11.7168 7.31613 9.7937 8.11883 7.78843 8.11883C5.78315 8.11883 3.86001 7.31613 2.44207 5.88733C1.02413 4.45852 0.227539 2.52064 0.227539 0.5L15.3493 0.5ZM17.8405 25.5C17.8405 23.4794 18.6371 21.5415 20.055 20.1127C21.473 18.6839 23.3961 17.8812 25.4014 17.8812C27.4067 17.8812 29.3298 18.6839 30.7477 20.1127C32.1657 21.5415 32.9623 23.4794 32.9623 25.5H17.8405ZM17.8405 18.8983V0.5H32.9655L17.8405 18.8967V18.8983Z" fill="#525665"/>
<path d="M88.1936 18.7013C89.1864 18.7242 90.1476 18.3401 90.8678 17.6325L92.1936 19.1138C91.318 20.0457 90.1038 20.7383 88.2163 20.7383C84.9804 20.7383 82.8886 18.5153 82.8886 15.51C82.8755 14.8213 82.9965 14.1368 83.2445 13.4975C83.4925 12.8582 83.8624 12.2771 84.332 11.789C84.8017 11.3009 85.3616 10.9157 85.9782 10.6564C86.5948 10.397 87.2556 10.2689 87.921 10.2797C91.1342 10.2797 92.9556 12.8104 92.7945 16.3201H85.1993C85.4678 17.7779 86.459 18.7077 88.1874 18.7077M90.5003 14.6465C90.2938 13.285 89.5091 12.2825 87.9396 12.2825C86.4797 12.2825 85.4616 13.1375 85.1993 14.6465H90.5023H90.5003ZM38.3232 18.588L44.1673 12.4407H38.4616V10.5127H46.8786V12.4791L41.0346 18.6243H46.9612V20.5544H38.3232V18.588ZM53.5218 18.6991C54.5146 18.7221 55.4758 18.3379 56.196 17.6304L57.5218 19.1117C56.6462 20.0436 55.432 20.7361 53.5446 20.7361C50.3087 20.7361 48.2168 18.5132 48.2168 15.5079C48.2037 14.8191 48.3247 14.1347 48.5727 13.4954C48.8207 12.8561 49.1906 12.275 49.6603 11.7869C50.1299 11.2987 50.6898 10.9135 51.3064 10.6542C51.923 10.3949 52.5838 10.2668 53.2493 10.2776C56.4624 10.2776 58.2838 12.8083 58.1227 16.318H50.5317C50.8001 17.7757 51.7913 18.7055 53.5198 18.7055M55.8326 14.6444C55.6261 13.2828 54.8414 12.2803 53.272 12.2803C51.812 12.2803 50.7939 13.1353 50.5317 14.6444H55.8347H55.8326ZM70.7483 15.5058C70.7483 12.2996 73.0673 10.2818 75.6217 10.2818C76.2347 10.2734 76.842 10.4039 77.401 10.6642C77.96 10.9246 78.4572 11.3084 78.8576 11.7887V5.86371H80.9227V20.5266H78.8576V19.1437C78.4649 19.6438 77.9684 20.046 77.405 20.3206C76.8416 20.5951 76.2258 20.735 75.6032 20.7297C73.1251 20.7297 70.7504 18.6991 70.7504 15.5079M78.9733 15.4865C78.957 14.8596 78.7626 14.2516 78.4142 13.7385C78.0659 13.2253 77.5791 12.8299 77.0147 12.6017C76.4504 12.3734 75.8336 12.3225 75.2414 12.4552C74.6492 12.5879 74.108 12.8984 73.6854 13.3478C73.2628 13.7972 72.9777 14.3656 72.8656 14.982C72.7534 15.5983 72.8194 16.2351 73.0551 16.8128C73.2909 17.3906 73.686 17.8835 74.1909 18.2301C74.6959 18.5766 75.2884 18.7613 75.8943 18.7611C77.6703 18.7611 78.9712 17.2948 78.9712 15.4865M94.145 18.3935L96.016 17.3889C96.2633 17.8453 96.6264 18.2231 97.066 18.4815C97.5056 18.7399 98.0051 18.8691 98.5105 18.8552C99.6793 18.8552 100.286 18.2353 100.286 17.5299C100.286 16.7263 99.1569 16.5467 97.9282 16.2838C96.2761 15.9204 94.556 15.3583 94.556 13.2914C94.556 11.7032 96.016 10.2348 98.3143 10.2562C100.125 10.2562 101.474 11 102.238 12.2013L100.503 13.1845C100.264 12.8171 99.9374 12.5191 99.5555 12.3186C99.1735 12.1181 98.7485 12.0218 98.3205 12.0388C97.2095 12.0388 96.6437 12.601 96.6437 13.2443C96.6437 13.9668 97.5399 14.1677 98.9442 14.4905C100.542 14.8538 102.351 15.3946 102.351 17.4829C102.351 18.868 101.183 20.7361 98.4155 20.7169C96.3918 20.7169 94.9669 19.8726 94.1471 18.3871M107.962 16.0636L106.325 17.9125V20.5202H104.26V5.8573H106.325V15.4609L110.709 10.4806H113.224L109.424 14.7769L113.323 20.5224H110.985L107.964 16.0636H107.962ZM64.5078 10.2797C62.0504 10.2797 59.9957 11.9255 59.9957 14.6615V20.5288H62.102V14.9329C62.102 13.2871 63.0168 12.2996 64.5801 12.2996C66.1433 12.2996 66.9197 13.2828 66.9197 14.9329V20.5288H69.0137V14.6615C69.0137 11.9298 66.9486 10.2797 64.5016 10.2797" fill="#525665"/>
</svg>
