<svg width="146" height="26" viewBox="0 0 146 26" fill="none" xmlns="http://www.w3.org/2000/svg">
<path d="M17.5439 10.5142C17.4496 10.5142 17.3702 10.5167 17.3255 10.5217C17.2734 10.6167 17.1965 10.7442 17.0823 10.9217C18.8591 10.9217 20.4721 11.0692 22.2563 11.3916L21.7526 11.8815C20.142 11.5941 18.8045 11.4791 17.0997 11.4791C16.8516 11.4791 16.7994 11.4791 16.7399 11.4816C16.6803 11.5716 16.5463 11.7465 16.4123 11.9091C16.5637 11.8991 16.8565 11.8941 17.261 11.8941C18.6631 11.8941 19.9733 11.999 21.3952 12.229L20.8915 12.7214C19.8095 12.5515 18.4868 12.454 17.3007 12.454C16.8788 12.454 16.3999 12.469 15.9706 12.494C15.8738 12.6064 15.6207 12.8814 15.5438 12.9664C16.112 12.9064 16.7374 12.8789 17.4818 12.8789C18.5415 12.8789 19.554 12.9489 20.5118 13.0914L20.008 13.5788C19.3256 13.4939 18.4968 13.4439 17.7648 13.4439C15.8763 13.4439 14.3874 13.8563 12.8488 14.8037C14.3154 16.3885 16.7175 17.3908 19.0452 17.3908H19.2636L18.4497 18.1833C15.0921 17.5483 11.5584 16.061 8.57312 14.0237C5.70196 12.0715 4.69694 11.4941 2.45612 10.4968L2.44123 9.91681L3.95745 10.5717L4.47362 10.1593L9.42427 12.444L9.10166 12.7039L6.56058 11.5916L6.30994 11.7891L7.63015 12.5315C8.74437 13.1564 9.59301 13.4364 10.3772 13.4364C12.092 13.4364 13.6305 12.2115 14.6231 10.0593C15.3701 9.96179 16.1666 9.91681 17.1245 9.91681C19.0899 9.91681 20.9982 10.1068 23.1596 10.5142L22.6335 11.0266C21.2885 10.7442 19.003 10.5142 17.5439 10.5142ZM12.7322 24.7498C6.29173 24.7498 1.06738 19.4873 1.06738 12.9998C1.06738 6.51238 6.29173 1.24982 12.7322 1.24982C19.1726 1.24982 24.3969 6.51238 24.3969 12.9998C24.3969 19.4873 19.1726 24.7498 12.7322 24.7498ZM12.7322 0.499878C5.86983 0.499878 0.322754 6.08735 0.322754 12.9998C0.322754 19.9124 5.86983 25.4999 12.7322 25.4999C19.5945 25.4999 25.1416 19.9124 25.1416 12.9998C25.1416 6.08735 19.5945 0.499878 12.7322 0.499878ZM45.5165 17.9761H52.6312V21.3332H41.6873V4.66648H45.5165V17.9761ZM61.235 9.33319H64.8041V21.3332H61.4478V19.9523C60.9514 20.8808 59.9351 21.6903 58.0676 21.6903C55.0186 21.6903 53.4349 20.3093 53.4349 16.357V9.33319H57.0041V16.1903C57.0041 17.7856 57.6896 18.4998 59.1314 18.4998C60.4315 18.4998 61.235 17.7856 61.235 16.1903V9.33319ZM67.5461 8.88088C67.5461 5.97616 69.3663 4.42841 72.2263 4.42841C73.1482 4.42841 73.7391 4.57129 73.7391 4.57129V7.476C73.7391 7.476 73.2427 7.42855 72.8171 7.42855C71.7062 7.42855 71.1152 7.80949 71.1152 8.85706V9.33319H73.7391V12.2618H71.1152V21.3332H67.5461V12.2618H65.7498V9.33319H67.5461V8.88088ZM80.026 9.33319H82.7443V12.2618H80.026V16.9284C80.026 18.2142 80.6879 18.5475 81.7281 18.5475C82.1536 18.5475 82.7443 18.4761 82.7443 18.4761V21.357C82.7443 21.357 81.9172 21.5474 81.0428 21.5474C78.1827 21.5474 76.4573 20.238 76.4573 17.3333V12.2618H74.6607V9.33319H76.4573V5.83323H80.026V9.33319ZM90.6464 8.97607C93.6723 8.97607 95.2559 10.357 95.2559 14.3094V21.3332H91.6866V14.476C91.6866 12.8808 91.0013 12.1666 89.5123 12.1666C88.1645 12.1666 87.3614 12.8808 87.3614 14.476V21.3332H83.792V4.69035H87.3847V10.4998C87.9994 9.61883 88.9683 8.97607 90.6464 8.97607ZM104.356 16.6665C104.356 17.9761 103.127 18.9523 101.236 18.9523C100.314 18.9523 99.7702 18.5238 99.7702 17.7141C99.7702 17.0951 100.148 16.5714 101.354 16.4048L103.411 16.1189C103.765 16.0712 104.143 15.9999 104.356 15.9285V16.6665ZM102.371 8.97613C98.8486 8.97613 97.1465 10.3333 97.0053 12.8809H100.479C100.527 12.2142 100.905 11.7142 102.371 11.7142C103.671 11.7142 104.285 12.1428 104.285 12.7855C104.285 13.3572 103.93 13.5713 103.056 13.6665L100.787 13.9046C97.7139 14.2379 96.3194 15.5237 96.3194 17.8571C96.3194 20.0237 97.6432 21.6903 100.456 21.6903C102.371 21.6903 103.505 21.0713 104.498 19.8331V21.3332H107.76V13.4523C107.76 10.1428 105.845 8.97613 102.371 8.97613ZM116.013 8.97607C119.109 8.97607 120.693 10.357 120.693 14.3094V21.3332H117.124V14.476C117.124 12.8808 116.438 12.1666 114.949 12.1666C113.602 12.1666 112.798 12.8808 112.798 14.476V21.3332H109.229V9.33325H112.585V10.7143C113.082 9.78557 114.098 8.97607 116.013 8.97607ZM128.222 13.8094C131.247 14.2142 132.76 15.1666 132.76 17.6666C132.76 20.1904 130.988 21.6904 127.229 21.6904C123.14 21.6904 121.698 20.0476 121.627 17.6426H125.15C125.244 18.5238 125.858 18.9523 127.229 18.9523C128.624 18.9523 129.191 18.6189 129.191 17.9523C129.191 17.3333 128.718 17.0476 127.49 16.8809L126.236 16.7141C123.613 16.3571 122.1 15.3333 122.1 12.9523C122.1 10.6666 123.778 8.97607 127.3 8.97607C130.562 8.97607 132.312 10.2856 132.477 12.8808H129.002C128.884 12.1905 128.506 11.7618 127.3 11.7618C126.118 11.7618 125.67 12.1666 125.67 12.6905C125.67 13.2142 125.953 13.4999 126.969 13.6428L128.222 13.8094ZM141.695 16.6667C141.695 17.9761 140.466 18.9523 138.575 18.9523C137.653 18.9523 137.11 18.5238 137.11 17.7141C137.11 17.0951 137.488 16.5714 138.693 16.4048L140.749 16.1189C141.104 16.0715 141.482 15.9999 141.695 15.9285V16.6667ZM139.709 8.97613C136.188 8.97613 134.486 10.3333 134.344 12.8809H137.819C137.866 12.2142 138.244 11.7143 139.709 11.7143C141.01 11.7143 141.624 12.1428 141.624 12.7857C141.624 13.3572 141.27 13.5713 140.395 13.6665L138.126 13.9046C135.053 14.238 133.659 15.5237 133.659 17.8571C133.659 20.0237 134.982 21.6903 137.795 21.6903C139.709 21.6903 140.844 21.0713 141.837 19.8331V21.3332H145.099V13.4523C145.099 10.1429 143.184 8.97613 139.709 8.97613Z" fill="#525665"/>
</svg>
