<svg width="289" height="315" viewBox="0 0 289 315" fill="none" xmlns="http://www.w3.org/2000/svg">
<g opacity="0.67">
<g opacity="0.48" filter="url(#filter0_f_52986_3832)">
<circle cx="127.273" cy="116.994" r="66.1954" fill="#CA8EFF"/>
</g>
<g opacity="0.48" filter="url(#filter1_f_52986_3832)">
<circle cx="160.273" cy="140.994" r="66.1954" fill="#CA8EFF"/>
</g>
<g filter="url(#filter2_f_52986_3832)">
<circle cx="140.273" cy="198.14" r="66.1954" fill="#9DAAFF"/>
</g>
<g filter="url(#filter3_f_52986_3832)">
<circle cx="172.273" cy="174.14" r="66.1954" fill="#9DAAFF"/>
</g>
<g filter="url(#filter4_f_52986_3832)">
<circle cx="116.273" cy="158.14" r="66.1954" fill="#9DAAFF"/>
</g>
</g>
<g style="mix-blend-mode:soft-light">
<g opacity="0.48" filter="url(#filter5_f_52986_3832)">
<circle cx="127.273" cy="116.994" r="66.1954" fill="#CA8EFF"/>
</g>
<g opacity="0.48" filter="url(#filter6_f_52986_3832)">
<circle cx="160.273" cy="140.994" r="66.1954" fill="#CA8EFF"/>
</g>
<g filter="url(#filter7_f_52986_3832)">
<circle cx="140.273" cy="198.14" r="66.1954" fill="#9DAAFF"/>
</g>
<g filter="url(#filter8_f_52986_3832)">
<circle cx="172.273" cy="174.14" r="66.1954" fill="#9DAAFF"/>
</g>
<g filter="url(#filter9_f_52986_3832)">
<circle cx="116.273" cy="158.14" r="66.1954" fill="#9DAAFF"/>
</g>
</g>
<g opacity="0.15">
<g opacity="0.48" filter="url(#filter10_f_52986_3832)">
<circle cx="127.269" cy="116.994" r="66.1954" fill="#CA8EFF"/>
</g>
<g opacity="0.48" filter="url(#filter11_f_52986_3832)">
<circle cx="160.269" cy="140.994" r="66.1954" fill="#CA8EFF"/>
</g>
<g filter="url(#filter12_f_52986_3832)">
<circle cx="140.269" cy="198.14" r="66.1954" fill="#9DAAFF"/>
</g>
<g filter="url(#filter13_f_52986_3832)">
<circle cx="172.269" cy="174.14" r="66.1954" fill="#9DAAFF"/>
</g>
<g filter="url(#filter14_f_52986_3832)">
<circle cx="116.269" cy="158.14" r="66.1954" fill="#9DAAFF"/>
</g>
</g>
<g filter="url(#filter15_dddd_52986_3832)">
<circle cx="140.272" cy="148.994" r="77.8739" fill="#5462C2"/>
</g>
<g filter="url(#filter16_in_52986_3832)">
<circle cx="140.268" cy="148.994" r="73.0614" fill="#305CFD"/>
<circle cx="140.268" cy="148.994" r="73.0614" fill="url(#paint0_linear_52986_3832)" fill-opacity="0.79"/>
<circle cx="140.268" cy="148.994" r="73.0614" fill="url(#paint1_linear_52986_3832)" fill-opacity="0.9"/>
<circle cx="140.268" cy="148.994" r="71.8114" stroke="url(#paint2_linear_52986_3832)" stroke-width="2.5" style="mix-blend-mode:soft-light"/>
</g>
<mask id="mask0_52986_3832" style="mask-type:alpha" maskUnits="userSpaceOnUse" x="67" y="75" width="147" height="148">
<circle cx="140.268" cy="148.994" r="71.8114" fill="#305CFD"/>
<circle cx="140.268" cy="148.994" r="71.8114" fill="url(#paint3_linear_52986_3832)" fill-opacity="0.79"/>
<circle cx="140.268" cy="148.994" r="71.8114" fill="url(#paint4_linear_52986_3832)" fill-opacity="0.9"/>
<circle cx="140.268" cy="148.994" r="71.8114" stroke="url(#paint5_linear_52986_3832)" stroke-width="2.5"/>
</mask>
<g mask="url(#mask0_52986_3832)">
<g style="mix-blend-mode:plus-lighter" opacity="0.62">
<g style="mix-blend-mode:multiply">
<g filter="url(#filter17_f_52986_3832)">
<ellipse cx="19.8262" cy="38.2848" rx="19.8262" ry="38.2848" transform="matrix(0.975554 -0.219758 -0.219758 -0.975554 132.182 273.215)" fill="#282828"/>
</g>
<g filter="url(#filter18_f_52986_3832)">
<ellipse cx="19.8262" cy="38.2848" rx="19.8262" ry="38.2848" transform="matrix(0.968257 0.249957 0.249957 -0.968257 76.0259 267.322)" fill="#282828"/>
</g>
<g filter="url(#filter19_f_52986_3832)">
<ellipse cx="19.8262" cy="38.2848" rx="19.8262" ry="38.2848" transform="matrix(0.616806 0.787115 0.787115 -0.616806 27.77 220.771)" fill="#282828"/>
</g>
<g filter="url(#filter20_f_52986_3832)">
<ellipse cx="19.8262" cy="38.2848" rx="19.8262" ry="38.2848" transform="matrix(0.0111964 0.999937 0.999937 -0.0111964 24.0264 158.099)" fill="#282828"/>
</g>
<g filter="url(#filter21_f_52986_3832)">
<ellipse cx="19.8262" cy="38.2848" rx="19.8262" ry="38.2848" transform="matrix(0.975554 -0.219758 -0.219758 -0.975554 153.483 277.569)" fill="#282828"/>
</g>
<g filter="url(#filter22_f_52986_3832)">
<ellipse cx="19.8262" cy="38.2848" rx="19.8262" ry="38.2848" transform="matrix(0.998132 -0.061101 -0.061101 -0.998132 94.9658 260.05)" fill="#282828"/>
</g>
<g filter="url(#filter23_f_52986_3832)">
<ellipse cx="19.8262" cy="38.2848" rx="19.8262" ry="38.2848" transform="matrix(0.925844 -0.377907 -0.377907 -0.925844 184.84 273.784)" fill="#282828"/>
</g>
<g filter="url(#filter24_f_52986_3832)">
<ellipse cx="19.8262" cy="38.2848" rx="19.8262" ry="38.2848" transform="matrix(0.618057 -0.786133 -0.786133 -0.618057 230.03 254.292)" fill="#282828"/>
</g>
<g filter="url(#filter25_f_52986_3832)">
<ellipse cx="19.8262" cy="38.2848" rx="19.8262" ry="38.2848" transform="matrix(0.148723 -0.988879 -0.988879 -0.148723 262.378 221.883)" fill="#282828"/>
</g>
<g filter="url(#filter26_f_52986_3832)">
<ellipse cx="19.8262" cy="38.2848" rx="19.8262" ry="38.2848" transform="matrix(0.148723 -0.988879 -0.988879 -0.148723 271.39 189.883)" fill="#282828"/>
</g>
<g filter="url(#filter27_f_52986_3832)">
<ellipse cx="19.8262" cy="38.2848" rx="19.8262" ry="38.2848" transform="matrix(-0.359485 -0.933151 -0.933151 0.359485 274.481 177.721)" fill="#282828"/>
</g>
</g>
<g style="mix-blend-mode:plus-lighter" opacity="0.21" filter="url(#filter28_f_52986_3832)">
<ellipse cx="120.447" cy="71.1203" rx="19.8262" ry="38.2848" fill="white"/>
</g>
<g style="mix-blend-mode:plus-lighter" opacity="0.21" filter="url(#filter29_f_52986_3832)">
<ellipse cx="82.2533" cy="75.933" rx="19.8262" ry="38.2848" transform="rotate(-27.1698 82.2533 75.933)" fill="white"/>
</g>
<g style="mix-blend-mode:plus-lighter" opacity="0.21" filter="url(#filter30_f_52986_3832)">
<ellipse cx="53.3731" cy="105.447" rx="19.8262" ry="38.2849" transform="rotate(-64.6115 53.3731 105.447)" fill="white"/>
</g>
<g style="mix-blend-mode:plus-lighter" opacity="0.21" filter="url(#filter31_f_52986_3832)">
<ellipse cx="53.7069" cy="141.522" rx="19.8262" ry="38.2849" transform="rotate(-102.053 53.7069 141.522)" fill="white"/>
</g>
<g style="mix-blend-mode:plus-lighter" opacity="0.21" filter="url(#filter32_f_52986_3832)">
<ellipse cx="140.271" cy="62.1916" rx="19.8262" ry="38.2848" fill="white"/>
</g>
<g style="mix-blend-mode:plus-lighter" opacity="0.21" filter="url(#filter33_f_52986_3832)">
<ellipse cx="92.8942" cy="88.4841" rx="19.8262" ry="38.2848" transform="rotate(-9.19183 92.8942 88.4841)" fill="white"/>
</g>
<g style="mix-blend-mode:plus-lighter" opacity="0.21" filter="url(#filter34_f_52986_3832)">
<ellipse cx="165.096" cy="61.7432" rx="19.8262" ry="38.2848" transform="rotate(9.50925 165.096 61.7432)" fill="white"/>
</g>
<g style="mix-blend-mode:plus-lighter" opacity="0.21" filter="url(#filter35_f_52986_3832)">
<ellipse cx="191.452" cy="72.0044" rx="19.8262" ry="38.2848" transform="rotate(39.1307 191.452 72.0044)" fill="white"/>
</g>
<g style="mix-blend-mode:plus-lighter" opacity="0.21" filter="url(#filter36_f_52986_3832)">
<ellipse cx="210.417" cy="86.6547" rx="19.8262" ry="38.2848" transform="rotate(68.7522 210.417 86.6547)" fill="white"/>
</g>
<g style="mix-blend-mode:plus-lighter" opacity="0.21" filter="url(#filter37_f_52986_3832)">
<ellipse cx="219.662" cy="108.764" rx="19.8262" ry="38.2848" transform="rotate(98.3737 219.662 108.764)" fill="white"/>
</g>
<g style="mix-blend-mode:plus-lighter" opacity="0.21" filter="url(#filter38_f_52986_3832)">
<ellipse cx="220.662" cy="133.764" rx="19.8262" ry="38.2848" transform="rotate(98.3737 220.662 133.764)" fill="white"/>
</g>
</g>
</g>
<mask id="mask1_52986_3832" style="mask-type:alpha" maskUnits="userSpaceOnUse" x="67" y="75" width="147" height="148">
<circle cx="140.268" cy="148.994" r="71.8114" fill="#305CFD"/>
<circle cx="140.268" cy="148.994" r="71.8114" fill="url(#paint6_linear_52986_3832)" fill-opacity="0.79"/>
<circle cx="140.268" cy="148.994" r="71.8114" fill="url(#paint7_linear_52986_3832)" fill-opacity="0.9"/>
<circle cx="140.268" cy="148.994" r="71.8114" stroke="url(#paint8_linear_52986_3832)" stroke-width="2.5"/>
</mask>
<g mask="url(#mask1_52986_3832)">
<g style="mix-blend-mode:plus-lighter" opacity="0.4">
<circle cx="0.876897" cy="0.876897" r="0.876897" transform="matrix(-4.26491e-08 -1 -1 4.26491e-08 95.2505 213.146)" fill="#ACA0E4" fill-opacity="0.15"/>
<circle cx="0.876897" cy="0.876897" r="0.876897" transform="matrix(-4.26491e-08 -1 -1 4.26491e-08 93.1362 117.315)" fill="#ACA0E4"/>
<circle cx="1.31516" cy="1.31516" r="1.31516" transform="matrix(-4.26491e-08 -1 -1 4.26491e-08 179.532 103.545)" fill="#ACA0E4"/>
<circle cx="194.221" cy="160.322" r="0.594267" transform="rotate(-90 194.221 160.322)" fill="#ACA0E4"/>
<circle cx="1.31516" cy="1.31516" r="1.31516" transform="matrix(-4.26491e-08 -1 -1 4.26491e-08 91.4575 183.625)" fill="#ACA0E4" fill-opacity="0.15"/>
<circle cx="1.31516" cy="1.31516" r="1.31516" transform="matrix(-4.26491e-08 -1 -1 4.26491e-08 209.53 125.171)" fill="#ACA0E4" fill-opacity="0.1"/>
<circle cx="1.31516" cy="1.31516" r="1.31516" transform="matrix(-4.26491e-08 -1 -1 4.26491e-08 184.481 154.745)" fill="#ACA0E4" fill-opacity="0.15"/>
<circle cx="1.31516" cy="1.31516" r="1.31516" transform="matrix(-4.26491e-08 -1 -1 4.26491e-08 123.275 125.011)" fill="#ACA0E4" fill-opacity="0.1"/>
<circle cx="1.31516" cy="1.31516" r="1.31516" transform="matrix(-4.26491e-08 -1 -1 4.26491e-08 105.857 100.01)" fill="#ACA0E4"/>
<circle cx="0.438268" cy="0.438268" r="0.438268" transform="matrix(-4.26491e-08 -1 -1 4.26491e-08 135.549 186.998)" fill="#ACA0E4"/>
<circle cx="0.438268" cy="0.438268" r="0.438268" transform="matrix(-4.26491e-08 -1 -1 4.26491e-08 200.865 157.853)" fill="#ACA0E4" fill-opacity="0.1"/>
<circle cx="0.438268" cy="0.438268" r="0.438268" transform="matrix(-4.26491e-08 -1 -1 4.26491e-08 81.2764 144.738)" fill="#ACA0E4" fill-opacity="0.15"/>
<circle cx="0.438268" cy="0.438268" r="0.438268" transform="matrix(-4.26491e-08 -1 -1 4.26491e-08 155.584 157.367)" fill="#ACA0E4" fill-opacity="0.1"/>
<circle cx="0.438268" cy="0.438268" r="0.438268" transform="matrix(-4.26491e-08 -1 -1 4.26491e-08 145.817 104.712)" fill="#ACA0E4" fill-opacity="0.1"/>
<circle cx="0.438268" cy="0.438268" r="0.438268" transform="matrix(-4.26491e-08 -1 -1 4.26491e-08 171.848 130.199)" fill="#ACA0E4"/>
<circle cx="0.438268" cy="0.438268" r="0.438268" transform="matrix(-4.26491e-08 -1 -1 4.26491e-08 93.2124 137.447)" fill="#ACA0E4"/>
<circle cx="0.438268" cy="0.438268" r="0.438268" transform="matrix(-4.26491e-08 -1 -1 4.26491e-08 131.789 102.374)" fill="#ACA0E4" fill-opacity="0.15"/>
<circle cx="0.438268" cy="0.438268" r="0.438268" transform="matrix(-4.26491e-08 -1 -1 4.26491e-08 88.8306 211.205)" fill="#ACA0E4" fill-opacity="0.1"/>
<circle cx="0.438268" cy="0.438268" r="0.438268" transform="matrix(-4.26491e-08 -1 -1 4.26491e-08 123.603 152.645)" fill="#ACA0E4" fill-opacity="0.1"/>
<path d="M80.0557 93.0215L78.7403 92.2621L78.7403 93.781L80.0557 93.0215Z" fill="#ACA0E4" fill-opacity="0.1"/>
<path d="M127.908 201.983L127.217 201.797L127.031 201.107L126.845 201.797L126.154 201.983L126.845 202.169L127.031 202.86L127.217 202.169L127.908 201.983Z" fill="#ACA0E4" fill-opacity="0.1"/>
<path d="M104.418 156.824L103.727 156.638L103.541 155.947L103.355 156.638L102.664 156.824L103.355 157.01L103.541 157.701L103.727 157.01L104.418 156.824Z" fill="#ACA0E4"/>
</g>
<g style="mix-blend-mode:plus-lighter" opacity="0.4">
<circle cx="161.561" cy="218.486" r="0.876897" transform="rotate(15 161.561 218.486)" fill="#ACA0E4" fill-opacity="0.15"/>
<circle cx="132.643" cy="217.994" r="0.876897" transform="rotate(15 132.643 217.994)" fill="#ACA0E4" fill-opacity="0.2"/>
<circle cx="157.732" cy="99.3273" r="0.438268" transform="rotate(15 157.732 99.3273)" fill="#ACA0E4"/>
<circle cx="107.164" cy="121.302" r="0.438268" transform="rotate(15 107.164 121.302)" fill="#ACA0E4" fill-opacity="0.1"/>
<circle cx="196.938" cy="185.791" r="0.438268" transform="rotate(15 196.938 185.791)" fill="#ACA0E4"/>
<circle cx="119.372" cy="103.256" r="0.438268" transform="rotate(15 119.372 103.256)" fill="#ACA0E4" fill-opacity="0.2"/>
<circle cx="87.0584" cy="182.033" r="0.438268" transform="rotate(15 87.0584 182.033)" fill="#ACA0E4"/>
<circle cx="150.78" cy="184.29" r="0.438268" transform="rotate(15 150.78 184.29)" fill="#7A42EB" fill-opacity="0.8"/>
<circle cx="81.6766" cy="147.91" r="0.438268" transform="rotate(15 81.6766 147.91)" fill="#ACA0E4" fill-opacity="0.15"/>
<circle cx="165.047" cy="134.803" r="0.438268" transform="rotate(15 165.047 134.803)" fill="#ACA0E4" fill-opacity="0.15"/>
<circle cx="149.524" cy="192.846" r="0.438268" transform="rotate(15 149.524 192.846)" fill="#ACA0E4" fill-opacity="0.1"/>
<circle cx="138.081" cy="184.318" r="0.438268" transform="rotate(15 138.081 184.318)" fill="#ACA0E4"/>
<path d="M68.4222 204.719L68.8153 206.186L67.3482 205.793L68.4222 204.719Z" fill="#ACA0E4" fill-opacity="0.2"/>
<path d="M106.372 207.632L106.373 208.347L106.992 208.706L106.277 208.707L105.918 209.326L105.918 208.61L105.298 208.252L106.014 208.251L106.372 207.632Z" fill="#ACA0E4" fill-opacity="0.2"/>
<path d="M180.176 188.756L180.177 189.472L180.796 189.83L180.081 189.831L179.722 190.45L179.721 189.735L179.102 189.376L179.818 189.375L180.176 188.756Z" fill="#ACA0E4" fill-opacity="0.1"/>
<path d="M167.697 120.491L167.698 121.206L168.317 121.565L167.602 121.565L167.243 122.185L167.242 121.469L166.623 121.111L167.339 121.11L167.697 120.491Z" fill="#ACA0E4" fill-opacity="0.15"/>
<circle cx="76.9749" cy="174.49" r="0.438268" transform="rotate(15 76.9749 174.49)" fill="#ACA0E4"/>
</g>
</g>
<g filter="url(#filter39_d_52986_3832)">
<path d="M163.312 181.196L172.472 158.352L157.372 120.524C156.472 118.271 154.297 116.793 151.871 116.793H131.365C126.899 116.793 122.894 119.507 121.221 123.657L108.599 155.156C106.685 159.934 110.199 165.142 115.333 165.142H132.013L140.975 142.781H129.744L138.883 120L163.312 181.196Z" fill="url(#paint9_linear_52986_3832)"/>
</g>
<defs>
<filter id="filter0_f_52986_3832" x="11.0776" y="0.798828" width="232.391" height="232.391" filterUnits="userSpaceOnUse" color-interpolation-filters="sRGB">
<feFlood flood-opacity="0" result="BackgroundImageFix"/>
<feBlend mode="normal" in="SourceGraphic" in2="BackgroundImageFix" result="shape"/>
<feGaussianBlur stdDeviation="25" result="effect1_foregroundBlur_52986_3832"/>
</filter>
<filter id="filter1_f_52986_3832" x="44.0776" y="24.7988" width="232.391" height="232.391" filterUnits="userSpaceOnUse" color-interpolation-filters="sRGB">
<feFlood flood-opacity="0" result="BackgroundImageFix"/>
<feBlend mode="normal" in="SourceGraphic" in2="BackgroundImageFix" result="shape"/>
<feGaussianBlur stdDeviation="25" result="effect1_foregroundBlur_52986_3832"/>
</filter>
<filter id="filter2_f_52986_3832" x="24.0776" y="81.9448" width="232.391" height="232.391" filterUnits="userSpaceOnUse" color-interpolation-filters="sRGB">
<feFlood flood-opacity="0" result="BackgroundImageFix"/>
<feBlend mode="normal" in="SourceGraphic" in2="BackgroundImageFix" result="shape"/>
<feGaussianBlur stdDeviation="25" result="effect1_foregroundBlur_52986_3832"/>
</filter>
<filter id="filter3_f_52986_3832" x="56.0776" y="57.9448" width="232.391" height="232.391" filterUnits="userSpaceOnUse" color-interpolation-filters="sRGB">
<feFlood flood-opacity="0" result="BackgroundImageFix"/>
<feBlend mode="normal" in="SourceGraphic" in2="BackgroundImageFix" result="shape"/>
<feGaussianBlur stdDeviation="25" result="effect1_foregroundBlur_52986_3832"/>
</filter>
<filter id="filter4_f_52986_3832" x="0.0776367" y="41.9448" width="232.391" height="232.391" filterUnits="userSpaceOnUse" color-interpolation-filters="sRGB">
<feFlood flood-opacity="0" result="BackgroundImageFix"/>
<feBlend mode="normal" in="SourceGraphic" in2="BackgroundImageFix" result="shape"/>
<feGaussianBlur stdDeviation="25" result="effect1_foregroundBlur_52986_3832"/>
</filter>
<filter id="filter5_f_52986_3832" x="11.0776" y="0.798828" width="232.391" height="232.391" filterUnits="userSpaceOnUse" color-interpolation-filters="sRGB">
<feFlood flood-opacity="0" result="BackgroundImageFix"/>
<feBlend mode="normal" in="SourceGraphic" in2="BackgroundImageFix" result="shape"/>
<feGaussianBlur stdDeviation="25" result="effect1_foregroundBlur_52986_3832"/>
</filter>
<filter id="filter6_f_52986_3832" x="44.0776" y="24.7988" width="232.391" height="232.391" filterUnits="userSpaceOnUse" color-interpolation-filters="sRGB">
<feFlood flood-opacity="0" result="BackgroundImageFix"/>
<feBlend mode="normal" in="SourceGraphic" in2="BackgroundImageFix" result="shape"/>
<feGaussianBlur stdDeviation="25" result="effect1_foregroundBlur_52986_3832"/>
</filter>
<filter id="filter7_f_52986_3832" x="24.0776" y="81.9448" width="232.391" height="232.391" filterUnits="userSpaceOnUse" color-interpolation-filters="sRGB">
<feFlood flood-opacity="0" result="BackgroundImageFix"/>
<feBlend mode="normal" in="SourceGraphic" in2="BackgroundImageFix" result="shape"/>
<feGaussianBlur stdDeviation="25" result="effect1_foregroundBlur_52986_3832"/>
</filter>
<filter id="filter8_f_52986_3832" x="56.0776" y="57.9448" width="232.391" height="232.391" filterUnits="userSpaceOnUse" color-interpolation-filters="sRGB">
<feFlood flood-opacity="0" result="BackgroundImageFix"/>
<feBlend mode="normal" in="SourceGraphic" in2="BackgroundImageFix" result="shape"/>
<feGaussianBlur stdDeviation="25" result="effect1_foregroundBlur_52986_3832"/>
</filter>
<filter id="filter9_f_52986_3832" x="0.0776367" y="41.9448" width="232.391" height="232.391" filterUnits="userSpaceOnUse" color-interpolation-filters="sRGB">
<feFlood flood-opacity="0" result="BackgroundImageFix"/>
<feBlend mode="normal" in="SourceGraphic" in2="BackgroundImageFix" result="shape"/>
<feGaussianBlur stdDeviation="25" result="effect1_foregroundBlur_52986_3832"/>
</filter>
<filter id="filter10_f_52986_3832" x="11.0737" y="0.798828" width="232.391" height="232.391" filterUnits="userSpaceOnUse" color-interpolation-filters="sRGB">
<feFlood flood-opacity="0" result="BackgroundImageFix"/>
<feBlend mode="normal" in="SourceGraphic" in2="BackgroundImageFix" result="shape"/>
<feGaussianBlur stdDeviation="25" result="effect1_foregroundBlur_52986_3832"/>
</filter>
<filter id="filter11_f_52986_3832" x="44.0737" y="24.7988" width="232.391" height="232.391" filterUnits="userSpaceOnUse" color-interpolation-filters="sRGB">
<feFlood flood-opacity="0" result="BackgroundImageFix"/>
<feBlend mode="normal" in="SourceGraphic" in2="BackgroundImageFix" result="shape"/>
<feGaussianBlur stdDeviation="25" result="effect1_foregroundBlur_52986_3832"/>
</filter>
<filter id="filter12_f_52986_3832" x="24.0737" y="81.9448" width="232.391" height="232.391" filterUnits="userSpaceOnUse" color-interpolation-filters="sRGB">
<feFlood flood-opacity="0" result="BackgroundImageFix"/>
<feBlend mode="normal" in="SourceGraphic" in2="BackgroundImageFix" result="shape"/>
<feGaussianBlur stdDeviation="25" result="effect1_foregroundBlur_52986_3832"/>
</filter>
<filter id="filter13_f_52986_3832" x="56.0737" y="57.9448" width="232.391" height="232.391" filterUnits="userSpaceOnUse" color-interpolation-filters="sRGB">
<feFlood flood-opacity="0" result="BackgroundImageFix"/>
<feBlend mode="normal" in="SourceGraphic" in2="BackgroundImageFix" result="shape"/>
<feGaussianBlur stdDeviation="25" result="effect1_foregroundBlur_52986_3832"/>
</filter>
<filter id="filter14_f_52986_3832" x="0.0737305" y="41.9448" width="232.391" height="232.391" filterUnits="userSpaceOnUse" color-interpolation-filters="sRGB">
<feFlood flood-opacity="0" result="BackgroundImageFix"/>
<feBlend mode="normal" in="SourceGraphic" in2="BackgroundImageFix" result="shape"/>
<feGaussianBlur stdDeviation="25" result="effect1_foregroundBlur_52986_3832"/>
</filter>
<filter id="filter15_dddd_52986_3832" x="45.3979" y="68.1206" width="189.748" height="219.748" filterUnits="userSpaceOnUse" color-interpolation-filters="sRGB">
<feFlood flood-opacity="0" result="BackgroundImageFix"/>
<feColorMatrix in="SourceAlpha" type="matrix" values="0 0 0 0 0 0 0 0 0 0 0 0 0 0 0 0 0 0 127 0" result="hardAlpha"/>
<feOffset dy="3"/>
<feGaussianBlur stdDeviation="3"/>
<feColorMatrix type="matrix" values="0 0 0 0 0.0588235 0 0 0 0 0.109804 0 0 0 0 0.321569 0 0 0 0.2 0"/>
<feBlend mode="normal" in2="BackgroundImageFix" result="effect1_dropShadow_52986_3832"/>
<feColorMatrix in="SourceAlpha" type="matrix" values="0 0 0 0 0 0 0 0 0 0 0 0 0 0 0 0 0 0 127 0" result="hardAlpha"/>
<feOffset dy="11"/>
<feGaussianBlur stdDeviation="5.5"/>
<feColorMatrix type="matrix" values="0 0 0 0 0.0588235 0 0 0 0 0.109804 0 0 0 0 0.321569 0 0 0 0.17 0"/>
<feBlend mode="normal" in2="effect1_dropShadow_52986_3832" result="effect2_dropShadow_52986_3832"/>
<feColorMatrix in="SourceAlpha" type="matrix" values="0 0 0 0 0 0 0 0 0 0 0 0 0 0 0 0 0 0 127 0" result="hardAlpha"/>
<feOffset dy="25"/>
<feGaussianBlur stdDeviation="7.5"/>
<feColorMatrix type="matrix" values="0 0 0 0 0.0588235 0 0 0 0 0.109804 0 0 0 0 0.321569 0 0 0 0.1 0"/>
<feBlend mode="normal" in2="effect2_dropShadow_52986_3832" result="effect3_dropShadow_52986_3832"/>
<feColorMatrix in="SourceAlpha" type="matrix" values="0 0 0 0 0 0 0 0 0 0 0 0 0 0 0 0 0 0 127 0" result="hardAlpha"/>
<feOffset dy="44"/>
<feGaussianBlur stdDeviation="8.5"/>
<feColorMatrix type="matrix" values="0 0 0 0 0.0588235 0 0 0 0 0.109804 0 0 0 0 0.321569 0 0 0 0.03 0"/>
<feBlend mode="normal" in2="effect3_dropShadow_52986_3832" result="effect4_dropShadow_52986_3832"/>
<feBlend mode="normal" in="SourceGraphic" in2="effect4_dropShadow_52986_3832" result="shape"/>
</filter>
<filter id="filter16_in_52986_3832" x="67.2065" y="75.9331" width="146.123" height="146.123" filterUnits="userSpaceOnUse" color-interpolation-filters="sRGB">
<feFlood flood-opacity="0" result="BackgroundImageFix"/>
<feBlend mode="normal" in="SourceGraphic" in2="BackgroundImageFix" result="shape"/>
<feColorMatrix in="SourceAlpha" type="matrix" values="0 0 0 0 0 0 0 0 0 0 0 0 0 0 0 0 0 0 127 0" result="hardAlpha"/>
<feOffset/>
<feGaussianBlur stdDeviation="9.55"/>
<feComposite in2="hardAlpha" operator="arithmetic" k2="-1" k3="1"/>
<feColorMatrix type="matrix" values="0 0 0 0 0 0 0 0 0 0 0 0 0 0 0 0 0 0 0.5 0"/>
<feBlend mode="multiply" in2="shape" result="effect1_innerShadow_52986_3832"/>
<feTurbulence type="fractalNoise" baseFrequency="2.5 2.5" stitchTiles="stitch" numOctaves="3" result="noise" seed="7872" />
<feColorMatrix in="noise" type="luminanceToAlpha" result="alphaNoise" />
<feComponentTransfer in="alphaNoise" result="coloredNoise1">
<feFuncA type="discrete" tableValues="1 1 1 1 1 1 1 1 1 1 1 1 1 1 1 1 1 1 1 1 1 1 1 1 1 1 1 1 1 1 1 1 1 1 1 1 1 1 1 1 1 1 1 1 1 1 1 1 1 1 1 0 0 0 0 0 0 0 0 0 0 0 0 0 0 0 0 0 0 0 0 0 0 0 0 0 0 0 0 0 0 0 0 0 0 0 0 0 0 0 0 0 0 0 0 0 0 0 0 0 "/>
</feComponentTransfer>
<feComposite operator="in" in2="effect1_innerShadow_52986_3832" in="coloredNoise1" result="noise1Clipped" />
<feFlood flood-color="rgba(62, 71, 206, 0.25)" result="color1Flood" />
<feComposite operator="in" in2="noise1Clipped" in="color1Flood" result="color1" />
<feMerge result="effect2_noise_52986_3832">
<feMergeNode in="effect1_innerShadow_52986_3832" />
<feMergeNode in="color1" />
</feMerge>
</filter>
<filter id="filter17_f_52986_3832" x="112.013" y="183.904" width="62.1948" height="95.2114" filterUnits="userSpaceOnUse" color-interpolation-filters="sRGB">
<feFlood flood-opacity="0" result="BackgroundImageFix"/>
<feBlend mode="normal" in="SourceGraphic" in2="BackgroundImageFix" result="shape"/>
<feGaussianBlur stdDeviation="5" result="effect1_foregroundBlur_52986_3832"/>
</filter>
<filter id="filter18_f_52986_3832" x="73.3379" y="187.804" width="62.9087" height="94.8076" filterUnits="userSpaceOnUse" color-interpolation-filters="sRGB">
<feFlood flood-opacity="0" result="BackgroundImageFix"/>
<feBlend mode="normal" in="SourceGraphic" in2="BackgroundImageFix" result="shape"/>
<feGaussianBlur stdDeviation="5" result="effect1_foregroundBlur_52986_3832"/>
</filter>
<filter id="filter19_f_52986_3832" x="27.6035" y="174.455" width="85.0601" height="76.6162" filterUnits="userSpaceOnUse" color-interpolation-filters="sRGB">
<feFlood flood-opacity="0" result="BackgroundImageFix"/>
<feBlend mode="normal" in="SourceGraphic" in2="BackgroundImageFix" result="shape"/>
<feGaussianBlur stdDeviation="5" result="effect1_foregroundBlur_52986_3832"/>
</filter>
<filter id="filter20_f_52986_3832" x="14.2476" y="147.666" width="96.5664" height="59.6597" filterUnits="userSpaceOnUse" color-interpolation-filters="sRGB">
<feFlood flood-opacity="0" result="BackgroundImageFix"/>
<feBlend mode="normal" in="SourceGraphic" in2="BackgroundImageFix" result="shape"/>
<feGaussianBlur stdDeviation="5" result="effect1_foregroundBlur_52986_3832"/>
</filter>
<filter id="filter21_f_52986_3832" x="133.314" y="188.258" width="62.1948" height="95.2114" filterUnits="userSpaceOnUse" color-interpolation-filters="sRGB">
<feFlood flood-opacity="0" result="BackgroundImageFix"/>
<feBlend mode="normal" in="SourceGraphic" in2="BackgroundImageFix" result="shape"/>
<feGaussianBlur stdDeviation="5" result="effect1_foregroundBlur_52986_3832"/>
</filter>
<filter id="filter22_f_52986_3832" x="82.4868" y="172.392" width="59.8579" height="96.4658" filterUnits="userSpaceOnUse" color-interpolation-filters="sRGB">
<feFlood flood-opacity="0" result="BackgroundImageFix"/>
<feBlend mode="normal" in="SourceGraphic" in2="BackgroundImageFix" result="shape"/>
<feGaussianBlur stdDeviation="5" result="effect1_foregroundBlur_52986_3832"/>
</filter>
<filter id="filter23_f_52986_3832" x="155.354" y="184.609" width="66.7466" height="92.4731" filterUnits="userSpaceOnUse" color-interpolation-filters="sRGB">
<feFlood flood-opacity="0" result="BackgroundImageFix"/>
<feBlend mode="normal" in="SourceGraphic" in2="BackgroundImageFix" result="shape"/>
<feGaussianBlur stdDeviation="5" result="effect1_foregroundBlur_52986_3832"/>
</filter>
<filter id="filter24_f_52986_3832" x="169.682" y="176.706" width="85.0088" height="76.6743" filterUnits="userSpaceOnUse" color-interpolation-filters="sRGB">
<feFlood flood-opacity="0" result="BackgroundImageFix"/>
<feBlend mode="normal" in="SourceGraphic" in2="BackgroundImageFix" result="shape"/>
<feGaussianBlur stdDeviation="5" result="effect1_foregroundBlur_52986_3832"/>
</filter>
<filter id="filter25_f_52986_3832" x="179.492" y="166.162" width="95.9512" height="60.8423" filterUnits="userSpaceOnUse" color-interpolation-filters="sRGB">
<feFlood flood-opacity="0" result="BackgroundImageFix"/>
<feBlend mode="normal" in="SourceGraphic" in2="BackgroundImageFix" result="shape"/>
<feGaussianBlur stdDeviation="5" result="effect1_foregroundBlur_52986_3832"/>
</filter>
<filter id="filter26_f_52986_3832" x="188.503" y="134.162" width="95.9512" height="60.8423" filterUnits="userSpaceOnUse" color-interpolation-filters="sRGB">
<feFlood flood-opacity="0" result="BackgroundImageFix"/>
<feBlend mode="normal" in="SourceGraphic" in2="BackgroundImageFix" result="shape"/>
<feGaussianBlur stdDeviation="5" result="effect1_foregroundBlur_52986_3832"/>
</filter>
<filter id="filter27_f_52986_3832" x="185.192" y="139.923" width="92.873" height="66.1196" filterUnits="userSpaceOnUse" color-interpolation-filters="sRGB">
<feFlood flood-opacity="0" result="BackgroundImageFix"/>
<feBlend mode="normal" in="SourceGraphic" in2="BackgroundImageFix" result="shape"/>
<feGaussianBlur stdDeviation="5" result="effect1_foregroundBlur_52986_3832"/>
</filter>
<filter id="filter28_f_52986_3832" x="84.6211" y="16.8354" width="71.6523" height="108.57" filterUnits="userSpaceOnUse" color-interpolation-filters="sRGB">
<feFlood flood-opacity="0" result="BackgroundImageFix"/>
<feBlend mode="normal" in="SourceGraphic" in2="BackgroundImageFix" result="shape"/>
<feGaussianBlur stdDeviation="8" result="effect1_foregroundBlur_52986_3832"/>
</filter>
<filter id="filter29_f_52986_3832" x="41.4189" y="24.6812" width="81.6685" height="102.503" filterUnits="userSpaceOnUse" color-interpolation-filters="sRGB">
<feFlood flood-opacity="0" result="BackgroundImageFix"/>
<feBlend mode="normal" in="SourceGraphic" in2="BackgroundImageFix" result="shape"/>
<feGaussianBlur stdDeviation="8" result="effect1_foregroundBlur_52986_3832"/>
</filter>
<filter id="filter30_f_52986_3832" x="1.74805" y="65.1514" width="103.25" height="80.5908" filterUnits="userSpaceOnUse" color-interpolation-filters="sRGB">
<feFlood flood-opacity="0" result="BackgroundImageFix"/>
<feBlend mode="normal" in="SourceGraphic" in2="BackgroundImageFix" result="shape"/>
<feGaussianBlur stdDeviation="8" result="effect1_foregroundBlur_52986_3832"/>
</filter>
<filter id="filter31_f_52986_3832" x="0.034668" y="104.544" width="107.345" height="73.9561" filterUnits="userSpaceOnUse" color-interpolation-filters="sRGB">
<feFlood flood-opacity="0" result="BackgroundImageFix"/>
<feBlend mode="normal" in="SourceGraphic" in2="BackgroundImageFix" result="shape"/>
<feGaussianBlur stdDeviation="8" result="effect1_foregroundBlur_52986_3832"/>
</filter>
<filter id="filter32_f_52986_3832" x="104.445" y="7.90674" width="71.6523" height="108.57" filterUnits="userSpaceOnUse" color-interpolation-filters="sRGB">
<feFlood flood-opacity="0" result="BackgroundImageFix"/>
<feBlend mode="normal" in="SourceGraphic" in2="BackgroundImageFix" result="shape"/>
<feGaussianBlur stdDeviation="8" result="effect1_foregroundBlur_52986_3832"/>
</filter>
<filter id="filter33_f_52986_3832" x="56.3838" y="34.5562" width="73.021" height="107.856" filterUnits="userSpaceOnUse" color-interpolation-filters="sRGB">
<feFlood flood-opacity="0" result="BackgroundImageFix"/>
<feBlend mode="normal" in="SourceGraphic" in2="BackgroundImageFix" result="shape"/>
<feGaussianBlur stdDeviation="8" result="effect1_foregroundBlur_52986_3832"/>
</filter>
<filter id="filter34_f_52986_3832" x="128.539" y="7.84033" width="73.1138" height="107.806" filterUnits="userSpaceOnUse" color-interpolation-filters="sRGB">
<feFlood flood-opacity="0" result="BackgroundImageFix"/>
<feBlend mode="normal" in="SourceGraphic" in2="BackgroundImageFix" result="shape"/>
<feGaussianBlur stdDeviation="8" result="effect1_foregroundBlur_52986_3832"/>
</filter>
<filter id="filter35_f_52986_3832" x="146.808" y="23.77" width="89.2886" height="96.4688" filterUnits="userSpaceOnUse" color-interpolation-filters="sRGB">
<feFlood flood-opacity="0" result="BackgroundImageFix"/>
<feBlend mode="normal" in="SourceGraphic" in2="BackgroundImageFix" result="shape"/>
<feGaussianBlur stdDeviation="8" result="effect1_foregroundBlur_52986_3832"/>
</filter>
<filter id="filter36_f_52986_3832" x="158.011" y="47.5459" width="104.811" height="78.2178" filterUnits="userSpaceOnUse" color-interpolation-filters="sRGB">
<feFlood flood-opacity="0" result="BackgroundImageFix"/>
<feBlend mode="normal" in="SourceGraphic" in2="BackgroundImageFix" result="shape"/>
<feGaussianBlur stdDeviation="8" result="effect1_foregroundBlur_52986_3832"/>
</filter>
<filter id="filter37_f_52986_3832" x="165.673" y="72.3677" width="107.977" height="72.7939" filterUnits="userSpaceOnUse" color-interpolation-filters="sRGB">
<feFlood flood-opacity="0" result="BackgroundImageFix"/>
<feBlend mode="normal" in="SourceGraphic" in2="BackgroundImageFix" result="shape"/>
<feGaussianBlur stdDeviation="8" result="effect1_foregroundBlur_52986_3832"/>
</filter>
<filter id="filter38_f_52986_3832" x="166.673" y="97.3677" width="107.977" height="72.7939" filterUnits="userSpaceOnUse" color-interpolation-filters="sRGB">
<feFlood flood-opacity="0" result="BackgroundImageFix"/>
<feBlend mode="normal" in="SourceGraphic" in2="BackgroundImageFix" result="shape"/>
<feGaussianBlur stdDeviation="8" result="effect1_foregroundBlur_52986_3832"/>
</filter>
<filter id="filter39_d_52986_3832" x="100.07" y="111.793" width="80.4023" height="80.4023" filterUnits="userSpaceOnUse" color-interpolation-filters="sRGB">
<feFlood flood-opacity="0" result="BackgroundImageFix"/>
<feColorMatrix in="SourceAlpha" type="matrix" values="0 0 0 0 0 0 0 0 0 0 0 0 0 0 0 0 0 0 127 0" result="hardAlpha"/>
<feOffset dy="3"/>
<feGaussianBlur stdDeviation="4"/>
<feComposite in2="hardAlpha" operator="out"/>
<feColorMatrix type="matrix" values="0 0 0 0 0 0 0 0 0 0 0 0 0 0 0 0 0 0 0.15 0"/>
<feBlend mode="normal" in2="BackgroundImageFix" result="effect1_dropShadow_52986_3832"/>
<feBlend mode="normal" in="SourceGraphic" in2="effect1_dropShadow_52986_3832" result="shape"/>
</filter>
<linearGradient id="paint0_linear_52986_3832" x1="140.268" y1="75.9331" x2="140.268" y2="222.056" gradientUnits="userSpaceOnUse">
<stop stop-color="#456DFF"/>
<stop offset="1" stop-color="#456DFF" stop-opacity="0"/>
</linearGradient>
<linearGradient id="paint1_linear_52986_3832" x1="153.074" y1="229.65" x2="133.407" y2="61.6605" gradientUnits="userSpaceOnUse">
<stop stop-color="#AD62F3" stop-opacity="0"/>
<stop offset="1" stop-color="#D4A7FF"/>
</linearGradient>
<linearGradient id="paint2_linear_52986_3832" x1="140.268" y1="75.9331" x2="140.268" y2="222.056" gradientUnits="userSpaceOnUse">
<stop stop-color="white"/>
<stop offset="1" stop-color="white" stop-opacity="0"/>
</linearGradient>
<linearGradient id="paint3_linear_52986_3832" x1="140.268" y1="75.9331" x2="140.268" y2="222.056" gradientUnits="userSpaceOnUse">
<stop stop-color="#456DFF"/>
<stop offset="1" stop-color="#456DFF" stop-opacity="0"/>
</linearGradient>
<linearGradient id="paint4_linear_52986_3832" x1="153.074" y1="229.65" x2="133.407" y2="61.6605" gradientUnits="userSpaceOnUse">
<stop stop-color="#AD62F3" stop-opacity="0"/>
<stop offset="1" stop-color="#D4A7FF"/>
</linearGradient>
<linearGradient id="paint5_linear_52986_3832" x1="140.268" y1="75.9331" x2="140.268" y2="222.056" gradientUnits="userSpaceOnUse">
<stop stop-color="white"/>
<stop offset="1" stop-color="white" stop-opacity="0"/>
</linearGradient>
<linearGradient id="paint6_linear_52986_3832" x1="140.268" y1="75.9331" x2="140.268" y2="222.056" gradientUnits="userSpaceOnUse">
<stop stop-color="#456DFF"/>
<stop offset="1" stop-color="#456DFF" stop-opacity="0"/>
</linearGradient>
<linearGradient id="paint7_linear_52986_3832" x1="153.074" y1="229.65" x2="133.407" y2="61.6605" gradientUnits="userSpaceOnUse">
<stop stop-color="#AD62F3" stop-opacity="0"/>
<stop offset="1" stop-color="#D4A7FF"/>
</linearGradient>
<linearGradient id="paint8_linear_52986_3832" x1="140.268" y1="75.9331" x2="140.268" y2="222.056" gradientUnits="userSpaceOnUse">
<stop stop-color="white"/>
<stop offset="1" stop-color="white" stop-opacity="0"/>
</linearGradient>
<linearGradient id="paint9_linear_52986_3832" x1="140.271" y1="116.793" x2="140.271" y2="181.196" gradientUnits="userSpaceOnUse">
<stop offset="0.355769" stop-color="white"/>
<stop offset="1" stop-color="#D0CECE"/>
</linearGradient>
</defs>
</svg>
