<svg width="188" height="260" viewBox="0 0 188 260" fill="none" xmlns="http://www.w3.org/2000/svg">
<g opacity="0.67">
<g opacity="0.48" filter="url(#filter0_f_52986_3539)">
<circle cx="81.0509" cy="62.3666" r="66.1954" fill="#CA8EFF"/>
</g>
<g opacity="0.48" filter="url(#filter1_f_52986_3539)">
<circle cx="114.051" cy="86.3666" r="66.1954" fill="#CA8EFF"/>
</g>
<g filter="url(#filter2_f_52986_3539)">
<circle cx="94.0509" cy="143.513" r="66.1954" fill="#9DAAFF"/>
</g>
<g filter="url(#filter3_f_52986_3539)">
<circle cx="126.051" cy="119.513" r="66.1954" fill="#9DAAFF"/>
</g>
<g filter="url(#filter4_f_52986_3539)">
<circle cx="70.0509" cy="103.513" r="66.1954" fill="#9DAAFF"/>
</g>
</g>
<g style="mix-blend-mode:soft-light">
<g opacity="0.48" filter="url(#filter5_f_52986_3539)">
<circle cx="81.0509" cy="62.3666" r="66.1954" fill="#CA8EFF"/>
</g>
<g opacity="0.48" filter="url(#filter6_f_52986_3539)">
<circle cx="114.051" cy="86.3666" r="66.1954" fill="#CA8EFF"/>
</g>
<g filter="url(#filter7_f_52986_3539)">
<circle cx="94.0509" cy="143.513" r="66.1954" fill="#9DAAFF"/>
</g>
<g filter="url(#filter8_f_52986_3539)">
<circle cx="126.051" cy="119.513" r="66.1954" fill="#9DAAFF"/>
</g>
<g filter="url(#filter9_f_52986_3539)">
<circle cx="70.0509" cy="103.513" r="66.1954" fill="#9DAAFF"/>
</g>
</g>
<g opacity="0.15">
<g opacity="0.48" filter="url(#filter10_f_52986_3539)">
<circle cx="81.047" cy="62.3666" r="66.1954" fill="#CA8EFF"/>
</g>
<g opacity="0.48" filter="url(#filter11_f_52986_3539)">
<circle cx="114.047" cy="86.3666" r="66.1954" fill="#CA8EFF"/>
</g>
<g filter="url(#filter12_f_52986_3539)">
<circle cx="94.047" cy="143.513" r="66.1954" fill="#9DAAFF"/>
</g>
<g filter="url(#filter13_f_52986_3539)">
<circle cx="126.047" cy="119.513" r="66.1954" fill="#9DAAFF"/>
</g>
<g filter="url(#filter14_f_52986_3539)">
<circle cx="70.047" cy="103.513" r="66.1954" fill="#9DAAFF"/>
</g>
</g>
<g filter="url(#filter15_dddd_52986_3539)">
<circle cx="94.0497" cy="94.3665" r="77.8739" fill="#5462C2"/>
</g>
<g filter="url(#filter16_in_52986_3539)">
<circle cx="94.0457" cy="94.3665" r="73.0614" fill="#305CFD"/>
<circle cx="94.0457" cy="94.3665" r="73.0614" fill="url(#paint0_linear_52986_3539)" fill-opacity="0.79"/>
<circle cx="94.0457" cy="94.3665" r="73.0614" fill="url(#paint1_linear_52986_3539)" fill-opacity="0.9"/>
<circle cx="94.0457" cy="94.3665" r="71.8114" stroke="url(#paint2_linear_52986_3539)" stroke-width="2.5" style="mix-blend-mode:soft-light"/>
</g>
<mask id="mask0_52986_3539" style="mask-type:alpha" maskUnits="userSpaceOnUse" x="20" y="21" width="148" height="147">
<circle cx="94.0457" cy="94.3665" r="71.8114" fill="#305CFD"/>
<circle cx="94.0457" cy="94.3665" r="71.8114" fill="url(#paint3_linear_52986_3539)" fill-opacity="0.79"/>
<circle cx="94.0457" cy="94.3665" r="71.8114" fill="url(#paint4_linear_52986_3539)" fill-opacity="0.9"/>
<circle cx="94.0457" cy="94.3665" r="71.8114" stroke="url(#paint5_linear_52986_3539)" stroke-width="2.5"/>
</mask>
<g mask="url(#mask0_52986_3539)">
<g style="mix-blend-mode:plus-lighter" opacity="0.62">
<g style="mix-blend-mode:multiply">
<g filter="url(#filter17_f_52986_3539)">
<ellipse cx="19.8262" cy="38.2848" rx="19.8262" ry="38.2848" transform="matrix(0.975554 -0.219758 -0.219758 -0.975554 85.96 218.587)" fill="#282828"/>
</g>
<g filter="url(#filter18_f_52986_3539)">
<ellipse cx="19.8262" cy="38.2848" rx="19.8262" ry="38.2848" transform="matrix(0.968257 0.249957 0.249957 -0.968257 29.8047 212.694)" fill="#282828"/>
</g>
<g filter="url(#filter19_f_52986_3539)">
<ellipse cx="19.8262" cy="38.2848" rx="19.8262" ry="38.2848" transform="matrix(0.616806 0.787115 0.787115 -0.616806 -18.4521 166.144)" fill="#282828"/>
</g>
<g filter="url(#filter20_f_52986_3539)">
<ellipse cx="19.8262" cy="38.2848" rx="19.8262" ry="38.2848" transform="matrix(0.0111964 0.999937 0.999937 -0.0111964 -22.1953 103.471)" fill="#282828"/>
</g>
<g filter="url(#filter21_f_52986_3539)">
<ellipse cx="19.8262" cy="38.2848" rx="19.8262" ry="38.2848" transform="matrix(0.975554 -0.219758 -0.219758 -0.975554 107.262 222.941)" fill="#282828"/>
</g>
<g filter="url(#filter22_f_52986_3539)">
<ellipse cx="19.8262" cy="38.2848" rx="19.8262" ry="38.2848" transform="matrix(0.998132 -0.061101 -0.061101 -0.998132 48.7441 205.422)" fill="#282828"/>
</g>
<g filter="url(#filter23_f_52986_3539)">
<ellipse cx="19.8262" cy="38.2848" rx="19.8262" ry="38.2848" transform="matrix(0.925844 -0.377907 -0.377907 -0.925844 138.618 219.156)" fill="#282828"/>
</g>
<g filter="url(#filter24_f_52986_3539)">
<ellipse cx="19.8262" cy="38.2848" rx="19.8262" ry="38.2848" transform="matrix(0.618057 -0.786133 -0.786133 -0.618057 183.808 199.664)" fill="#282828"/>
</g>
<g filter="url(#filter25_f_52986_3539)">
<ellipse cx="19.8262" cy="38.2848" rx="19.8262" ry="38.2848" transform="matrix(0.148723 -0.988879 -0.988879 -0.148723 216.156 167.255)" fill="#282828"/>
</g>
<g filter="url(#filter26_f_52986_3539)">
<ellipse cx="19.8262" cy="38.2848" rx="19.8262" ry="38.2848" transform="matrix(0.148723 -0.988879 -0.988879 -0.148723 225.168 135.255)" fill="#282828"/>
</g>
<g filter="url(#filter27_f_52986_3539)">
<ellipse cx="19.8262" cy="38.2848" rx="19.8262" ry="38.2848" transform="matrix(-0.359485 -0.933151 -0.933151 0.359485 228.259 123.093)" fill="#282828"/>
</g>
</g>
<g style="mix-blend-mode:plus-lighter" opacity="0.21" filter="url(#filter28_f_52986_3539)">
<ellipse cx="74.2266" cy="16.4926" rx="19.8262" ry="38.2848" fill="white"/>
</g>
<g style="mix-blend-mode:plus-lighter" opacity="0.21" filter="url(#filter29_f_52986_3539)">
<ellipse cx="36.0326" cy="21.3053" rx="19.8262" ry="38.2848" transform="rotate(-27.1698 36.0326 21.3053)" fill="white"/>
</g>
<g style="mix-blend-mode:plus-lighter" opacity="0.21" filter="url(#filter30_f_52986_3539)">
<ellipse cx="7.15235" cy="50.8188" rx="19.8262" ry="38.2849" transform="rotate(-64.6115 7.15235 50.8188)" fill="white"/>
</g>
<g style="mix-blend-mode:plus-lighter" opacity="0.21" filter="url(#filter31_f_52986_3539)">
<ellipse cx="7.48622" cy="86.8948" rx="19.8262" ry="38.2849" transform="rotate(-102.053 7.48622 86.8948)" fill="white"/>
</g>
<g style="mix-blend-mode:plus-lighter" opacity="0.21" filter="url(#filter32_f_52986_3539)">
<ellipse cx="94.0508" cy="7.5639" rx="19.8262" ry="38.2848" fill="white"/>
</g>
<g style="mix-blend-mode:plus-lighter" opacity="0.21" filter="url(#filter33_f_52986_3539)">
<ellipse cx="46.6735" cy="33.8567" rx="19.8262" ry="38.2848" transform="rotate(-9.19183 46.6735 33.8567)" fill="white"/>
</g>
<g style="mix-blend-mode:plus-lighter" opacity="0.21" filter="url(#filter34_f_52986_3539)">
<ellipse cx="118.875" cy="7.11549" rx="19.8262" ry="38.2848" transform="rotate(9.50925 118.875 7.11549)" fill="white"/>
</g>
<g style="mix-blend-mode:plus-lighter" opacity="0.21" filter="url(#filter35_f_52986_3539)">
<ellipse cx="145.232" cy="17.3765" rx="19.8262" ry="38.2848" transform="rotate(39.1307 145.232 17.3765)" fill="white"/>
</g>
<g style="mix-blend-mode:plus-lighter" opacity="0.21" filter="url(#filter36_f_52986_3539)">
<ellipse cx="164.196" cy="32.0272" rx="19.8262" ry="38.2848" transform="rotate(68.7522 164.196 32.0272)" fill="white"/>
</g>
<g style="mix-blend-mode:plus-lighter" opacity="0.21" filter="url(#filter37_f_52986_3539)">
<ellipse cx="173.441" cy="54.1366" rx="19.8262" ry="38.2848" transform="rotate(98.3737 173.441 54.1366)" fill="white"/>
</g>
<g style="mix-blend-mode:plus-lighter" opacity="0.21" filter="url(#filter38_f_52986_3539)">
<ellipse cx="174.441" cy="79.1366" rx="19.8262" ry="38.2848" transform="rotate(98.3737 174.441 79.1366)" fill="white"/>
</g>
</g>
</g>
<mask id="mask1_52986_3539" style="mask-type:alpha" maskUnits="userSpaceOnUse" x="20" y="21" width="148" height="147">
<circle cx="94.0457" cy="94.3665" r="71.8114" fill="#305CFD"/>
<circle cx="94.0457" cy="94.3665" r="71.8114" fill="url(#paint6_linear_52986_3539)" fill-opacity="0.79"/>
<circle cx="94.0457" cy="94.3665" r="71.8114" fill="url(#paint7_linear_52986_3539)" fill-opacity="0.9"/>
<circle cx="94.0457" cy="94.3665" r="71.8114" stroke="url(#paint8_linear_52986_3539)" stroke-width="2.5"/>
</mask>
<g mask="url(#mask1_52986_3539)">
<g style="mix-blend-mode:plus-lighter" opacity="0.4">
<circle cx="0.876897" cy="0.876897" r="0.876897" transform="matrix(-4.26491e-08 -1 -1 4.26491e-08 49.0283 158.518)" fill="#ACA0E4" fill-opacity="0.15"/>
<circle cx="0.876897" cy="0.876897" r="0.876897" transform="matrix(-4.26491e-08 -1 -1 4.26491e-08 46.9131 62.6865)" fill="#ACA0E4"/>
<circle cx="1.31516" cy="1.31516" r="1.31516" transform="matrix(-4.26491e-08 -1 -1 4.26491e-08 133.31 48.9172)" fill="#ACA0E4"/>
<circle cx="147.999" cy="105.694" r="0.594267" transform="rotate(-90 147.999 105.694)" fill="#ACA0E4"/>
<circle cx="1.31516" cy="1.31516" r="1.31516" transform="matrix(-4.26491e-08 -1 -1 4.26491e-08 45.2344 128.998)" fill="#ACA0E4" fill-opacity="0.15"/>
<circle cx="1.31516" cy="1.31516" r="1.31516" transform="matrix(-4.26491e-08 -1 -1 4.26491e-08 163.308 70.5432)" fill="#ACA0E4" fill-opacity="0.1"/>
<circle cx="1.31516" cy="1.31516" r="1.31516" transform="matrix(-4.26491e-08 -1 -1 4.26491e-08 138.259 100.117)" fill="#ACA0E4" fill-opacity="0.15"/>
<circle cx="1.31516" cy="1.31516" r="1.31516" transform="matrix(-4.26491e-08 -1 -1 4.26491e-08 77.0527 70.3826)" fill="#ACA0E4" fill-opacity="0.1"/>
<circle cx="1.31516" cy="1.31516" r="1.31516" transform="matrix(-4.26491e-08 -1 -1 4.26491e-08 59.6338 45.3821)" fill="#ACA0E4"/>
<circle cx="0.438268" cy="0.438268" r="0.438268" transform="matrix(-4.26491e-08 -1 -1 4.26491e-08 89.3271 132.37)" fill="#ACA0E4"/>
<circle cx="0.438268" cy="0.438268" r="0.438268" transform="matrix(-4.26491e-08 -1 -1 4.26491e-08 154.642 103.225)" fill="#ACA0E4" fill-opacity="0.1"/>
<circle cx="0.438268" cy="0.438268" r="0.438268" transform="matrix(-4.26491e-08 -1 -1 4.26491e-08 35.0537 90.1104)" fill="#ACA0E4" fill-opacity="0.15"/>
<circle cx="0.438268" cy="0.438268" r="0.438268" transform="matrix(-4.26491e-08 -1 -1 4.26491e-08 109.361 102.739)" fill="#ACA0E4" fill-opacity="0.1"/>
<circle cx="0.438268" cy="0.438268" r="0.438268" transform="matrix(-4.26491e-08 -1 -1 4.26491e-08 99.5947 50.0837)" fill="#ACA0E4" fill-opacity="0.1"/>
<circle cx="0.438268" cy="0.438268" r="0.438268" transform="matrix(-4.26491e-08 -1 -1 4.26491e-08 125.625 75.5713)" fill="#ACA0E4"/>
<circle cx="0.438268" cy="0.438268" r="0.438268" transform="matrix(-4.26491e-08 -1 -1 4.26491e-08 46.9893 82.8186)" fill="#ACA0E4"/>
<circle cx="0.438268" cy="0.438268" r="0.438268" transform="matrix(-4.26491e-08 -1 -1 4.26491e-08 85.5664 47.7458)" fill="#ACA0E4" fill-opacity="0.15"/>
<circle cx="0.438268" cy="0.438268" r="0.438268" transform="matrix(-4.26491e-08 -1 -1 4.26491e-08 42.6074 156.577)" fill="#ACA0E4" fill-opacity="0.1"/>
<circle cx="0.438268" cy="0.438268" r="0.438268" transform="matrix(-4.26491e-08 -1 -1 4.26491e-08 77.3799 98.0164)" fill="#ACA0E4" fill-opacity="0.1"/>
<path d="M33.833 38.3934L32.5177 37.634L32.5177 39.1528L33.833 38.3934Z" fill="#ACA0E4" fill-opacity="0.1"/>
<path d="M81.6855 147.355L80.9947 147.169L80.8086 146.478L80.6226 147.169L79.9318 147.355L80.6226 147.541L80.8086 148.232L80.9947 147.541L81.6855 147.355Z" fill="#ACA0E4" fill-opacity="0.1"/>
<path d="M58.1953 102.196L57.5044 102.01L57.3184 101.319L57.1324 102.01L56.4415 102.196L57.1324 102.382L57.3184 103.073L57.5044 102.382L58.1953 102.196Z" fill="#ACA0E4"/>
</g>
<g style="mix-blend-mode:plus-lighter" opacity="0.4">
<circle cx="115.339" cy="163.858" r="0.876897" transform="rotate(15 115.339 163.858)" fill="#ACA0E4" fill-opacity="0.15"/>
<circle cx="86.4208" cy="163.365" r="0.876897" transform="rotate(15 86.4208 163.365)" fill="#ACA0E4" fill-opacity="0.2"/>
<circle cx="111.51" cy="44.6991" r="0.438268" transform="rotate(15 111.51 44.6991)" fill="#ACA0E4"/>
<circle cx="60.9417" cy="66.674" r="0.438268" transform="rotate(15 60.9417 66.674)" fill="#ACA0E4" fill-opacity="0.1"/>
<circle cx="150.716" cy="131.163" r="0.438268" transform="rotate(15 150.716 131.163)" fill="#ACA0E4"/>
<circle cx="73.1497" cy="48.6281" r="0.438268" transform="rotate(15 73.1497 48.6281)" fill="#ACA0E4" fill-opacity="0.2"/>
<circle cx="40.8363" cy="127.405" r="0.438268" transform="rotate(15 40.8363 127.405)" fill="#ACA0E4"/>
<circle cx="104.558" cy="129.662" r="0.438268" transform="rotate(15 104.558 129.662)" fill="#7A42EB" fill-opacity="0.8"/>
<circle cx="35.4544" cy="93.2819" r="0.438268" transform="rotate(15 35.4544 93.2819)" fill="#ACA0E4" fill-opacity="0.15"/>
<circle cx="118.825" cy="80.1749" r="0.438268" transform="rotate(15 118.825 80.1749)" fill="#ACA0E4" fill-opacity="0.15"/>
<circle cx="103.301" cy="138.218" r="0.438268" transform="rotate(15 103.301 138.218)" fill="#ACA0E4" fill-opacity="0.1"/>
<circle cx="91.8587" cy="129.69" r="0.438268" transform="rotate(15 91.8587 129.69)" fill="#ACA0E4"/>
<path d="M22.2005 150.091L22.5936 151.558L21.1266 151.165L22.2005 150.091Z" fill="#ACA0E4" fill-opacity="0.2"/>
<path d="M60.1498 153.003L60.1506 153.719L60.7698 154.077L60.0543 154.078L59.6958 154.697L59.695 153.982L59.0758 153.623L59.7913 153.623L60.1498 153.003Z" fill="#ACA0E4" fill-opacity="0.2"/>
<path d="M133.953 134.128L133.954 134.844L134.574 135.202L133.858 135.203L133.5 135.822L133.499 135.107L132.879 134.748L133.595 134.748L133.953 134.128Z" fill="#ACA0E4" fill-opacity="0.1"/>
<path d="M121.475 65.8627L121.476 66.5782L122.095 66.9367L121.38 66.9375L121.021 67.5567L121.02 66.8413L120.401 66.4828L121.116 66.4819L121.475 65.8627Z" fill="#ACA0E4" fill-opacity="0.15"/>
<circle cx="30.7533" cy="119.862" r="0.438268" transform="rotate(15 30.7533 119.862)" fill="#ACA0E4"/>
</g>
</g>
<g filter="url(#filter39_d_52986_3539)">
<path d="M117.089 126.568L126.25 103.724L111.15 65.896C110.25 63.643 108.075 62.1655 105.649 62.1655H85.1423C80.6771 62.1655 76.6719 64.8795 74.9988 69.0291L62.3768 100.528C60.4631 105.306 63.9768 110.514 69.1113 110.514H85.7907L94.7526 88.1528H83.5215L92.6611 65.372L117.089 126.568Z" fill="url(#paint9_linear_52986_3539)"/>
</g>
<defs>
<filter id="filter0_f_52986_3539" x="-35.1445" y="-53.8289" width="232.391" height="232.391" filterUnits="userSpaceOnUse" color-interpolation-filters="sRGB">
<feFlood flood-opacity="0" result="BackgroundImageFix"/>
<feBlend mode="normal" in="SourceGraphic" in2="BackgroundImageFix" result="shape"/>
<feGaussianBlur stdDeviation="25" result="effect1_foregroundBlur_52986_3539"/>
</filter>
<filter id="filter1_f_52986_3539" x="-2.14453" y="-29.8289" width="232.391" height="232.391" filterUnits="userSpaceOnUse" color-interpolation-filters="sRGB">
<feFlood flood-opacity="0" result="BackgroundImageFix"/>
<feBlend mode="normal" in="SourceGraphic" in2="BackgroundImageFix" result="shape"/>
<feGaussianBlur stdDeviation="25" result="effect1_foregroundBlur_52986_3539"/>
</filter>
<filter id="filter2_f_52986_3539" x="-22.1445" y="27.3171" width="232.391" height="232.391" filterUnits="userSpaceOnUse" color-interpolation-filters="sRGB">
<feFlood flood-opacity="0" result="BackgroundImageFix"/>
<feBlend mode="normal" in="SourceGraphic" in2="BackgroundImageFix" result="shape"/>
<feGaussianBlur stdDeviation="25" result="effect1_foregroundBlur_52986_3539"/>
</filter>
<filter id="filter3_f_52986_3539" x="9.85547" y="3.31714" width="232.391" height="232.391" filterUnits="userSpaceOnUse" color-interpolation-filters="sRGB">
<feFlood flood-opacity="0" result="BackgroundImageFix"/>
<feBlend mode="normal" in="SourceGraphic" in2="BackgroundImageFix" result="shape"/>
<feGaussianBlur stdDeviation="25" result="effect1_foregroundBlur_52986_3539"/>
</filter>
<filter id="filter4_f_52986_3539" x="-46.1445" y="-12.6829" width="232.391" height="232.391" filterUnits="userSpaceOnUse" color-interpolation-filters="sRGB">
<feFlood flood-opacity="0" result="BackgroundImageFix"/>
<feBlend mode="normal" in="SourceGraphic" in2="BackgroundImageFix" result="shape"/>
<feGaussianBlur stdDeviation="25" result="effect1_foregroundBlur_52986_3539"/>
</filter>
<filter id="filter5_f_52986_3539" x="-35.1445" y="-53.8289" width="232.391" height="232.391" filterUnits="userSpaceOnUse" color-interpolation-filters="sRGB">
<feFlood flood-opacity="0" result="BackgroundImageFix"/>
<feBlend mode="normal" in="SourceGraphic" in2="BackgroundImageFix" result="shape"/>
<feGaussianBlur stdDeviation="25" result="effect1_foregroundBlur_52986_3539"/>
</filter>
<filter id="filter6_f_52986_3539" x="-2.14453" y="-29.8289" width="232.391" height="232.391" filterUnits="userSpaceOnUse" color-interpolation-filters="sRGB">
<feFlood flood-opacity="0" result="BackgroundImageFix"/>
<feBlend mode="normal" in="SourceGraphic" in2="BackgroundImageFix" result="shape"/>
<feGaussianBlur stdDeviation="25" result="effect1_foregroundBlur_52986_3539"/>
</filter>
<filter id="filter7_f_52986_3539" x="-22.1445" y="27.3171" width="232.391" height="232.391" filterUnits="userSpaceOnUse" color-interpolation-filters="sRGB">
<feFlood flood-opacity="0" result="BackgroundImageFix"/>
<feBlend mode="normal" in="SourceGraphic" in2="BackgroundImageFix" result="shape"/>
<feGaussianBlur stdDeviation="25" result="effect1_foregroundBlur_52986_3539"/>
</filter>
<filter id="filter8_f_52986_3539" x="9.85547" y="3.31714" width="232.391" height="232.391" filterUnits="userSpaceOnUse" color-interpolation-filters="sRGB">
<feFlood flood-opacity="0" result="BackgroundImageFix"/>
<feBlend mode="normal" in="SourceGraphic" in2="BackgroundImageFix" result="shape"/>
<feGaussianBlur stdDeviation="25" result="effect1_foregroundBlur_52986_3539"/>
</filter>
<filter id="filter9_f_52986_3539" x="-46.1445" y="-12.6829" width="232.391" height="232.391" filterUnits="userSpaceOnUse" color-interpolation-filters="sRGB">
<feFlood flood-opacity="0" result="BackgroundImageFix"/>
<feBlend mode="normal" in="SourceGraphic" in2="BackgroundImageFix" result="shape"/>
<feGaussianBlur stdDeviation="25" result="effect1_foregroundBlur_52986_3539"/>
</filter>
<filter id="filter10_f_52986_3539" x="-35.1484" y="-53.8289" width="232.391" height="232.391" filterUnits="userSpaceOnUse" color-interpolation-filters="sRGB">
<feFlood flood-opacity="0" result="BackgroundImageFix"/>
<feBlend mode="normal" in="SourceGraphic" in2="BackgroundImageFix" result="shape"/>
<feGaussianBlur stdDeviation="25" result="effect1_foregroundBlur_52986_3539"/>
</filter>
<filter id="filter11_f_52986_3539" x="-2.14844" y="-29.8289" width="232.391" height="232.391" filterUnits="userSpaceOnUse" color-interpolation-filters="sRGB">
<feFlood flood-opacity="0" result="BackgroundImageFix"/>
<feBlend mode="normal" in="SourceGraphic" in2="BackgroundImageFix" result="shape"/>
<feGaussianBlur stdDeviation="25" result="effect1_foregroundBlur_52986_3539"/>
</filter>
<filter id="filter12_f_52986_3539" x="-22.1484" y="27.3171" width="232.391" height="232.391" filterUnits="userSpaceOnUse" color-interpolation-filters="sRGB">
<feFlood flood-opacity="0" result="BackgroundImageFix"/>
<feBlend mode="normal" in="SourceGraphic" in2="BackgroundImageFix" result="shape"/>
<feGaussianBlur stdDeviation="25" result="effect1_foregroundBlur_52986_3539"/>
</filter>
<filter id="filter13_f_52986_3539" x="9.85156" y="3.31714" width="232.391" height="232.391" filterUnits="userSpaceOnUse" color-interpolation-filters="sRGB">
<feFlood flood-opacity="0" result="BackgroundImageFix"/>
<feBlend mode="normal" in="SourceGraphic" in2="BackgroundImageFix" result="shape"/>
<feGaussianBlur stdDeviation="25" result="effect1_foregroundBlur_52986_3539"/>
</filter>
<filter id="filter14_f_52986_3539" x="-46.1484" y="-12.6829" width="232.391" height="232.391" filterUnits="userSpaceOnUse" color-interpolation-filters="sRGB">
<feFlood flood-opacity="0" result="BackgroundImageFix"/>
<feBlend mode="normal" in="SourceGraphic" in2="BackgroundImageFix" result="shape"/>
<feGaussianBlur stdDeviation="25" result="effect1_foregroundBlur_52986_3539"/>
</filter>
<filter id="filter15_dddd_52986_3539" x="-0.824219" y="13.4927" width="189.748" height="219.748" filterUnits="userSpaceOnUse" color-interpolation-filters="sRGB">
<feFlood flood-opacity="0" result="BackgroundImageFix"/>
<feColorMatrix in="SourceAlpha" type="matrix" values="0 0 0 0 0 0 0 0 0 0 0 0 0 0 0 0 0 0 127 0" result="hardAlpha"/>
<feOffset dy="3"/>
<feGaussianBlur stdDeviation="3"/>
<feColorMatrix type="matrix" values="0 0 0 0 0.0588235 0 0 0 0 0.109804 0 0 0 0 0.321569 0 0 0 0.2 0"/>
<feBlend mode="normal" in2="BackgroundImageFix" result="effect1_dropShadow_52986_3539"/>
<feColorMatrix in="SourceAlpha" type="matrix" values="0 0 0 0 0 0 0 0 0 0 0 0 0 0 0 0 0 0 127 0" result="hardAlpha"/>
<feOffset dy="11"/>
<feGaussianBlur stdDeviation="5.5"/>
<feColorMatrix type="matrix" values="0 0 0 0 0.0588235 0 0 0 0 0.109804 0 0 0 0 0.321569 0 0 0 0.17 0"/>
<feBlend mode="normal" in2="effect1_dropShadow_52986_3539" result="effect2_dropShadow_52986_3539"/>
<feColorMatrix in="SourceAlpha" type="matrix" values="0 0 0 0 0 0 0 0 0 0 0 0 0 0 0 0 0 0 127 0" result="hardAlpha"/>
<feOffset dy="25"/>
<feGaussianBlur stdDeviation="7.5"/>
<feColorMatrix type="matrix" values="0 0 0 0 0.0588235 0 0 0 0 0.109804 0 0 0 0 0.321569 0 0 0 0.1 0"/>
<feBlend mode="normal" in2="effect2_dropShadow_52986_3539" result="effect3_dropShadow_52986_3539"/>
<feColorMatrix in="SourceAlpha" type="matrix" values="0 0 0 0 0 0 0 0 0 0 0 0 0 0 0 0 0 0 127 0" result="hardAlpha"/>
<feOffset dy="44"/>
<feGaussianBlur stdDeviation="8.5"/>
<feColorMatrix type="matrix" values="0 0 0 0 0.0588235 0 0 0 0 0.109804 0 0 0 0 0.321569 0 0 0 0.03 0"/>
<feBlend mode="normal" in2="effect3_dropShadow_52986_3539" result="effect4_dropShadow_52986_3539"/>
<feBlend mode="normal" in="SourceGraphic" in2="effect4_dropShadow_52986_3539" result="shape"/>
</filter>
<filter id="filter16_in_52986_3539" x="20.9844" y="21.3052" width="146.123" height="146.123" filterUnits="userSpaceOnUse" color-interpolation-filters="sRGB">
<feFlood flood-opacity="0" result="BackgroundImageFix"/>
<feBlend mode="normal" in="SourceGraphic" in2="BackgroundImageFix" result="shape"/>
<feColorMatrix in="SourceAlpha" type="matrix" values="0 0 0 0 0 0 0 0 0 0 0 0 0 0 0 0 0 0 127 0" result="hardAlpha"/>
<feOffset/>
<feGaussianBlur stdDeviation="9.55"/>
<feComposite in2="hardAlpha" operator="arithmetic" k2="-1" k3="1"/>
<feColorMatrix type="matrix" values="0 0 0 0 0 0 0 0 0 0 0 0 0 0 0 0 0 0 0.5 0"/>
<feBlend mode="multiply" in2="shape" result="effect1_innerShadow_52986_3539"/>
<feTurbulence type="fractalNoise" baseFrequency="2.5 2.5" stitchTiles="stitch" numOctaves="3" result="noise" seed="7872" />
<feColorMatrix in="noise" type="luminanceToAlpha" result="alphaNoise" />
<feComponentTransfer in="alphaNoise" result="coloredNoise1">
<feFuncA type="discrete" tableValues="1 1 1 1 1 1 1 1 1 1 1 1 1 1 1 1 1 1 1 1 1 1 1 1 1 1 1 1 1 1 1 1 1 1 1 1 1 1 1 1 1 1 1 1 1 1 1 1 1 1 1 0 0 0 0 0 0 0 0 0 0 0 0 0 0 0 0 0 0 0 0 0 0 0 0 0 0 0 0 0 0 0 0 0 0 0 0 0 0 0 0 0 0 0 0 0 0 0 0 0 "/>
</feComponentTransfer>
<feComposite operator="in" in2="effect1_innerShadow_52986_3539" in="coloredNoise1" result="noise1Clipped" />
<feFlood flood-color="rgba(62, 71, 206, 0.25)" result="color1Flood" />
<feComposite operator="in" in2="noise1Clipped" in="color1Flood" result="color1" />
<feMerge result="effect2_noise_52986_3539">
<feMergeNode in="effect1_innerShadow_52986_3539" />
<feMergeNode in="color1" />
</feMerge>
</filter>
<filter id="filter17_f_52986_3539" x="65.791" y="129.276" width="62.1943" height="95.2117" filterUnits="userSpaceOnUse" color-interpolation-filters="sRGB">
<feFlood flood-opacity="0" result="BackgroundImageFix"/>
<feBlend mode="normal" in="SourceGraphic" in2="BackgroundImageFix" result="shape"/>
<feGaussianBlur stdDeviation="5" result="effect1_foregroundBlur_52986_3539"/>
</filter>
<filter id="filter18_f_52986_3539" x="27.1162" y="133.177" width="62.9092" height="94.8074" filterUnits="userSpaceOnUse" color-interpolation-filters="sRGB">
<feFlood flood-opacity="0" result="BackgroundImageFix"/>
<feBlend mode="normal" in="SourceGraphic" in2="BackgroundImageFix" result="shape"/>
<feGaussianBlur stdDeviation="5" result="effect1_foregroundBlur_52986_3539"/>
</filter>
<filter id="filter19_f_52986_3539" x="-18.6182" y="119.827" width="85.0596" height="76.616" filterUnits="userSpaceOnUse" color-interpolation-filters="sRGB">
<feFlood flood-opacity="0" result="BackgroundImageFix"/>
<feBlend mode="normal" in="SourceGraphic" in2="BackgroundImageFix" result="shape"/>
<feGaussianBlur stdDeviation="5" result="effect1_foregroundBlur_52986_3539"/>
</filter>
<filter id="filter20_f_52986_3539" x="-31.9736" y="93.0376" width="96.5654" height="59.6592" filterUnits="userSpaceOnUse" color-interpolation-filters="sRGB">
<feFlood flood-opacity="0" result="BackgroundImageFix"/>
<feBlend mode="normal" in="SourceGraphic" in2="BackgroundImageFix" result="shape"/>
<feGaussianBlur stdDeviation="5" result="effect1_foregroundBlur_52986_3539"/>
</filter>
<filter id="filter21_f_52986_3539" x="87.0928" y="133.63" width="62.1943" height="95.2117" filterUnits="userSpaceOnUse" color-interpolation-filters="sRGB">
<feFlood flood-opacity="0" result="BackgroundImageFix"/>
<feBlend mode="normal" in="SourceGraphic" in2="BackgroundImageFix" result="shape"/>
<feGaussianBlur stdDeviation="5" result="effect1_foregroundBlur_52986_3539"/>
</filter>
<filter id="filter22_f_52986_3539" x="36.2656" y="117.764" width="59.8574" height="96.4658" filterUnits="userSpaceOnUse" color-interpolation-filters="sRGB">
<feFlood flood-opacity="0" result="BackgroundImageFix"/>
<feBlend mode="normal" in="SourceGraphic" in2="BackgroundImageFix" result="shape"/>
<feGaussianBlur stdDeviation="5" result="effect1_foregroundBlur_52986_3539"/>
</filter>
<filter id="filter23_f_52986_3539" x="109.133" y="129.981" width="66.7461" height="92.4727" filterUnits="userSpaceOnUse" color-interpolation-filters="sRGB">
<feFlood flood-opacity="0" result="BackgroundImageFix"/>
<feBlend mode="normal" in="SourceGraphic" in2="BackgroundImageFix" result="shape"/>
<feGaussianBlur stdDeviation="5" result="effect1_foregroundBlur_52986_3539"/>
</filter>
<filter id="filter24_f_52986_3539" x="123.46" y="122.078" width="85.0088" height="76.6746" filterUnits="userSpaceOnUse" color-interpolation-filters="sRGB">
<feFlood flood-opacity="0" result="BackgroundImageFix"/>
<feBlend mode="normal" in="SourceGraphic" in2="BackgroundImageFix" result="shape"/>
<feGaussianBlur stdDeviation="5" result="effect1_foregroundBlur_52986_3539"/>
</filter>
<filter id="filter25_f_52986_3539" x="133.271" y="111.534" width="95.9512" height="60.842" filterUnits="userSpaceOnUse" color-interpolation-filters="sRGB">
<feFlood flood-opacity="0" result="BackgroundImageFix"/>
<feBlend mode="normal" in="SourceGraphic" in2="BackgroundImageFix" result="shape"/>
<feGaussianBlur stdDeviation="5" result="effect1_foregroundBlur_52986_3539"/>
</filter>
<filter id="filter26_f_52986_3539" x="142.282" y="79.5344" width="95.9512" height="60.842" filterUnits="userSpaceOnUse" color-interpolation-filters="sRGB">
<feFlood flood-opacity="0" result="BackgroundImageFix"/>
<feBlend mode="normal" in="SourceGraphic" in2="BackgroundImageFix" result="shape"/>
<feGaussianBlur stdDeviation="5" result="effect1_foregroundBlur_52986_3539"/>
</filter>
<filter id="filter27_f_52986_3539" x="138.97" y="85.2947" width="92.873" height="66.1199" filterUnits="userSpaceOnUse" color-interpolation-filters="sRGB">
<feFlood flood-opacity="0" result="BackgroundImageFix"/>
<feBlend mode="normal" in="SourceGraphic" in2="BackgroundImageFix" result="shape"/>
<feGaussianBlur stdDeviation="5" result="effect1_foregroundBlur_52986_3539"/>
</filter>
<filter id="filter28_f_52986_3539" x="38.4004" y="-37.7922" width="71.6523" height="108.57" filterUnits="userSpaceOnUse" color-interpolation-filters="sRGB">
<feFlood flood-opacity="0" result="BackgroundImageFix"/>
<feBlend mode="normal" in="SourceGraphic" in2="BackgroundImageFix" result="shape"/>
<feGaussianBlur stdDeviation="8" result="effect1_foregroundBlur_52986_3539"/>
</filter>
<filter id="filter29_f_52986_3539" x="-4.80176" y="-29.9465" width="81.6689" height="102.504" filterUnits="userSpaceOnUse" color-interpolation-filters="sRGB">
<feFlood flood-opacity="0" result="BackgroundImageFix"/>
<feBlend mode="normal" in="SourceGraphic" in2="BackgroundImageFix" result="shape"/>
<feGaussianBlur stdDeviation="8" result="effect1_foregroundBlur_52986_3539"/>
</filter>
<filter id="filter30_f_52986_3539" x="-44.4727" y="10.5234" width="103.25" height="80.5908" filterUnits="userSpaceOnUse" color-interpolation-filters="sRGB">
<feFlood flood-opacity="0" result="BackgroundImageFix"/>
<feBlend mode="normal" in="SourceGraphic" in2="BackgroundImageFix" result="shape"/>
<feGaussianBlur stdDeviation="8" result="effect1_foregroundBlur_52986_3539"/>
</filter>
<filter id="filter31_f_52986_3539" x="-46.1865" y="49.9167" width="107.345" height="73.9561" filterUnits="userSpaceOnUse" color-interpolation-filters="sRGB">
<feFlood flood-opacity="0" result="BackgroundImageFix"/>
<feBlend mode="normal" in="SourceGraphic" in2="BackgroundImageFix" result="shape"/>
<feGaussianBlur stdDeviation="8" result="effect1_foregroundBlur_52986_3539"/>
</filter>
<filter id="filter32_f_52986_3539" x="58.2246" y="-46.7209" width="71.6523" height="108.57" filterUnits="userSpaceOnUse" color-interpolation-filters="sRGB">
<feFlood flood-opacity="0" result="BackgroundImageFix"/>
<feBlend mode="normal" in="SourceGraphic" in2="BackgroundImageFix" result="shape"/>
<feGaussianBlur stdDeviation="8" result="effect1_foregroundBlur_52986_3539"/>
</filter>
<filter id="filter33_f_52986_3539" x="10.1631" y="-20.071" width="73.0205" height="107.855" filterUnits="userSpaceOnUse" color-interpolation-filters="sRGB">
<feFlood flood-opacity="0" result="BackgroundImageFix"/>
<feBlend mode="normal" in="SourceGraphic" in2="BackgroundImageFix" result="shape"/>
<feGaussianBlur stdDeviation="8" result="effect1_foregroundBlur_52986_3539"/>
</filter>
<filter id="filter34_f_52986_3539" x="82.3184" y="-46.7874" width="73.1133" height="107.806" filterUnits="userSpaceOnUse" color-interpolation-filters="sRGB">
<feFlood flood-opacity="0" result="BackgroundImageFix"/>
<feBlend mode="normal" in="SourceGraphic" in2="BackgroundImageFix" result="shape"/>
<feGaussianBlur stdDeviation="8" result="effect1_foregroundBlur_52986_3539"/>
</filter>
<filter id="filter35_f_52986_3539" x="100.588" y="-30.8579" width="89.2881" height="96.4688" filterUnits="userSpaceOnUse" color-interpolation-filters="sRGB">
<feFlood flood-opacity="0" result="BackgroundImageFix"/>
<feBlend mode="normal" in="SourceGraphic" in2="BackgroundImageFix" result="shape"/>
<feGaussianBlur stdDeviation="8" result="effect1_foregroundBlur_52986_3539"/>
</filter>
<filter id="filter36_f_52986_3539" x="111.79" y="-7.08154" width="104.812" height="78.2175" filterUnits="userSpaceOnUse" color-interpolation-filters="sRGB">
<feFlood flood-opacity="0" result="BackgroundImageFix"/>
<feBlend mode="normal" in="SourceGraphic" in2="BackgroundImageFix" result="shape"/>
<feGaussianBlur stdDeviation="8" result="effect1_foregroundBlur_52986_3539"/>
</filter>
<filter id="filter37_f_52986_3539" x="119.453" y="17.7395" width="107.977" height="72.7942" filterUnits="userSpaceOnUse" color-interpolation-filters="sRGB">
<feFlood flood-opacity="0" result="BackgroundImageFix"/>
<feBlend mode="normal" in="SourceGraphic" in2="BackgroundImageFix" result="shape"/>
<feGaussianBlur stdDeviation="8" result="effect1_foregroundBlur_52986_3539"/>
</filter>
<filter id="filter38_f_52986_3539" x="120.453" y="42.7395" width="107.977" height="72.7942" filterUnits="userSpaceOnUse" color-interpolation-filters="sRGB">
<feFlood flood-opacity="0" result="BackgroundImageFix"/>
<feBlend mode="normal" in="SourceGraphic" in2="BackgroundImageFix" result="shape"/>
<feGaussianBlur stdDeviation="8" result="effect1_foregroundBlur_52986_3539"/>
</filter>
<filter id="filter39_d_52986_3539" x="53.8477" y="57.1655" width="80.4023" height="80.4023" filterUnits="userSpaceOnUse" color-interpolation-filters="sRGB">
<feFlood flood-opacity="0" result="BackgroundImageFix"/>
<feColorMatrix in="SourceAlpha" type="matrix" values="0 0 0 0 0 0 0 0 0 0 0 0 0 0 0 0 0 0 127 0" result="hardAlpha"/>
<feOffset dy="3"/>
<feGaussianBlur stdDeviation="4"/>
<feComposite in2="hardAlpha" operator="out"/>
<feColorMatrix type="matrix" values="0 0 0 0 0 0 0 0 0 0 0 0 0 0 0 0 0 0 0.15 0"/>
<feBlend mode="normal" in2="BackgroundImageFix" result="effect1_dropShadow_52986_3539"/>
<feBlend mode="normal" in="SourceGraphic" in2="effect1_dropShadow_52986_3539" result="shape"/>
</filter>
<linearGradient id="paint0_linear_52986_3539" x1="94.0457" y1="21.3052" x2="94.0457" y2="167.428" gradientUnits="userSpaceOnUse">
<stop stop-color="#456DFF"/>
<stop offset="1" stop-color="#456DFF" stop-opacity="0"/>
</linearGradient>
<linearGradient id="paint1_linear_52986_3539" x1="106.852" y1="175.022" x2="87.1852" y2="7.0326" gradientUnits="userSpaceOnUse">
<stop stop-color="#AD62F3" stop-opacity="0"/>
<stop offset="1" stop-color="#D4A7FF"/>
</linearGradient>
<linearGradient id="paint2_linear_52986_3539" x1="94.0457" y1="21.3052" x2="94.0457" y2="167.428" gradientUnits="userSpaceOnUse">
<stop stop-color="white"/>
<stop offset="1" stop-color="white" stop-opacity="0"/>
</linearGradient>
<linearGradient id="paint3_linear_52986_3539" x1="94.0457" y1="21.3052" x2="94.0457" y2="167.428" gradientUnits="userSpaceOnUse">
<stop stop-color="#456DFF"/>
<stop offset="1" stop-color="#456DFF" stop-opacity="0"/>
</linearGradient>
<linearGradient id="paint4_linear_52986_3539" x1="106.852" y1="175.022" x2="87.1852" y2="7.0326" gradientUnits="userSpaceOnUse">
<stop stop-color="#AD62F3" stop-opacity="0"/>
<stop offset="1" stop-color="#D4A7FF"/>
</linearGradient>
<linearGradient id="paint5_linear_52986_3539" x1="94.0457" y1="21.3052" x2="94.0457" y2="167.428" gradientUnits="userSpaceOnUse">
<stop stop-color="white"/>
<stop offset="1" stop-color="white" stop-opacity="0"/>
</linearGradient>
<linearGradient id="paint6_linear_52986_3539" x1="94.0457" y1="21.3052" x2="94.0457" y2="167.428" gradientUnits="userSpaceOnUse">
<stop stop-color="#456DFF"/>
<stop offset="1" stop-color="#456DFF" stop-opacity="0"/>
</linearGradient>
<linearGradient id="paint7_linear_52986_3539" x1="106.852" y1="175.022" x2="87.1852" y2="7.0326" gradientUnits="userSpaceOnUse">
<stop stop-color="#AD62F3" stop-opacity="0"/>
<stop offset="1" stop-color="#D4A7FF"/>
</linearGradient>
<linearGradient id="paint8_linear_52986_3539" x1="94.0457" y1="21.3052" x2="94.0457" y2="167.428" gradientUnits="userSpaceOnUse">
<stop stop-color="white"/>
<stop offset="1" stop-color="white" stop-opacity="0"/>
</linearGradient>
<linearGradient id="paint9_linear_52986_3539" x1="94.0488" y1="62.1655" x2="94.0488" y2="126.568" gradientUnits="userSpaceOnUse">
<stop offset="0.355769" stop-color="white"/>
<stop offset="1" stop-color="#D0CECE"/>
</linearGradient>
</defs>
</svg>
