<svg width="290" height="315" viewBox="0 0 290 315" fill="none" xmlns="http://www.w3.org/2000/svg">
<g opacity="0.67">
<g opacity="0.48" filter="url(#filter0_f_53640_7999)">
<circle cx="127.875" cy="116.994" r="66.1954" fill="#CA8EFF"/>
</g>
<g opacity="0.48" filter="url(#filter1_f_53640_7999)">
<circle cx="160.875" cy="140.994" r="66.1954" fill="#CA8EFF"/>
</g>
<g filter="url(#filter2_f_53640_7999)">
<circle cx="140.875" cy="198.14" r="66.1954" fill="#9DAAFF"/>
</g>
<g filter="url(#filter3_f_53640_7999)">
<circle cx="172.875" cy="174.14" r="66.1954" fill="#9DAAFF"/>
</g>
<g filter="url(#filter4_f_53640_7999)">
<circle cx="116.875" cy="158.14" r="66.1954" fill="#9DAAFF"/>
</g>
</g>
<g style="mix-blend-mode:soft-light">
<g opacity="0.48" filter="url(#filter5_f_53640_7999)">
<circle cx="127.875" cy="116.994" r="66.1954" fill="#CA8EFF"/>
</g>
<g opacity="0.48" filter="url(#filter6_f_53640_7999)">
<circle cx="160.875" cy="140.994" r="66.1954" fill="#CA8EFF"/>
</g>
<g filter="url(#filter7_f_53640_7999)">
<circle cx="140.875" cy="198.14" r="66.1954" fill="#9DAAFF"/>
</g>
<g filter="url(#filter8_f_53640_7999)">
<circle cx="172.875" cy="174.14" r="66.1954" fill="#9DAAFF"/>
</g>
<g filter="url(#filter9_f_53640_7999)">
<circle cx="116.875" cy="158.14" r="66.1954" fill="#9DAAFF"/>
</g>
</g>
<g opacity="0.15">
<g opacity="0.48" filter="url(#filter10_f_53640_7999)">
<circle cx="127.871" cy="116.994" r="66.1954" fill="#CA8EFF"/>
</g>
<g opacity="0.48" filter="url(#filter11_f_53640_7999)">
<circle cx="160.871" cy="140.994" r="66.1954" fill="#CA8EFF"/>
</g>
<g filter="url(#filter12_f_53640_7999)">
<circle cx="140.871" cy="198.14" r="66.1954" fill="#9DAAFF"/>
</g>
<g filter="url(#filter13_f_53640_7999)">
<circle cx="172.871" cy="174.14" r="66.1954" fill="#9DAAFF"/>
</g>
<g filter="url(#filter14_f_53640_7999)">
<circle cx="116.871" cy="158.14" r="66.1954" fill="#9DAAFF"/>
</g>
</g>
<g filter="url(#filter15_dddd_53640_7999)">
<circle cx="140.874" cy="148.994" r="77.8739" fill="#5462C2"/>
</g>
<g filter="url(#filter16_in_53640_7999)">
<circle cx="140.874" cy="148.994" r="73.0614" fill="#305CFD"/>
<circle cx="140.874" cy="148.994" r="73.0614" fill="url(#paint0_linear_53640_7999)" fill-opacity="0.79"/>
<circle cx="140.874" cy="148.994" r="73.0614" fill="url(#paint1_linear_53640_7999)" fill-opacity="0.9"/>
<circle cx="140.874" cy="148.994" r="71.8114" stroke="url(#paint2_linear_53640_7999)" stroke-width="2.5" style="mix-blend-mode:soft-light"/>
</g>
<mask id="mask0_53640_7999" style="mask-type:alpha" maskUnits="userSpaceOnUse" x="67" y="75" width="147" height="148">
<circle cx="140.87" cy="148.994" r="71.8114" fill="#305CFD"/>
<circle cx="140.87" cy="148.994" r="71.8114" fill="url(#paint3_linear_53640_7999)" fill-opacity="0.79"/>
<circle cx="140.87" cy="148.994" r="71.8114" fill="url(#paint4_linear_53640_7999)" fill-opacity="0.9"/>
<circle cx="140.87" cy="148.994" r="71.8114" stroke="url(#paint5_linear_53640_7999)" stroke-width="2.5"/>
</mask>
<g mask="url(#mask0_53640_7999)">
<g style="mix-blend-mode:plus-lighter" opacity="0.62">
<g style="mix-blend-mode:multiply">
<g filter="url(#filter17_f_53640_7999)">
<ellipse cx="19.8262" cy="38.2848" rx="19.8262" ry="38.2848" transform="matrix(0.975554 -0.219758 -0.219758 -0.975554 132.784 273.215)" fill="#282828"/>
</g>
<g filter="url(#filter18_f_53640_7999)">
<ellipse cx="19.8262" cy="38.2848" rx="19.8262" ry="38.2848" transform="matrix(0.968257 0.249957 0.249957 -0.968257 76.6279 267.322)" fill="#282828"/>
</g>
<g filter="url(#filter19_f_53640_7999)">
<ellipse cx="19.8262" cy="38.2848" rx="19.8262" ry="38.2848" transform="matrix(0.616806 0.787115 0.787115 -0.616806 28.3721 220.771)" fill="#282828"/>
</g>
<g filter="url(#filter20_f_53640_7999)">
<ellipse cx="19.8262" cy="38.2848" rx="19.8262" ry="38.2848" transform="matrix(0.0111964 0.999937 0.999937 -0.0111964 24.6284 158.099)" fill="#282828"/>
</g>
<g filter="url(#filter21_f_53640_7999)">
<ellipse cx="19.8262" cy="38.2848" rx="19.8262" ry="38.2848" transform="matrix(0.975554 -0.219758 -0.219758 -0.975554 154.085 277.569)" fill="#282828"/>
</g>
<g filter="url(#filter22_f_53640_7999)">
<ellipse cx="19.8262" cy="38.2848" rx="19.8262" ry="38.2848" transform="matrix(0.998132 -0.061101 -0.061101 -0.998132 95.5679 260.05)" fill="#282828"/>
</g>
<g filter="url(#filter23_f_53640_7999)">
<ellipse cx="19.8262" cy="38.2848" rx="19.8262" ry="38.2848" transform="matrix(0.925844 -0.377907 -0.377907 -0.925844 185.442 273.784)" fill="#282828"/>
</g>
<g filter="url(#filter24_f_53640_7999)">
<ellipse cx="19.8262" cy="38.2848" rx="19.8262" ry="38.2848" transform="matrix(0.618057 -0.786133 -0.786133 -0.618057 230.632 254.292)" fill="#282828"/>
</g>
<g filter="url(#filter25_f_53640_7999)">
<ellipse cx="19.8262" cy="38.2848" rx="19.8262" ry="38.2848" transform="matrix(0.148723 -0.988879 -0.988879 -0.148723 262.98 221.883)" fill="#282828"/>
</g>
<g filter="url(#filter26_f_53640_7999)">
<ellipse cx="19.8262" cy="38.2848" rx="19.8262" ry="38.2848" transform="matrix(0.148723 -0.988879 -0.988879 -0.148723 271.992 189.883)" fill="#282828"/>
</g>
<g filter="url(#filter27_f_53640_7999)">
<ellipse cx="19.8262" cy="38.2848" rx="19.8262" ry="38.2848" transform="matrix(-0.359485 -0.933151 -0.933151 0.359485 275.083 177.721)" fill="#282828"/>
</g>
</g>
<g style="mix-blend-mode:plus-lighter" opacity="0.21" filter="url(#filter28_f_53640_7999)">
<ellipse cx="121.049" cy="71.1203" rx="19.8262" ry="38.2848" fill="white"/>
</g>
<g style="mix-blend-mode:plus-lighter" opacity="0.21" filter="url(#filter29_f_53640_7999)">
<ellipse cx="82.8553" cy="75.933" rx="19.8262" ry="38.2848" transform="rotate(-27.1698 82.8553 75.933)" fill="white"/>
</g>
<g style="mix-blend-mode:plus-lighter" opacity="0.21" filter="url(#filter30_f_53640_7999)">
<ellipse cx="53.9751" cy="105.447" rx="19.8262" ry="38.2849" transform="rotate(-64.6115 53.9751 105.447)" fill="white"/>
</g>
<g style="mix-blend-mode:plus-lighter" opacity="0.21" filter="url(#filter31_f_53640_7999)">
<ellipse cx="54.309" cy="141.522" rx="19.8262" ry="38.2849" transform="rotate(-102.053 54.309 141.522)" fill="white"/>
</g>
<g style="mix-blend-mode:plus-lighter" opacity="0.21" filter="url(#filter32_f_53640_7999)">
<ellipse cx="140.874" cy="62.1916" rx="19.8262" ry="38.2848" fill="white"/>
</g>
<g style="mix-blend-mode:plus-lighter" opacity="0.21" filter="url(#filter33_f_53640_7999)">
<ellipse cx="93.4963" cy="88.4841" rx="19.8262" ry="38.2848" transform="rotate(-9.19183 93.4963 88.4841)" fill="white"/>
</g>
<g style="mix-blend-mode:plus-lighter" opacity="0.21" filter="url(#filter34_f_53640_7999)">
<ellipse cx="165.698" cy="61.7432" rx="19.8262" ry="38.2848" transform="rotate(9.50925 165.698 61.7432)" fill="white"/>
</g>
<g style="mix-blend-mode:plus-lighter" opacity="0.21" filter="url(#filter35_f_53640_7999)">
<ellipse cx="192.054" cy="72.0044" rx="19.8262" ry="38.2848" transform="rotate(39.1307 192.054 72.0044)" fill="white"/>
</g>
<g style="mix-blend-mode:plus-lighter" opacity="0.21" filter="url(#filter36_f_53640_7999)">
<ellipse cx="211.019" cy="86.6547" rx="19.8262" ry="38.2848" transform="rotate(68.7522 211.019 86.6547)" fill="white"/>
</g>
<g style="mix-blend-mode:plus-lighter" opacity="0.21" filter="url(#filter37_f_53640_7999)">
<ellipse cx="220.264" cy="108.764" rx="19.8262" ry="38.2848" transform="rotate(98.3737 220.264 108.764)" fill="white"/>
</g>
<g style="mix-blend-mode:plus-lighter" opacity="0.21" filter="url(#filter38_f_53640_7999)">
<ellipse cx="221.264" cy="133.764" rx="19.8262" ry="38.2848" transform="rotate(98.3737 221.264 133.764)" fill="white"/>
</g>
</g>
</g>
<mask id="mask1_53640_7999" style="mask-type:alpha" maskUnits="userSpaceOnUse" x="67" y="75" width="147" height="148">
<circle cx="140.87" cy="148.994" r="71.8114" fill="#305CFD"/>
<circle cx="140.87" cy="148.994" r="71.8114" fill="url(#paint6_linear_53640_7999)" fill-opacity="0.79"/>
<circle cx="140.87" cy="148.994" r="71.8114" fill="url(#paint7_linear_53640_7999)" fill-opacity="0.9"/>
<circle cx="140.87" cy="148.994" r="71.8114" stroke="url(#paint8_linear_53640_7999)" stroke-width="2.5"/>
</mask>
<g mask="url(#mask1_53640_7999)">
<g style="mix-blend-mode:plus-lighter" opacity="0.4">
<circle cx="0.876897" cy="0.876897" r="0.876897" transform="matrix(-4.26491e-08 -1 -1 4.26491e-08 95.8525 213.146)" fill="#ACA0E4" fill-opacity="0.15"/>
<circle cx="0.876897" cy="0.876897" r="0.876897" transform="matrix(-4.26491e-08 -1 -1 4.26491e-08 93.7383 117.315)" fill="#ACA0E4"/>
<circle cx="1.31516" cy="1.31516" r="1.31516" transform="matrix(-4.26491e-08 -1 -1 4.26491e-08 180.134 103.545)" fill="#ACA0E4"/>
<circle cx="194.823" cy="160.322" r="0.594267" transform="rotate(-90 194.823 160.322)" fill="#ACA0E4"/>
<circle cx="1.31516" cy="1.31516" r="1.31516" transform="matrix(-4.26491e-08 -1 -1 4.26491e-08 92.0596 183.625)" fill="#ACA0E4" fill-opacity="0.15"/>
<circle cx="1.31516" cy="1.31516" r="1.31516" transform="matrix(-4.26491e-08 -1 -1 4.26491e-08 210.132 125.171)" fill="#ACA0E4" fill-opacity="0.1"/>
<circle cx="1.31516" cy="1.31516" r="1.31516" transform="matrix(-4.26491e-08 -1 -1 4.26491e-08 185.083 154.745)" fill="#ACA0E4" fill-opacity="0.15"/>
<circle cx="1.31516" cy="1.31516" r="1.31516" transform="matrix(-4.26491e-08 -1 -1 4.26491e-08 123.877 125.011)" fill="#ACA0E4" fill-opacity="0.1"/>
<circle cx="1.31516" cy="1.31516" r="1.31516" transform="matrix(-4.26491e-08 -1 -1 4.26491e-08 106.459 100.01)" fill="#ACA0E4"/>
<circle cx="0.438268" cy="0.438268" r="0.438268" transform="matrix(-4.26491e-08 -1 -1 4.26491e-08 136.151 186.998)" fill="#ACA0E4"/>
<circle cx="0.438268" cy="0.438268" r="0.438268" transform="matrix(-4.26491e-08 -1 -1 4.26491e-08 201.467 157.853)" fill="#ACA0E4" fill-opacity="0.1"/>
<circle cx="0.438268" cy="0.438268" r="0.438268" transform="matrix(-4.26491e-08 -1 -1 4.26491e-08 81.8784 144.738)" fill="#ACA0E4" fill-opacity="0.15"/>
<circle cx="0.438268" cy="0.438268" r="0.438268" transform="matrix(-4.26491e-08 -1 -1 4.26491e-08 156.187 157.367)" fill="#ACA0E4" fill-opacity="0.1"/>
<circle cx="0.438268" cy="0.438268" r="0.438268" transform="matrix(-4.26491e-08 -1 -1 4.26491e-08 146.419 104.712)" fill="#ACA0E4" fill-opacity="0.1"/>
<circle cx="0.438268" cy="0.438268" r="0.438268" transform="matrix(-4.26491e-08 -1 -1 4.26491e-08 172.45 130.199)" fill="#ACA0E4"/>
<circle cx="0.438268" cy="0.438268" r="0.438268" transform="matrix(-4.26491e-08 -1 -1 4.26491e-08 93.8145 137.447)" fill="#ACA0E4"/>
<circle cx="0.438268" cy="0.438268" r="0.438268" transform="matrix(-4.26491e-08 -1 -1 4.26491e-08 132.391 102.374)" fill="#ACA0E4" fill-opacity="0.15"/>
<circle cx="0.438268" cy="0.438268" r="0.438268" transform="matrix(-4.26491e-08 -1 -1 4.26491e-08 89.4326 211.205)" fill="#ACA0E4" fill-opacity="0.1"/>
<circle cx="0.438268" cy="0.438268" r="0.438268" transform="matrix(-4.26491e-08 -1 -1 4.26491e-08 124.205 152.645)" fill="#ACA0E4" fill-opacity="0.1"/>
<path d="M80.6577 93.0215L79.3424 92.2621L79.3424 93.781L80.6577 93.0215Z" fill="#ACA0E4" fill-opacity="0.1"/>
<path d="M128.51 201.983L127.819 201.797L127.633 201.107L127.447 201.797L126.756 201.983L127.447 202.169L127.633 202.86L127.819 202.169L128.51 201.983Z" fill="#ACA0E4" fill-opacity="0.1"/>
<path d="M105.02 156.824L104.329 156.638L104.143 155.947L103.957 156.638L103.266 156.824L103.957 157.01L104.143 157.701L104.329 157.01L105.02 156.824Z" fill="#ACA0E4"/>
</g>
<g style="mix-blend-mode:plus-lighter" opacity="0.4">
<circle cx="162.163" cy="218.486" r="0.876897" transform="rotate(15 162.163 218.486)" fill="#ACA0E4" fill-opacity="0.15"/>
<circle cx="133.245" cy="217.994" r="0.876897" transform="rotate(15 133.245 217.994)" fill="#ACA0E4" fill-opacity="0.2"/>
<circle cx="158.334" cy="99.3273" r="0.438268" transform="rotate(15 158.334 99.3273)" fill="#ACA0E4"/>
<circle cx="107.766" cy="121.302" r="0.438268" transform="rotate(15 107.766 121.302)" fill="#ACA0E4" fill-opacity="0.1"/>
<circle cx="197.54" cy="185.791" r="0.438268" transform="rotate(15 197.54 185.791)" fill="#ACA0E4"/>
<circle cx="119.974" cy="103.256" r="0.438268" transform="rotate(15 119.974 103.256)" fill="#ACA0E4" fill-opacity="0.2"/>
<circle cx="87.6605" cy="182.033" r="0.438268" transform="rotate(15 87.6605 182.033)" fill="#ACA0E4"/>
<circle cx="151.382" cy="184.29" r="0.438268" transform="rotate(15 151.382 184.29)" fill="#7A42EB" fill-opacity="0.8"/>
<circle cx="82.2786" cy="147.91" r="0.438268" transform="rotate(15 82.2786 147.91)" fill="#ACA0E4" fill-opacity="0.15"/>
<circle cx="165.649" cy="134.803" r="0.438268" transform="rotate(15 165.649 134.803)" fill="#ACA0E4" fill-opacity="0.15"/>
<circle cx="150.126" cy="192.846" r="0.438268" transform="rotate(15 150.126 192.846)" fill="#ACA0E4" fill-opacity="0.1"/>
<circle cx="138.683" cy="184.318" r="0.438268" transform="rotate(15 138.683 184.318)" fill="#ACA0E4"/>
<path d="M69.0243 204.719L69.4174 206.186L67.9503 205.793L69.0243 204.719Z" fill="#ACA0E4" fill-opacity="0.2"/>
<path d="M106.974 207.632L106.975 208.347L107.595 208.706L106.879 208.707L106.521 209.326L106.52 208.61L105.9 208.252L106.616 208.251L106.974 207.632Z" fill="#ACA0E4" fill-opacity="0.2"/>
<path d="M180.778 188.756L180.779 189.472L181.398 189.83L180.683 189.831L180.324 190.45L180.323 189.735L179.704 189.376L180.42 189.375L180.778 188.756Z" fill="#ACA0E4" fill-opacity="0.1"/>
<path d="M168.299 120.491L168.3 121.206L168.919 121.565L168.204 121.565L167.845 122.185L167.844 121.469L167.225 121.111L167.941 121.11L168.299 120.491Z" fill="#ACA0E4" fill-opacity="0.15"/>
<circle cx="77.577" cy="174.49" r="0.438268" transform="rotate(15 77.577 174.49)" fill="#ACA0E4"/>
</g>
</g>
<g filter="url(#filter39_d_53640_7999)">
<path d="M163.914 181.196L173.074 158.352L157.974 120.524C157.075 118.271 154.899 116.793 152.473 116.793H131.967C127.501 116.793 123.496 119.507 121.823 123.657L109.201 155.156C107.287 159.934 110.801 165.142 115.936 165.142H132.615L141.577 142.781H130.346L139.485 120L163.914 181.196Z" fill="url(#paint9_linear_53640_7999)"/>
</g>
<defs>
<filter id="filter0_f_53640_7999" x="11.6797" y="0.798828" width="232.391" height="232.391" filterUnits="userSpaceOnUse" color-interpolation-filters="sRGB">
<feFlood flood-opacity="0" result="BackgroundImageFix"/>
<feBlend mode="normal" in="SourceGraphic" in2="BackgroundImageFix" result="shape"/>
<feGaussianBlur stdDeviation="25" result="effect1_foregroundBlur_53640_7999"/>
</filter>
<filter id="filter1_f_53640_7999" x="44.6797" y="24.7988" width="232.391" height="232.391" filterUnits="userSpaceOnUse" color-interpolation-filters="sRGB">
<feFlood flood-opacity="0" result="BackgroundImageFix"/>
<feBlend mode="normal" in="SourceGraphic" in2="BackgroundImageFix" result="shape"/>
<feGaussianBlur stdDeviation="25" result="effect1_foregroundBlur_53640_7999"/>
</filter>
<filter id="filter2_f_53640_7999" x="24.6797" y="81.9448" width="232.391" height="232.391" filterUnits="userSpaceOnUse" color-interpolation-filters="sRGB">
<feFlood flood-opacity="0" result="BackgroundImageFix"/>
<feBlend mode="normal" in="SourceGraphic" in2="BackgroundImageFix" result="shape"/>
<feGaussianBlur stdDeviation="25" result="effect1_foregroundBlur_53640_7999"/>
</filter>
<filter id="filter3_f_53640_7999" x="56.6797" y="57.9448" width="232.391" height="232.391" filterUnits="userSpaceOnUse" color-interpolation-filters="sRGB">
<feFlood flood-opacity="0" result="BackgroundImageFix"/>
<feBlend mode="normal" in="SourceGraphic" in2="BackgroundImageFix" result="shape"/>
<feGaussianBlur stdDeviation="25" result="effect1_foregroundBlur_53640_7999"/>
</filter>
<filter id="filter4_f_53640_7999" x="0.679688" y="41.9448" width="232.391" height="232.391" filterUnits="userSpaceOnUse" color-interpolation-filters="sRGB">
<feFlood flood-opacity="0" result="BackgroundImageFix"/>
<feBlend mode="normal" in="SourceGraphic" in2="BackgroundImageFix" result="shape"/>
<feGaussianBlur stdDeviation="25" result="effect1_foregroundBlur_53640_7999"/>
</filter>
<filter id="filter5_f_53640_7999" x="11.6797" y="0.798828" width="232.391" height="232.391" filterUnits="userSpaceOnUse" color-interpolation-filters="sRGB">
<feFlood flood-opacity="0" result="BackgroundImageFix"/>
<feBlend mode="normal" in="SourceGraphic" in2="BackgroundImageFix" result="shape"/>
<feGaussianBlur stdDeviation="25" result="effect1_foregroundBlur_53640_7999"/>
</filter>
<filter id="filter6_f_53640_7999" x="44.6797" y="24.7988" width="232.391" height="232.391" filterUnits="userSpaceOnUse" color-interpolation-filters="sRGB">
<feFlood flood-opacity="0" result="BackgroundImageFix"/>
<feBlend mode="normal" in="SourceGraphic" in2="BackgroundImageFix" result="shape"/>
<feGaussianBlur stdDeviation="25" result="effect1_foregroundBlur_53640_7999"/>
</filter>
<filter id="filter7_f_53640_7999" x="24.6797" y="81.9448" width="232.391" height="232.391" filterUnits="userSpaceOnUse" color-interpolation-filters="sRGB">
<feFlood flood-opacity="0" result="BackgroundImageFix"/>
<feBlend mode="normal" in="SourceGraphic" in2="BackgroundImageFix" result="shape"/>
<feGaussianBlur stdDeviation="25" result="effect1_foregroundBlur_53640_7999"/>
</filter>
<filter id="filter8_f_53640_7999" x="56.6797" y="57.9448" width="232.391" height="232.391" filterUnits="userSpaceOnUse" color-interpolation-filters="sRGB">
<feFlood flood-opacity="0" result="BackgroundImageFix"/>
<feBlend mode="normal" in="SourceGraphic" in2="BackgroundImageFix" result="shape"/>
<feGaussianBlur stdDeviation="25" result="effect1_foregroundBlur_53640_7999"/>
</filter>
<filter id="filter9_f_53640_7999" x="0.679688" y="41.9448" width="232.391" height="232.391" filterUnits="userSpaceOnUse" color-interpolation-filters="sRGB">
<feFlood flood-opacity="0" result="BackgroundImageFix"/>
<feBlend mode="normal" in="SourceGraphic" in2="BackgroundImageFix" result="shape"/>
<feGaussianBlur stdDeviation="25" result="effect1_foregroundBlur_53640_7999"/>
</filter>
<filter id="filter10_f_53640_7999" x="11.6758" y="0.798828" width="232.391" height="232.391" filterUnits="userSpaceOnUse" color-interpolation-filters="sRGB">
<feFlood flood-opacity="0" result="BackgroundImageFix"/>
<feBlend mode="normal" in="SourceGraphic" in2="BackgroundImageFix" result="shape"/>
<feGaussianBlur stdDeviation="25" result="effect1_foregroundBlur_53640_7999"/>
</filter>
<filter id="filter11_f_53640_7999" x="44.6758" y="24.7988" width="232.391" height="232.391" filterUnits="userSpaceOnUse" color-interpolation-filters="sRGB">
<feFlood flood-opacity="0" result="BackgroundImageFix"/>
<feBlend mode="normal" in="SourceGraphic" in2="BackgroundImageFix" result="shape"/>
<feGaussianBlur stdDeviation="25" result="effect1_foregroundBlur_53640_7999"/>
</filter>
<filter id="filter12_f_53640_7999" x="24.6758" y="81.9448" width="232.391" height="232.391" filterUnits="userSpaceOnUse" color-interpolation-filters="sRGB">
<feFlood flood-opacity="0" result="BackgroundImageFix"/>
<feBlend mode="normal" in="SourceGraphic" in2="BackgroundImageFix" result="shape"/>
<feGaussianBlur stdDeviation="25" result="effect1_foregroundBlur_53640_7999"/>
</filter>
<filter id="filter13_f_53640_7999" x="56.6758" y="57.9448" width="232.391" height="232.391" filterUnits="userSpaceOnUse" color-interpolation-filters="sRGB">
<feFlood flood-opacity="0" result="BackgroundImageFix"/>
<feBlend mode="normal" in="SourceGraphic" in2="BackgroundImageFix" result="shape"/>
<feGaussianBlur stdDeviation="25" result="effect1_foregroundBlur_53640_7999"/>
</filter>
<filter id="filter14_f_53640_7999" x="0.675781" y="41.9448" width="232.391" height="232.391" filterUnits="userSpaceOnUse" color-interpolation-filters="sRGB">
<feFlood flood-opacity="0" result="BackgroundImageFix"/>
<feBlend mode="normal" in="SourceGraphic" in2="BackgroundImageFix" result="shape"/>
<feGaussianBlur stdDeviation="25" result="effect1_foregroundBlur_53640_7999"/>
</filter>
<filter id="filter15_dddd_53640_7999" x="46" y="68.1206" width="189.748" height="219.748" filterUnits="userSpaceOnUse" color-interpolation-filters="sRGB">
<feFlood flood-opacity="0" result="BackgroundImageFix"/>
<feColorMatrix in="SourceAlpha" type="matrix" values="0 0 0 0 0 0 0 0 0 0 0 0 0 0 0 0 0 0 127 0" result="hardAlpha"/>
<feOffset dy="3"/>
<feGaussianBlur stdDeviation="3"/>
<feColorMatrix type="matrix" values="0 0 0 0 0.0588235 0 0 0 0 0.109804 0 0 0 0 0.321569 0 0 0 0.2 0"/>
<feBlend mode="normal" in2="BackgroundImageFix" result="effect1_dropShadow_53640_7999"/>
<feColorMatrix in="SourceAlpha" type="matrix" values="0 0 0 0 0 0 0 0 0 0 0 0 0 0 0 0 0 0 127 0" result="hardAlpha"/>
<feOffset dy="11"/>
<feGaussianBlur stdDeviation="5.5"/>
<feColorMatrix type="matrix" values="0 0 0 0 0.0588235 0 0 0 0 0.109804 0 0 0 0 0.321569 0 0 0 0.17 0"/>
<feBlend mode="normal" in2="effect1_dropShadow_53640_7999" result="effect2_dropShadow_53640_7999"/>
<feColorMatrix in="SourceAlpha" type="matrix" values="0 0 0 0 0 0 0 0 0 0 0 0 0 0 0 0 0 0 127 0" result="hardAlpha"/>
<feOffset dy="25"/>
<feGaussianBlur stdDeviation="7.5"/>
<feColorMatrix type="matrix" values="0 0 0 0 0.0588235 0 0 0 0 0.109804 0 0 0 0 0.321569 0 0 0 0.1 0"/>
<feBlend mode="normal" in2="effect2_dropShadow_53640_7999" result="effect3_dropShadow_53640_7999"/>
<feColorMatrix in="SourceAlpha" type="matrix" values="0 0 0 0 0 0 0 0 0 0 0 0 0 0 0 0 0 0 127 0" result="hardAlpha"/>
<feOffset dy="44"/>
<feGaussianBlur stdDeviation="8.5"/>
<feColorMatrix type="matrix" values="0 0 0 0 0.0588235 0 0 0 0 0.109804 0 0 0 0 0.321569 0 0 0 0.03 0"/>
<feBlend mode="normal" in2="effect3_dropShadow_53640_7999" result="effect4_dropShadow_53640_7999"/>
<feBlend mode="normal" in="SourceGraphic" in2="effect4_dropShadow_53640_7999" result="shape"/>
</filter>
<filter id="filter16_in_53640_7999" x="67.8125" y="75.9331" width="146.123" height="146.123" filterUnits="userSpaceOnUse" color-interpolation-filters="sRGB">
<feFlood flood-opacity="0" result="BackgroundImageFix"/>
<feBlend mode="normal" in="SourceGraphic" in2="BackgroundImageFix" result="shape"/>
<feColorMatrix in="SourceAlpha" type="matrix" values="0 0 0 0 0 0 0 0 0 0 0 0 0 0 0 0 0 0 127 0" result="hardAlpha"/>
<feOffset/>
<feGaussianBlur stdDeviation="9.55"/>
<feComposite in2="hardAlpha" operator="arithmetic" k2="-1" k3="1"/>
<feColorMatrix type="matrix" values="0 0 0 0 0 0 0 0 0 0 0 0 0 0 0 0 0 0 0.5 0"/>
<feBlend mode="multiply" in2="shape" result="effect1_innerShadow_53640_7999"/>
<feTurbulence type="fractalNoise" baseFrequency="2.5 2.5" stitchTiles="stitch" numOctaves="3" result="noise" seed="7872" />
<feColorMatrix in="noise" type="luminanceToAlpha" result="alphaNoise" />
<feComponentTransfer in="alphaNoise" result="coloredNoise1">
<feFuncA type="discrete" tableValues="1 1 1 1 1 1 1 1 1 1 1 1 1 1 1 1 1 1 1 1 1 1 1 1 1 1 1 1 1 1 1 1 1 1 1 1 1 1 1 1 1 1 1 1 1 1 1 1 1 1 1 0 0 0 0 0 0 0 0 0 0 0 0 0 0 0 0 0 0 0 0 0 0 0 0 0 0 0 0 0 0 0 0 0 0 0 0 0 0 0 0 0 0 0 0 0 0 0 0 0 "/>
</feComponentTransfer>
<feComposite operator="in" in2="effect1_innerShadow_53640_7999" in="coloredNoise1" result="noise1Clipped" />
<feFlood flood-color="rgba(62, 71, 206, 0.25)" result="color1Flood" />
<feComposite operator="in" in2="noise1Clipped" in="color1Flood" result="color1" />
<feMerge result="effect2_noise_53640_7999">
<feMergeNode in="effect1_innerShadow_53640_7999" />
<feMergeNode in="color1" />
</feMerge>
</filter>
<filter id="filter17_f_53640_7999" x="112.615" y="183.904" width="62.1948" height="95.2114" filterUnits="userSpaceOnUse" color-interpolation-filters="sRGB">
<feFlood flood-opacity="0" result="BackgroundImageFix"/>
<feBlend mode="normal" in="SourceGraphic" in2="BackgroundImageFix" result="shape"/>
<feGaussianBlur stdDeviation="5" result="effect1_foregroundBlur_53640_7999"/>
</filter>
<filter id="filter18_f_53640_7999" x="73.9399" y="187.804" width="62.9087" height="94.8076" filterUnits="userSpaceOnUse" color-interpolation-filters="sRGB">
<feFlood flood-opacity="0" result="BackgroundImageFix"/>
<feBlend mode="normal" in="SourceGraphic" in2="BackgroundImageFix" result="shape"/>
<feGaussianBlur stdDeviation="5" result="effect1_foregroundBlur_53640_7999"/>
</filter>
<filter id="filter19_f_53640_7999" x="28.2056" y="174.455" width="85.0601" height="76.6162" filterUnits="userSpaceOnUse" color-interpolation-filters="sRGB">
<feFlood flood-opacity="0" result="BackgroundImageFix"/>
<feBlend mode="normal" in="SourceGraphic" in2="BackgroundImageFix" result="shape"/>
<feGaussianBlur stdDeviation="5" result="effect1_foregroundBlur_53640_7999"/>
</filter>
<filter id="filter20_f_53640_7999" x="14.8496" y="147.666" width="96.5664" height="59.6597" filterUnits="userSpaceOnUse" color-interpolation-filters="sRGB">
<feFlood flood-opacity="0" result="BackgroundImageFix"/>
<feBlend mode="normal" in="SourceGraphic" in2="BackgroundImageFix" result="shape"/>
<feGaussianBlur stdDeviation="5" result="effect1_foregroundBlur_53640_7999"/>
</filter>
<filter id="filter21_f_53640_7999" x="133.916" y="188.258" width="62.1948" height="95.2114" filterUnits="userSpaceOnUse" color-interpolation-filters="sRGB">
<feFlood flood-opacity="0" result="BackgroundImageFix"/>
<feBlend mode="normal" in="SourceGraphic" in2="BackgroundImageFix" result="shape"/>
<feGaussianBlur stdDeviation="5" result="effect1_foregroundBlur_53640_7999"/>
</filter>
<filter id="filter22_f_53640_7999" x="83.0889" y="172.392" width="59.8579" height="96.4658" filterUnits="userSpaceOnUse" color-interpolation-filters="sRGB">
<feFlood flood-opacity="0" result="BackgroundImageFix"/>
<feBlend mode="normal" in="SourceGraphic" in2="BackgroundImageFix" result="shape"/>
<feGaussianBlur stdDeviation="5" result="effect1_foregroundBlur_53640_7999"/>
</filter>
<filter id="filter23_f_53640_7999" x="155.957" y="184.609" width="66.7466" height="92.4731" filterUnits="userSpaceOnUse" color-interpolation-filters="sRGB">
<feFlood flood-opacity="0" result="BackgroundImageFix"/>
<feBlend mode="normal" in="SourceGraphic" in2="BackgroundImageFix" result="shape"/>
<feGaussianBlur stdDeviation="5" result="effect1_foregroundBlur_53640_7999"/>
</filter>
<filter id="filter24_f_53640_7999" x="170.284" y="176.706" width="85.0088" height="76.6743" filterUnits="userSpaceOnUse" color-interpolation-filters="sRGB">
<feFlood flood-opacity="0" result="BackgroundImageFix"/>
<feBlend mode="normal" in="SourceGraphic" in2="BackgroundImageFix" result="shape"/>
<feGaussianBlur stdDeviation="5" result="effect1_foregroundBlur_53640_7999"/>
</filter>
<filter id="filter25_f_53640_7999" x="180.094" y="166.162" width="95.9512" height="60.8423" filterUnits="userSpaceOnUse" color-interpolation-filters="sRGB">
<feFlood flood-opacity="0" result="BackgroundImageFix"/>
<feBlend mode="normal" in="SourceGraphic" in2="BackgroundImageFix" result="shape"/>
<feGaussianBlur stdDeviation="5" result="effect1_foregroundBlur_53640_7999"/>
</filter>
<filter id="filter26_f_53640_7999" x="189.105" y="134.162" width="95.9512" height="60.8423" filterUnits="userSpaceOnUse" color-interpolation-filters="sRGB">
<feFlood flood-opacity="0" result="BackgroundImageFix"/>
<feBlend mode="normal" in="SourceGraphic" in2="BackgroundImageFix" result="shape"/>
<feGaussianBlur stdDeviation="5" result="effect1_foregroundBlur_53640_7999"/>
</filter>
<filter id="filter27_f_53640_7999" x="185.794" y="139.923" width="92.873" height="66.1196" filterUnits="userSpaceOnUse" color-interpolation-filters="sRGB">
<feFlood flood-opacity="0" result="BackgroundImageFix"/>
<feBlend mode="normal" in="SourceGraphic" in2="BackgroundImageFix" result="shape"/>
<feGaussianBlur stdDeviation="5" result="effect1_foregroundBlur_53640_7999"/>
</filter>
<filter id="filter28_f_53640_7999" x="85.2231" y="16.8354" width="71.6523" height="108.57" filterUnits="userSpaceOnUse" color-interpolation-filters="sRGB">
<feFlood flood-opacity="0" result="BackgroundImageFix"/>
<feBlend mode="normal" in="SourceGraphic" in2="BackgroundImageFix" result="shape"/>
<feGaussianBlur stdDeviation="8" result="effect1_foregroundBlur_53640_7999"/>
</filter>
<filter id="filter29_f_53640_7999" x="42.021" y="24.6812" width="81.6685" height="102.503" filterUnits="userSpaceOnUse" color-interpolation-filters="sRGB">
<feFlood flood-opacity="0" result="BackgroundImageFix"/>
<feBlend mode="normal" in="SourceGraphic" in2="BackgroundImageFix" result="shape"/>
<feGaussianBlur stdDeviation="8" result="effect1_foregroundBlur_53640_7999"/>
</filter>
<filter id="filter30_f_53640_7999" x="2.3501" y="65.1514" width="103.25" height="80.5908" filterUnits="userSpaceOnUse" color-interpolation-filters="sRGB">
<feFlood flood-opacity="0" result="BackgroundImageFix"/>
<feBlend mode="normal" in="SourceGraphic" in2="BackgroundImageFix" result="shape"/>
<feGaussianBlur stdDeviation="8" result="effect1_foregroundBlur_53640_7999"/>
</filter>
<filter id="filter31_f_53640_7999" x="0.636719" y="104.544" width="107.345" height="73.9561" filterUnits="userSpaceOnUse" color-interpolation-filters="sRGB">
<feFlood flood-opacity="0" result="BackgroundImageFix"/>
<feBlend mode="normal" in="SourceGraphic" in2="BackgroundImageFix" result="shape"/>
<feGaussianBlur stdDeviation="8" result="effect1_foregroundBlur_53640_7999"/>
</filter>
<filter id="filter32_f_53640_7999" x="105.047" y="7.90674" width="71.6523" height="108.57" filterUnits="userSpaceOnUse" color-interpolation-filters="sRGB">
<feFlood flood-opacity="0" result="BackgroundImageFix"/>
<feBlend mode="normal" in="SourceGraphic" in2="BackgroundImageFix" result="shape"/>
<feGaussianBlur stdDeviation="8" result="effect1_foregroundBlur_53640_7999"/>
</filter>
<filter id="filter33_f_53640_7999" x="56.9858" y="34.5562" width="73.021" height="107.856" filterUnits="userSpaceOnUse" color-interpolation-filters="sRGB">
<feFlood flood-opacity="0" result="BackgroundImageFix"/>
<feBlend mode="normal" in="SourceGraphic" in2="BackgroundImageFix" result="shape"/>
<feGaussianBlur stdDeviation="8" result="effect1_foregroundBlur_53640_7999"/>
</filter>
<filter id="filter34_f_53640_7999" x="129.141" y="7.84033" width="73.1138" height="107.806" filterUnits="userSpaceOnUse" color-interpolation-filters="sRGB">
<feFlood flood-opacity="0" result="BackgroundImageFix"/>
<feBlend mode="normal" in="SourceGraphic" in2="BackgroundImageFix" result="shape"/>
<feGaussianBlur stdDeviation="8" result="effect1_foregroundBlur_53640_7999"/>
</filter>
<filter id="filter35_f_53640_7999" x="147.41" y="23.77" width="89.2886" height="96.4688" filterUnits="userSpaceOnUse" color-interpolation-filters="sRGB">
<feFlood flood-opacity="0" result="BackgroundImageFix"/>
<feBlend mode="normal" in="SourceGraphic" in2="BackgroundImageFix" result="shape"/>
<feGaussianBlur stdDeviation="8" result="effect1_foregroundBlur_53640_7999"/>
</filter>
<filter id="filter36_f_53640_7999" x="158.613" y="47.5459" width="104.811" height="78.2178" filterUnits="userSpaceOnUse" color-interpolation-filters="sRGB">
<feFlood flood-opacity="0" result="BackgroundImageFix"/>
<feBlend mode="normal" in="SourceGraphic" in2="BackgroundImageFix" result="shape"/>
<feGaussianBlur stdDeviation="8" result="effect1_foregroundBlur_53640_7999"/>
</filter>
<filter id="filter37_f_53640_7999" x="166.275" y="72.3677" width="107.977" height="72.7939" filterUnits="userSpaceOnUse" color-interpolation-filters="sRGB">
<feFlood flood-opacity="0" result="BackgroundImageFix"/>
<feBlend mode="normal" in="SourceGraphic" in2="BackgroundImageFix" result="shape"/>
<feGaussianBlur stdDeviation="8" result="effect1_foregroundBlur_53640_7999"/>
</filter>
<filter id="filter38_f_53640_7999" x="167.275" y="97.3677" width="107.977" height="72.7939" filterUnits="userSpaceOnUse" color-interpolation-filters="sRGB">
<feFlood flood-opacity="0" result="BackgroundImageFix"/>
<feBlend mode="normal" in="SourceGraphic" in2="BackgroundImageFix" result="shape"/>
<feGaussianBlur stdDeviation="8" result="effect1_foregroundBlur_53640_7999"/>
</filter>
<filter id="filter39_d_53640_7999" x="100.672" y="111.793" width="80.4023" height="80.4023" filterUnits="userSpaceOnUse" color-interpolation-filters="sRGB">
<feFlood flood-opacity="0" result="BackgroundImageFix"/>
<feColorMatrix in="SourceAlpha" type="matrix" values="0 0 0 0 0 0 0 0 0 0 0 0 0 0 0 0 0 0 127 0" result="hardAlpha"/>
<feOffset dy="3"/>
<feGaussianBlur stdDeviation="4"/>
<feComposite in2="hardAlpha" operator="out"/>
<feColorMatrix type="matrix" values="0 0 0 0 0 0 0 0 0 0 0 0 0 0 0 0 0 0 0.15 0"/>
<feBlend mode="normal" in2="BackgroundImageFix" result="effect1_dropShadow_53640_7999"/>
<feBlend mode="normal" in="SourceGraphic" in2="effect1_dropShadow_53640_7999" result="shape"/>
</filter>
<linearGradient id="paint0_linear_53640_7999" x1="140.874" y1="75.9331" x2="140.874" y2="222.056" gradientUnits="userSpaceOnUse">
<stop stop-color="#456DFF"/>
<stop offset="1" stop-color="#456DFF" stop-opacity="0"/>
</linearGradient>
<linearGradient id="paint1_linear_53640_7999" x1="153.68" y1="229.65" x2="134.013" y2="61.6605" gradientUnits="userSpaceOnUse">
<stop stop-color="#AD62F3" stop-opacity="0"/>
<stop offset="1" stop-color="#D4A7FF"/>
</linearGradient>
<linearGradient id="paint2_linear_53640_7999" x1="140.874" y1="75.9331" x2="140.874" y2="222.056" gradientUnits="userSpaceOnUse">
<stop stop-color="white"/>
<stop offset="1" stop-color="white" stop-opacity="0"/>
</linearGradient>
<linearGradient id="paint3_linear_53640_7999" x1="140.87" y1="75.9331" x2="140.87" y2="222.056" gradientUnits="userSpaceOnUse">
<stop stop-color="#456DFF"/>
<stop offset="1" stop-color="#456DFF" stop-opacity="0"/>
</linearGradient>
<linearGradient id="paint4_linear_53640_7999" x1="153.676" y1="229.65" x2="134.009" y2="61.6605" gradientUnits="userSpaceOnUse">
<stop stop-color="#AD62F3" stop-opacity="0"/>
<stop offset="1" stop-color="#D4A7FF"/>
</linearGradient>
<linearGradient id="paint5_linear_53640_7999" x1="140.87" y1="75.9331" x2="140.87" y2="222.056" gradientUnits="userSpaceOnUse">
<stop stop-color="white"/>
<stop offset="1" stop-color="white" stop-opacity="0"/>
</linearGradient>
<linearGradient id="paint6_linear_53640_7999" x1="140.87" y1="75.9331" x2="140.87" y2="222.056" gradientUnits="userSpaceOnUse">
<stop stop-color="#456DFF"/>
<stop offset="1" stop-color="#456DFF" stop-opacity="0"/>
</linearGradient>
<linearGradient id="paint7_linear_53640_7999" x1="153.676" y1="229.65" x2="134.009" y2="61.6605" gradientUnits="userSpaceOnUse">
<stop stop-color="#AD62F3" stop-opacity="0"/>
<stop offset="1" stop-color="#D4A7FF"/>
</linearGradient>
<linearGradient id="paint8_linear_53640_7999" x1="140.87" y1="75.9331" x2="140.87" y2="222.056" gradientUnits="userSpaceOnUse">
<stop stop-color="white"/>
<stop offset="1" stop-color="white" stop-opacity="0"/>
</linearGradient>
<linearGradient id="paint9_linear_53640_7999" x1="140.873" y1="116.793" x2="140.873" y2="181.196" gradientUnits="userSpaceOnUse">
<stop offset="0.355769" stop-color="white"/>
<stop offset="1" stop-color="#D0CECE"/>
</linearGradient>
</defs>
</svg>
