<svg width="367" height="206" viewBox="0 0 367 206" fill="none" xmlns="http://www.w3.org/2000/svg">
<g filter="url(#filter0_d_3009_1751)">
<g clip-path="url(#clip0_3009_1751)">
<path d="M56.8359 63.0137C56.8359 56.3863 62.2085 51.0137 68.8359 51.0137H289.836C296.463 51.0137 301.836 56.3863 301.836 63.0137V123.014C301.836 129.641 296.463 135.014 289.836 135.014H68.8359C62.2085 135.014 56.8359 129.641 56.8359 123.014V63.0137Z" fill="white" shape-rendering="crispEdges"/>
<path d="M56.8359 63.0137C56.8359 56.3863 62.2085 51.0137 68.8359 51.0137H289.836C296.463 51.0137 301.836 56.3863 301.836 63.0137V123.014C301.836 129.641 296.463 135.014 289.836 135.014H68.8359C62.2085 135.014 56.8359 129.641 56.8359 123.014V63.0137Z" fill="url(#paint0_linear_3009_1751)" fill-opacity="0.2" shape-rendering="crispEdges"/>
<path opacity="0.2" d="M85.835 34.1309C86.4871 34.131 87.1208 34.3501 87.6328 34.7539V34.7549C87.7215 34.8259 91.5369 37.8171 97.5283 40.791C103.518 43.7641 111.701 46.7295 120.52 46.7295C121.289 46.7295 122.028 47.0349 122.572 47.5791C123.117 48.1236 123.423 48.8628 123.423 49.6328V78.0107C123.423 88.5528 121.295 96.3724 115.708 103.093C110.11 109.826 101.019 115.482 87.0264 121.644L87.0244 121.645C86.6504 121.813 86.245 121.899 85.835 121.899C85.4248 121.899 85.0187 121.813 84.6445 121.645L84.6426 121.644L83.3447 121.067C70.0851 115.128 61.3837 109.615 55.9609 103.093C50.3736 96.3724 48.2461 88.5528 48.2461 78.0107V49.6328C48.2461 48.8628 48.5522 48.1236 49.0967 47.5791C49.6411 47.0348 50.3796 46.7295 51.1494 46.7295C60 46.7295 68.183 43.7643 74.165 40.791C80.1487 37.817 83.9478 34.8256 84.0361 34.7549L84.0352 34.7539C84.5474 34.3496 85.1823 34.1309 85.835 34.1309Z" stroke="url(#paint1_linear_3009_1751)" stroke-opacity="0.4" stroke-width="0.5"/>
<path opacity="0.4" d="M85.8359 44.8867C86.2561 44.8867 86.6655 45.0108 87.0137 45.2412L87.1592 45.3467C87.2538 45.422 90.1369 47.6756 94.6523 49.917C99.1869 52.1678 105.385 54.415 112.068 54.415C112.634 54.4151 113.178 54.6397 113.578 55.04C113.978 55.4404 114.203 55.9837 114.203 56.5498V78.0127C114.203 85.9764 112.595 91.8742 108.382 96.9424C104.158 102.023 97.2932 106.296 86.7129 110.955L86.7109 110.956C86.4358 111.08 86.1376 111.144 85.8359 111.144C85.5343 111.144 85.2361 111.08 84.9609 110.956L84.959 110.955L83.0186 110.086C73.5307 105.759 67.2491 101.706 63.2891 96.9424C59.0756 91.8743 57.4688 85.9763 57.4688 78.0127V56.5498C57.4688 55.9837 57.6935 55.4404 58.0938 55.04C58.4941 54.6397 59.0373 54.415 59.6035 54.415C66.3102 54.415 72.5083 52.1679 77.0371 49.917C81.5491 47.6744 84.4211 45.4196 84.5127 45.3467C84.8895 45.049 85.3557 44.8867 85.8359 44.8867Z" stroke="url(#paint2_linear_3009_1751)" stroke-opacity="0.4" stroke-width="0.5"/>
<path d="M85.8359 55.8984C86.1391 55.8984 86.4339 56.0006 86.6719 56.1885C86.7397 56.2424 88.6765 57.756 91.708 59.2607C94.7525 60.7719 98.9186 62.2831 103.414 62.2832C103.772 62.2832 104.115 62.4249 104.368 62.6777C104.621 62.9305 104.763 63.2735 104.763 63.6309V78.0137C104.763 83.3379 103.688 87.2688 100.881 90.6455C98.0631 94.0347 93.478 96.892 86.3906 100.013L86.3887 100.014C86.215 100.092 86.0264 100.132 85.8359 100.132C85.6455 100.132 85.4569 100.092 85.2832 100.014L85.2822 100.013L83.9824 99.4307C77.6285 96.533 73.4337 93.8228 70.792 90.6455C67.9846 87.2688 66.9102 83.3379 66.9102 78.0137V63.6309C66.9102 63.2735 67.052 62.9305 67.3047 62.6777C67.5574 62.425 67.9004 62.2833 68.2578 62.2832C72.7693 62.2832 76.9358 60.7721 79.9766 59.2607C83.0055 57.7553 84.935 56.2411 85.001 56.1885C85.2388 56.0007 85.5329 55.8985 85.8359 55.8984Z" stroke="url(#paint3_linear_3009_1751)" stroke-opacity="0.4" stroke-width="0.5"/>
<g opacity="0.25" filter="url(#filter1_f_3009_1751)">
<path d="M86.3397 67.8033C86.3803 67.8368 90.2559 70.9674 94.7735 70.9674C94.9889 70.9674 95.1956 71.0556 95.348 71.2126C95.5004 71.3695 95.586 71.5824 95.586 71.8044V79.3379C95.586 84.9545 93.3841 87.7084 86.1691 90.9812C86.0643 91.0297 85.9508 91.0548 85.8359 91.0548C85.7211 91.0548 85.6076 91.0297 85.5028 90.9812C78.2878 87.7084 76.0859 84.9545 76.0859 79.3379V71.8044C76.0859 71.5824 76.1715 71.3695 76.3239 71.2126C76.4763 71.0556 76.6829 70.9674 76.8984 70.9674C81.4322 70.9674 85.2916 67.8368 85.3322 67.8033C85.4756 67.6866 85.6531 67.623 85.8359 67.623C86.0188 67.623 86.1963 67.6866 86.3397 67.8033Z" fill="url(#paint4_linear_3009_1751)"/>
</g>
<path d="M86.3397 66.8176C86.3803 66.8501 90.2559 69.8888 94.7735 69.8888C94.9889 69.8888 95.1956 69.9744 95.348 70.1268C95.5004 70.2792 95.586 70.4859 95.586 70.7013V78.0138C95.586 83.4657 93.3841 86.1389 86.1691 89.3157C86.0643 89.3628 85.9508 89.3872 85.8359 89.3872C85.7211 89.3872 85.6076 89.3628 85.5028 89.3157C78.2878 86.1389 76.0859 83.4657 76.0859 78.0138V70.7013C76.0859 70.4859 76.1715 70.2792 76.3239 70.1268C76.4763 69.9744 76.6829 69.8888 76.8984 69.8888C81.4322 69.8888 85.2916 66.8501 85.3322 66.8176C85.4756 66.7042 85.6531 66.6426 85.8359 66.6426C86.0188 66.6426 86.1963 66.7042 86.3397 66.8176Z" fill="white"/>
<g filter="url(#filter2_i_3009_1751)">
<path d="M94.7734 69.8888C90.2559 69.8888 86.3803 66.8501 86.3397 66.8176C86.1962 66.7042 86.0188 66.6426 85.8359 66.6426C85.6531 66.6426 85.4756 66.7042 85.3322 66.8176C85.2916 66.8501 81.4322 69.8888 76.8984 69.8888C76.6829 69.8888 76.4763 69.9744 76.3239 70.1268C76.1715 70.2792 76.0859 70.4859 76.0859 70.7013V78.0138C76.0859 83.4657 78.2878 86.1388 85.5028 89.3157C85.6076 89.3628 85.7211 89.3871 85.8359 89.3871C85.9508 89.3871 86.0643 89.3628 86.1691 89.3157C93.3841 86.1388 95.5859 83.4657 95.5859 78.0138V70.7013C95.5859 70.4859 95.5003 70.2792 95.348 70.1268C95.1956 69.9744 94.9889 69.8888 94.7734 69.8888ZM90.4753 75.3407L84.7878 81.0282C84.7123 81.1044 84.6224 81.1648 84.5234 81.2061C84.4244 81.2473 84.3182 81.2685 84.2109 81.2685C84.1037 81.2685 83.9975 81.2473 83.8985 81.2061C83.7995 81.1648 83.7096 81.1044 83.6341 81.0282L81.1966 78.5907C81.0436 78.4377 80.9576 78.2302 80.9576 78.0138C80.9576 77.7975 81.0436 77.59 81.1966 77.437C81.3496 77.284 81.5571 77.198 81.7734 77.198C81.9898 77.198 82.1973 77.284 82.3503 77.437L84.2109 79.3057L89.3216 74.187C89.4746 74.034 89.6821 73.948 89.8984 73.948C90.1148 73.948 90.3223 74.034 90.4753 74.187C90.6283 74.34 90.7143 74.5475 90.7143 74.7638C90.7143 74.9802 90.6283 75.1877 90.4753 75.3407Z" fill="url(#paint5_linear_3009_1751)"/>
<path d="M94.7734 69.8888C90.2559 69.8888 86.3803 66.8501 86.3397 66.8176C86.1962 66.7042 86.0188 66.6426 85.8359 66.6426C85.6531 66.6426 85.4756 66.7042 85.3322 66.8176C85.2916 66.8501 81.4322 69.8888 76.8984 69.8888C76.6829 69.8888 76.4763 69.9744 76.3239 70.1268C76.1715 70.2792 76.0859 70.4859 76.0859 70.7013V78.0138C76.0859 83.4657 78.2878 86.1388 85.5028 89.3157C85.6076 89.3628 85.7211 89.3871 85.8359 89.3871C85.9508 89.3871 86.0643 89.3628 86.1691 89.3157C93.3841 86.1388 95.5859 83.4657 95.5859 78.0138V70.7013C95.5859 70.4859 95.5003 70.2792 95.348 70.1268C95.1956 69.9744 94.9889 69.8888 94.7734 69.8888ZM90.4753 75.3407L84.7878 81.0282C84.7123 81.1044 84.6224 81.1648 84.5234 81.2061C84.4244 81.2473 84.3182 81.2685 84.2109 81.2685C84.1037 81.2685 83.9975 81.2473 83.8985 81.2061C83.7995 81.1648 83.7096 81.1044 83.6341 81.0282L81.1966 78.5907C81.0436 78.4377 80.9576 78.2302 80.9576 78.0138C80.9576 77.7975 81.0436 77.59 81.1966 77.437C81.3496 77.284 81.5571 77.198 81.7734 77.198C81.9898 77.198 82.1973 77.284 82.3503 77.437L84.2109 79.3057L89.3216 74.187C89.4746 74.034 89.6821 73.948 89.8984 73.948C90.1148 73.948 90.3223 74.034 90.4753 74.187C90.6283 74.34 90.7143 74.5475 90.7143 74.7638C90.7143 74.9802 90.6283 75.1877 90.4753 75.3407Z" fill="url(#paint6_linear_3009_1751)" fill-opacity="0.2"/>
</g>
<path d="M116.907 71.1582C116.864 70.755 116.682 70.4411 116.362 70.2164C116.045 69.9918 115.632 69.8794 115.125 69.8794C114.768 69.8794 114.461 69.9333 114.206 70.041C113.951 70.1487 113.755 70.2949 113.62 70.4796C113.484 70.6642 113.415 70.8751 113.412 71.112C113.412 71.309 113.457 71.4798 113.546 71.6245C113.638 71.7691 113.763 71.8922 113.92 71.9938C114.077 72.0923 114.251 72.1754 114.441 72.2431C114.632 72.3108 114.825 72.3677 115.018 72.4139L115.905 72.6355C116.262 72.7186 116.605 72.8309 116.934 72.9725C117.267 73.1141 117.564 73.2926 117.825 73.508C118.09 73.7234 118.299 73.9835 118.453 74.2882C118.607 74.5929 118.684 74.9499 118.684 75.3592C118.684 75.9132 118.542 76.401 118.259 76.8226C117.976 77.2412 117.567 77.569 117.031 77.8059C116.499 78.0398 115.854 78.1568 115.097 78.1568C114.361 78.1568 113.723 78.0429 113.181 77.8152C112.643 77.5874 112.221 77.255 111.916 76.818C111.615 76.381 111.451 75.8485 111.427 75.2207H113.112C113.136 75.55 113.238 75.8239 113.417 76.0424C113.595 76.2609 113.827 76.4241 114.114 76.5318C114.403 76.6395 114.726 76.6934 115.083 76.6934C115.455 76.6934 115.782 76.638 116.062 76.5272C116.345 76.4133 116.567 76.2563 116.727 76.0563C116.887 75.8532 116.968 75.6162 116.971 75.3453C116.968 75.0991 116.896 74.896 116.754 74.736C116.613 74.5729 116.414 74.4374 116.159 74.3297C115.906 74.2189 115.611 74.1204 115.272 74.0343L114.197 73.7573C113.418 73.5572 112.803 73.2541 112.35 72.8478C111.901 72.4385 111.676 71.8953 111.676 71.2182C111.676 70.6612 111.827 70.1734 112.129 69.7548C112.433 69.3362 112.847 69.0115 113.37 68.7807C113.894 68.5468 114.486 68.4299 115.148 68.4299C115.819 68.4299 116.406 68.5468 116.911 68.7807C117.419 69.0115 117.818 69.3332 118.107 69.7456C118.396 70.1549 118.545 70.6258 118.555 71.1582H116.907ZM119.942 80.6728V70.9228H121.585V72.0953H121.682C121.769 71.923 121.89 71.7399 122.047 71.546C122.204 71.349 122.416 71.1813 122.684 71.0428C122.952 70.9012 123.294 70.8304 123.709 70.8304C124.257 70.8304 124.751 70.9705 125.191 71.2505C125.634 71.5275 125.985 71.9384 126.243 72.4831C126.505 73.0248 126.636 73.6896 126.636 74.4775C126.636 75.2561 126.508 75.9178 126.253 76.4625C125.997 77.0073 125.649 77.4228 125.209 77.709C124.769 77.9952 124.271 78.1383 123.714 78.1383C123.307 78.1383 122.97 78.0706 122.703 77.9352C122.435 77.7998 122.219 77.6367 122.056 77.4458C121.896 77.252 121.772 77.0688 121.682 76.8965H121.613V80.6728H119.942ZM121.581 74.4682C121.581 74.9268 121.645 75.3284 121.775 75.6731C121.907 76.0178 122.096 76.2871 122.343 76.481C122.592 76.6718 122.893 76.7672 123.247 76.7672C123.617 76.7672 123.926 76.6687 124.175 76.4718C124.425 76.2717 124.612 75.9993 124.739 75.6547C124.868 75.3069 124.932 74.9114 124.932 74.4682C124.932 74.0281 124.869 73.6373 124.743 73.2956C124.617 72.954 124.429 72.6863 124.18 72.4924C123.931 72.2985 123.62 72.2015 123.247 72.2015C122.89 72.2015 122.587 72.2954 122.338 72.4831C122.089 72.6709 121.899 72.934 121.77 73.2725C121.644 73.6111 121.581 74.0096 121.581 74.4682ZM129.912 78.1568C129.463 78.1568 129.058 78.0768 128.698 77.9167C128.341 77.7536 128.058 77.5136 127.849 77.1966C127.643 76.8796 127.54 76.4887 127.54 76.024C127.54 75.6239 127.613 75.293 127.761 75.0314C127.909 74.7698 128.111 74.5605 128.366 74.4036C128.621 74.2466 128.909 74.1281 129.229 74.0481C129.552 73.965 129.886 73.905 130.231 73.8681C130.646 73.825 130.983 73.7865 131.242 73.7527C131.501 73.7157 131.688 73.6603 131.805 73.5865C131.925 73.5095 131.985 73.391 131.985 73.231V73.2033C131.985 72.8555 131.882 72.5862 131.676 72.3954C131.47 72.2046 131.173 72.1092 130.785 72.1092C130.376 72.1092 130.051 72.1984 129.811 72.377C129.574 72.5555 129.414 72.7663 129.331 73.0094L127.77 72.7878C127.894 72.3569 128.097 71.9969 128.38 71.7076C128.663 71.4152 129.009 71.1967 129.419 71.052C129.828 70.9043 130.28 70.8304 130.776 70.8304C131.117 70.8304 131.457 70.8704 131.796 70.9505C132.135 71.0305 132.444 71.1628 132.724 71.3475C133.004 71.5291 133.229 71.7768 133.398 72.0907C133.57 72.4047 133.656 72.7971 133.656 73.2679V78.0137H132.05V77.0396H131.995C131.893 77.2366 131.75 77.4212 131.565 77.5936C131.384 77.7628 131.154 77.8998 130.877 78.0044C130.603 78.106 130.282 78.1568 129.912 78.1568ZM130.346 76.9288C130.682 76.9288 130.973 76.8626 131.219 76.7303C131.465 76.5949 131.654 76.4164 131.787 76.1948C131.922 75.9732 131.99 75.7316 131.99 75.47V74.6344C131.938 74.6775 131.848 74.7175 131.722 74.7544C131.599 74.7914 131.461 74.8237 131.307 74.8514C131.153 74.8791 131 74.9037 130.85 74.9252C130.699 74.9468 130.568 74.9653 130.457 74.9806C130.208 75.0145 129.985 75.0699 129.788 75.1468C129.591 75.2238 129.435 75.3315 129.322 75.47C129.208 75.6054 129.151 75.7808 129.151 75.9963C129.151 76.304 129.263 76.5364 129.488 76.6934C129.712 76.8503 129.999 76.9288 130.346 76.9288ZM135.142 78.0137V70.9228H136.739V72.1277H136.822C136.97 71.7214 137.215 71.4044 137.556 71.1767C137.898 70.9458 138.306 70.8304 138.78 70.8304C139.26 70.8304 139.664 70.9474 139.994 71.1813C140.326 71.4121 140.56 71.7276 140.695 72.1277H140.769C140.926 71.7337 141.191 71.4198 141.563 71.1859C141.939 70.9489 142.384 70.8304 142.898 70.8304C143.55 70.8304 144.082 71.0366 144.495 71.449C144.907 71.8614 145.113 72.4631 145.113 73.2541V78.0137H143.438V73.5126C143.438 73.0725 143.321 72.7509 143.087 72.5478C142.853 72.3416 142.567 72.2385 142.228 72.2385C141.825 72.2385 141.509 72.3646 141.282 72.617C141.057 72.8663 140.945 73.191 140.945 73.5911V78.0137H139.306V73.4434C139.306 73.0771 139.195 72.7847 138.974 72.5662C138.755 72.3477 138.469 72.2385 138.115 72.2385C137.875 72.2385 137.656 72.3 137.459 72.4231C137.262 72.5431 137.105 72.714 136.988 72.9355C136.871 73.1541 136.813 73.4095 136.813 73.7019V78.0137H135.142ZM157.81 71.7491H156.083C156.034 71.466 155.943 71.2151 155.811 70.9966C155.679 70.775 155.514 70.5873 155.317 70.4334C155.12 70.2795 154.895 70.1641 154.643 70.0872C154.394 70.0072 154.124 69.9672 153.835 69.9672C153.321 69.9672 152.866 70.0964 152.469 70.3549C152.072 70.6104 151.761 70.9859 151.536 71.4814C151.312 71.9738 151.199 72.5755 151.199 73.2864C151.199 74.0096 151.312 74.619 151.536 75.1145C151.764 75.6069 152.075 75.9793 152.469 76.2317C152.866 76.481 153.32 76.6056 153.831 76.6056C154.114 76.6056 154.378 76.5687 154.625 76.4949C154.874 76.4179 155.097 76.3056 155.294 76.1578C155.494 76.0101 155.662 75.8285 155.797 75.6131C155.936 75.3977 156.031 75.1515 156.083 74.8745L157.81 74.8837C157.745 75.333 157.605 75.7547 157.39 76.1486C157.178 76.5426 156.899 76.8903 156.554 77.1919C156.21 77.4905 155.806 77.7244 155.345 77.8936C154.883 78.0598 154.371 78.1429 153.807 78.1429C152.977 78.1429 152.235 77.9506 151.582 77.5659C150.93 77.1812 150.416 76.6257 150.04 75.8993C149.665 75.173 149.477 74.302 149.477 73.2864C149.477 72.2677 149.667 71.3967 150.045 70.6735C150.424 69.9471 150.939 69.3916 151.592 69.0069C152.244 68.6222 152.983 68.4299 153.807 68.4299C154.334 68.4299 154.823 68.5037 155.276 68.6515C155.728 68.7992 156.131 69.0162 156.485 69.3024C156.839 69.5855 157.13 69.9333 157.358 70.3457C157.588 70.755 157.739 71.2228 157.81 71.7491ZM161.15 78.1568C160.701 78.1568 160.296 78.0768 159.936 77.9167C159.579 77.7536 159.296 77.5136 159.086 77.1966C158.88 76.8796 158.777 76.4887 158.777 76.024C158.777 75.6239 158.851 75.293 158.999 75.0314C159.146 74.7698 159.348 74.5605 159.604 74.4036C159.859 74.2466 160.147 74.1281 160.467 74.0481C160.79 73.965 161.124 73.905 161.469 73.8681C161.884 73.825 162.221 73.7865 162.48 73.7527C162.738 73.7157 162.926 73.6603 163.043 73.5865C163.163 73.5095 163.223 73.391 163.223 73.231V73.2033C163.223 72.8555 163.12 72.5862 162.914 72.3954C162.707 72.2046 162.41 72.1092 162.023 72.1092C161.613 72.1092 161.289 72.1984 161.048 72.377C160.812 72.5555 160.651 72.7663 160.568 73.0094L159.008 72.7878C159.131 72.3569 159.334 71.9969 159.617 71.7076C159.901 71.4152 160.247 71.1967 160.656 71.052C161.065 70.9043 161.518 70.8304 162.013 70.8304C162.355 70.8304 162.695 70.8704 163.034 70.9505C163.372 71.0305 163.681 71.1628 163.961 71.3475C164.242 71.5291 164.466 71.7768 164.635 72.0907C164.808 72.4047 164.894 72.7971 164.894 73.2679V78.0137H163.287V77.0396H163.232C163.131 77.2366 162.987 77.4212 162.803 77.5936C162.621 77.7628 162.392 77.8998 162.115 78.0044C161.841 78.106 161.519 78.1568 161.15 78.1568ZM161.584 76.9288C161.919 76.9288 162.21 76.8626 162.457 76.7303C162.703 76.5949 162.892 76.4164 163.024 76.1948C163.16 75.9732 163.227 75.7316 163.227 75.47V74.6344C163.175 74.6775 163.086 74.7175 162.96 74.7544C162.837 74.7914 162.698 74.8237 162.544 74.8514C162.39 74.8791 162.238 74.9037 162.087 74.9252C161.936 74.9468 161.806 74.9653 161.695 74.9806C161.446 75.0145 161.222 75.0699 161.025 75.1468C160.828 75.2238 160.673 75.3315 160.559 75.47C160.445 75.6054 160.388 75.7808 160.388 75.9963C160.388 76.304 160.501 76.5364 160.725 76.6934C160.95 76.8503 161.236 76.9288 161.584 76.9288ZM168.051 68.5591V78.0137H166.379V68.5591H168.051ZM171.245 68.5591V78.0137H169.574V68.5591H171.245ZM175.872 78.0137V68.5591H179.491C180.175 68.5591 180.743 68.6668 181.195 68.8823C181.65 69.0946 181.991 69.3855 182.215 69.7548C182.443 70.1241 182.557 70.5427 182.557 71.0105C182.557 71.3952 182.483 71.7245 182.335 71.9984C182.188 72.2692 181.989 72.4893 181.74 72.6586C181.49 72.8278 181.212 72.9494 180.904 73.0233V73.1156C181.24 73.1341 181.561 73.2372 181.869 73.4249C182.18 73.6096 182.434 73.8712 182.631 74.2097C182.828 74.5482 182.926 74.9576 182.926 75.4377C182.926 75.927 182.808 76.3671 182.571 76.758C182.334 77.1458 181.977 77.452 181.5 77.6767C181.023 77.9013 180.422 78.0137 179.699 78.0137H175.872ZM177.585 76.5826H179.427C180.049 76.5826 180.496 76.4641 180.77 76.2271C181.047 75.987 181.186 75.6793 181.186 75.3038C181.186 75.0237 181.116 74.7714 180.978 74.5467C180.84 74.319 180.643 74.1404 180.387 74.0112C180.132 73.8788 179.827 73.8127 179.473 73.8127H177.585V76.5826ZM177.585 72.5801H179.279C179.575 72.5801 179.841 72.5262 180.078 72.4185C180.315 72.3077 180.501 72.1523 180.636 71.9522C180.775 71.7491 180.844 71.5091 180.844 71.2321C180.844 70.8658 180.715 70.5642 180.456 70.3272C180.201 70.0903 179.821 69.9718 179.316 69.9718H177.585V72.5801ZM185.818 68.5591V78.0137H184.147V68.5591H185.818ZM190.435 78.1522C189.742 78.1522 189.142 77.9998 188.635 77.6951C188.127 77.3904 187.733 76.9642 187.453 76.4164C187.176 75.8685 187.037 75.2284 187.037 74.4959C187.037 73.7634 187.176 73.1217 187.453 72.5708C187.733 72.0199 188.127 71.5922 188.635 71.2875C189.142 70.9828 189.742 70.8304 190.435 70.8304C191.127 70.8304 191.728 70.9828 192.235 71.2875C192.743 71.5922 193.136 72.0199 193.413 72.5708C193.693 73.1217 193.833 73.7634 193.833 74.4959C193.833 75.2284 193.693 75.8685 193.413 76.4164C193.136 76.9642 192.743 77.3904 192.235 77.6951C191.728 77.9998 191.127 78.1522 190.435 78.1522ZM190.444 76.8134C190.82 76.8134 191.134 76.7103 191.386 76.5041C191.638 76.2948 191.826 76.0147 191.949 75.6639C192.075 75.313 192.138 74.9222 192.138 74.4913C192.138 74.0574 192.075 73.665 191.949 73.3141C191.826 72.9602 191.638 72.6786 191.386 72.4693C191.134 72.26 190.82 72.1554 190.444 72.1554C190.059 72.1554 189.739 72.26 189.484 72.4693C189.232 72.6786 189.042 72.9602 188.916 73.3141C188.793 73.665 188.731 74.0574 188.731 74.4913C188.731 74.9222 188.793 75.313 188.916 75.6639C189.042 76.0147 189.232 76.2948 189.484 76.5041C189.739 76.7103 190.059 76.8134 190.444 76.8134ZM198.149 78.1522C197.441 78.1522 196.833 77.9967 196.326 77.6859C195.821 77.3751 195.432 76.9457 195.158 76.3979C194.887 75.847 194.751 75.213 194.751 74.4959C194.751 73.7757 194.89 73.1402 195.167 72.5893C195.444 72.0353 195.835 71.6045 196.339 71.2967C196.847 70.9859 197.447 70.8304 198.14 70.8304C198.715 70.8304 199.225 70.9366 199.668 71.149C200.114 71.3583 200.47 71.6552 200.734 72.04C200.999 72.4216 201.15 72.8678 201.187 73.3787H199.589C199.525 73.0371 199.371 72.7524 199.128 72.5247C198.888 72.2939 198.566 72.1784 198.163 72.1784C197.821 72.1784 197.521 72.2708 197.263 72.4554C197.004 72.637 196.803 72.8986 196.658 73.2402C196.516 73.5819 196.446 73.9912 196.446 74.4682C196.446 74.9514 196.516 75.3669 196.658 75.7147C196.8 76.0594 196.998 76.3256 197.254 76.5133C197.512 76.698 197.815 76.7903 198.163 76.7903C198.409 76.7903 198.629 76.7441 198.823 76.6518C199.02 76.5564 199.185 76.4194 199.317 76.2409C199.449 76.0624 199.54 75.8455 199.589 75.59H201.187C201.147 76.0917 200.999 76.5364 200.744 76.9242C200.488 77.3089 200.14 77.6105 199.7 77.829C199.26 78.0444 198.743 78.1522 198.149 78.1522ZM203.887 75.7885L203.883 73.7711H204.151L206.699 70.9228H208.652L205.517 74.4128H205.171L203.887 75.7885ZM202.364 78.0137V68.5591H204.035V78.0137H202.364ZM206.814 78.0137L204.506 74.7868L205.632 73.6096L208.813 78.0137H206.814ZM212.418 78.1522C211.707 78.1522 211.093 78.0044 210.576 77.709C210.062 77.4105 209.666 76.9888 209.389 76.4441C209.112 75.8962 208.974 75.2515 208.974 74.5098C208.974 73.7804 209.112 73.1402 209.389 72.5893C209.669 72.0353 210.06 71.6045 210.562 71.2967C211.063 70.9859 211.653 70.8304 212.33 70.8304C212.767 70.8304 213.179 70.9012 213.567 71.0428C213.958 71.1813 214.303 71.3967 214.601 71.6891C214.903 71.9815 215.14 72.3539 215.312 72.8063C215.484 73.2556 215.571 73.7911 215.571 74.4128V74.9252H209.759V73.7988H213.969C213.966 73.4788 213.896 73.1941 213.761 72.9448C213.626 72.6924 213.436 72.4939 213.193 72.3493C212.953 72.2046 212.673 72.1323 212.353 72.1323C212.011 72.1323 211.711 72.2154 211.453 72.3816C211.194 72.5447 210.993 72.7601 210.848 73.0279C210.706 73.2926 210.634 73.5834 210.631 73.9004V74.8837C210.631 75.2961 210.706 75.65 210.857 75.9455C211.008 76.2379 211.219 76.4625 211.49 76.6195C211.761 76.7734 212.078 76.8503 212.441 76.8503C212.684 76.8503 212.904 76.8165 213.101 76.7488C213.298 76.678 213.469 76.5749 213.613 76.4395C213.758 76.304 213.867 76.1363 213.941 75.9363L215.501 76.1117C215.403 76.5241 215.215 76.8842 214.938 77.1919C214.664 77.4966 214.313 77.7336 213.886 77.9029C213.458 78.0691 212.968 78.1522 212.418 78.1522ZM219.421 78.1383C218.864 78.1383 218.365 77.9952 217.925 77.709C217.485 77.4228 217.137 77.0073 216.882 76.4625C216.626 75.9178 216.499 75.2561 216.499 74.4775C216.499 73.6896 216.628 73.0248 216.886 72.4831C217.148 71.9384 217.5 71.5275 217.944 71.2505C218.387 70.9705 218.881 70.8304 219.425 70.8304C219.841 70.8304 220.183 70.9012 220.45 71.0428C220.718 71.1813 220.93 71.349 221.087 71.546C221.244 71.7399 221.366 71.923 221.452 72.0953H221.521V68.5591H223.197V78.0137H221.554V76.8965H221.452C221.366 77.0688 221.241 77.252 221.078 77.4458C220.915 77.6367 220.7 77.7998 220.432 77.9352C220.164 78.0706 219.827 78.1383 219.421 78.1383ZM219.887 76.7672C220.241 76.7672 220.543 76.6718 220.792 76.481C221.041 76.2871 221.23 76.0178 221.36 75.6731C221.489 75.3284 221.554 74.9268 221.554 74.4682C221.554 74.0096 221.489 73.6111 221.36 73.2725C221.234 72.934 221.046 72.6709 220.797 72.4831C220.55 72.2954 220.247 72.2015 219.887 72.2015C219.515 72.2015 219.204 72.2985 218.955 72.4924C218.705 72.6863 218.518 72.954 218.391 73.2956C218.265 73.6373 218.202 74.0281 218.202 74.4682C218.202 74.9114 218.265 75.3069 218.391 75.6547C218.521 75.9993 218.71 76.2717 218.959 76.4718C219.212 76.6687 219.521 76.7672 219.887 76.7672Z" fill="#3D4A5D"/>
<path d="M116.907 71.1582C116.864 70.755 116.682 70.4411 116.362 70.2164C116.045 69.9918 115.632 69.8794 115.125 69.8794C114.768 69.8794 114.461 69.9333 114.206 70.041C113.951 70.1487 113.755 70.2949 113.62 70.4796C113.484 70.6642 113.415 70.8751 113.412 71.112C113.412 71.309 113.457 71.4798 113.546 71.6245C113.638 71.7691 113.763 71.8922 113.92 71.9938C114.077 72.0923 114.251 72.1754 114.441 72.2431C114.632 72.3108 114.825 72.3677 115.018 72.4139L115.905 72.6355C116.262 72.7186 116.605 72.8309 116.934 72.9725C117.267 73.1141 117.564 73.2926 117.825 73.508C118.09 73.7234 118.299 73.9835 118.453 74.2882C118.607 74.5929 118.684 74.9499 118.684 75.3592C118.684 75.9132 118.542 76.401 118.259 76.8226C117.976 77.2412 117.567 77.569 117.031 77.8059C116.499 78.0398 115.854 78.1568 115.097 78.1568C114.361 78.1568 113.723 78.0429 113.181 77.8152C112.643 77.5874 112.221 77.255 111.916 76.818C111.615 76.381 111.451 75.8485 111.427 75.2207H113.112C113.136 75.55 113.238 75.8239 113.417 76.0424C113.595 76.2609 113.827 76.4241 114.114 76.5318C114.403 76.6395 114.726 76.6934 115.083 76.6934C115.455 76.6934 115.782 76.638 116.062 76.5272C116.345 76.4133 116.567 76.2563 116.727 76.0563C116.887 75.8532 116.968 75.6162 116.971 75.3453C116.968 75.0991 116.896 74.896 116.754 74.736C116.613 74.5729 116.414 74.4374 116.159 74.3297C115.906 74.2189 115.611 74.1204 115.272 74.0343L114.197 73.7573C113.418 73.5572 112.803 73.2541 112.35 72.8478C111.901 72.4385 111.676 71.8953 111.676 71.2182C111.676 70.6612 111.827 70.1734 112.129 69.7548C112.433 69.3362 112.847 69.0115 113.37 68.7807C113.894 68.5468 114.486 68.4299 115.148 68.4299C115.819 68.4299 116.406 68.5468 116.911 68.7807C117.419 69.0115 117.818 69.3332 118.107 69.7456C118.396 70.1549 118.545 70.6258 118.555 71.1582H116.907ZM119.942 80.6728V70.9228H121.585V72.0953H121.682C121.769 71.923 121.89 71.7399 122.047 71.546C122.204 71.349 122.416 71.1813 122.684 71.0428C122.952 70.9012 123.294 70.8304 123.709 70.8304C124.257 70.8304 124.751 70.9705 125.191 71.2505C125.634 71.5275 125.985 71.9384 126.243 72.4831C126.505 73.0248 126.636 73.6896 126.636 74.4775C126.636 75.2561 126.508 75.9178 126.253 76.4625C125.997 77.0073 125.649 77.4228 125.209 77.709C124.769 77.9952 124.271 78.1383 123.714 78.1383C123.307 78.1383 122.97 78.0706 122.703 77.9352C122.435 77.7998 122.219 77.6367 122.056 77.4458C121.896 77.252 121.772 77.0688 121.682 76.8965H121.613V80.6728H119.942ZM121.581 74.4682C121.581 74.9268 121.645 75.3284 121.775 75.6731C121.907 76.0178 122.096 76.2871 122.343 76.481C122.592 76.6718 122.893 76.7672 123.247 76.7672C123.617 76.7672 123.926 76.6687 124.175 76.4718C124.425 76.2717 124.612 75.9993 124.739 75.6547C124.868 75.3069 124.932 74.9114 124.932 74.4682C124.932 74.0281 124.869 73.6373 124.743 73.2956C124.617 72.954 124.429 72.6863 124.18 72.4924C123.931 72.2985 123.62 72.2015 123.247 72.2015C122.89 72.2015 122.587 72.2954 122.338 72.4831C122.089 72.6709 121.899 72.934 121.77 73.2725C121.644 73.6111 121.581 74.0096 121.581 74.4682ZM129.912 78.1568C129.463 78.1568 129.058 78.0768 128.698 77.9167C128.341 77.7536 128.058 77.5136 127.849 77.1966C127.643 76.8796 127.54 76.4887 127.54 76.024C127.54 75.6239 127.613 75.293 127.761 75.0314C127.909 74.7698 128.111 74.5605 128.366 74.4036C128.621 74.2466 128.909 74.1281 129.229 74.0481C129.552 73.965 129.886 73.905 130.231 73.8681C130.646 73.825 130.983 73.7865 131.242 73.7527C131.501 73.7157 131.688 73.6603 131.805 73.5865C131.925 73.5095 131.985 73.391 131.985 73.231V73.2033C131.985 72.8555 131.882 72.5862 131.676 72.3954C131.47 72.2046 131.173 72.1092 130.785 72.1092C130.376 72.1092 130.051 72.1984 129.811 72.377C129.574 72.5555 129.414 72.7663 129.331 73.0094L127.77 72.7878C127.894 72.3569 128.097 71.9969 128.38 71.7076C128.663 71.4152 129.009 71.1967 129.419 71.052C129.828 70.9043 130.28 70.8304 130.776 70.8304C131.117 70.8304 131.457 70.8704 131.796 70.9505C132.135 71.0305 132.444 71.1628 132.724 71.3475C133.004 71.5291 133.229 71.7768 133.398 72.0907C133.57 72.4047 133.656 72.7971 133.656 73.2679V78.0137H132.05V77.0396H131.995C131.893 77.2366 131.75 77.4212 131.565 77.5936C131.384 77.7628 131.154 77.8998 130.877 78.0044C130.603 78.106 130.282 78.1568 129.912 78.1568ZM130.346 76.9288C130.682 76.9288 130.973 76.8626 131.219 76.7303C131.465 76.5949 131.654 76.4164 131.787 76.1948C131.922 75.9732 131.99 75.7316 131.99 75.47V74.6344C131.938 74.6775 131.848 74.7175 131.722 74.7544C131.599 74.7914 131.461 74.8237 131.307 74.8514C131.153 74.8791 131 74.9037 130.85 74.9252C130.699 74.9468 130.568 74.9653 130.457 74.9806C130.208 75.0145 129.985 75.0699 129.788 75.1468C129.591 75.2238 129.435 75.3315 129.322 75.47C129.208 75.6054 129.151 75.7808 129.151 75.9963C129.151 76.304 129.263 76.5364 129.488 76.6934C129.712 76.8503 129.999 76.9288 130.346 76.9288ZM135.142 78.0137V70.9228H136.739V72.1277H136.822C136.97 71.7214 137.215 71.4044 137.556 71.1767C137.898 70.9458 138.306 70.8304 138.78 70.8304C139.26 70.8304 139.664 70.9474 139.994 71.1813C140.326 71.4121 140.56 71.7276 140.695 72.1277H140.769C140.926 71.7337 141.191 71.4198 141.563 71.1859C141.939 70.9489 142.384 70.8304 142.898 70.8304C143.55 70.8304 144.082 71.0366 144.495 71.449C144.907 71.8614 145.113 72.4631 145.113 73.2541V78.0137H143.438V73.5126C143.438 73.0725 143.321 72.7509 143.087 72.5478C142.853 72.3416 142.567 72.2385 142.228 72.2385C141.825 72.2385 141.509 72.3646 141.282 72.617C141.057 72.8663 140.945 73.191 140.945 73.5911V78.0137H139.306V73.4434C139.306 73.0771 139.195 72.7847 138.974 72.5662C138.755 72.3477 138.469 72.2385 138.115 72.2385C137.875 72.2385 137.656 72.3 137.459 72.4231C137.262 72.5431 137.105 72.714 136.988 72.9355C136.871 73.1541 136.813 73.4095 136.813 73.7019V78.0137H135.142ZM157.81 71.7491H156.083C156.034 71.466 155.943 71.2151 155.811 70.9966C155.679 70.775 155.514 70.5873 155.317 70.4334C155.12 70.2795 154.895 70.1641 154.643 70.0872C154.394 70.0072 154.124 69.9672 153.835 69.9672C153.321 69.9672 152.866 70.0964 152.469 70.3549C152.072 70.6104 151.761 70.9859 151.536 71.4814C151.312 71.9738 151.199 72.5755 151.199 73.2864C151.199 74.0096 151.312 74.619 151.536 75.1145C151.764 75.6069 152.075 75.9793 152.469 76.2317C152.866 76.481 153.32 76.6056 153.831 76.6056C154.114 76.6056 154.378 76.5687 154.625 76.4949C154.874 76.4179 155.097 76.3056 155.294 76.1578C155.494 76.0101 155.662 75.8285 155.797 75.6131C155.936 75.3977 156.031 75.1515 156.083 74.8745L157.81 74.8837C157.745 75.333 157.605 75.7547 157.39 76.1486C157.178 76.5426 156.899 76.8903 156.554 77.1919C156.21 77.4905 155.806 77.7244 155.345 77.8936C154.883 78.0598 154.371 78.1429 153.807 78.1429C152.977 78.1429 152.235 77.9506 151.582 77.5659C150.93 77.1812 150.416 76.6257 150.04 75.8993C149.665 75.173 149.477 74.302 149.477 73.2864C149.477 72.2677 149.667 71.3967 150.045 70.6735C150.424 69.9471 150.939 69.3916 151.592 69.0069C152.244 68.6222 152.983 68.4299 153.807 68.4299C154.334 68.4299 154.823 68.5037 155.276 68.6515C155.728 68.7992 156.131 69.0162 156.485 69.3024C156.839 69.5855 157.13 69.9333 157.358 70.3457C157.588 70.755 157.739 71.2228 157.81 71.7491ZM161.15 78.1568C160.701 78.1568 160.296 78.0768 159.936 77.9167C159.579 77.7536 159.296 77.5136 159.086 77.1966C158.88 76.8796 158.777 76.4887 158.777 76.024C158.777 75.6239 158.851 75.293 158.999 75.0314C159.146 74.7698 159.348 74.5605 159.604 74.4036C159.859 74.2466 160.147 74.1281 160.467 74.0481C160.79 73.965 161.124 73.905 161.469 73.8681C161.884 73.825 162.221 73.7865 162.48 73.7527C162.738 73.7157 162.926 73.6603 163.043 73.5865C163.163 73.5095 163.223 73.391 163.223 73.231V73.2033C163.223 72.8555 163.12 72.5862 162.914 72.3954C162.707 72.2046 162.41 72.1092 162.023 72.1092C161.613 72.1092 161.289 72.1984 161.048 72.377C160.812 72.5555 160.651 72.7663 160.568 73.0094L159.008 72.7878C159.131 72.3569 159.334 71.9969 159.617 71.7076C159.901 71.4152 160.247 71.1967 160.656 71.052C161.065 70.9043 161.518 70.8304 162.013 70.8304C162.355 70.8304 162.695 70.8704 163.034 70.9505C163.372 71.0305 163.681 71.1628 163.961 71.3475C164.242 71.5291 164.466 71.7768 164.635 72.0907C164.808 72.4047 164.894 72.7971 164.894 73.2679V78.0137H163.287V77.0396H163.232C163.131 77.2366 162.987 77.4212 162.803 77.5936C162.621 77.7628 162.392 77.8998 162.115 78.0044C161.841 78.106 161.519 78.1568 161.15 78.1568ZM161.584 76.9288C161.919 76.9288 162.21 76.8626 162.457 76.7303C162.703 76.5949 162.892 76.4164 163.024 76.1948C163.16 75.9732 163.227 75.7316 163.227 75.47V74.6344C163.175 74.6775 163.086 74.7175 162.96 74.7544C162.837 74.7914 162.698 74.8237 162.544 74.8514C162.39 74.8791 162.238 74.9037 162.087 74.9252C161.936 74.9468 161.806 74.9653 161.695 74.9806C161.446 75.0145 161.222 75.0699 161.025 75.1468C160.828 75.2238 160.673 75.3315 160.559 75.47C160.445 75.6054 160.388 75.7808 160.388 75.9963C160.388 76.304 160.501 76.5364 160.725 76.6934C160.95 76.8503 161.236 76.9288 161.584 76.9288ZM168.051 68.5591V78.0137H166.379V68.5591H168.051ZM171.245 68.5591V78.0137H169.574V68.5591H171.245ZM175.872 78.0137V68.5591H179.491C180.175 68.5591 180.743 68.6668 181.195 68.8823C181.65 69.0946 181.991 69.3855 182.215 69.7548C182.443 70.1241 182.557 70.5427 182.557 71.0105C182.557 71.3952 182.483 71.7245 182.335 71.9984C182.188 72.2692 181.989 72.4893 181.74 72.6586C181.49 72.8278 181.212 72.9494 180.904 73.0233V73.1156C181.24 73.1341 181.561 73.2372 181.869 73.4249C182.18 73.6096 182.434 73.8712 182.631 74.2097C182.828 74.5482 182.926 74.9576 182.926 75.4377C182.926 75.927 182.808 76.3671 182.571 76.758C182.334 77.1458 181.977 77.452 181.5 77.6767C181.023 77.9013 180.422 78.0137 179.699 78.0137H175.872ZM177.585 76.5826H179.427C180.049 76.5826 180.496 76.4641 180.77 76.2271C181.047 75.987 181.186 75.6793 181.186 75.3038C181.186 75.0237 181.116 74.7714 180.978 74.5467C180.84 74.319 180.643 74.1404 180.387 74.0112C180.132 73.8788 179.827 73.8127 179.473 73.8127H177.585V76.5826ZM177.585 72.5801H179.279C179.575 72.5801 179.841 72.5262 180.078 72.4185C180.315 72.3077 180.501 72.1523 180.636 71.9522C180.775 71.7491 180.844 71.5091 180.844 71.2321C180.844 70.8658 180.715 70.5642 180.456 70.3272C180.201 70.0903 179.821 69.9718 179.316 69.9718H177.585V72.5801ZM185.818 68.5591V78.0137H184.147V68.5591H185.818ZM190.435 78.1522C189.742 78.1522 189.142 77.9998 188.635 77.6951C188.127 77.3904 187.733 76.9642 187.453 76.4164C187.176 75.8685 187.037 75.2284 187.037 74.4959C187.037 73.7634 187.176 73.1217 187.453 72.5708C187.733 72.0199 188.127 71.5922 188.635 71.2875C189.142 70.9828 189.742 70.8304 190.435 70.8304C191.127 70.8304 191.728 70.9828 192.235 71.2875C192.743 71.5922 193.136 72.0199 193.413 72.5708C193.693 73.1217 193.833 73.7634 193.833 74.4959C193.833 75.2284 193.693 75.8685 193.413 76.4164C193.136 76.9642 192.743 77.3904 192.235 77.6951C191.728 77.9998 191.127 78.1522 190.435 78.1522ZM190.444 76.8134C190.82 76.8134 191.134 76.7103 191.386 76.5041C191.638 76.2948 191.826 76.0147 191.949 75.6639C192.075 75.313 192.138 74.9222 192.138 74.4913C192.138 74.0574 192.075 73.665 191.949 73.3141C191.826 72.9602 191.638 72.6786 191.386 72.4693C191.134 72.26 190.82 72.1554 190.444 72.1554C190.059 72.1554 189.739 72.26 189.484 72.4693C189.232 72.6786 189.042 72.9602 188.916 73.3141C188.793 73.665 188.731 74.0574 188.731 74.4913C188.731 74.9222 188.793 75.313 188.916 75.6639C189.042 76.0147 189.232 76.2948 189.484 76.5041C189.739 76.7103 190.059 76.8134 190.444 76.8134ZM198.149 78.1522C197.441 78.1522 196.833 77.9967 196.326 77.6859C195.821 77.3751 195.432 76.9457 195.158 76.3979C194.887 75.847 194.751 75.213 194.751 74.4959C194.751 73.7757 194.89 73.1402 195.167 72.5893C195.444 72.0353 195.835 71.6045 196.339 71.2967C196.847 70.9859 197.447 70.8304 198.14 70.8304C198.715 70.8304 199.225 70.9366 199.668 71.149C200.114 71.3583 200.47 71.6552 200.734 72.04C200.999 72.4216 201.15 72.8678 201.187 73.3787H199.589C199.525 73.0371 199.371 72.7524 199.128 72.5247C198.888 72.2939 198.566 72.1784 198.163 72.1784C197.821 72.1784 197.521 72.2708 197.263 72.4554C197.004 72.637 196.803 72.8986 196.658 73.2402C196.516 73.5819 196.446 73.9912 196.446 74.4682C196.446 74.9514 196.516 75.3669 196.658 75.7147C196.8 76.0594 196.998 76.3256 197.254 76.5133C197.512 76.698 197.815 76.7903 198.163 76.7903C198.409 76.7903 198.629 76.7441 198.823 76.6518C199.02 76.5564 199.185 76.4194 199.317 76.2409C199.449 76.0624 199.54 75.8455 199.589 75.59H201.187C201.147 76.0917 200.999 76.5364 200.744 76.9242C200.488 77.3089 200.14 77.6105 199.7 77.829C199.26 78.0444 198.743 78.1522 198.149 78.1522ZM203.887 75.7885L203.883 73.7711H204.151L206.699 70.9228H208.652L205.517 74.4128H205.171L203.887 75.7885ZM202.364 78.0137V68.5591H204.035V78.0137H202.364ZM206.814 78.0137L204.506 74.7868L205.632 73.6096L208.813 78.0137H206.814ZM212.418 78.1522C211.707 78.1522 211.093 78.0044 210.576 77.709C210.062 77.4105 209.666 76.9888 209.389 76.4441C209.112 75.8962 208.974 75.2515 208.974 74.5098C208.974 73.7804 209.112 73.1402 209.389 72.5893C209.669 72.0353 210.06 71.6045 210.562 71.2967C211.063 70.9859 211.653 70.8304 212.33 70.8304C212.767 70.8304 213.179 70.9012 213.567 71.0428C213.958 71.1813 214.303 71.3967 214.601 71.6891C214.903 71.9815 215.14 72.3539 215.312 72.8063C215.484 73.2556 215.571 73.7911 215.571 74.4128V74.9252H209.759V73.7988H213.969C213.966 73.4788 213.896 73.1941 213.761 72.9448C213.626 72.6924 213.436 72.4939 213.193 72.3493C212.953 72.2046 212.673 72.1323 212.353 72.1323C212.011 72.1323 211.711 72.2154 211.453 72.3816C211.194 72.5447 210.993 72.7601 210.848 73.0279C210.706 73.2926 210.634 73.5834 210.631 73.9004V74.8837C210.631 75.2961 210.706 75.65 210.857 75.9455C211.008 76.2379 211.219 76.4625 211.49 76.6195C211.761 76.7734 212.078 76.8503 212.441 76.8503C212.684 76.8503 212.904 76.8165 213.101 76.7488C213.298 76.678 213.469 76.5749 213.613 76.4395C213.758 76.304 213.867 76.1363 213.941 75.9363L215.501 76.1117C215.403 76.5241 215.215 76.8842 214.938 77.1919C214.664 77.4966 214.313 77.7336 213.886 77.9029C213.458 78.0691 212.968 78.1522 212.418 78.1522ZM219.421 78.1383C218.864 78.1383 218.365 77.9952 217.925 77.709C217.485 77.4228 217.137 77.0073 216.882 76.4625C216.626 75.9178 216.499 75.2561 216.499 74.4775C216.499 73.6896 216.628 73.0248 216.886 72.4831C217.148 71.9384 217.5 71.5275 217.944 71.2505C218.387 70.9705 218.881 70.8304 219.425 70.8304C219.841 70.8304 220.183 70.9012 220.45 71.0428C220.718 71.1813 220.93 71.349 221.087 71.546C221.244 71.7399 221.366 71.923 221.452 72.0953H221.521V68.5591H223.197V78.0137H221.554V76.8965H221.452C221.366 77.0688 221.241 77.252 221.078 77.4458C220.915 77.6367 220.7 77.7998 220.432 77.9352C220.164 78.0706 219.827 78.1383 219.421 78.1383ZM219.887 76.7672C220.241 76.7672 220.543 76.6718 220.792 76.481C221.041 76.2871 221.23 76.0178 221.36 75.6731C221.489 75.3284 221.554 74.9268 221.554 74.4682C221.554 74.0096 221.489 73.6111 221.36 73.2725C221.234 72.934 221.046 72.6709 220.797 72.4831C220.55 72.2954 220.247 72.2015 219.887 72.2015C219.515 72.2015 219.204 72.2985 218.955 72.4924C218.705 72.6863 218.518 72.954 218.391 73.2956C218.265 73.6373 218.202 74.0281 218.202 74.4682C218.202 74.9114 218.265 75.3069 218.391 75.6547C218.521 75.9993 218.71 76.2717 218.959 76.4718C219.212 76.6687 219.521 76.7672 219.887 76.7672Z" fill="url(#paint7_linear_3009_1751)" fill-opacity="0.7"/>
<path opacity="0.8" d="M116.555 93.579C116.509 93.1756 116.322 92.8631 115.992 92.6415C115.663 92.4171 115.248 92.3049 114.748 92.3049C114.39 92.3049 114.08 92.3617 113.819 92.4753C113.558 92.5861 113.354 92.7395 113.21 92.9355C113.067 93.1287 112.996 93.3489 112.996 93.5961C112.996 93.8034 113.045 93.9824 113.141 94.133C113.241 94.2836 113.37 94.41 113.529 94.5123C113.691 94.6117 113.864 94.6955 114.049 94.7637C114.234 94.829 114.411 94.883 114.582 94.9256L115.434 95.1472C115.712 95.2154 115.998 95.3077 116.29 95.4242C116.583 95.5407 116.854 95.6941 117.104 95.8844C117.354 96.0748 117.556 96.3105 117.71 96.5918C117.866 96.873 117.944 97.2097 117.944 97.6017C117.944 98.0961 117.816 98.535 117.56 98.9185C117.308 99.302 116.94 99.6046 116.457 99.8262C115.977 100.048 115.396 100.159 114.714 100.159C114.06 100.159 113.495 100.055 113.018 99.8475C112.54 99.6401 112.167 99.3461 111.897 98.9654C111.627 98.5819 111.478 98.1273 111.45 97.6017H112.771C112.796 97.9171 112.898 98.1799 113.077 98.3901C113.259 98.5975 113.491 98.7523 113.772 98.8546C114.056 98.954 114.367 99.0037 114.705 99.0037C115.077 99.0037 115.408 98.9455 115.698 98.829C115.991 98.7097 116.221 98.5449 116.388 98.3347C116.556 98.1216 116.64 97.873 116.64 97.589C116.64 97.3304 116.566 97.1188 116.418 96.954C116.273 96.7892 116.076 96.6529 115.826 96.5449C115.579 96.437 115.299 96.3418 114.987 96.2594L113.955 95.9782C113.256 95.7878 112.702 95.508 112.293 95.1387C111.887 94.7694 111.684 94.2807 111.684 93.6728C111.684 93.1699 111.82 92.731 112.093 92.356C112.366 91.981 112.735 91.6898 113.201 91.4824C113.667 91.2722 114.192 91.1671 114.778 91.1671C115.369 91.1671 115.89 91.2708 116.342 91.4782C116.796 91.6855 117.154 91.9711 117.415 92.3347C117.677 92.6955 117.813 93.1103 117.825 93.579H116.555ZM119.235 102.468V93.4682H120.479V94.5293H120.586C120.66 94.3929 120.766 94.2353 120.906 94.0563C121.045 93.8773 121.238 93.7211 121.485 93.5875C121.732 93.4512 122.059 93.383 122.465 93.383C122.994 93.383 123.465 93.5165 123.88 93.7836C124.295 94.0506 124.62 94.4355 124.856 94.9384C125.095 95.4412 125.214 96.0463 125.214 96.7537C125.214 97.4611 125.096 98.0676 124.86 98.5733C124.624 99.0762 124.3 99.464 123.889 99.7367C123.477 100.007 123.006 100.142 122.478 100.142C122.08 100.142 121.755 100.075 121.502 99.9412C121.252 99.8077 121.056 99.6515 120.914 99.4725C120.772 99.2935 120.663 99.1344 120.586 98.9952H120.509V102.468H119.235ZM120.484 96.7409C120.484 97.2012 120.55 97.6046 120.684 97.9512C120.818 98.2978 121.011 98.5691 121.264 98.7651C121.516 98.9583 121.826 99.0549 122.193 99.0549C122.573 99.0549 122.891 98.954 123.147 98.7523C123.403 98.5478 123.596 98.2708 123.727 97.9213C123.86 97.5719 123.927 97.1784 123.927 96.7409C123.927 96.3091 123.862 95.9213 123.731 95.5776C123.603 95.2338 123.41 94.9625 123.151 94.7637C122.896 94.5648 122.576 94.4654 122.193 94.4654C121.823 94.4654 121.511 94.5605 121.255 94.7509C121.002 94.9412 120.81 95.2069 120.68 95.5478C120.549 95.8887 120.484 96.2864 120.484 96.7409ZM128.366 100.159C127.951 100.159 127.576 100.082 127.241 99.9284C126.906 99.7722 126.64 99.5463 126.444 99.2509C126.251 98.9554 126.155 98.5932 126.155 98.1642C126.155 97.7949 126.226 97.4909 126.368 97.2523C126.51 97.0137 126.701 96.8248 126.943 96.6855C127.184 96.5463 127.454 96.4412 127.753 96.3702C128.051 96.2992 128.355 96.2452 128.665 96.2083C129.057 96.1628 129.375 96.1259 129.619 96.0975C129.863 96.0662 130.041 96.0165 130.152 95.9483C130.263 95.8801 130.318 95.7694 130.318 95.6159V95.5861C130.318 95.214 130.213 94.9256 130.003 94.7211C129.795 94.5165 129.486 94.4142 129.074 94.4142C128.645 94.4142 128.307 94.5094 128.059 94.6998C127.815 94.8873 127.646 95.0961 127.552 95.3262L126.355 95.0534C126.497 94.6557 126.704 94.3347 126.977 94.0904C127.253 93.8432 127.569 93.6642 127.927 93.5534C128.285 93.4398 128.662 93.383 129.057 93.383C129.318 93.383 129.595 93.4142 129.888 93.4767C130.183 93.5364 130.459 93.6472 130.714 93.8091C130.973 93.9711 131.184 94.2026 131.349 94.5037C131.514 94.802 131.596 95.1898 131.596 95.6671V100.014H130.352V99.1188H130.301C130.218 99.2836 130.095 99.4455 129.93 99.6046C129.765 99.7637 129.554 99.8958 129.295 100.001C129.037 100.106 128.727 100.159 128.366 100.159ZM128.643 99.1358C128.995 99.1358 129.297 99.0662 129.547 98.927C129.799 98.7878 129.991 98.606 130.122 98.3816C130.255 98.1543 130.322 97.9114 130.322 97.6529V96.8091C130.277 96.8546 130.189 96.8972 130.058 96.937C129.93 96.9739 129.784 97.0066 129.619 97.035C129.454 97.0605 129.294 97.0847 129.138 97.1074C128.981 97.1273 128.851 97.1444 128.745 97.1586C128.498 97.1898 128.272 97.2424 128.068 97.3162C127.866 97.3901 127.704 97.4966 127.582 97.6358C127.463 97.7722 127.403 97.954 127.403 98.1813C127.403 98.4966 127.52 98.7353 127.753 98.8972C127.986 99.0563 128.282 99.1358 128.643 99.1358ZM133.113 100.014V93.4682H134.336V94.5336H134.417C134.554 94.1728 134.777 93.8915 135.086 93.6898C135.396 93.4853 135.767 93.383 136.199 93.383C136.636 93.383 137.003 93.4853 137.298 93.6898C137.596 93.8944 137.817 94.1756 137.959 94.5336H138.027C138.183 94.1841 138.432 93.9057 138.772 93.6983C139.113 93.4881 139.52 93.383 139.991 93.383C140.585 93.383 141.069 93.5691 141.444 93.9412C141.822 94.3134 142.011 94.8745 142.011 95.6245V100.014H140.737V95.7438C140.737 95.3006 140.616 94.9796 140.375 94.7807C140.133 94.5819 139.845 94.4824 139.51 94.4824C139.095 94.4824 138.772 94.6103 138.542 94.8659C138.312 95.1188 138.197 95.4441 138.197 95.8418V100.014H136.927V95.6628C136.927 95.3077 136.817 95.0222 136.595 94.8063C136.373 94.5904 136.085 94.4824 135.73 94.4824C135.488 94.4824 135.265 94.5463 135.061 94.6742C134.859 94.7992 134.696 94.9739 134.571 95.1983C134.449 95.4228 134.388 95.6827 134.388 95.9782V100.014H133.113ZM149.292 100.146C148.658 100.146 148.113 100.002 147.655 99.7154C147.201 99.4256 146.851 99.0265 146.607 98.5179C146.363 98.0094 146.241 97.427 146.241 96.7708C146.241 96.106 146.366 95.5194 146.616 95.0108C146.866 94.4995 147.218 94.1003 147.672 93.8134C148.127 93.5265 148.662 93.383 149.279 93.383C149.776 93.383 150.219 93.4753 150.609 93.66C150.998 93.8418 151.312 94.0975 151.55 94.427C151.792 94.7566 151.935 95.1415 151.981 95.5819H150.741C150.672 95.275 150.516 95.0108 150.272 94.7892C150.03 94.5676 149.707 94.4569 149.3 94.4569C148.945 94.4569 148.634 94.5506 148.367 94.7381C148.103 94.9228 147.897 95.187 147.749 95.5307C147.601 95.8716 147.528 96.275 147.528 96.7409C147.528 97.2182 147.6 97.6301 147.745 97.9767C147.89 98.3233 148.094 98.5918 148.359 98.7821C148.626 98.9725 148.939 99.0676 149.3 99.0676C149.542 99.0676 149.761 99.0236 149.957 98.9355C150.155 98.8446 150.322 98.7154 150.455 98.5478C150.591 98.3801 150.687 98.1784 150.741 97.9426H151.981C151.935 98.3659 151.797 98.7438 151.567 99.0762C151.337 99.4086 151.029 99.6699 150.643 99.8603C150.259 100.051 149.809 100.146 149.292 100.146ZM155.068 100.159C154.653 100.159 154.278 100.082 153.943 99.9284C153.608 99.7722 153.342 99.5463 153.146 99.2509C152.953 98.9554 152.856 98.5932 152.856 98.1642C152.856 97.7949 152.927 97.4909 153.07 97.2523C153.212 97.0137 153.403 96.8248 153.645 96.6855C153.886 96.5463 154.156 96.4412 154.454 96.3702C154.753 96.2992 155.057 96.2452 155.366 96.2083C155.758 96.1628 156.077 96.1259 156.321 96.0975C156.565 96.0662 156.743 96.0165 156.854 95.9483C156.964 95.8801 157.02 95.7694 157.02 95.6159V95.5861C157.02 95.214 156.915 94.9256 156.704 94.7211C156.497 94.5165 156.187 94.4142 155.775 94.4142C155.346 94.4142 155.008 94.5094 154.761 94.6998C154.517 94.8873 154.348 95.0961 154.254 95.3262L153.057 95.0534C153.199 94.6557 153.406 94.3347 153.679 94.0904C153.954 93.8432 154.271 93.6642 154.629 93.5534C154.987 93.4398 155.364 93.383 155.758 93.383C156.02 93.383 156.297 93.4142 156.589 93.4767C156.885 93.5364 157.16 93.6472 157.416 93.8091C157.675 93.9711 157.886 94.2026 158.051 94.5037C158.216 94.802 158.298 95.1898 158.298 95.6671V100.014H157.054V99.1188H157.003C156.92 99.2836 156.797 99.4455 156.632 99.6046C156.467 99.7637 156.256 99.8958 155.997 100.001C155.739 100.106 155.429 100.159 155.068 100.159ZM155.345 99.1358C155.697 99.1358 155.998 99.0662 156.248 98.927C156.501 98.7878 156.693 98.606 156.824 98.3816C156.957 98.1543 157.024 97.9114 157.024 97.6529V96.8091C156.979 96.8546 156.891 96.8972 156.76 96.937C156.632 96.9739 156.486 97.0066 156.321 97.035C156.156 97.0605 155.996 97.0847 155.839 97.1074C155.683 97.1273 155.552 97.1444 155.447 97.1586C155.2 97.1898 154.974 97.2424 154.77 97.3162C154.568 97.3901 154.406 97.4966 154.284 97.6358C154.165 97.7722 154.105 97.954 154.105 98.1813C154.105 98.4966 154.221 98.7353 154.454 98.8972C154.687 99.0563 154.984 99.1358 155.345 99.1358ZM161.089 91.2864V100.014H159.815V91.2864H161.089ZM163.898 91.2864V100.014H162.624V91.2864H163.898ZM168.428 100.014V93.4682H169.702V100.014H168.428ZM169.071 92.4583C168.85 92.4583 168.659 92.3844 168.5 92.2367C168.344 92.0861 168.266 91.9071 168.266 91.6998C168.266 91.4895 168.344 91.3105 168.5 91.1628C168.659 91.0123 168.85 90.937 169.071 90.937C169.293 90.937 169.482 91.0123 169.638 91.1628C169.797 91.3105 169.876 91.4895 169.876 91.6998C169.876 91.9071 169.797 92.0861 169.638 92.2367C169.482 92.3844 169.293 92.4583 169.071 92.4583ZM172.51 96.1273V100.014H171.236V93.4682H172.459V94.5336H172.54C172.69 94.187 172.926 93.9086 173.247 93.6983C173.571 93.4881 173.979 93.383 174.47 93.383C174.916 93.383 175.307 93.4767 175.642 93.6642C175.977 93.8489 176.237 94.1245 176.422 94.4909C176.607 94.8574 176.699 95.3105 176.699 95.8503V100.014H175.425V96.0037C175.425 95.5293 175.301 95.1586 175.054 94.8915C174.807 94.6216 174.467 94.4867 174.036 94.4867C173.74 94.4867 173.477 94.5506 173.247 94.6784C173.02 94.8063 172.84 94.9938 172.706 95.2409C172.575 95.4853 172.51 95.7807 172.51 96.1273ZM181.283 93.4682V94.4909H177.708V93.4682H181.283ZM178.667 91.9H179.941V98.0918C179.941 98.339 179.978 98.525 180.052 98.65C180.126 98.7722 180.221 98.856 180.337 98.9015C180.456 98.9441 180.586 98.9654 180.725 98.9654C180.827 98.9654 180.917 98.9583 180.993 98.9441C181.07 98.9299 181.13 98.9185 181.172 98.91L181.402 99.9625C181.329 99.9909 181.224 100.019 181.087 100.048C180.951 100.079 180.78 100.096 180.576 100.099C180.241 100.105 179.928 100.045 179.638 99.9199C179.349 99.7949 179.114 99.6017 178.935 99.3404C178.756 99.079 178.667 98.7509 178.667 98.356V91.9ZM185.263 100.146C184.618 100.146 184.063 100.008 183.597 99.7324C183.134 99.454 182.776 99.0634 182.523 98.5605C182.273 98.0549 182.148 97.4625 182.148 96.7836C182.148 96.1131 182.273 95.5222 182.523 95.0108C182.776 94.4995 183.128 94.1003 183.58 93.8134C184.035 93.5265 184.566 93.383 185.174 93.383C185.543 93.383 185.901 93.4441 186.248 93.5662C186.594 93.6884 186.905 93.8801 187.181 94.1415C187.457 94.4029 187.674 94.7424 187.833 95.16C187.992 95.5748 188.072 96.079 188.072 96.6728V97.1245H182.868V96.1699H186.823C186.823 95.8347 186.755 95.5378 186.618 95.2793C186.482 95.0179 186.29 94.812 186.043 94.6614C185.799 94.5108 185.512 94.4355 185.182 94.4355C184.824 94.4355 184.512 94.5236 184.245 94.6998C183.981 94.873 183.776 95.1003 183.631 95.3816C183.489 95.66 183.418 95.9625 183.418 96.2892V97.035C183.418 97.4725 183.495 97.8446 183.648 98.1515C183.805 98.4583 184.022 98.6926 184.3 98.8546C184.579 99.0137 184.904 99.0932 185.276 99.0932C185.518 99.0932 185.738 99.0591 185.937 98.9909C186.136 98.9199 186.307 98.8148 186.452 98.6756C186.597 98.5364 186.708 98.3645 186.785 98.16L187.991 98.3773C187.894 98.7324 187.721 99.0435 187.471 99.3105C187.224 99.5748 186.912 99.7807 186.537 99.9284C186.165 100.073 185.741 100.146 185.263 100.146ZM189.305 100.014V93.4682H190.537V94.508H190.605C190.724 94.1557 190.935 93.8787 191.236 93.677C191.54 93.4725 191.883 93.3702 192.267 93.3702C192.346 93.3702 192.44 93.373 192.548 93.3787C192.659 93.3844 192.746 93.3915 192.808 93.4V94.6188C192.757 94.6046 192.666 94.589 192.535 94.5719C192.405 94.552 192.274 94.5421 192.143 94.5421C191.842 94.5421 191.574 94.606 191.338 94.7338C191.105 94.8588 190.92 95.0336 190.784 95.258C190.648 95.4796 190.579 95.7324 190.579 96.0165V100.014H189.305ZM196.253 100.146C195.62 100.146 195.075 100.002 194.617 99.7154C194.163 99.4256 193.813 99.0265 193.569 98.5179C193.325 98.0094 193.202 97.427 193.202 96.7708C193.202 96.106 193.327 95.5194 193.577 95.0108C193.827 94.4995 194.18 94.1003 194.634 93.8134C195.089 93.5265 195.624 93.383 196.241 93.383C196.738 93.383 197.181 93.4753 197.57 93.66C197.959 93.8418 198.273 94.0975 198.512 94.427C198.753 94.7566 198.897 95.1415 198.942 95.5819H197.702C197.634 95.275 197.478 95.0108 197.234 94.7892C196.992 94.5676 196.668 94.4569 196.262 94.4569C195.907 94.4569 195.596 94.5506 195.329 94.7381C195.065 94.9228 194.859 95.187 194.711 95.5307C194.563 95.8716 194.489 96.275 194.489 96.7409C194.489 97.2182 194.562 97.6301 194.707 97.9767C194.851 98.3233 195.056 98.5918 195.32 98.7821C195.587 98.9725 195.901 99.0676 196.262 99.0676C196.503 99.0676 196.722 99.0236 196.918 98.9355C197.117 98.8446 197.283 98.7154 197.417 98.5478C197.553 98.3801 197.648 98.1784 197.702 97.9426H198.942C198.897 98.3659 198.759 98.7438 198.529 99.0762C198.299 99.4086 197.991 99.6699 197.604 99.8603C197.221 100.051 196.771 100.146 196.253 100.146ZM202.946 100.146C202.301 100.146 201.746 100.008 201.28 99.7324C200.817 99.454 200.459 99.0634 200.206 98.5605C199.956 98.0549 199.831 97.4625 199.831 96.7836C199.831 96.1131 199.956 95.5222 200.206 95.0108C200.459 94.4995 200.811 94.1003 201.263 93.8134C201.717 93.5265 202.249 93.383 202.857 93.383C203.226 93.383 203.584 93.4441 203.93 93.5662C204.277 93.6884 204.588 93.8801 204.864 94.1415C205.139 94.4029 205.357 94.7424 205.516 95.16C205.675 95.5748 205.754 96.079 205.754 96.6728V97.1245H200.551V96.1699H204.506C204.506 95.8347 204.437 95.5378 204.301 95.2793C204.165 95.0179 203.973 94.812 203.726 94.6614C203.482 94.5108 203.195 94.4355 202.865 94.4355C202.507 94.4355 202.195 94.5236 201.928 94.6998C201.663 94.873 201.459 95.1003 201.314 95.3816C201.172 95.66 201.101 95.9625 201.101 96.2892V97.035C201.101 97.4725 201.178 97.8446 201.331 98.1515C201.487 98.4583 201.705 98.6926 201.983 98.8546C202.261 99.0137 202.587 99.0932 202.959 99.0932C203.2 99.0932 203.42 99.0591 203.619 98.9909C203.818 98.9199 203.99 98.8148 204.135 98.6756C204.28 98.5364 204.391 98.3645 204.467 98.16L205.673 98.3773C205.577 98.7324 205.403 99.0435 205.153 99.3105C204.906 99.5748 204.595 99.7807 204.22 99.9284C203.848 100.073 203.423 100.146 202.946 100.146ZM206.988 102.468V93.4682H208.232V94.5293H208.339C208.413 94.3929 208.519 94.2353 208.658 94.0563C208.798 93.8773 208.991 93.7211 209.238 93.5875C209.485 93.4512 209.812 93.383 210.218 93.383C210.746 93.383 211.218 93.5165 211.633 93.7836C212.048 94.0506 212.373 94.4355 212.609 94.9384C212.847 95.4412 212.967 96.0463 212.967 96.7537C212.967 97.4611 212.849 98.0676 212.613 98.5733C212.377 99.0762 212.053 99.464 211.641 99.7367C211.229 100.007 210.759 100.142 210.231 100.142C209.833 100.142 209.508 100.075 209.255 99.9412C209.005 99.8077 208.809 99.6515 208.667 99.4725C208.525 99.2935 208.415 99.1344 208.339 98.9952H208.262V102.468H206.988ZM208.237 96.7409C208.237 97.2012 208.303 97.6046 208.437 97.9512C208.57 98.2978 208.764 98.5691 209.016 98.7651C209.269 98.9583 209.579 99.0549 209.945 99.0549C210.326 99.0549 210.644 98.954 210.9 98.7523C211.156 98.5478 211.349 98.2708 211.479 97.9213C211.613 97.5719 211.68 97.1784 211.68 96.7409C211.68 96.3091 211.614 95.9213 211.484 95.5776C211.356 95.2338 211.163 94.9625 210.904 94.7637C210.648 94.5648 210.329 94.4654 209.945 94.4654C209.576 94.4654 209.264 94.5605 209.008 94.7509C208.755 94.9412 208.563 95.2069 208.433 95.5478C208.302 95.8887 208.237 96.2864 208.237 96.7409ZM217.27 93.4682V94.4909H213.694V93.4682H217.27ZM214.653 91.9H215.927V98.0918C215.927 98.339 215.964 98.525 216.038 98.65C216.112 98.7722 216.207 98.856 216.324 98.9015C216.443 98.9441 216.572 98.9654 216.711 98.9654C216.814 98.9654 216.903 98.9583 216.98 98.9441C217.057 98.9299 217.116 98.9185 217.159 98.91L217.389 99.9625C217.315 99.9909 217.21 100.019 217.074 100.048C216.937 100.079 216.767 100.096 216.562 100.099C216.227 100.105 215.914 100.045 215.625 99.9199C215.335 99.7949 215.101 99.6017 214.922 99.3404C214.743 99.079 214.653 98.7509 214.653 98.356V91.9ZM221.25 100.146C220.605 100.146 220.049 100.008 219.584 99.7324C219.12 99.454 218.763 99.0634 218.51 98.5605C218.26 98.0549 218.135 97.4625 218.135 96.7836C218.135 96.1131 218.26 95.5222 218.51 95.0108C218.763 94.4995 219.115 94.1003 219.567 93.8134C220.021 93.5265 220.552 93.383 221.16 93.383C221.53 93.383 221.888 93.4441 222.234 93.5662C222.581 93.6884 222.892 93.8801 223.167 94.1415C223.443 94.4029 223.66 94.7424 223.819 95.16C223.978 95.5748 224.058 96.079 224.058 96.6728V97.1245H218.855V96.1699H222.809C222.809 95.8347 222.741 95.5378 222.605 95.2793C222.468 95.0179 222.277 94.812 222.03 94.6614C221.785 94.5108 221.498 94.4355 221.169 94.4355C220.811 94.4355 220.498 94.5236 220.231 94.6998C219.967 94.873 219.763 95.1003 219.618 95.3816C219.476 95.66 219.405 95.9625 219.405 96.2892V97.035C219.405 97.4725 219.481 97.8446 219.635 98.1515C219.791 98.4583 220.008 98.6926 220.287 98.8546C220.565 99.0137 220.89 99.0932 221.263 99.0932C221.504 99.0932 221.724 99.0591 221.923 98.9909C222.122 98.9199 222.294 98.8148 222.439 98.6756C222.584 98.5364 222.694 98.3645 222.771 98.16L223.977 98.3773C223.88 98.7324 223.707 99.0435 223.457 99.3105C223.21 99.5748 222.899 99.7807 222.524 99.9284C222.152 100.073 221.727 100.146 221.25 100.146ZM227.742 100.142C227.214 100.142 226.742 100.007 226.327 99.7367C225.915 99.464 225.591 99.0762 225.356 98.5733C225.123 98.0676 225.006 97.4611 225.006 96.7537C225.006 96.0463 225.124 95.4412 225.36 94.9384C225.599 94.4355 225.925 94.0506 226.34 93.7836C226.755 93.5165 227.225 93.383 227.75 93.383C228.157 93.383 228.483 93.4512 228.731 93.5875C228.981 93.7211 229.174 93.8773 229.31 94.0563C229.449 94.2353 229.557 94.3929 229.634 94.5293H229.711V91.2864H230.985V100.014H229.741V98.9952H229.634C229.557 99.1344 229.447 99.2935 229.302 99.4725C229.16 99.6515 228.964 99.8077 228.714 99.9412C228.464 100.075 228.14 100.142 227.742 100.142ZM228.023 99.0549C228.39 99.0549 228.699 98.9583 228.952 98.7651C229.208 98.5691 229.401 98.2978 229.532 97.9512C229.665 97.6046 229.732 97.2012 229.732 96.7409C229.732 96.2864 229.667 95.8887 229.536 95.5478C229.405 95.2069 229.214 94.9412 228.961 94.7509C228.708 94.5605 228.395 94.4654 228.023 94.4654C227.64 94.4654 227.32 94.5648 227.064 94.7637C226.809 94.9625 226.616 95.2338 226.485 95.5776C226.357 95.9213 226.293 96.3091 226.293 96.7409C226.293 97.1784 226.358 97.5719 226.489 97.9213C226.62 98.2708 226.813 98.5478 227.069 98.7523C227.327 98.954 227.645 99.0549 228.023 99.0549ZM237.524 100.159C237.109 100.159 236.734 100.082 236.399 99.9284C236.064 99.7722 235.798 99.5463 235.602 99.2509C235.409 98.9554 235.312 98.5932 235.312 98.1642C235.312 97.7949 235.383 97.4909 235.525 97.2523C235.667 97.0137 235.859 96.8248 236.101 96.6855C236.342 96.5463 236.612 96.4412 236.91 96.3702C237.209 96.2992 237.513 96.2452 237.822 96.2083C238.214 96.1628 238.533 96.1259 238.777 96.0975C239.021 96.0662 239.199 96.0165 239.31 95.9483C239.42 95.8801 239.476 95.7694 239.476 95.6159V95.5861C239.476 95.214 239.371 94.9256 239.16 94.7211C238.953 94.5165 238.643 94.4142 238.231 94.4142C237.802 94.4142 237.464 94.5094 237.217 94.6998C236.973 94.8873 236.804 95.0961 236.71 95.3262L235.513 95.0534C235.655 94.6557 235.862 94.3347 236.135 94.0904C236.41 93.8432 236.727 93.6642 237.085 93.5534C237.443 93.4398 237.819 93.383 238.214 93.383C238.476 93.383 238.753 93.4142 239.045 93.4767C239.341 93.5364 239.616 93.6472 239.872 93.8091C240.131 93.9711 240.342 94.2026 240.507 94.5037C240.672 94.802 240.754 95.1898 240.754 95.6671V100.014H239.51V99.1188H239.459C239.376 99.2836 239.253 99.4455 239.088 99.6046C238.923 99.7637 238.712 99.8958 238.453 100.001C238.194 100.106 237.885 100.159 237.524 100.159ZM237.801 99.1358C238.153 99.1358 238.454 99.0662 238.704 98.927C238.957 98.7878 239.149 98.606 239.28 98.3816C239.413 98.1543 239.48 97.9114 239.48 97.6529V96.8091C239.435 96.8546 239.346 96.8972 239.216 96.937C239.088 96.9739 238.942 97.0066 238.777 97.035C238.612 97.0605 238.452 97.0847 238.295 97.1074C238.139 97.1273 238.008 97.1444 237.903 97.1586C237.656 97.1898 237.43 97.2424 237.226 97.3162C237.024 97.3901 236.862 97.4966 236.74 97.6358C236.621 97.7722 236.561 97.954 236.561 98.1813C236.561 98.4966 236.677 98.7353 236.91 98.8972C237.143 99.0563 237.44 99.1358 237.801 99.1358ZM243.545 96.1273V100.014H242.271V93.4682H243.494V94.5336H243.575C243.726 94.187 243.962 93.9086 244.283 93.6983C244.606 93.4881 245.014 93.383 245.506 93.383C245.952 93.383 246.342 93.4767 246.677 93.6642C247.013 93.8489 247.273 94.1245 247.457 94.4909C247.642 94.8574 247.734 95.3105 247.734 95.8503V100.014H246.46V96.0037C246.46 95.5293 246.337 95.1586 246.089 94.8915C245.842 94.6216 245.503 94.4867 245.071 94.4867C244.775 94.4867 244.513 94.5506 244.283 94.6784C244.055 94.8063 243.875 94.9938 243.741 95.2409C243.611 95.4853 243.545 95.7807 243.545 96.1273ZM251.713 100.142C251.185 100.142 250.713 100.007 250.299 99.7367C249.887 99.464 249.563 99.0762 249.327 98.5733C249.094 98.0676 248.978 97.4611 248.978 96.7537C248.978 96.0463 249.095 95.4412 249.331 94.9384C249.57 94.4355 249.897 94.0506 250.311 93.7836C250.726 93.5165 251.196 93.383 251.722 93.383C252.128 93.383 252.455 93.4512 252.702 93.5875C252.952 93.7211 253.145 93.8773 253.282 94.0563C253.421 94.2353 253.529 94.3929 253.605 94.5293H253.682V91.2864H254.956V100.014H253.712V98.9952H253.605C253.529 99.1344 253.418 99.2935 253.273 99.4725C253.131 99.6515 252.935 99.8077 252.685 99.9412C252.435 100.075 252.111 100.142 251.713 100.142ZM251.995 99.0549C252.361 99.0549 252.671 98.9583 252.924 98.7651C253.179 98.5691 253.372 98.2978 253.503 97.9512C253.637 97.6046 253.703 97.2012 253.703 96.7409C253.703 96.2864 253.638 95.8887 253.507 95.5478C253.377 95.2069 253.185 94.9412 252.932 94.7509C252.679 94.5605 252.367 94.4654 251.995 94.4654C251.611 94.4654 251.291 94.5648 251.036 94.7637C250.78 94.9625 250.587 95.2338 250.456 95.5776C250.328 95.9213 250.265 96.3091 250.265 96.7409C250.265 97.1784 250.33 97.5719 250.461 97.9213C250.591 98.2708 250.784 98.5478 251.04 98.7523C251.299 98.954 251.617 99.0549 251.995 99.0549ZM111.795 117.014V108.286H113.069V111.529H113.146C113.219 111.393 113.326 111.235 113.465 111.056C113.604 110.877 113.798 110.721 114.045 110.588C114.292 110.451 114.619 110.383 115.025 110.383C115.553 110.383 116.025 110.517 116.44 110.784C116.854 111.051 117.18 111.436 117.415 111.938C117.654 112.441 117.773 113.046 117.773 113.754C117.773 114.461 117.656 115.068 117.42 115.573C117.184 116.076 116.86 116.464 116.448 116.737C116.036 117.007 115.566 117.142 115.038 117.142C114.64 117.142 114.315 117.075 114.062 116.941C113.812 116.808 113.616 116.651 113.474 116.472C113.332 116.294 113.222 116.134 113.146 115.995H113.039V117.014H111.795ZM113.043 113.741C113.043 114.201 113.11 114.605 113.244 114.951C113.377 115.298 113.57 115.569 113.823 115.765C114.076 115.958 114.386 116.055 114.752 116.055C115.133 116.055 115.451 115.954 115.707 115.752C115.962 115.548 116.156 115.271 116.286 114.921C116.42 114.572 116.487 114.178 116.487 113.741C116.487 113.309 116.421 112.921 116.29 112.578C116.163 112.234 115.969 111.963 115.711 111.764C115.455 111.565 115.136 111.465 114.752 111.465C114.383 111.465 114.07 111.561 113.815 111.751C113.562 111.941 113.37 112.207 113.239 112.548C113.109 112.889 113.043 113.286 113.043 113.741ZM120.298 108.286V117.014H119.024V108.286H120.298ZM124.59 117.146C123.976 117.146 123.44 117.005 122.983 116.724C122.526 116.443 122.171 116.049 121.918 115.544C121.665 115.038 121.538 114.447 121.538 113.771C121.538 113.092 121.665 112.498 121.918 111.99C122.171 111.481 122.526 111.086 122.983 110.805C123.44 110.524 123.976 110.383 124.59 110.383C125.203 110.383 125.739 110.524 126.196 110.805C126.653 111.086 127.009 111.481 127.261 111.99C127.514 112.498 127.641 113.092 127.641 113.771C127.641 114.447 127.514 115.038 127.261 115.544C127.009 116.049 126.653 116.443 126.196 116.724C125.739 117.005 125.203 117.146 124.59 117.146ZM124.594 116.076C124.992 116.076 125.321 115.971 125.582 115.761C125.844 115.551 126.037 115.271 126.162 114.921C126.29 114.572 126.354 114.187 126.354 113.767C126.354 113.349 126.29 112.965 126.162 112.616C126.037 112.264 125.844 111.981 125.582 111.768C125.321 111.555 124.992 111.448 124.594 111.448C124.193 111.448 123.861 111.555 123.597 111.768C123.335 111.981 123.141 112.264 123.013 112.616C122.888 112.965 122.825 113.349 122.825 113.767C122.825 114.187 122.888 114.572 123.013 114.921C123.141 115.271 123.335 115.551 123.597 115.761C123.861 115.971 124.193 116.076 124.594 116.076ZM131.64 117.146C131.007 117.146 130.461 117.002 130.004 116.715C129.549 116.426 129.2 116.026 128.955 115.518C128.711 115.009 128.589 114.427 128.589 113.771C128.589 113.106 128.714 112.519 128.964 112.011C129.214 111.499 129.566 111.1 130.021 110.813C130.475 110.526 131.011 110.383 131.627 110.383C132.124 110.383 132.568 110.475 132.957 110.66C133.346 110.842 133.66 111.097 133.899 111.427C134.14 111.757 134.284 112.142 134.329 112.582H133.089C133.021 112.275 132.864 112.011 132.62 111.789C132.379 111.568 132.055 111.457 131.649 111.457C131.293 111.457 130.982 111.551 130.715 111.738C130.451 111.923 130.245 112.187 130.097 112.531C129.95 112.872 129.876 113.275 129.876 113.741C129.876 114.218 129.948 114.63 130.093 114.977C130.238 115.323 130.443 115.592 130.707 115.782C130.974 115.972 131.288 116.068 131.649 116.068C131.89 116.068 132.109 116.024 132.305 115.936C132.504 115.845 132.67 115.715 132.803 115.548C132.94 115.38 133.035 115.178 133.089 114.943H134.329C134.284 115.366 134.146 115.744 133.916 116.076C133.685 116.409 133.377 116.67 132.991 116.86C132.607 117.051 132.157 117.146 131.64 117.146ZM136.683 114.794L136.675 113.238H136.896L139.504 110.468H141.03L138.056 113.622H137.855L136.683 114.794ZM135.512 117.014V108.286H136.786V117.014H135.512ZM139.645 117.014L137.301 113.903L138.179 113.012L141.209 117.014H139.645ZM144.563 117.146C143.918 117.146 143.362 117.008 142.897 116.732C142.433 116.454 142.075 116.063 141.823 115.561C141.573 115.055 141.448 114.463 141.448 113.784C141.448 113.113 141.573 112.522 141.823 112.011C142.075 111.499 142.428 111.1 142.879 110.813C143.334 110.526 143.865 110.383 144.473 110.383C144.843 110.383 145.2 110.444 145.547 110.566C145.894 110.688 146.205 110.88 146.48 111.142C146.756 111.403 146.973 111.742 147.132 112.16C147.291 112.575 147.371 113.079 147.371 113.673V114.124H142.168V113.17H146.122C146.122 112.835 146.054 112.538 145.918 112.279C145.781 112.018 145.59 111.812 145.343 111.661C145.098 111.511 144.811 111.436 144.482 111.436C144.124 111.436 143.811 111.524 143.544 111.7C143.28 111.873 143.075 112.1 142.931 112.382C142.789 112.66 142.718 112.963 142.718 113.289V114.035C142.718 114.472 142.794 114.845 142.948 115.151C143.104 115.458 143.321 115.693 143.6 115.855C143.878 116.014 144.203 116.093 144.575 116.093C144.817 116.093 145.037 116.059 145.236 115.991C145.435 115.92 145.607 115.815 145.752 115.676C145.897 115.536 146.007 115.365 146.084 115.16L147.29 115.377C147.193 115.732 147.02 116.044 146.77 116.311C146.523 116.575 146.212 116.781 145.837 116.928C145.465 117.073 145.04 117.146 144.563 117.146ZM151.055 117.142C150.527 117.142 150.055 117.007 149.64 116.737C149.228 116.464 148.904 116.076 148.669 115.573C148.436 115.068 148.319 114.461 148.319 113.754C148.319 113.046 148.437 112.441 148.673 111.938C148.911 111.436 149.238 111.051 149.653 110.784C150.068 110.517 150.538 110.383 151.063 110.383C151.47 110.383 151.796 110.451 152.044 110.588C152.294 110.721 152.487 110.877 152.623 111.056C152.762 111.235 152.87 111.393 152.947 111.529H153.024V108.286H154.298V117.014H153.054V115.995H152.947C152.87 116.134 152.759 116.294 152.615 116.472C152.473 116.651 152.277 116.808 152.027 116.941C151.777 117.075 151.453 117.142 151.055 117.142ZM151.336 116.055C151.703 116.055 152.012 115.958 152.265 115.765C152.521 115.569 152.714 115.298 152.845 114.951C152.978 114.605 153.045 114.201 153.045 113.741C153.045 113.286 152.98 112.889 152.849 112.548C152.718 112.207 152.527 111.941 152.274 111.751C152.021 111.561 151.708 111.465 151.336 111.465C150.953 111.465 150.633 111.565 150.377 111.764C150.122 111.963 149.929 112.234 149.798 112.578C149.67 112.921 149.606 113.309 149.606 113.741C149.606 114.178 149.671 114.572 149.802 114.921C149.933 115.271 150.126 115.548 150.382 115.752C150.64 115.954 150.958 116.055 151.336 116.055ZM159.034 117.014V108.286H160.309V111.529H160.385C160.459 111.393 160.566 111.235 160.705 111.056C160.844 110.877 161.037 110.721 161.284 110.588C161.532 110.451 161.858 110.383 162.265 110.383C162.793 110.383 163.265 110.517 163.679 110.784C164.094 111.051 164.419 111.436 164.655 111.938C164.894 112.441 165.013 113.046 165.013 113.754C165.013 114.461 164.895 115.068 164.659 115.573C164.424 116.076 164.1 116.464 163.688 116.737C163.276 117.007 162.806 117.142 162.277 117.142C161.88 117.142 161.554 117.075 161.301 116.941C161.051 116.808 160.855 116.651 160.713 116.472C160.571 116.294 160.462 116.134 160.385 115.995H160.279V117.014H159.034ZM160.283 113.741C160.283 114.201 160.35 114.605 160.483 114.951C160.617 115.298 160.81 115.569 161.063 115.765C161.316 115.958 161.625 116.055 161.992 116.055C162.373 116.055 162.691 115.954 162.946 115.752C163.202 115.548 163.395 115.271 163.526 114.921C163.659 114.572 163.726 114.178 163.726 113.741C163.726 113.309 163.661 112.921 163.53 112.578C163.402 112.234 163.209 111.963 162.951 111.764C162.695 111.565 162.375 111.465 161.992 111.465C161.623 111.465 161.31 111.561 161.054 111.751C160.801 111.941 160.61 112.207 160.479 112.548C160.348 112.889 160.283 113.286 160.283 113.741ZM166.847 119.468C166.656 119.468 166.483 119.453 166.327 119.421C166.17 119.393 166.054 119.362 165.977 119.328L166.284 118.284C166.517 118.346 166.724 118.373 166.906 118.365C167.088 118.356 167.249 118.288 167.388 118.16C167.53 118.032 167.655 117.823 167.763 117.534L167.92 117.099L165.526 110.468H166.889L168.547 115.548H168.615L170.273 110.468H171.641L168.943 117.887C168.818 118.228 168.659 118.517 168.466 118.752C168.273 118.991 168.043 119.17 167.776 119.289C167.509 119.409 167.199 119.468 166.847 119.468ZM180.559 112.066L179.404 112.271C179.356 112.123 179.279 111.982 179.174 111.849C179.071 111.715 178.932 111.606 178.756 111.521C178.58 111.436 178.36 111.393 178.096 111.393C177.735 111.393 177.434 111.474 177.192 111.636C176.951 111.795 176.83 112.001 176.83 112.254C176.83 112.472 176.911 112.649 177.073 112.782C177.235 112.916 177.496 113.025 177.857 113.11L178.897 113.349C179.499 113.488 179.948 113.703 180.243 113.992C180.539 114.282 180.687 114.659 180.687 115.122C180.687 115.514 180.573 115.863 180.346 116.17C180.121 116.474 179.807 116.713 179.404 116.886C179.003 117.059 178.539 117.146 178.01 117.146C177.277 117.146 176.679 116.99 176.216 116.677C175.753 116.362 175.469 115.914 175.364 115.335L176.596 115.147C176.672 115.468 176.83 115.711 177.069 115.876C177.307 116.038 177.618 116.119 178.002 116.119C178.42 116.119 178.753 116.032 179.003 115.859C179.253 115.683 179.378 115.468 179.378 115.215C179.378 115.011 179.302 114.839 179.148 114.7C178.998 114.561 178.766 114.455 178.454 114.384L177.346 114.142C176.735 114.002 176.283 113.781 175.991 113.477C175.701 113.173 175.556 112.788 175.556 112.322C175.556 111.936 175.664 111.597 175.88 111.308C176.096 111.018 176.394 110.792 176.775 110.63C177.155 110.465 177.591 110.383 178.083 110.383C178.79 110.383 179.347 110.536 179.753 110.843C180.16 111.147 180.428 111.555 180.559 112.066ZM182.713 119.468C182.523 119.468 182.349 119.453 182.193 119.421C182.037 119.393 181.92 119.362 181.844 119.328L182.15 118.284C182.383 118.346 182.591 118.373 182.773 118.365C182.954 118.356 183.115 118.288 183.254 118.16C183.396 118.032 183.521 117.823 183.629 117.534L183.787 117.099L181.392 110.468H182.755L184.413 115.548H184.481L186.139 110.468H187.507L184.809 117.887C184.684 118.228 184.525 118.517 184.332 118.752C184.139 118.991 183.909 119.17 183.642 119.289C183.375 119.409 183.065 119.468 182.713 119.468ZM193.429 112.066L192.274 112.271C192.226 112.123 192.149 111.982 192.044 111.849C191.942 111.715 191.803 111.606 191.627 111.521C191.45 111.436 191.23 111.393 190.966 111.393C190.605 111.393 190.304 111.474 190.063 111.636C189.821 111.795 189.7 112.001 189.7 112.254C189.7 112.472 189.781 112.649 189.943 112.782C190.105 112.916 190.367 113.025 190.727 113.11L191.767 113.349C192.37 113.488 192.818 113.703 193.114 113.992C193.409 114.282 193.557 114.659 193.557 115.122C193.557 115.514 193.443 115.863 193.216 116.17C192.992 116.474 192.678 116.713 192.274 116.886C191.874 117.059 191.409 117.146 190.881 117.146C190.148 117.146 189.55 116.99 189.087 116.677C188.624 116.362 188.34 115.914 188.235 115.335L189.466 115.147C189.543 115.468 189.7 115.711 189.939 115.876C190.178 116.038 190.489 116.119 190.872 116.119C191.29 116.119 191.624 116.032 191.874 115.859C192.124 115.683 192.249 115.468 192.249 115.215C192.249 115.011 192.172 114.839 192.019 114.7C191.868 114.561 191.637 114.455 191.324 114.384L190.216 114.142C189.605 114.002 189.154 113.781 188.861 113.477C188.571 113.173 188.426 112.788 188.426 112.322C188.426 111.936 188.534 111.597 188.75 111.308C188.966 111.018 189.264 110.792 189.645 110.63C190.026 110.465 190.462 110.383 190.953 110.383C191.661 110.383 192.218 110.536 192.624 110.843C193.03 111.147 193.298 111.555 193.429 112.066ZM197.833 110.468V111.491H194.258V110.468H197.833ZM195.217 108.9H196.491V115.092C196.491 115.339 196.528 115.525 196.602 115.65C196.676 115.772 196.771 115.856 196.887 115.901C197.007 115.944 197.136 115.965 197.275 115.965C197.377 115.965 197.467 115.958 197.544 115.944C197.62 115.93 197.68 115.919 197.723 115.91L197.953 116.963C197.879 116.991 197.774 117.019 197.637 117.048C197.501 117.079 197.331 117.096 197.126 117.099C196.791 117.105 196.478 117.045 196.188 116.92C195.899 116.795 195.664 116.602 195.485 116.34C195.306 116.079 195.217 115.751 195.217 115.356V108.9ZM201.813 117.146C201.169 117.146 200.613 117.008 200.147 116.732C199.684 116.454 199.326 116.063 199.073 115.561C198.823 115.055 198.698 114.463 198.698 113.784C198.698 113.113 198.823 112.522 199.073 112.011C199.326 111.499 199.679 111.1 200.13 110.813C200.585 110.526 201.116 110.383 201.724 110.383C202.093 110.383 202.451 110.444 202.798 110.566C203.144 110.688 203.456 110.88 203.731 111.142C204.007 111.403 204.224 111.742 204.383 112.16C204.542 112.575 204.622 113.079 204.622 113.673V114.124H199.419V113.17H203.373C203.373 112.835 203.305 112.538 203.169 112.279C203.032 112.018 202.84 111.812 202.593 111.661C202.349 111.511 202.062 111.436 201.733 111.436C201.375 111.436 201.062 111.524 200.795 111.7C200.531 111.873 200.326 112.1 200.181 112.382C200.039 112.66 199.968 112.963 199.968 113.289V114.035C199.968 114.472 200.045 114.845 200.198 115.151C200.355 115.458 200.572 115.693 200.85 115.855C201.129 116.014 201.454 116.093 201.826 116.093C202.068 116.093 202.288 116.059 202.487 115.991C202.686 115.92 202.858 115.815 203.002 115.676C203.147 115.536 203.258 115.365 203.335 115.16L204.541 115.377C204.444 115.732 204.271 116.044 204.021 116.311C203.774 116.575 203.463 116.781 203.088 116.928C202.715 117.073 202.291 117.146 201.813 117.146ZM205.855 117.014V110.468H207.078V111.534H207.159C207.296 111.173 207.519 110.892 207.828 110.69C208.138 110.485 208.509 110.383 208.941 110.383C209.378 110.383 209.745 110.485 210.04 110.69C210.338 110.894 210.559 111.176 210.701 111.534H210.769C210.925 111.184 211.174 110.906 211.515 110.698C211.855 110.488 212.262 110.383 212.733 110.383C213.327 110.383 213.811 110.569 214.186 110.941C214.564 111.313 214.753 111.874 214.753 112.624V117.014H213.479V112.744C213.479 112.301 213.358 111.98 213.117 111.781C212.875 111.582 212.587 111.482 212.252 111.482C211.837 111.482 211.515 111.61 211.284 111.866C211.054 112.119 210.939 112.444 210.939 112.842V117.014H209.669V112.663C209.669 112.308 209.559 112.022 209.337 111.806C209.115 111.59 208.827 111.482 208.472 111.482C208.23 111.482 208.007 111.546 207.803 111.674C207.601 111.799 207.438 111.974 207.313 112.198C207.191 112.423 207.13 112.683 207.13 112.978V117.014H205.855ZM217.12 117.095C216.887 117.095 216.687 117.012 216.52 116.847C216.352 116.68 216.268 116.478 216.268 116.242C216.268 116.009 216.352 115.811 216.52 115.646C216.687 115.478 216.887 115.394 217.12 115.394C217.353 115.394 217.554 115.478 217.721 115.646C217.889 115.811 217.973 116.009 217.973 116.242C217.973 116.399 217.933 116.542 217.853 116.673C217.777 116.801 217.674 116.903 217.547 116.98C217.419 117.056 217.277 117.095 217.12 117.095Z" fill="#5D6878"/>
</g>
<path d="M56.8359 63.0137C56.8359 56.3863 62.2085 51.0137 68.8359 51.0137H289.836C296.463 51.0137 301.836 56.3863 301.836 63.0137V123.014C301.836 129.641 296.463 135.014 289.836 135.014H68.8359C62.2085 135.014 56.8359 129.641 56.8359 123.014V63.0137Z" stroke="#E2E8F0" stroke-opacity="0.5" shape-rendering="crispEdges"/>
</g>
<defs>
<filter id="filter0_d_3009_1751" x="0.335938" y="0.513672" width="366" height="205" filterUnits="userSpaceOnUse" color-interpolation-filters="sRGB">
<feFlood flood-opacity="0" result="BackgroundImageFix"/>
<feColorMatrix in="SourceAlpha" type="matrix" values="0 0 0 0 0 0 0 0 0 0 0 0 0 0 0 0 0 0 127 0" result="hardAlpha"/>
<feOffset dx="4" dy="10"/>
<feGaussianBlur stdDeviation="30"/>
<feComposite in2="hardAlpha" operator="out"/>
<feColorMatrix type="matrix" values="0 0 0 0 0.335938 0 0 0 0 0.357322 0 0 0 0 0.8125 0 0 0 0.19 0"/>
<feBlend mode="normal" in2="BackgroundImageFix" result="effect1_dropShadow_3009_1751"/>
<feBlend mode="normal" in="SourceGraphic" in2="effect1_dropShadow_3009_1751" result="shape"/>
</filter>
<filter id="filter1_f_3009_1751" x="68.0859" y="59.623" width="35.5" height="39.4316" filterUnits="userSpaceOnUse" color-interpolation-filters="sRGB">
<feFlood flood-opacity="0" result="BackgroundImageFix"/>
<feBlend mode="normal" in="SourceGraphic" in2="BackgroundImageFix" result="shape"/>
<feGaussianBlur stdDeviation="4" result="effect1_foregroundBlur_3009_1751"/>
</filter>
<filter id="filter2_i_3009_1751" x="76.0859" y="66.6426" width="19.5" height="23.2441" filterUnits="userSpaceOnUse" color-interpolation-filters="sRGB">
<feFlood flood-opacity="0" result="BackgroundImageFix"/>
<feBlend mode="normal" in="SourceGraphic" in2="BackgroundImageFix" result="shape"/>
<feColorMatrix in="SourceAlpha" type="matrix" values="0 0 0 0 0 0 0 0 0 0 0 0 0 0 0 0 0 0 127 0" result="hardAlpha"/>
<feOffset dy="0.5"/>
<feGaussianBlur stdDeviation="1.45"/>
<feComposite in2="hardAlpha" operator="arithmetic" k2="-1" k3="1"/>
<feColorMatrix type="matrix" values="0 0 0 0 1 0 0 0 0 1 0 0 0 0 1 0 0 0 1 0"/>
<feBlend mode="soft-light" in2="shape" result="effect1_innerShadow_3009_1751"/>
</filter>
<linearGradient id="paint0_linear_3009_1751" x1="179.336" y1="51.0137" x2="179.336" y2="135.014" gradientUnits="userSpaceOnUse">
<stop stop-color="white" stop-opacity="0"/>
<stop offset="1" stop-color="#E2E2E2"/>
</linearGradient>
<linearGradient id="paint1_linear_3009_1751" x1="85.8345" y1="33.8809" x2="85.8345" y2="127.357" gradientUnits="userSpaceOnUse">
<stop stop-color="#F54275" stop-opacity="0.2"/>
<stop offset="0.442308" stop-color="#F54275"/>
<stop offset="1" stop-color="#F54275" stop-opacity="0"/>
</linearGradient>
<linearGradient id="paint2_linear_3009_1751" x1="85.8358" y1="44.6367" x2="85.8358" y2="115.332" gradientUnits="userSpaceOnUse">
<stop stop-color="#F54275" stop-opacity="0.2"/>
<stop offset="0.442308" stop-color="#F54275"/>
<stop offset="1" stop-color="#F54275" stop-opacity="0"/>
</linearGradient>
<linearGradient id="paint3_linear_3009_1751" x1="85.8364" y1="55.6484" x2="85.8364" y2="103.021" gradientUnits="userSpaceOnUse">
<stop stop-color="#F54275" stop-opacity="0.2"/>
<stop offset="0.442308" stop-color="#F54275"/>
<stop offset="1" stop-color="#F54275" stop-opacity="0"/>
</linearGradient>
<linearGradient id="paint4_linear_3009_1751" x1="85.8359" y1="67.623" x2="85.8359" y2="91.0548" gradientUnits="userSpaceOnUse">
<stop stop-color="#FE0F3D" stop-opacity="0"/>
<stop offset="1" stop-color="#FE0F3D"/>
</linearGradient>
<linearGradient id="paint5_linear_3009_1751" x1="85.8359" y1="66.6426" x2="85.8359" y2="89.3871" gradientUnits="userSpaceOnUse">
<stop stop-color="#F54275"/>
<stop offset="1" stop-color="#F54275" stop-opacity="0.67"/>
</linearGradient>
<linearGradient id="paint6_linear_3009_1751" x1="85.8359" y1="66.6426" x2="85.8359" y2="89.3871" gradientUnits="userSpaceOnUse">
<stop stop-color="#FE0F3D"/>
<stop offset="1" stop-color="#F54275" stop-opacity="0.2"/>
</linearGradient>
<linearGradient id="paint7_linear_3009_1751" x1="110.836" y1="73.0137" x2="285.836" y2="73.0137" gradientUnits="userSpaceOnUse">
<stop stop-color="#FE0F3D"/>
<stop offset="0.802885" stop-color="#FE0F3D" stop-opacity="0"/>
</linearGradient>
<clipPath id="clip0_3009_1751">
<path d="M56.8359 63.0137C56.8359 56.3863 62.2085 51.0137 68.8359 51.0137H289.836C296.463 51.0137 301.836 56.3863 301.836 63.0137V123.014C301.836 129.641 296.463 135.014 289.836 135.014H68.8359C62.2085 135.014 56.8359 129.641 56.8359 123.014V63.0137Z" fill="white"/>
</clipPath>
</defs>
</svg>
