<svg width="306" height="252" viewBox="0 0 306 252" fill="none" xmlns="http://www.w3.org/2000/svg">
<g filter="url(#filter0_d_3009_1622)">
<g clip-path="url(#clip0_3009_1622)">
<rect x="57" y="51.0371" width="184" height="129.628" rx="10" fill="white" shape-rendering="crispEdges"/>
<rect x="57" y="51.0371" width="184" height="129.628" rx="10" fill="url(#paint0_linear_3009_1622)" fill-opacity="0.05" shape-rendering="crispEdges"/>
<g filter="url(#filter1_d_3009_1622)">
<g clip-path="url(#clip1_3009_1622)">
<rect x="135.004" y="59.0371" width="27.9922" height="28" rx="13.9961" fill="white" fill-opacity="0.2" shape-rendering="crispEdges"/>
<rect x="135.004" y="59.0371" width="27.9922" height="28" rx="13.9961" fill="url(#paint1_linear_3009_1622)" fill-opacity="0.1" shape-rendering="crispEdges"/>
<g filter="url(#filter2_d_3009_1622)">
<path d="M154.791 75.6027C155.328 75.9071 155.528 76.5602 155.261 77.1687C155.073 77.6236 154.799 78.0236 154.466 78.3564C153.539 79.2836 152.16 79.6793 150.964 79.233C149.119 78.5564 147.42 77.4856 145.975 76.0412C144.531 74.5968 143.487 72.9098 142.81 71.0648C142.204 69.4386 143.137 67.4805 144.875 66.7671C145.377 66.5581 145.921 66.6583 146.258 66.9958C146.328 67.0662 146.391 67.1469 146.44 67.2379L147.247 68.7022C147.487 69.1317 147.444 69.6864 147.116 70.1331L146.057 71.6128L146.028 71.6271C146.444 72.6797 147.021 73.5754 147.756 74.3106C148.486 75.0411 149.375 75.614 150.415 76.0277L150.429 75.9986L151.909 74.926C152.354 74.6127 152.911 74.5551 153.34 74.7949L154.791 75.6027Z" fill="url(#paint2_linear_3009_1622)"/>
<path d="M144.952 66.9521C145.387 66.7711 145.842 66.8627 146.116 67.1367C146.174 67.1947 146.225 67.2608 146.265 67.334H146.266L147.072 68.7988L147.073 68.7998C147.271 69.154 147.242 69.6245 146.955 70.0146L146.954 70.0166L145.923 71.4551L145.774 71.5283L145.843 71.7002C146.268 72.7759 146.858 73.696 147.614 74.4521C148.366 75.2036 149.278 75.7911 150.341 76.2139L150.513 76.2822L150.587 76.1299L152.023 75.0889L152.024 75.0898C152.418 74.8129 152.891 74.7738 153.242 74.9697H153.243L154.693 75.7773V75.7764C155.132 76.0256 155.307 76.5645 155.077 77.0879L155.076 77.0928C154.899 77.5224 154.639 77.9 154.324 78.2148C153.443 79.096 152.145 79.4602 151.034 79.0459L151.033 79.0449L150.693 78.916C149.006 78.2455 147.451 77.2341 146.116 75.8994C144.694 74.4767 143.665 72.8149 142.998 70.9961L142.997 70.9951L142.949 70.8525C142.488 69.3674 143.352 67.6085 144.951 66.9521H144.952Z" stroke="white" stroke-opacity="0.15" stroke-width="0.4" style="mix-blend-mode:soft-light"/>
</g>
</g>
<rect x="135.404" y="59.4371" width="27.1922" height="27.2" rx="13.5961" stroke="url(#paint3_linear_3009_1622)" stroke-opacity="0.2" stroke-width="0.8" shape-rendering="crispEdges"/>
</g>
<path d="M122.738 97.6571H121.297C121.242 97.3494 121.139 97.0785 120.988 96.8446C120.837 96.6107 120.652 96.4122 120.434 96.2491C120.215 96.086 119.971 95.9629 119.7 95.8798C119.432 95.7967 119.147 95.7551 118.846 95.7551C118.301 95.7551 117.813 95.8921 117.382 96.166C116.955 96.4399 116.616 96.8416 116.367 97.3709C116.121 97.9003 115.997 98.5466 115.997 99.3098C115.997 100.079 116.121 100.729 116.367 101.258C116.616 101.787 116.956 102.187 117.387 102.458C117.818 102.729 118.303 102.865 118.841 102.865C119.14 102.865 119.423 102.825 119.691 102.744C119.961 102.661 120.206 102.54 120.425 102.38C120.643 102.22 120.828 102.024 120.979 101.794C121.133 101.56 121.239 101.292 121.297 100.99L122.738 100.995C122.661 101.46 122.511 101.887 122.29 102.278C122.071 102.666 121.79 103.001 121.445 103.285C121.103 103.565 120.712 103.782 120.272 103.936C119.832 104.089 119.352 104.166 118.832 104.166C118.013 104.166 117.284 103.972 116.644 103.585C116.004 103.194 115.499 102.635 115.13 101.909C114.763 101.183 114.58 100.316 114.58 99.3098C114.58 98.3004 114.765 97.434 115.134 96.7108C115.503 95.9844 116.008 95.4274 116.648 95.0396C117.289 94.6487 118.016 94.4533 118.832 94.4533C119.334 94.4533 119.801 94.5256 120.235 94.6703C120.672 94.8118 121.065 95.0211 121.413 95.2981C121.76 95.572 122.048 95.9075 122.276 96.3045C122.504 96.6984 122.657 97.1493 122.738 97.6571ZM126.007 104.194C125.558 104.194 125.152 104.111 124.788 103.945C124.425 103.776 124.138 103.531 123.925 103.211C123.716 102.891 123.611 102.498 123.611 102.034C123.611 101.633 123.688 101.304 123.842 101.046C123.996 100.787 124.204 100.582 124.465 100.432C124.727 100.281 125.019 100.167 125.342 100.09C125.666 100.013 125.995 99.9546 126.33 99.9146C126.755 99.8654 127.1 99.8253 127.364 99.7946C127.629 99.7607 127.821 99.7069 127.942 99.633C128.062 99.5591 128.122 99.4391 128.122 99.2729V99.2406C128.122 98.8374 128.008 98.525 127.78 98.3034C127.555 98.0819 127.22 97.9711 126.774 97.9711C126.309 97.9711 125.943 98.0742 125.675 98.2804C125.41 98.4835 125.227 98.7097 125.125 98.959L123.828 98.6635C123.982 98.2327 124.207 97.8849 124.502 97.6202C124.801 97.3524 125.144 97.1586 125.532 97.0385C125.92 96.9154 126.327 96.8539 126.755 96.8539C127.038 96.8539 127.338 96.8877 127.655 96.9554C127.975 97.0201 128.274 97.1401 128.551 97.3155C128.831 97.4909 129.06 97.7418 129.239 98.068C129.417 98.3912 129.507 98.8113 129.507 99.3283V104.037H128.158V103.068H128.103C128.014 103.246 127.88 103.422 127.701 103.594C127.523 103.766 127.294 103.909 127.014 104.023C126.734 104.137 126.398 104.194 126.007 104.194ZM126.307 103.086C126.689 103.086 127.015 103.011 127.286 102.86C127.56 102.709 127.768 102.512 127.909 102.269C128.054 102.023 128.126 101.76 128.126 101.48V100.566C128.077 100.615 127.982 100.661 127.84 100.704C127.701 100.744 127.543 100.779 127.364 100.81C127.186 100.838 127.012 100.864 126.843 100.889C126.674 100.91 126.532 100.929 126.418 100.944C126.15 100.978 125.906 101.035 125.684 101.115C125.466 101.195 125.29 101.31 125.158 101.461C125.029 101.609 124.964 101.806 124.964 102.052C124.964 102.394 125.09 102.652 125.342 102.828C125.595 103 125.916 103.086 126.307 103.086ZM132.335 94.5826V104.037H130.955V94.5826H132.335ZM135.183 94.5826V104.037H133.802V94.5826H135.183ZM139.811 104.037V94.5826H143.181C143.913 94.5826 144.521 94.7087 145.004 94.9611C145.491 95.2135 145.854 95.5628 146.094 96.0091C146.334 96.4522 146.454 96.9647 146.454 97.5463C146.454 98.1249 146.332 98.6343 146.089 99.0744C145.849 99.5114 145.486 99.8515 145 100.095C144.517 100.338 143.909 100.459 143.176 100.459H140.623V99.2314H143.047C143.509 99.2314 143.884 99.1652 144.173 99.0328C144.466 98.9005 144.68 98.7082 144.815 98.4558C144.951 98.2034 145.018 97.9003 145.018 97.5463C145.018 97.1893 144.949 96.88 144.811 96.6184C144.675 96.3568 144.461 96.1568 144.169 96.0183C143.88 95.8767 143.499 95.8059 143.029 95.8059H141.237V104.037H139.811ZM144.478 99.7715L146.814 104.037H145.189L142.899 99.7715H144.478ZM150.587 104.18C149.922 104.18 149.342 104.028 148.847 103.723C148.351 103.419 147.966 102.992 147.692 102.444C147.419 101.897 147.282 101.256 147.282 100.524C147.282 99.7884 147.419 99.1452 147.692 98.5943C147.966 98.0434 148.351 97.6156 148.847 97.3109C149.342 97.0062 149.922 96.8539 150.587 96.8539C151.252 96.8539 151.832 97.0062 152.327 97.3109C152.823 97.6156 153.208 98.0434 153.481 98.5943C153.755 99.1452 153.892 99.7884 153.892 100.524C153.892 101.256 153.755 101.897 153.481 102.444C153.208 102.992 152.823 103.419 152.327 103.723C151.832 104.028 151.252 104.18 150.587 104.18ZM150.592 103.021C151.022 103.021 151.379 102.908 151.663 102.68C151.946 102.452 152.155 102.149 152.29 101.77C152.429 101.392 152.498 100.975 152.498 100.519C152.498 100.067 152.429 99.6515 152.29 99.2729C152.155 98.8913 151.946 98.585 151.663 98.3542C151.379 98.1234 151.022 98.008 150.592 98.008C150.158 98.008 149.798 98.1234 149.511 98.3542C149.228 98.585 149.017 98.8913 148.879 99.2729C148.743 99.6515 148.676 100.067 148.676 100.519C148.676 100.975 148.743 101.392 148.879 101.77C149.017 102.149 149.228 102.452 149.511 102.68C149.798 102.908 150.158 103.021 150.592 103.021ZM159.535 101.096V96.9462H160.92V104.037H159.563V102.809H159.489C159.326 103.188 159.064 103.503 158.704 103.756C158.347 104.005 157.902 104.129 157.37 104.129C156.914 104.129 156.511 104.029 156.16 103.829C155.813 103.626 155.539 103.326 155.339 102.929C155.142 102.532 155.043 102.041 155.043 101.456V96.9462H156.423V101.29C156.423 101.773 156.557 102.158 156.825 102.444C157.093 102.731 157.441 102.874 157.868 102.874C158.127 102.874 158.384 102.809 158.639 102.68C158.898 102.551 159.112 102.355 159.281 102.094C159.453 101.832 159.538 101.5 159.535 101.096ZM165.695 96.9462V98.0542H161.821V96.9462H165.695ZM162.86 95.2473H164.24V101.955C164.24 102.223 164.28 102.424 164.36 102.56C164.44 102.692 164.544 102.783 164.67 102.832C164.799 102.878 164.939 102.901 165.09 102.901C165.201 102.901 165.298 102.894 165.381 102.878C165.464 102.863 165.528 102.851 165.575 102.841L165.824 103.982C165.744 104.012 165.63 104.043 165.482 104.074C165.334 104.108 165.15 104.126 164.928 104.129C164.565 104.136 164.227 104.071 163.913 103.936C163.599 103.8 163.345 103.591 163.151 103.308C162.957 103.025 162.86 102.669 162.86 102.241V95.2473ZM166.831 104.037V96.9462H168.212V104.037H166.831ZM167.529 95.8521C167.289 95.8521 167.082 95.7721 166.91 95.612C166.741 95.4489 166.656 95.255 166.656 95.0304C166.656 94.8026 166.741 94.6087 166.91 94.4487C167.082 94.2856 167.289 94.204 167.529 94.204C167.769 94.204 167.973 94.2856 168.143 94.4487C168.315 94.6087 168.401 94.8026 168.401 95.0304C168.401 95.255 168.315 95.4489 168.143 95.612C167.973 95.7721 167.769 95.8521 167.529 95.8521ZM171.059 99.8269V104.037H169.679V96.9462H171.004V98.1003H171.091C171.255 97.7248 171.51 97.4232 171.858 97.1955C172.209 96.9677 172.65 96.8539 173.183 96.8539C173.666 96.8539 174.089 96.9554 174.452 97.1586C174.815 97.3586 175.097 97.6571 175.297 98.0542C175.497 98.4512 175.597 98.9421 175.597 99.5268V104.037H174.217V99.693C174.217 99.179 174.083 98.7774 173.815 98.4881C173.547 98.1957 173.18 98.0495 172.712 98.0495C172.392 98.0495 172.107 98.1188 171.858 98.2573C171.612 98.3958 171.416 98.5989 171.271 98.8667C171.13 99.1313 171.059 99.4514 171.059 99.8269ZM180.031 106.844C179.468 106.844 178.983 106.77 178.577 106.622C178.174 106.475 177.845 106.279 177.589 106.036C177.334 105.793 177.143 105.527 177.017 105.237L178.203 104.748C178.286 104.883 178.397 105.027 178.536 105.177C178.677 105.331 178.868 105.462 179.108 105.57C179.351 105.677 179.664 105.731 180.045 105.731C180.568 105.731 181.001 105.604 181.342 105.348C181.684 105.096 181.855 104.693 181.855 104.139V102.744H181.767C181.684 102.895 181.564 103.063 181.407 103.248C181.253 103.432 181.041 103.592 180.77 103.728C180.499 103.863 180.147 103.931 179.713 103.931C179.153 103.931 178.648 103.8 178.199 103.539C177.752 103.274 177.398 102.885 177.137 102.371C176.878 101.854 176.749 101.218 176.749 100.464C176.749 99.7099 176.877 99.0636 177.132 98.525C177.391 97.9864 177.745 97.574 178.194 97.2878C178.643 96.9985 179.153 96.8539 179.722 96.8539C180.162 96.8539 180.518 96.9277 180.788 97.0755C181.059 97.2201 181.27 97.3894 181.421 97.5833C181.575 97.7772 181.693 97.948 181.776 98.0957H181.878V96.9462H183.231V104.194C183.231 104.803 183.089 105.304 182.806 105.694C182.523 106.085 182.14 106.375 181.656 106.562C181.176 106.75 180.635 106.844 180.031 106.844ZM180.017 102.786C180.414 102.786 180.75 102.694 181.024 102.509C181.301 102.321 181.51 102.054 181.652 101.706C181.796 101.355 181.869 100.935 181.869 100.445C181.869 99.9685 181.798 99.5484 181.656 99.1852C181.515 98.822 181.307 98.5389 181.033 98.3358C180.759 98.1296 180.421 98.0265 180.017 98.0265C179.602 98.0265 179.256 98.1342 178.979 98.3496C178.702 98.562 178.492 98.8513 178.351 99.2175C178.212 99.5837 178.143 99.9931 178.143 100.445C178.143 100.91 178.214 101.318 178.356 101.669C178.497 102.02 178.706 102.294 178.983 102.491C179.263 102.688 179.608 102.786 180.017 102.786Z" fill="url(#paint4_linear_3009_1622)"/>
<mask id="mask0_3009_1622" style="mask-type:alpha" maskUnits="userSpaceOnUse" x="116" y="113" width="66" height="28">
<ellipse cx="148.999" cy="126.851" rx="32.0149" ry="13.8141" fill="#D9D9D9"/>
</mask>
<g mask="url(#mask0_3009_1622)">
<g filter="url(#filter3_d_3009_1622)">
<circle cx="148.566" cy="117.643" r="2" fill="#1DB383"/>
<circle cx="148.566" cy="126.643" r="2" fill="#1DB383"/>
<circle cx="148.566" cy="135.643" r="2" fill="#1DB383"/>
</g>
<circle cx="159.426" cy="135.643" r="2" transform="rotate(-90 159.426 135.643)" fill="#D9D9D9"/>
<circle cx="168.426" cy="135.643" r="2" transform="rotate(-90 168.426 135.643)" fill="#D9D9D9"/>
<circle cx="177.426" cy="135.643" r="2" transform="rotate(-90 177.426 135.643)" fill="#D9D9D9"/>
<circle cx="120.57" cy="135.643" r="2" transform="rotate(-90 120.57 135.643)" fill="#D9D9D9"/>
<circle cx="129.57" cy="135.643" r="2" transform="rotate(-90 129.57 135.643)" fill="#D9D9D9"/>
<circle cx="138.57" cy="135.643" r="2" transform="rotate(-90 138.57 135.643)" fill="#D9D9D9"/>
</g>
<g filter="url(#filter4_ii_3009_1622)">
<rect x="69" y="149.166" width="44" height="21" rx="10.5" fill="white"/>
<rect x="69.4" y="149.566" width="43.2" height="20.2" rx="10.1" stroke="#F4F4F4" stroke-width="0.8"/>
<path opacity="0.6" d="M82.4649 158.268C82.4232 157.898 82.2514 157.611 81.9493 157.408C81.6472 157.202 81.267 157.1 80.8087 157.1C80.4805 157.1 80.1967 157.152 79.9571 157.256C79.7175 157.357 79.5313 157.498 79.3985 157.678C79.2683 157.855 79.2032 158.057 79.2032 158.283C79.2032 158.473 79.2475 158.637 79.336 158.775C79.4271 158.913 79.5456 159.029 79.6915 159.123C79.8399 159.214 79.9988 159.291 80.168 159.354C80.3373 159.413 80.5001 159.463 80.6563 159.502L81.4376 159.705C81.6928 159.768 81.9545 159.852 82.2227 159.959C82.4909 160.066 82.7396 160.206 82.9688 160.381C83.198 160.555 83.3829 160.771 83.5235 161.029C83.6667 161.287 83.7383 161.596 83.7383 161.955C83.7383 162.408 83.6212 162.811 83.3868 163.162C83.155 163.514 82.8178 163.791 82.3751 163.994C81.935 164.197 81.4024 164.299 80.7774 164.299C80.1784 164.299 79.6602 164.204 79.2227 164.014C78.7852 163.824 78.4428 163.554 78.1954 163.205C77.948 162.854 77.8113 162.437 77.7852 161.955H78.9962C79.0196 162.244 79.1133 162.485 79.2774 162.678C79.4441 162.868 79.6563 163.01 79.9141 163.104C80.1745 163.195 80.4597 163.24 80.7696 163.24C81.1107 163.24 81.4141 163.187 81.6797 163.08C81.948 162.971 82.1589 162.82 82.3126 162.627C82.4662 162.432 82.543 162.204 82.543 161.943C82.543 161.706 82.4753 161.512 82.3399 161.361C82.2071 161.21 82.0261 161.085 81.7969 160.986C81.5704 160.887 81.3139 160.8 81.0274 160.725L80.0821 160.467C79.4415 160.292 78.9337 160.036 78.5587 159.697C78.1863 159.359 78.0001 158.911 78.0001 158.354C78.0001 157.893 78.1251 157.49 78.3751 157.146C78.6251 156.803 78.9636 156.536 79.3907 156.346C79.8178 156.153 80.2995 156.057 80.836 156.057C81.3777 156.057 81.8555 156.152 82.2696 156.342C82.6863 156.532 83.0144 156.794 83.254 157.127C83.4935 157.458 83.6185 157.838 83.629 158.268H82.4649ZM86.6131 164.299C86.2329 164.299 85.8891 164.229 85.5818 164.088C85.2745 163.945 85.031 163.738 84.8513 163.467C84.6743 163.196 84.5857 162.864 84.5857 162.471C84.5857 162.132 84.6508 161.854 84.781 161.635C84.9112 161.416 85.087 161.243 85.3084 161.115C85.5297 160.988 85.7771 160.891 86.0506 160.826C86.324 160.761 86.6026 160.712 86.8865 160.678C87.2459 160.636 87.5375 160.602 87.7615 160.576C87.9855 160.548 88.1482 160.502 88.2498 160.439C88.3513 160.377 88.4021 160.275 88.4021 160.135V160.107C88.4021 159.766 88.3058 159.502 88.1131 159.314C87.923 159.127 87.6391 159.033 87.2615 159.033C86.8683 159.033 86.5584 159.12 86.3318 159.295C86.1079 159.467 85.9529 159.658 85.867 159.869L84.7693 159.619C84.8995 159.255 85.0896 158.96 85.3396 158.736C85.5922 158.51 85.8826 158.346 86.2107 158.244C86.5388 158.14 86.8839 158.088 87.2459 158.088C87.4855 158.088 87.7394 158.117 88.0076 158.174C88.2784 158.229 88.531 158.33 88.7654 158.479C89.0024 158.627 89.1964 158.839 89.3474 159.115C89.4985 159.389 89.574 159.744 89.574 160.182V164.166H88.4334V163.346H88.3865C88.311 163.497 88.1977 163.645 88.0467 163.791C87.8956 163.937 87.7016 164.058 87.4646 164.154C87.2276 164.251 86.9438 164.299 86.6131 164.299ZM86.867 163.361C87.1899 163.361 87.4659 163.298 87.6951 163.17C87.9269 163.042 88.1026 162.876 88.2224 162.67C88.3448 162.462 88.406 162.239 88.406 162.002V161.229C88.3644 161.27 88.2836 161.309 88.1638 161.346C88.0467 161.38 87.9125 161.41 87.7615 161.436C87.6105 161.459 87.4633 161.481 87.3201 161.502C87.1769 161.52 87.0571 161.536 86.9607 161.549C86.7342 161.577 86.5271 161.626 86.3396 161.693C86.1547 161.761 86.0063 161.859 85.8943 161.986C85.7849 162.111 85.7303 162.278 85.7303 162.486C85.7303 162.775 85.837 162.994 86.0506 163.143C86.2641 163.288 86.5362 163.361 86.867 163.361ZM92.0776 156.166V164.166H90.9097V156.166H92.0776ZM96.0149 164.287C95.4237 164.287 94.9146 164.161 94.4875 163.908C94.063 163.653 93.7349 163.295 93.5031 162.834C93.274 162.37 93.1594 161.827 93.1594 161.205C93.1594 160.59 93.274 160.049 93.5031 159.58C93.7349 159.111 94.0578 158.745 94.4719 158.482C94.8886 158.219 95.3755 158.088 95.9328 158.088C96.2714 158.088 96.5995 158.144 96.9172 158.256C97.2349 158.368 97.5201 158.544 97.7727 158.783C98.0253 159.023 98.2245 159.334 98.3703 159.717C98.5162 160.097 98.5891 160.559 98.5891 161.104V161.518H93.8196V160.643H97.4446C97.4446 160.335 97.3821 160.063 97.2571 159.826C97.1321 159.587 96.9563 159.398 96.7297 159.26C96.5057 159.122 96.2427 159.053 95.9406 159.053C95.6125 159.053 95.3261 159.133 95.0813 159.295C94.8391 159.454 94.6516 159.662 94.5188 159.92C94.3886 160.175 94.3235 160.452 94.3235 160.752V161.436C94.3235 161.837 94.3938 162.178 94.5344 162.459C94.6776 162.74 94.8768 162.955 95.1321 163.104C95.3873 163.249 95.6854 163.322 96.0266 163.322C96.2479 163.322 96.4498 163.291 96.6321 163.229C96.8143 163.163 96.9719 163.067 97.1047 162.939C97.2375 162.812 97.3391 162.654 97.4094 162.467L98.5149 162.666C98.4263 162.992 98.2675 163.277 98.0383 163.521C97.8117 163.764 97.5266 163.952 97.1828 164.088C96.8417 164.221 96.4524 164.287 96.0149 164.287ZM104.161 159.631L103.102 159.818C103.058 159.683 102.988 159.554 102.892 159.432C102.798 159.309 102.67 159.209 102.509 159.131C102.347 159.053 102.145 159.014 101.903 159.014C101.573 159.014 101.296 159.088 101.075 159.236C100.854 159.382 100.743 159.571 100.743 159.803C100.743 160.003 100.817 160.165 100.966 160.287C101.114 160.41 101.354 160.51 101.685 160.588L102.638 160.807C103.19 160.934 103.601 161.131 103.872 161.396C104.143 161.662 104.278 162.007 104.278 162.432C104.278 162.791 104.174 163.111 103.966 163.393C103.76 163.671 103.472 163.89 103.102 164.049C102.735 164.208 102.31 164.287 101.825 164.287C101.153 164.287 100.605 164.144 100.181 163.857C99.7561 163.568 99.4957 163.158 99.3994 162.627L100.528 162.455C100.599 162.749 100.743 162.972 100.962 163.123C101.181 163.271 101.466 163.346 101.817 163.346C102.2 163.346 102.506 163.266 102.735 163.107C102.964 162.946 103.079 162.749 103.079 162.518C103.079 162.33 103.009 162.173 102.868 162.045C102.73 161.917 102.518 161.821 102.231 161.756L101.216 161.533C100.656 161.406 100.242 161.202 99.9736 160.924C99.708 160.645 99.5751 160.292 99.5751 159.865C99.5751 159.511 99.6741 159.201 99.872 158.936C100.07 158.67 100.343 158.463 100.692 158.314C101.041 158.163 101.441 158.088 101.892 158.088C102.54 158.088 103.05 158.229 103.423 158.51C103.795 158.788 104.041 159.162 104.161 159.631Z" fill="#3D4A5D"/>
</g>
<g filter="url(#filter5_dii_3009_1622)">
<rect x="119" y="149.166" width="58" height="21" rx="10.5" fill="#EEFFFA"/>
<rect x="119.4" y="149.566" width="57.2" height="20.2" rx="10.1" stroke="url(#paint5_linear_3009_1622)" stroke-width="0.8"/>
<path opacity="0.8" d="M132.654 158.268C132.612 157.898 132.441 157.611 132.139 157.408C131.836 157.202 131.456 157.1 130.998 157.1C130.67 157.1 130.386 157.152 130.146 157.256C129.907 157.357 129.721 157.498 129.588 157.678C129.458 157.855 129.392 158.057 129.392 158.283C129.392 158.473 129.437 158.637 129.525 158.775C129.616 158.913 129.735 159.029 129.881 159.123C130.029 159.214 130.188 159.291 130.357 159.354C130.527 159.413 130.689 159.463 130.846 159.502L131.627 159.705C131.882 159.768 132.144 159.852 132.412 159.959C132.68 160.066 132.929 160.206 133.158 160.381C133.387 160.555 133.572 160.771 133.713 161.029C133.856 161.287 133.928 161.596 133.928 161.955C133.928 162.408 133.81 162.811 133.576 163.162C133.344 163.514 133.007 163.791 132.564 163.994C132.124 164.197 131.592 164.299 130.967 164.299C130.368 164.299 129.849 164.204 129.412 164.014C128.974 163.824 128.632 163.554 128.385 163.205C128.137 162.854 128 162.437 127.974 161.955H129.185C129.209 162.244 129.303 162.485 129.467 162.678C129.633 162.868 129.846 163.01 130.103 163.104C130.364 163.195 130.649 163.24 130.959 163.24C131.3 163.24 131.603 163.187 131.869 163.08C132.137 162.971 132.348 162.82 132.502 162.627C132.655 162.432 132.732 162.204 132.732 161.943C132.732 161.706 132.665 161.512 132.529 161.361C132.396 161.21 132.215 161.085 131.986 160.986C131.76 160.887 131.503 160.8 131.217 160.725L130.271 160.467C129.631 160.292 129.123 160.036 128.748 159.697C128.375 159.359 128.189 158.911 128.189 158.354C128.189 157.893 128.314 157.49 128.564 157.146C128.814 156.803 129.153 156.536 129.58 156.346C130.007 156.153 130.489 156.057 131.025 156.057C131.567 156.057 132.045 156.152 132.459 156.342C132.875 156.532 133.204 156.794 133.443 157.127C133.683 157.458 133.808 157.838 133.818 158.268H132.654ZM138.857 161.678V158.166H140.029V164.166H138.88V163.127H138.818C138.68 163.447 138.459 163.714 138.154 163.928C137.852 164.139 137.475 164.244 137.025 164.244C136.64 164.244 136.298 164.16 136.002 163.99C135.707 163.818 135.475 163.564 135.306 163.229C135.14 162.893 135.056 162.477 135.056 161.982V158.166H136.224V161.842C136.224 162.251 136.337 162.576 136.564 162.818C136.791 163.061 137.085 163.182 137.447 163.182C137.666 163.182 137.883 163.127 138.099 163.018C138.318 162.908 138.499 162.743 138.642 162.521C138.788 162.3 138.86 162.019 138.857 161.678ZM141.378 166.416V158.166H142.519V159.139H142.616C142.684 159.014 142.782 158.869 142.909 158.705C143.037 158.541 143.214 158.398 143.441 158.275C143.667 158.15 143.967 158.088 144.339 158.088C144.824 158.088 145.256 158.21 145.636 158.455C146.016 158.7 146.314 159.053 146.531 159.514C146.749 159.975 146.859 160.529 146.859 161.178C146.859 161.826 146.751 162.382 146.534 162.846C146.318 163.307 146.021 163.662 145.644 163.912C145.266 164.16 144.835 164.283 144.351 164.283C143.986 164.283 143.688 164.222 143.456 164.1C143.227 163.977 143.047 163.834 142.917 163.67C142.787 163.506 142.687 163.36 142.616 163.232H142.546V166.416H141.378ZM142.523 161.166C142.523 161.588 142.584 161.958 142.706 162.275C142.829 162.593 143.006 162.842 143.238 163.021C143.469 163.199 143.753 163.287 144.089 163.287C144.438 163.287 144.73 163.195 144.964 163.01C145.199 162.822 145.376 162.568 145.495 162.248C145.618 161.928 145.679 161.567 145.679 161.166C145.679 160.77 145.619 160.415 145.499 160.1C145.382 159.785 145.205 159.536 144.968 159.354C144.734 159.171 144.441 159.08 144.089 159.08C143.751 159.08 143.464 159.167 143.23 159.342C142.998 159.516 142.822 159.76 142.702 160.072C142.583 160.385 142.523 160.749 142.523 161.166ZM147.947 166.416V158.166H149.088V159.139H149.186C149.253 159.014 149.351 158.869 149.479 158.705C149.606 158.541 149.783 158.398 150.01 158.275C150.236 158.15 150.536 158.088 150.908 158.088C151.393 158.088 151.825 158.21 152.205 158.455C152.585 158.7 152.883 159.053 153.1 159.514C153.318 159.975 153.428 160.529 153.428 161.178C153.428 161.826 153.32 162.382 153.104 162.846C152.887 163.307 152.59 163.662 152.213 163.912C151.835 164.16 151.404 164.283 150.92 164.283C150.555 164.283 150.257 164.222 150.025 164.1C149.796 163.977 149.617 163.834 149.486 163.67C149.356 163.506 149.256 163.36 149.186 163.232H149.115V166.416H147.947ZM149.092 161.166C149.092 161.588 149.153 161.958 149.275 162.275C149.398 162.593 149.575 162.842 149.807 163.021C150.038 163.199 150.322 163.287 150.658 163.287C151.007 163.287 151.299 163.195 151.533 163.01C151.768 162.822 151.945 162.568 152.064 162.248C152.187 161.928 152.248 161.567 152.248 161.166C152.248 160.77 152.188 160.415 152.068 160.1C151.951 159.785 151.774 159.536 151.537 159.354C151.303 159.171 151.01 159.08 150.658 159.08C150.32 159.08 150.033 159.167 149.799 159.342C149.567 159.516 149.391 159.76 149.271 160.072C149.152 160.385 149.092 160.749 149.092 161.166ZM157.044 164.287C156.481 164.287 155.99 164.158 155.571 163.9C155.152 163.643 154.826 163.282 154.594 162.818C154.363 162.355 154.247 161.813 154.247 161.193C154.247 160.571 154.363 160.027 154.594 159.561C154.826 159.094 155.152 158.732 155.571 158.475C155.99 158.217 156.481 158.088 157.044 158.088C157.606 158.088 158.097 158.217 158.516 158.475C158.936 158.732 159.261 159.094 159.493 159.561C159.725 160.027 159.841 160.571 159.841 161.193C159.841 161.813 159.725 162.355 159.493 162.818C159.261 163.282 158.936 163.643 158.516 163.9C158.097 164.158 157.606 164.287 157.044 164.287ZM157.048 163.307C157.412 163.307 157.714 163.21 157.954 163.018C158.193 162.825 158.37 162.568 158.485 162.248C158.602 161.928 158.661 161.575 158.661 161.189C158.661 160.807 158.602 160.455 158.485 160.135C158.37 159.812 158.193 159.553 157.954 159.357C157.714 159.162 157.412 159.064 157.048 159.064C156.68 159.064 156.376 159.162 156.134 159.357C155.894 159.553 155.716 159.812 155.598 160.135C155.484 160.455 155.426 160.807 155.426 161.189C155.426 161.575 155.484 161.928 155.598 162.248C155.716 162.568 155.894 162.825 156.134 163.018C156.376 163.21 156.68 163.307 157.048 163.307ZM160.924 164.166V158.166H162.053V159.119H162.116C162.225 158.796 162.418 158.542 162.694 158.357C162.972 158.17 163.288 158.076 163.639 158.076C163.712 158.076 163.798 158.079 163.897 158.084C163.998 158.089 164.078 158.096 164.135 158.104V159.221C164.088 159.208 164.005 159.193 163.885 159.178C163.765 159.16 163.646 159.15 163.526 159.15C163.25 159.15 163.004 159.209 162.788 159.326C162.574 159.441 162.405 159.601 162.28 159.807C162.155 160.01 162.092 160.242 162.092 160.502V164.166H160.924ZM168.081 158.166V159.104H164.804V158.166H168.081ZM165.683 156.729H166.851V162.404C166.851 162.631 166.885 162.801 166.952 162.916C167.02 163.028 167.107 163.105 167.214 163.146C167.323 163.186 167.442 163.205 167.569 163.205C167.663 163.205 167.745 163.199 167.816 163.186C167.886 163.173 167.941 163.162 167.98 163.154L168.191 164.119C168.123 164.145 168.027 164.171 167.902 164.197C167.777 164.226 167.62 164.242 167.433 164.244C167.125 164.249 166.839 164.195 166.573 164.08C166.308 163.965 166.093 163.788 165.929 163.549C165.765 163.309 165.683 163.008 165.683 162.646V156.729Z" fill="#3D4A5D"/>
</g>
<g filter="url(#filter6_ii_3009_1622)">
<rect x="183" y="149.166" width="46" height="21" rx="10.5" fill="white"/>
<rect x="183.4" y="149.566" width="45.2" height="20.2" rx="10.1" stroke="#F4F4F4" stroke-width="0.8"/>
<path opacity="0.6" d="M199.283 160.166C199.283 161.02 199.127 161.755 198.814 162.369C198.502 162.981 198.073 163.452 197.529 163.783C196.987 164.111 196.371 164.275 195.681 164.275C194.989 164.275 194.37 164.111 193.826 163.783C193.284 163.452 192.857 162.98 192.544 162.365C192.232 161.751 192.076 161.018 192.076 160.166C192.076 159.312 192.232 158.579 192.544 157.967C192.857 157.352 193.284 156.881 193.826 156.553C194.37 156.222 194.989 156.057 195.681 156.057C196.371 156.057 196.987 156.222 197.529 156.553C198.073 156.881 198.502 157.352 198.814 157.967C199.127 158.579 199.283 159.312 199.283 160.166ZM198.087 160.166C198.087 159.515 197.982 158.967 197.771 158.521C197.563 158.074 197.276 157.735 196.912 157.506C196.55 157.274 196.14 157.158 195.681 157.158C195.22 157.158 194.809 157.274 194.447 157.506C194.085 157.735 193.798 158.074 193.587 158.521C193.379 158.967 193.275 159.515 193.275 160.166C193.275 160.817 193.379 161.367 193.587 161.814C193.798 162.26 194.085 162.598 194.447 162.83C194.809 163.059 195.22 163.174 195.681 163.174C196.14 163.174 196.55 163.059 196.912 162.83C197.276 162.598 197.563 162.26 197.771 161.814C197.982 161.367 198.087 160.817 198.087 160.166ZM203.275 158.166V159.104H199.997V158.166H203.275ZM200.876 156.729H202.044V162.404C202.044 162.631 202.078 162.801 202.146 162.916C202.213 163.028 202.301 163.105 202.407 163.146C202.517 163.186 202.635 163.205 202.763 163.205C202.857 163.205 202.939 163.199 203.009 163.186C203.079 163.173 203.134 163.162 203.173 163.154L203.384 164.119C203.316 164.145 203.22 164.171 203.095 164.197C202.97 164.226 202.814 164.242 202.626 164.244C202.319 164.249 202.032 164.195 201.767 164.08C201.501 163.965 201.286 163.788 201.122 163.549C200.958 163.309 200.876 163.008 200.876 162.646V156.729ZM205.644 160.604V164.166H204.476V156.166H205.628V159.143H205.702C205.843 158.82 206.058 158.563 206.347 158.373C206.636 158.183 207.013 158.088 207.479 158.088C207.891 158.088 208.25 158.173 208.558 158.342C208.868 158.511 209.107 158.764 209.276 159.1C209.448 159.433 209.534 159.85 209.534 160.35V164.166H208.366V160.49C208.366 160.05 208.253 159.709 208.026 159.467C207.8 159.222 207.485 159.1 207.081 159.1C206.805 159.1 206.558 159.158 206.339 159.275C206.123 159.393 205.952 159.564 205.827 159.791C205.705 160.015 205.644 160.286 205.644 160.604ZM213.459 164.287C212.868 164.287 212.358 164.161 211.931 163.908C211.507 163.653 211.179 163.295 210.947 162.834C210.718 162.37 210.603 161.827 210.603 161.205C210.603 160.59 210.718 160.049 210.947 159.58C211.179 159.111 211.502 158.745 211.916 158.482C212.332 158.219 212.819 158.088 213.377 158.088C213.715 158.088 214.043 158.144 214.361 158.256C214.679 158.368 214.964 158.544 215.217 158.783C215.469 159.023 215.668 159.334 215.814 159.717C215.96 160.097 216.033 160.559 216.033 161.104V161.518H211.263V160.643H214.888C214.888 160.335 214.826 160.063 214.701 159.826C214.576 159.587 214.4 159.398 214.174 159.26C213.95 159.122 213.687 159.053 213.384 159.053C213.056 159.053 212.77 159.133 212.525 159.295C212.283 159.454 212.095 159.662 211.963 159.92C211.832 160.175 211.767 160.452 211.767 160.752V161.436C211.767 161.837 211.838 162.178 211.978 162.459C212.121 162.74 212.321 162.955 212.576 163.104C212.831 163.249 213.129 163.322 213.47 163.322C213.692 163.322 213.894 163.291 214.076 163.229C214.258 163.163 214.416 163.067 214.549 162.939C214.681 162.812 214.783 162.654 214.853 162.467L215.959 162.666C215.87 162.992 215.711 163.277 215.482 163.521C215.256 163.764 214.97 163.952 214.627 164.088C214.286 164.221 213.896 164.287 213.459 164.287ZM217.109 164.166V158.166H218.238V159.119H218.3C218.41 158.796 218.602 158.542 218.878 158.357C219.157 158.17 219.472 158.076 219.824 158.076C219.897 158.076 219.983 158.079 220.081 158.084C220.183 158.089 220.262 158.096 220.32 158.104V159.221C220.273 159.208 220.19 159.193 220.07 159.178C219.95 159.16 219.83 159.15 219.71 159.15C219.434 159.15 219.188 159.209 218.972 159.326C218.759 159.441 218.589 159.601 218.464 159.807C218.339 160.01 218.277 160.242 218.277 160.502V164.166H217.109Z" fill="#3D4A5D"/>
</g>
<path d="M72.5434 70.1578C71.9824 70.1555 71.503 70.0075 71.1052 69.714C70.7075 69.4204 70.4033 68.9931 70.1926 68.432C69.9819 67.8709 69.8765 67.195 69.8765 66.4043C69.8765 65.6159 69.9819 64.9424 70.1926 64.3837C70.4057 63.825 70.7111 63.3989 71.1088 63.1053C71.5089 62.8117 71.9871 62.665 72.5434 62.665C73.0998 62.665 73.5768 62.8129 73.9746 63.1088C74.3723 63.4024 74.6765 63.8285 74.8872 64.3873C75.1003 64.9436 75.2068 65.6159 75.2068 66.4043C75.2068 67.1974 75.1015 67.8745 74.8908 68.4355C74.68 68.9943 74.3758 69.4216 73.9781 69.7175C73.5804 70.0111 73.1022 70.1578 72.5434 70.1578ZM72.5434 69.2097C73.0359 69.2097 73.4206 68.9694 73.6976 68.4888C73.9769 68.0082 74.1166 67.3134 74.1166 66.4043C74.1166 65.8006 74.0527 65.2904 73.9248 64.8738C73.7994 64.4547 73.6183 64.1375 73.3815 63.9221C73.1471 63.7042 72.8678 63.5953 72.5434 63.5953C72.0534 63.5953 71.6687 63.8368 71.3893 64.3198C71.11 64.8027 70.9691 65.4976 70.9667 66.4043C70.9667 67.0104 71.0295 67.5229 71.155 67.9419C71.2828 68.3586 71.4639 68.6747 71.6983 68.8901C71.9327 69.1032 72.2144 69.2097 72.5434 69.2097ZM76.8803 69.1351C76.6862 69.1351 76.5193 69.0665 76.3796 68.9292C76.24 68.7895 76.1701 68.6214 76.1701 68.4249C76.1701 68.2308 76.24 68.065 76.3796 67.9277C76.5193 67.7881 76.6862 67.7182 76.8803 67.7182C77.0745 67.7182 77.2414 67.7881 77.3811 67.9277C77.5207 68.065 77.5906 68.2308 77.5906 68.4249C77.5906 68.5551 77.5574 68.6747 77.4911 68.7836C77.4272 68.8901 77.342 68.9753 77.2355 69.0392C77.1289 69.1032 77.0106 69.1351 76.8803 69.1351ZM76.8803 65.4917C76.6862 65.4917 76.5193 65.423 76.3796 65.2857C76.24 65.146 76.1701 64.9779 76.1701 64.7814C76.1701 64.5873 76.24 64.4216 76.3796 64.2843C76.5193 64.1446 76.6862 64.0748 76.8803 64.0748C77.0745 64.0748 77.2414 64.1446 77.3811 64.2843C77.5207 64.4216 77.5906 64.5873 77.5906 64.7814C77.5906 64.9116 77.5574 65.0312 77.4911 65.1401C77.4272 65.2466 77.342 65.3319 77.2355 65.3958C77.1289 65.4597 77.0106 65.4917 76.8803 65.4917ZM81.4578 62.7644V70.0371H80.357V63.8652H80.3144L78.5743 65.0016V63.9505L80.3889 62.7644H81.4578ZM85.5257 70.1365C85.0807 70.1365 84.6806 70.0513 84.3254 69.8809C83.9727 69.708 83.691 69.4713 83.4803 69.1706C83.2696 68.87 83.1571 68.5267 83.1429 68.1408H84.2083C84.2343 68.4533 84.3728 68.7102 84.6237 68.9114C84.8747 69.1126 85.1754 69.2132 85.5257 69.2132C85.8051 69.2132 86.0525 69.1493 86.2679 69.0215C86.4857 68.8913 86.6562 68.7125 86.7793 68.4853C86.9048 68.258 86.9675 67.9988 86.9675 67.7076C86.9675 67.4116 86.9036 67.1477 86.7757 66.9157C86.6479 66.6837 86.4715 66.5014 86.2466 66.3688C86.0241 66.2362 85.7684 66.1687 85.4796 66.1664C85.2594 66.1664 85.038 66.2042 84.8155 66.28C84.593 66.3558 84.413 66.4552 84.2757 66.5783L83.2708 66.4292L83.6791 62.7644H87.6777V63.7054H84.5918L84.361 65.7402H84.4036C84.5456 65.6029 84.7338 65.4881 84.9682 65.3958C85.2049 65.3034 85.4583 65.2573 85.7281 65.2573C86.1709 65.2573 86.565 65.3626 86.9107 65.5733C87.2587 65.784 87.5321 66.0717 87.731 66.4363C87.9322 66.7985 88.0316 67.2151 88.0293 67.6863C88.0316 68.1574 87.9251 68.5776 87.7097 68.9469C87.4966 69.3162 87.2007 69.6074 86.8219 69.8205C86.4455 70.0312 86.0134 70.1365 85.5257 70.1365ZM93.1279 65.9142L92.1655 66.0847C92.1253 65.9616 92.0614 65.8444 91.9738 65.7331C91.8885 65.6219 91.7725 65.5307 91.6258 65.4597C91.479 65.3887 91.2955 65.3532 91.0753 65.3532C90.7747 65.3532 90.5237 65.4206 90.3225 65.5556C90.1213 65.6882 90.0206 65.8598 90.0206 66.0705C90.0206 66.2528 90.0881 66.3996 90.2231 66.5108C90.358 66.6221 90.5758 66.7132 90.8765 66.7843L91.743 66.9831C92.2448 67.0991 92.6189 67.2779 92.8651 67.5194C93.1113 67.7608 93.2344 68.0745 93.2344 68.4604C93.2344 68.7871 93.1397 69.0783 92.9503 69.334C92.7633 69.5873 92.5017 69.7862 92.1655 69.9306C91.8317 70.075 91.4447 70.1472 91.0043 70.1472C90.3935 70.1472 89.8952 70.017 89.5093 69.7566C89.1234 69.4938 88.8867 69.1209 88.7991 68.638L89.8253 68.4817C89.8893 68.7492 90.0206 68.9516 90.2195 69.089C90.4184 69.2239 90.6776 69.2914 90.9972 69.2914C91.3452 69.2914 91.6234 69.2192 91.8317 69.0748C92.0401 68.928 92.1442 68.7492 92.1442 68.5385C92.1442 68.3681 92.0803 68.2248 91.9525 68.1088C91.827 67.9928 91.634 67.9052 91.3736 67.8461L90.4503 67.6436C89.9413 67.5276 89.5649 67.343 89.3211 67.0897C89.0796 66.8364 88.9589 66.5156 88.9589 66.1273C88.9589 65.8053 89.0488 65.5236 89.2287 65.2821C89.4087 65.0407 89.6572 64.8525 89.9745 64.7175C90.2917 64.5802 90.6551 64.5115 91.0647 64.5115C91.6542 64.5115 92.1182 64.6394 92.4567 64.8951C92.7953 65.1484 93.019 65.4881 93.1279 65.9142Z" fill="#1B1E3D" fill-opacity="0.3"/>
<circle cx="205" cy="66.5371" r="2" fill="#D84F4F"/>
<path d="M210.575 70.0371V62.7644H213.167C213.731 62.7644 214.198 62.8614 214.57 63.0556C214.944 63.2497 215.223 63.5184 215.408 63.8617C215.593 64.2026 215.685 64.5968 215.685 65.0442C215.685 65.4893 215.591 65.8811 215.404 66.2196C215.22 66.5558 214.94 66.8174 214.566 67.0044C214.195 67.1915 213.727 67.285 213.164 67.285H211.2V66.3404H213.064C213.419 66.3404 213.708 66.2895 213.931 66.1877C214.156 66.0859 214.32 65.9379 214.424 65.7438C214.528 65.5497 214.58 65.3165 214.58 65.0442C214.58 64.7696 214.527 64.5317 214.421 64.3304C214.317 64.1292 214.152 63.9753 213.927 63.8688C213.705 63.7599 213.412 63.7054 213.05 63.7054H211.672V70.0371H210.575ZM214.165 66.7559L215.962 70.0371H214.712L212.95 66.7559H214.165ZM216.72 70.0371V62.7644H221.28V63.709H217.817V65.9249H221.042V66.8659H217.817V69.0925H221.322V70.0371H216.72ZM228.486 65.1294H227.378C227.335 64.8927 227.256 64.6844 227.14 64.5044C227.024 64.3245 226.882 64.1718 226.714 64.0463C226.546 63.9209 226.358 63.8262 226.149 63.7623C225.943 63.6983 225.724 63.6664 225.492 63.6664C225.073 63.6664 224.698 63.7717 224.367 63.9824C224.038 64.1931 223.777 64.5021 223.585 64.9093C223.396 65.3165 223.301 65.8136 223.301 66.4007C223.301 66.9926 223.396 67.4921 223.585 67.8993C223.777 68.3065 224.039 68.6143 224.37 68.8226C224.702 69.031 225.075 69.1351 225.489 69.1351C225.718 69.1351 225.936 69.1043 226.142 69.0428C226.351 68.9789 226.539 68.8854 226.707 68.7623C226.875 68.6391 227.017 68.4888 227.133 68.3113C227.251 68.1313 227.333 67.9254 227.378 67.6934L228.486 67.6969C228.427 68.0544 228.312 68.3835 228.142 68.6841C227.973 68.9824 227.757 69.2405 227.492 69.4583C227.229 69.6737 226.928 69.8406 226.59 69.959C226.251 70.0774 225.882 70.1365 225.482 70.1365C224.852 70.1365 224.291 69.9874 223.798 69.6891C223.306 69.3884 222.918 68.9587 222.634 68.4C222.352 67.8413 222.211 67.1749 222.211 66.4007C222.211 65.6242 222.353 64.9578 222.637 64.4015C222.921 63.8427 223.31 63.4142 223.802 63.1159C224.294 62.8153 224.854 62.665 225.482 62.665C225.868 62.665 226.227 62.7206 226.561 62.8319C226.897 62.9408 227.199 63.1017 227.467 63.3148C227.734 63.5255 227.956 63.7836 228.131 64.089C228.306 64.392 228.424 64.7388 228.486 65.1294Z" fill="#1B1E3D" fill-opacity="0.3"/>
<circle opacity="0.02" cx="148.952" cy="73.9914" r="79.6406" stroke="#21BD8B" stroke-width="0.811067"/>
<circle opacity="0.05" cx="148.954" cy="73.9908" r="53.6809" fill="white" stroke="url(#paint6_linear_3009_1622)" stroke-width="0.811067"/>
<g opacity="0.4">
<circle cx="148.95" cy="73.9915" r="30.052" fill="white"/>
<circle cx="148.95" cy="73.9915" r="29.6465" stroke="url(#paint7_linear_3009_1622)" stroke-opacity="0.5" stroke-width="0.811067"/>
</g>
</g>
<rect x="57" y="51.0371" width="184" height="129.628" rx="10" stroke="#E2E8F0" stroke-opacity="0.5" shape-rendering="crispEdges"/>
</g>
<defs>
<filter id="filter0_d_3009_1622" x="0.5" y="0.537109" width="305" height="250.629" filterUnits="userSpaceOnUse" color-interpolation-filters="sRGB">
<feFlood flood-opacity="0" result="BackgroundImageFix"/>
<feColorMatrix in="SourceAlpha" type="matrix" values="0 0 0 0 0 0 0 0 0 0 0 0 0 0 0 0 0 0 127 0" result="hardAlpha"/>
<feOffset dx="4" dy="10"/>
<feGaussianBlur stdDeviation="30"/>
<feComposite in2="hardAlpha" operator="out"/>
<feColorMatrix type="matrix" values="0 0 0 0 0.335938 0 0 0 0 0.357322 0 0 0 0 0.8125 0 0 0 0.19 0"/>
<feBlend mode="normal" in2="BackgroundImageFix" result="effect1_dropShadow_3009_1622"/>
<feBlend mode="normal" in="SourceGraphic" in2="effect1_dropShadow_3009_1622" result="shape"/>
</filter>
<filter id="filter1_d_3009_1622" x="123.004" y="47.0371" width="51.9922" height="55" filterUnits="userSpaceOnUse" color-interpolation-filters="sRGB">
<feFlood flood-opacity="0" result="BackgroundImageFix"/>
<feColorMatrix in="SourceAlpha" type="matrix" values="0 0 0 0 0 0 0 0 0 0 0 0 0 0 0 0 0 0 127 0" result="hardAlpha"/>
<feMorphology radius="8" operator="erode" in="SourceAlpha" result="effect1_dropShadow_3009_1622"/>
<feOffset dy="8"/>
<feGaussianBlur stdDeviation="7.5"/>
<feComposite in2="hardAlpha" operator="out"/>
<feColorMatrix type="matrix" values="0 0 0 0 0.557692 0 0 0 0 0.557692 0 0 0 0 0.557692 0 0 0 0.1 0"/>
<feBlend mode="normal" in2="BackgroundImageFix" result="effect1_dropShadow_3009_1622"/>
<feBlend mode="normal" in="SourceGraphic" in2="effect1_dropShadow_3009_1622" result="shape"/>
</filter>
<filter id="filter2_d_3009_1622" x="138.625" y="66.6582" width="20.7539" height="20.7578" filterUnits="userSpaceOnUse" color-interpolation-filters="sRGB">
<feFlood flood-opacity="0" result="BackgroundImageFix"/>
<feColorMatrix in="SourceAlpha" type="matrix" values="0 0 0 0 0 0 0 0 0 0 0 0 0 0 0 0 0 0 127 0" result="hardAlpha"/>
<feOffset dy="4"/>
<feGaussianBlur stdDeviation="2"/>
<feComposite in2="hardAlpha" operator="out"/>
<feColorMatrix type="matrix" values="0 0 0 0 0.203922 0 0 0 0 0.729412 0 0 0 0 0.560784 0 0 0 0.3 0"/>
<feBlend mode="normal" in2="BackgroundImageFix" result="effect1_dropShadow_3009_1622"/>
<feBlend mode="normal" in="SourceGraphic" in2="effect1_dropShadow_3009_1622" result="shape"/>
</filter>
<filter id="filter3_d_3009_1622" x="130.566" y="103.643" width="36" height="54" filterUnits="userSpaceOnUse" color-interpolation-filters="sRGB">
<feFlood flood-opacity="0" result="BackgroundImageFix"/>
<feColorMatrix in="SourceAlpha" type="matrix" values="0 0 0 0 0 0 0 0 0 0 0 0 0 0 0 0 0 0 127 0" result="hardAlpha"/>
<feOffset dy="4"/>
<feGaussianBlur stdDeviation="8"/>
<feComposite in2="hardAlpha" operator="out"/>
<feColorMatrix type="matrix" values="0 0 0 0 0.113725 0 0 0 0 0.701961 0 0 0 0 0.513726 0 0 0 0.5 0"/>
<feBlend mode="normal" in2="BackgroundImageFix" result="effect1_dropShadow_3009_1622"/>
<feBlend mode="normal" in="SourceGraphic" in2="effect1_dropShadow_3009_1622" result="shape"/>
</filter>
<filter id="filter4_ii_3009_1622" x="69" y="149.166" width="44" height="23" filterUnits="userSpaceOnUse" color-interpolation-filters="sRGB">
<feFlood flood-opacity="0" result="BackgroundImageFix"/>
<feBlend mode="normal" in="SourceGraphic" in2="BackgroundImageFix" result="shape"/>
<feColorMatrix in="SourceAlpha" type="matrix" values="0 0 0 0 0 0 0 0 0 0 0 0 0 0 0 0 0 0 127 0" result="hardAlpha"/>
<feOffset dy="2"/>
<feGaussianBlur stdDeviation="3"/>
<feComposite in2="hardAlpha" operator="arithmetic" k2="-1" k3="1"/>
<feColorMatrix type="matrix" values="0 0 0 0 1 0 0 0 0 1 0 0 0 0 1 0 0 0 0.5 0"/>
<feBlend mode="normal" in2="shape" result="effect1_innerShadow_3009_1622"/>
<feColorMatrix in="SourceAlpha" type="matrix" values="0 0 0 0 0 0 0 0 0 0 0 0 0 0 0 0 0 0 127 0" result="hardAlpha"/>
<feOffset dy="1.5"/>
<feGaussianBlur stdDeviation="0.25"/>
<feComposite in2="hardAlpha" operator="arithmetic" k2="-1" k3="1"/>
<feColorMatrix type="matrix" values="0 0 0 0 1 0 0 0 0 1 0 0 0 0 1 0 0 0 0.8 0"/>
<feBlend mode="normal" in2="effect1_innerShadow_3009_1622" result="effect2_innerShadow_3009_1622"/>
</filter>
<filter id="filter5_dii_3009_1622" x="107" y="143.166" width="82" height="45" filterUnits="userSpaceOnUse" color-interpolation-filters="sRGB">
<feFlood flood-opacity="0" result="BackgroundImageFix"/>
<feColorMatrix in="SourceAlpha" type="matrix" values="0 0 0 0 0 0 0 0 0 0 0 0 0 0 0 0 0 0 127 0" result="hardAlpha"/>
<feMorphology radius="4" operator="erode" in="SourceAlpha" result="effect1_dropShadow_3009_1622"/>
<feOffset dy="6"/>
<feGaussianBlur stdDeviation="8"/>
<feComposite in2="hardAlpha" operator="out"/>
<feColorMatrix type="matrix" values="0 0 0 0 0.109804 0 0 0 0 0.717647 0 0 0 0 0.52549 0 0 0 0.1 0"/>
<feBlend mode="normal" in2="BackgroundImageFix" result="effect1_dropShadow_3009_1622"/>
<feBlend mode="normal" in="SourceGraphic" in2="effect1_dropShadow_3009_1622" result="shape"/>
<feColorMatrix in="SourceAlpha" type="matrix" values="0 0 0 0 0 0 0 0 0 0 0 0 0 0 0 0 0 0 127 0" result="hardAlpha"/>
<feOffset dy="2"/>
<feGaussianBlur stdDeviation="3"/>
<feComposite in2="hardAlpha" operator="arithmetic" k2="-1" k3="1"/>
<feColorMatrix type="matrix" values="0 0 0 0 1 0 0 0 0 1 0 0 0 0 1 0 0 0 0.5 0"/>
<feBlend mode="normal" in2="shape" result="effect2_innerShadow_3009_1622"/>
<feColorMatrix in="SourceAlpha" type="matrix" values="0 0 0 0 0 0 0 0 0 0 0 0 0 0 0 0 0 0 127 0" result="hardAlpha"/>
<feOffset dy="1.5"/>
<feGaussianBlur stdDeviation="0.25"/>
<feComposite in2="hardAlpha" operator="arithmetic" k2="-1" k3="1"/>
<feColorMatrix type="matrix" values="0 0 0 0 1 0 0 0 0 1 0 0 0 0 1 0 0 0 0.8 0"/>
<feBlend mode="normal" in2="effect2_innerShadow_3009_1622" result="effect3_innerShadow_3009_1622"/>
</filter>
<filter id="filter6_ii_3009_1622" x="183" y="149.166" width="46" height="23" filterUnits="userSpaceOnUse" color-interpolation-filters="sRGB">
<feFlood flood-opacity="0" result="BackgroundImageFix"/>
<feBlend mode="normal" in="SourceGraphic" in2="BackgroundImageFix" result="shape"/>
<feColorMatrix in="SourceAlpha" type="matrix" values="0 0 0 0 0 0 0 0 0 0 0 0 0 0 0 0 0 0 127 0" result="hardAlpha"/>
<feOffset dy="2"/>
<feGaussianBlur stdDeviation="3"/>
<feComposite in2="hardAlpha" operator="arithmetic" k2="-1" k3="1"/>
<feColorMatrix type="matrix" values="0 0 0 0 1 0 0 0 0 1 0 0 0 0 1 0 0 0 0.5 0"/>
<feBlend mode="normal" in2="shape" result="effect1_innerShadow_3009_1622"/>
<feColorMatrix in="SourceAlpha" type="matrix" values="0 0 0 0 0 0 0 0 0 0 0 0 0 0 0 0 0 0 127 0" result="hardAlpha"/>
<feOffset dy="1.5"/>
<feGaussianBlur stdDeviation="0.25"/>
<feComposite in2="hardAlpha" operator="arithmetic" k2="-1" k3="1"/>
<feColorMatrix type="matrix" values="0 0 0 0 1 0 0 0 0 1 0 0 0 0 1 0 0 0 0.8 0"/>
<feBlend mode="normal" in2="effect1_innerShadow_3009_1622" result="effect2_innerShadow_3009_1622"/>
</filter>
<linearGradient id="paint0_linear_3009_1622" x1="149" y1="51.0371" x2="149" y2="140.744" gradientUnits="userSpaceOnUse">
<stop stop-color="#1BB483"/>
<stop offset="1" stop-color="white" stop-opacity="0"/>
</linearGradient>
<linearGradient id="paint1_linear_3009_1622" x1="149" y1="51.2379" x2="149" y2="87.0371" gradientUnits="userSpaceOnUse">
<stop stop-color="#4AC29C"/>
<stop offset="1" stop-color="#4AC29C" stop-opacity="0"/>
</linearGradient>
<linearGradient id="paint2_linear_3009_1622" x1="149.002" y1="66.6582" x2="149.002" y2="79.4167" gradientUnits="userSpaceOnUse">
<stop stop-color="#1FCA94"/>
<stop offset="1" stop-color="#0D8C63"/>
</linearGradient>
<linearGradient id="paint3_linear_3009_1622" x1="149" y1="59.0371" x2="149" y2="87.0371" gradientUnits="userSpaceOnUse">
<stop stop-color="#D3D3D3"/>
<stop offset="1" stop-color="#D7D7D7"/>
</linearGradient>
<linearGradient id="paint4_linear_3009_1622" x1="149" y1="91.0371" x2="149" y2="127.849" gradientUnits="userSpaceOnUse">
<stop stop-color="#3D4A5D"/>
<stop offset="1" stop-color="#3D4A5D" stop-opacity="0"/>
</linearGradient>
<linearGradient id="paint5_linear_3009_1622" x1="148" y1="149.166" x2="148" y2="170.166" gradientUnits="userSpaceOnUse">
<stop stop-color="#21BD8B"/>
<stop offset="1" stop-color="#9AD8C4"/>
</linearGradient>
<linearGradient id="paint6_linear_3009_1622" x1="148.954" y1="42.7034" x2="148.954" y2="128.077" gradientUnits="userSpaceOnUse">
<stop stop-color="#21BD8B"/>
<stop offset="1" stop-color="#21BD8B" stop-opacity="0"/>
</linearGradient>
<linearGradient id="paint7_linear_3009_1622" x1="148.95" y1="43.9394" x2="148.95" y2="94.0488" gradientUnits="userSpaceOnUse">
<stop stop-color="#21BD8B"/>
<stop offset="1" stop-color="#21BD8B" stop-opacity="0"/>
</linearGradient>
<clipPath id="clip0_3009_1622">
<rect x="57" y="51.0371" width="184" height="129.628" rx="10" fill="white"/>
</clipPath>
<clipPath id="clip1_3009_1622">
<rect x="135.004" y="59.0371" width="27.9922" height="28" rx="13.9961" fill="white"/>
</clipPath>
</defs>
</svg>
