<svg width="250" height="188" viewBox="0 0 250 188" fill="none" xmlns="http://www.w3.org/2000/svg">
<g filter="url(#filter0_d_53017_3400)">
<path d="M45.9995 50.5403C45.9995 45.198 50.3303 40.8672 55.6726 40.8672H188.678C194.02 40.8672 198.351 45.198 198.351 50.5403V121.438C198.351 126.78 194.02 131.111 188.678 131.111H55.6726C50.3303 131.111 45.9995 126.78 45.9995 121.438V50.5403Z" fill="white" shape-rendering="crispEdges"/>
<path d="M55.6724 41.2705H188.677C193.797 41.2705 197.948 45.4204 197.948 50.54V121.438C197.948 126.557 193.797 130.708 188.677 130.708H55.6724C50.5528 130.708 46.4028 126.557 46.4028 121.438V50.54C46.403 45.4205 50.5528 41.2706 55.6724 41.2705Z" stroke="white" stroke-width="0.80609" shape-rendering="crispEdges"/>
<g clip-path="url(#clip0_53017_3400)">
<path d="M68.3023 59.1514L63.7463 50.7762C63.0143 49.5438 61.2299 49.5422 60.4969 50.7762L55.9411 59.1514C55.1927 60.4106 56.0987 62.0052 57.5654 62.0052H66.6776C68.143 62.0052 69.0506 60.4119 68.3023 59.1514ZM62.1216 60.4938C61.705 60.4938 61.3659 60.1547 61.3659 59.7381C61.3659 59.3215 61.705 58.9824 62.1216 58.9824C62.5382 58.9824 62.8773 59.3215 62.8773 59.7381C62.8773 60.1547 62.5382 60.4938 62.1216 60.4938ZM62.8773 57.4709C62.8773 57.8875 62.5382 58.2267 62.1216 58.2267C61.705 58.2267 61.3659 57.8875 61.3659 57.4709V53.6924C61.3659 53.2758 61.705 52.9367 62.1216 52.9367C62.5382 52.9367 62.8773 53.2758 62.8773 53.6924V57.4709Z" fill="#FF7C65"/>
</g>
<path d="M77.6839 60.1088C75.3365 60.1088 73.892 58.2919 73.892 55.9332C73.892 53.5633 75.3252 51.7351 77.6839 51.7351C80.0425 51.7351 81.4644 53.5633 81.4644 55.9332C81.4644 57.3665 80.934 58.6078 79.986 59.3527L81.013 60.6505H79.7942L79.1509 59.8379C78.7108 60.0185 78.2255 60.1088 77.6839 60.1088ZM75.4155 55.9332C75.4155 57.4906 76.1378 58.8336 77.6839 58.8336C77.8983 58.8336 78.1014 58.811 78.2707 58.7433L77.176 57.3439H78.3948L79.0945 58.2467C79.6588 57.7389 79.9522 56.8812 79.9522 55.9332C79.9522 54.3646 79.2412 53.0104 77.6839 53.0104C76.1265 53.0104 75.4155 54.3646 75.4155 55.9332ZM87.7256 59.9282H86.394L86.3714 58.9803C86.0441 59.7589 85.3783 60.0636 84.5996 60.0636C83.3018 60.0636 82.5795 59.1383 82.5795 57.7953V53.947H84.0241V57.3213C84.0241 58.337 84.2949 58.89 85.051 58.89C85.8297 58.89 86.2811 58.337 86.2811 57.3213V53.947H87.7256V59.9282ZM88.9182 55.7752C89.1552 54.5226 90.1145 53.8116 91.5929 53.8116C93.3195 53.8116 94.2223 54.7031 94.2223 56.3846V58.4386C94.2223 58.7771 94.369 58.8787 94.5947 58.8787H94.8317V59.9282L94.4932 59.9395C94.0305 59.9508 93.0825 59.9621 92.9697 59.0141C92.6875 59.6122 92.0104 60.0636 90.9722 60.0636C89.7646 60.0636 88.8167 59.4204 88.8167 58.3596C88.8167 57.2085 89.6856 56.8135 91.0963 56.5426L92.7665 56.2154C92.7665 55.29 92.3715 54.8499 91.5929 54.8499C90.9496 54.8499 90.532 55.1997 90.3966 55.8542L88.9182 55.7752ZM90.3176 58.3144C90.3176 58.7207 90.6675 59.048 91.3671 59.048C92.1797 59.048 92.8004 58.4499 92.8004 57.2762V57.1972L91.6606 57.4003C90.9045 57.5357 90.3176 57.6373 90.3176 58.3144ZM95.7855 51.9157H97.23V58.3709C97.23 58.653 97.388 58.811 97.6701 58.811H98.1216V59.9282H97.2977C96.3949 59.9282 95.7855 59.364 95.7855 58.4273V51.9157ZM99.1539 53.947H100.598V59.9282H99.1539V53.947ZM99.1313 53.1232V51.927H100.632V53.1232H99.1313ZM102.306 52.5928H103.751V53.947H105.331V55.0643H103.751V58.0887C103.751 58.5514 103.988 58.811 104.428 58.811H105.331V59.9282H104.191C102.961 59.9282 102.306 59.3075 102.306 58.0887V55.0643H101.358V53.947H102.306V52.5928ZM105.768 53.947H107.167L108.77 58.416L110.316 53.947H111.715L109.334 60.5602C109.074 61.2937 108.589 61.621 107.788 61.621H106.806V60.5151H107.54C107.889 60.5151 108.059 60.4022 108.183 60.1201L108.352 59.6799H107.935L105.768 53.947ZM114.544 59.9282L117.433 51.9157H119.227L122.116 59.9282H120.581L119.915 58.0323H116.744L116.078 59.9282H114.544ZM117.173 56.7796H119.487L118.335 53.3941L117.173 56.7796ZM123.005 51.9157H124.45V58.3709C124.45 58.653 124.608 58.811 124.89 58.811H125.341V59.9282H124.517C123.614 59.9282 123.005 59.364 123.005 58.4273V51.9157ZM125.958 56.9376C125.958 55.0417 127.132 53.8116 128.926 53.8116C130.472 53.8116 131.713 54.8724 131.736 56.9828V57.3326H127.481C127.549 58.3257 128.068 58.9238 128.926 58.9238C129.468 58.9238 129.964 58.6078 130.179 58.0887L131.657 58.2016C131.296 59.3414 130.213 60.0636 128.926 60.0636C127.132 60.0636 125.958 58.8336 125.958 56.9376ZM127.493 56.3734H130.246C130.134 55.3464 129.569 54.9514 128.926 54.9514C128.125 54.9514 127.606 55.4818 127.493 56.3734ZM132.739 53.947H134.094L134.128 55.1207C134.353 54.3307 134.805 53.947 135.572 53.947H136.125V55.0643H135.561C134.602 55.0643 134.184 55.5608 134.184 56.5201V59.9282H132.739V53.947ZM137.744 52.5928H139.188V53.947H140.768V55.0643H139.188V58.0887C139.188 58.5514 139.425 58.811 139.865 58.811H140.768V59.9282H139.628C138.398 59.9282 137.744 59.3075 137.744 58.0887V55.0643H136.796V53.947H137.744V52.5928Z" fill="#515382"/>
<g filter="url(#filter1_i_53017_3400)">
<rect x="55.6726" y="69.3767" width="133.005" height="53.6731" rx="6.44872" fill="white" fill-opacity="0.5"/>
<rect x="55.2696" y="68.9737" width="133.811" height="54.4792" rx="6.85177" stroke="#FF7C65" stroke-opacity="0.2" stroke-width="0.80609"/>
<path d="M70.6185 82.7613C70.346 84.3226 69.3295 85.381 67.6109 85.381C65.4732 85.381 64.2471 83.6625 64.2471 81.5038C64.2471 79.3346 65.4627 77.6055 67.6109 77.6055C69.1933 77.6055 70.2307 78.5905 70.5556 80.0576L69.602 80.1205C69.361 79.0726 68.6379 78.4857 67.6109 78.4857C65.9133 78.4857 65.1902 79.89 65.1902 81.5038C65.1902 83.1071 65.9238 84.5008 67.6109 84.5008C68.7008 84.5008 69.4343 83.8511 69.6544 82.6984L70.6185 82.7613ZM71.5634 81.2942C71.7834 80.2148 72.6532 79.5337 73.8374 79.5337C75.2625 79.5337 76.0694 80.372 76.0694 81.86V84.0921C76.0694 84.3226 76.1742 84.4379 76.4048 84.4379H76.6353V85.2134H76.2581C75.6922 85.2134 75.1997 85.0352 75.1997 84.3541C74.9586 84.8676 74.3508 85.3391 73.4706 85.3391C72.3598 85.3391 71.4691 84.7523 71.4691 83.7568C71.4691 82.6145 72.3284 82.3211 73.5649 82.0906L75.1892 81.7657C75.1787 80.8331 74.7281 80.372 73.8374 80.372C73.1353 80.372 72.6637 80.7283 72.496 81.3675L71.5634 81.2942ZM72.3912 83.7568C72.3912 84.1969 72.7685 84.5637 73.5859 84.5637C74.4871 84.5532 75.2101 83.9244 75.2101 82.625V82.5517L73.9002 82.7822C73.0724 82.9289 72.3912 82.9813 72.3912 83.7568ZM77.7377 77.7732H78.6179V84.0921C78.6179 84.3226 78.7332 84.4379 78.9637 84.4379H79.4458V85.2134H78.8275C78.1778 85.2134 77.7377 84.7733 77.7377 84.134V77.7732ZM80.6006 77.7732H81.4809V84.0921C81.4809 84.3226 81.5961 84.4379 81.8267 84.4379H82.3087V85.2134H81.6904C81.0407 85.2134 80.6006 84.7733 80.6006 84.134V77.7732ZM89.8978 79.6594L91.2181 84.2388L92.549 79.6594H93.4921L91.7735 85.2134H90.6627L89.4262 80.9903L88.1897 85.2134H87.0893L85.3708 79.6594H86.3139L87.6343 84.2388L88.9546 79.6594H89.8978ZM94.4597 79.6594H95.34V85.2134H94.4597V79.6594ZM94.4388 78.7896V77.7836H95.3609V78.7896H94.4388ZM97.0491 78.4019H97.9294V79.6594H99.407V80.4349H97.9294V83.7358C97.9294 84.1969 98.1495 84.4379 98.5896 84.4379H99.386V85.2134H98.5896C97.5941 85.2134 97.0491 84.6789 97.0491 83.7358V80.4349H96.2318V79.6594H97.0491V78.4019ZM100.523 77.7732H101.404V80.4139C101.718 79.8061 102.368 79.5337 103.059 79.5337C104.212 79.5337 104.935 80.351 104.935 81.64V85.2134H104.055V81.9544C104.055 80.896 103.667 80.372 102.871 80.372C101.99 80.372 101.404 80.9274 101.404 81.9544V85.2134H100.523V77.7732ZM115.069 82.7613C114.797 84.3226 113.78 85.381 112.061 85.381C109.924 85.381 108.698 83.6625 108.698 81.5038C108.698 79.3346 109.913 77.6055 112.061 77.6055C113.644 77.6055 114.681 78.5905 115.006 80.0576L114.053 80.1205C113.811 79.0726 113.088 78.4857 112.061 78.4857C110.364 78.4857 109.641 79.89 109.641 81.5038C109.641 83.1071 110.374 84.5008 112.061 84.5008C113.151 84.5008 113.885 83.8511 114.105 82.6984L115.069 82.7613ZM120.614 85.2134H119.776V84.2912C119.483 85.0143 118.843 85.3391 118.11 85.3391C116.873 85.3391 116.265 84.4065 116.265 83.2328V79.6594H117.146V82.9708C117.146 84.0083 117.491 84.5637 118.298 84.5637C119.158 84.5637 119.734 84.0083 119.734 82.9708V79.6594H120.614V85.2134ZM125.231 81.378C125.105 80.7493 124.487 80.372 123.869 80.372C123.25 80.372 122.747 80.6864 122.747 81.2208C122.747 81.7657 123.47 81.9858 124.078 82.1115C125.336 82.3526 126.258 82.6984 126.258 83.7987C126.258 84.878 125.147 85.3391 124.089 85.3391C122.779 85.3391 121.773 84.6161 121.689 83.4634L122.611 83.4005C122.726 84.0711 123.261 84.5008 124.089 84.5008C124.634 84.5008 125.336 84.3226 125.336 83.7463C125.336 83.0861 124.55 83.0128 123.921 82.866C122.904 82.6355 121.825 82.3421 121.825 81.2627C121.825 80.2043 122.684 79.5337 123.963 79.5337C125.063 79.5337 125.975 80.2358 126.153 81.3151L125.231 81.378ZM127.725 78.4019H128.605V79.6594H130.083V80.4349H128.605V83.7358C128.605 84.1969 128.825 84.4379 129.265 84.4379H130.062V85.2134H129.265C128.27 85.2134 127.725 84.6789 127.725 83.7358V80.4349H126.908V79.6594H127.725V78.4019ZM133.246 85.3391C131.706 85.3391 130.7 84.2074 130.7 82.4364C130.7 80.6654 131.706 79.5337 133.246 79.5337C134.776 79.5337 135.782 80.6654 135.782 82.4364C135.782 84.2074 134.776 85.3391 133.246 85.3391ZM131.622 82.4364C131.622 83.7253 132.219 84.5008 133.246 84.5008C134.263 84.5008 134.86 83.7253 134.86 82.4364C134.86 81.1475 134.263 80.372 133.246 80.372C132.219 80.372 131.622 81.1475 131.622 82.4364ZM136.958 79.6594H137.765L137.786 80.5921C138.048 79.9214 138.624 79.5337 139.389 79.5337C140.196 79.5337 140.773 79.9528 141.014 80.6969C141.255 79.9528 141.831 79.5337 142.701 79.5337C143.822 79.5337 144.472 80.2986 144.472 81.64V85.2134H143.591V81.8915C143.591 80.8855 143.193 80.3091 142.523 80.3091C141.653 80.3091 141.15 80.896 141.15 81.8915V85.2134H140.27V81.8915C140.27 80.9064 139.871 80.3091 139.211 80.3091C138.352 80.3091 137.838 80.9064 137.838 81.8915V85.2134H136.958V79.6594ZM145.544 82.4364C145.544 80.6759 146.539 79.5337 148.09 79.5337C149.316 79.5337 150.406 80.3406 150.49 82.3106L150.5 82.7089H146.476C146.56 83.8406 147.137 84.5008 148.09 84.5008C148.677 84.5008 149.222 84.155 149.473 83.5681L150.417 83.6415C150.092 84.6894 149.149 85.3391 148.09 85.3391C146.539 85.3391 145.544 84.1969 145.544 82.4364ZM146.497 81.9334H149.536C149.39 80.7702 148.761 80.372 148.09 80.372C147.21 80.372 146.644 80.9484 146.497 81.9334ZM151.679 79.6594H152.455L152.486 80.6759C152.675 79.9843 153.084 79.6594 153.807 79.6594H154.351V80.4349H153.807C152.958 80.4349 152.56 80.9484 152.56 81.902V85.2134H151.679V79.6594ZM160.763 85.381C158.961 85.381 157.818 83.8825 157.818 81.5038C157.818 79.104 158.961 77.6055 160.763 77.6055C162.576 77.6055 163.718 79.104 163.718 81.5038C163.718 83.8825 162.576 85.381 160.763 85.381ZM158.762 81.5038C158.762 83.4214 159.485 84.5008 160.763 84.5008C162.052 84.5008 162.775 83.4214 162.775 81.5038C162.775 79.5756 162.052 78.4857 160.763 78.4857C159.485 78.4857 158.762 79.5756 158.762 81.5038ZM164.841 79.9947C165.04 78.622 166.014 77.6055 167.503 77.6055C168.865 77.6055 169.871 78.5067 169.871 79.7223C169.871 80.8016 169.012 81.5352 167.89 82.2373C167.293 82.5726 165.857 83.5891 165.826 84.3331H169.934V85.2134H164.705C164.705 82.9918 166.297 82.1849 167.565 81.378C168.351 80.875 168.928 80.2986 168.928 79.7223C168.928 78.9992 168.341 78.4857 167.503 78.4857C166.601 78.4857 165.983 79.0516 165.784 80.0576L164.841 79.9947ZM173.409 80.8226C174.111 80.8331 174.949 80.5082 174.949 79.5441C174.949 78.8944 174.362 78.4857 173.409 78.4857C172.633 78.4857 172.088 78.863 171.994 79.4603L171.051 79.3974C171.187 78.3495 172.162 77.6055 173.409 77.6055C174.876 77.6055 175.903 78.4019 175.903 79.5441C175.903 80.372 175.431 80.9274 174.53 81.1894C175.567 81.4933 176.154 82.2059 176.154 83.1699C176.154 84.4694 175.022 85.381 173.409 85.381C171.921 85.381 170.841 84.5218 170.778 83.2957L171.711 83.2328C171.795 84.1445 172.665 84.5008 173.409 84.5008C174.289 84.5008 175.211 84.1026 175.211 83.0966C175.211 82.1011 174.289 81.6714 173.409 81.6924L172.832 81.7029V80.8121L173.409 80.8226ZM64.572 93.6594H65.4522V99.2134H64.572V93.6594ZM64.551 92.7896V91.7836H65.4732V92.7896H64.551ZM70.2217 95.378C70.096 94.7493 69.4777 94.372 68.8594 94.372C68.2412 94.372 67.7382 94.6864 67.7382 95.2208C67.7382 95.7657 68.4612 95.9858 69.069 96.1115C70.3265 96.3526 71.2487 96.6984 71.2487 97.7987C71.2487 98.878 70.1379 99.3391 69.0795 99.3391C67.7696 99.3391 66.7636 98.6161 66.6798 97.4634L67.6019 97.4005C67.7172 98.0711 68.2516 98.5008 69.0795 98.5008C69.6244 98.5008 70.3265 98.3226 70.3265 97.7463C70.3265 97.0861 69.5406 97.0128 68.9118 96.866C67.8953 96.6355 66.816 96.3421 66.816 95.2627C66.816 94.2043 67.6753 93.5337 68.9537 93.5337C70.0541 93.5337 70.9657 94.2358 71.1439 95.3151L70.2217 95.378ZM74.9926 93.6594H75.7995L75.8205 94.5921C76.0824 93.9214 76.6588 93.5337 77.4238 93.5337C78.2307 93.5337 78.807 93.9528 79.0481 94.6969C79.2891 93.9528 79.8654 93.5337 80.7352 93.5337C81.8565 93.5337 82.5062 94.2986 82.5062 95.64V99.2134H81.6259V95.8915C81.6259 94.8855 81.2277 94.3091 80.5571 94.3091C79.6873 94.3091 79.1843 94.896 79.1843 95.8915V99.2134H78.304V95.8915C78.304 94.9064 77.9058 94.3091 77.2456 94.3091C76.3863 94.3091 75.8729 94.9064 75.8729 95.8915V99.2134H74.9926V93.6594ZM83.7237 95.2942C83.9438 94.2148 84.8136 93.5337 85.9977 93.5337C87.4229 93.5337 88.2298 94.372 88.2298 95.86V98.0921C88.2298 98.3226 88.3346 98.4379 88.5651 98.4379H88.7957V99.2134H88.4184C87.8525 99.2134 87.36 99.0352 87.36 98.3541C87.119 98.8676 86.5112 99.3391 85.6309 99.3391C84.5201 99.3391 83.6294 98.7523 83.6294 97.7568C83.6294 96.6145 84.4887 96.3211 85.7253 96.0906L87.3495 95.7657C87.339 94.8331 86.8884 94.372 85.9977 94.372C85.2956 94.372 84.824 94.7283 84.6564 95.3675L83.7237 95.2942ZM84.5516 97.7568C84.5516 98.1969 84.9288 98.5637 85.7462 98.5637C86.6474 98.5532 87.3705 97.9244 87.3705 96.625V96.5517L86.0606 96.7822C85.2327 96.9289 84.5516 96.9813 84.5516 97.7568ZM89.8161 93.6594H90.5916L90.623 94.6759C90.8117 93.9843 91.2204 93.6594 91.9434 93.6594H92.4883V94.4349H91.9434C91.0946 94.4349 90.6964 94.9484 90.6964 95.902V99.2134H89.8161V93.6594ZM93.4057 91.7732H94.2859V96.646L96.9476 93.6594H98.1527L95.9731 96.0172L98.2575 99.2134H97.1782L95.3653 96.625L94.2859 97.7882V99.2134H93.4057V91.7732ZM98.6142 96.4364C98.6142 94.6759 99.6098 93.5337 101.161 93.5337C102.387 93.5337 103.477 94.3406 103.56 96.3106L103.571 96.7089H99.5469C99.6307 97.8406 100.207 98.5008 101.161 98.5008C101.748 98.5008 102.292 98.155 102.544 97.5681L103.487 97.6415C103.162 98.6894 102.219 99.3391 101.161 99.3391C99.6098 99.3391 98.6142 98.1969 98.6142 96.4364ZM99.5678 95.9334H102.607C102.46 94.7702 101.831 94.372 101.161 94.372C100.28 94.372 99.7145 94.9484 99.5678 95.9334ZM109.391 91.7732V99.2134H108.594L108.563 98.417C108.249 98.9828 107.578 99.3391 106.802 99.3391C105.356 99.3391 104.455 98.2179 104.455 96.4364C104.455 94.6549 105.356 93.5337 106.802 93.5337C107.546 93.5337 108.207 93.869 108.511 94.393V91.7732H109.391ZM105.377 96.4364C105.377 97.7044 106.006 98.5008 106.981 98.5008C107.966 98.5008 108.594 97.7044 108.594 96.4364C108.594 95.1475 107.966 94.3301 106.981 94.3301C106.006 94.3301 105.377 95.1475 105.377 96.4364ZM63.9537 106.773H64.9387L66.4687 112.977L67.9882 106.773H69.0151L70.5451 112.977L72.0646 106.773H73.0601L71.1005 114.213H69.9688L68.5017 108.597L67.0346 114.213H65.9133L63.9537 106.773ZM74.0151 106.773H74.8954V109.414C75.2097 108.806 75.8594 108.534 76.5511 108.534C77.7038 108.534 78.4268 109.351 78.4268 110.64V114.213H77.5466V110.954C77.5466 109.896 77.1589 109.372 76.3624 109.372C75.4822 109.372 74.8954 109.927 74.8954 110.954V114.213H74.0151V106.773ZM79.9993 108.659H80.8795V114.213H79.9993V108.659ZM79.9783 107.79V106.784H80.9005V107.79H79.9783ZM85.649 110.378C85.5233 109.749 84.905 109.372 84.2867 109.372C83.6685 109.372 83.1655 109.686 83.1655 110.221C83.1655 110.766 83.8885 110.986 84.4963 111.112C85.7538 111.353 86.676 111.698 86.676 112.799C86.676 113.878 85.5652 114.339 84.5068 114.339C83.1969 114.339 82.1909 113.616 82.1071 112.463L83.0292 112.4C83.1445 113.071 83.679 113.501 84.5068 113.501C85.0517 113.501 85.7538 113.323 85.7538 112.746C85.7538 112.086 84.9679 112.013 84.3391 111.866C83.3227 111.636 82.2433 111.342 82.2433 110.263C82.2433 109.204 83.1026 108.534 84.3811 108.534C85.4814 108.534 86.3931 109.236 86.5712 110.315L85.649 110.378ZM87.8538 115.785V108.659H88.6502L88.6816 109.487C88.9855 108.869 89.5828 108.534 90.3897 108.534C92.0454 108.534 92.7894 109.906 92.7894 111.436C92.7894 112.966 92.0454 114.339 90.3897 114.339C89.6143 114.339 89.0484 114.035 88.734 113.459V115.785H87.8538ZM88.6397 111.436C88.6397 112.474 89.1113 113.501 90.243 113.501C91.3852 113.501 91.8463 112.495 91.8463 111.436C91.8463 110.378 91.3852 109.372 90.243 109.372C89.1113 109.372 88.6397 110.399 88.6397 111.436ZM93.6661 111.436C93.6661 109.676 94.6616 108.534 96.2125 108.534C97.4386 108.534 98.5284 109.341 98.6123 111.311L98.6227 111.709H94.5987C94.6826 112.841 95.2589 113.501 96.2125 113.501C96.7994 113.501 97.3443 113.155 97.5958 112.568L98.5389 112.642C98.2141 113.689 97.2709 114.339 96.2125 114.339C94.6616 114.339 93.6661 113.197 93.6661 111.436ZM94.6197 110.933H97.6587C97.512 109.77 96.8832 109.372 96.2125 109.372C95.3323 109.372 94.7664 109.948 94.6197 110.933ZM99.8017 108.659H100.577L100.609 109.676C100.797 108.984 101.206 108.659 101.929 108.659H102.474V109.435H101.929C101.08 109.435 100.682 109.948 100.682 110.902V114.213H99.8017V108.659ZM105.962 110.294C106.182 109.215 107.052 108.534 108.236 108.534C109.661 108.534 110.468 109.372 110.468 110.86V113.092C110.468 113.323 110.573 113.438 110.803 113.438H111.034V114.213H110.656C110.09 114.213 109.598 114.035 109.598 113.354C109.357 113.868 108.749 114.339 107.869 114.339C106.758 114.339 105.867 113.752 105.867 112.757C105.867 111.615 106.727 111.321 107.963 111.091L109.587 110.766C109.577 109.833 109.126 109.372 108.236 109.372C107.534 109.372 107.062 109.728 106.894 110.368L105.962 110.294ZM106.79 112.757C106.79 113.197 107.167 113.564 107.984 113.564C108.885 113.553 109.608 112.924 109.608 111.625V111.552L108.299 111.782C107.471 111.929 106.79 111.981 106.79 112.757ZM116.624 106.773V114.213H115.827L115.796 113.417C115.481 113.983 114.811 114.339 114.035 114.339C112.589 114.339 111.688 113.218 111.688 111.436C111.688 109.655 112.589 108.534 114.035 108.534C114.779 108.534 115.439 108.869 115.743 109.393V106.773H116.624ZM112.61 111.436C112.61 112.704 113.239 113.501 114.213 113.501C115.198 113.501 115.827 112.704 115.827 111.436C115.827 110.147 115.198 109.33 114.213 109.33C113.239 109.33 112.61 110.147 112.61 111.436ZM122.74 108.659L120.717 114.213H119.606L117.584 108.659H118.527L120.162 113.291L121.797 108.659H122.74ZM123.705 108.659H124.585V114.213H123.705V108.659ZM123.684 107.79V106.784H124.606V107.79H123.684ZM129.743 110.525C129.627 109.802 129.02 109.372 128.359 109.372C127.332 109.372 126.735 110.147 126.735 111.436C126.735 112.725 127.332 113.501 128.359 113.501C129.051 113.501 129.659 113.04 129.785 112.243L130.717 112.306C130.539 113.564 129.533 114.339 128.359 114.339C126.809 114.339 125.813 113.197 125.813 111.436C125.813 109.676 126.809 108.534 128.359 108.534C129.491 108.534 130.518 109.267 130.665 110.462L129.743 110.525ZM131.49 111.436C131.49 109.676 132.486 108.534 134.037 108.534C135.263 108.534 136.353 109.341 136.436 111.311L136.447 111.709H132.423C132.507 112.841 133.083 113.501 134.037 113.501C134.623 113.501 135.168 113.155 135.42 112.568L136.363 112.642C136.038 113.689 135.095 114.339 134.037 114.339C132.486 114.339 131.49 113.197 131.49 111.436ZM132.444 110.933H135.483C135.336 109.77 134.707 109.372 134.037 109.372C133.156 109.372 132.591 109.948 132.444 110.933ZM140.192 108.659H140.999L141.02 109.624C141.303 108.869 141.963 108.534 142.728 108.534C143.996 108.534 144.604 109.466 144.604 110.64V114.213H143.723V110.891C143.723 109.865 143.378 109.309 142.539 109.309C141.659 109.309 141.072 109.865 141.072 110.891V114.213H140.192V108.659ZM148.223 114.339C146.683 114.339 145.677 113.207 145.677 111.436C145.677 109.665 146.683 108.534 148.223 108.534C149.753 108.534 150.759 109.665 150.759 111.436C150.759 113.207 149.753 114.339 148.223 114.339ZM146.599 111.436C146.599 112.725 147.196 113.501 148.223 113.501C149.24 113.501 149.837 112.725 149.837 111.436C149.837 110.147 149.24 109.372 148.223 109.372C147.196 109.372 146.599 110.147 146.599 111.436ZM155.639 108.659L156.96 113.239L158.291 108.659H159.234L157.515 114.213H156.404L155.168 109.99L153.931 114.213H152.831L151.112 108.659H152.056L153.376 113.239L154.696 108.659H155.639ZM161.847 112.065C161.847 111.153 162.077 110.64 162.821 110.032C163.356 109.582 163.848 109.382 163.848 108.691C163.859 107.989 163.272 107.486 162.36 107.486C161.501 107.486 160.914 108.125 160.799 109.037L159.856 108.974C159.981 107.622 161.008 106.605 162.308 106.605C163.775 106.605 164.791 107.465 164.791 108.691C164.791 109.414 164.404 109.98 163.492 110.598C162.936 110.986 162.748 111.353 162.748 112.065H161.847ZM161.71 114.213V113.071H162.832V114.213H161.71Z" fill="#515382"/>
<path d="M113.474 91.7732H114.354V98.0921C114.354 98.3226 114.47 98.4379 114.7 98.4379H115.182V99.2134H114.564C113.914 99.2134 113.474 98.7733 113.474 98.134V91.7732ZM118.435 99.3391C116.895 99.3391 115.889 98.2074 115.889 96.4364C115.889 94.6654 116.895 93.5337 118.435 93.5337C119.965 93.5337 120.971 94.6654 120.971 96.4364C120.971 98.2074 119.965 99.3391 118.435 99.3391ZM116.811 96.4364C116.811 97.7253 117.408 98.5008 118.435 98.5008C119.452 98.5008 120.049 97.7253 120.049 96.4364C120.049 95.1475 119.452 94.372 118.435 94.372C117.408 94.372 116.811 95.1475 116.811 96.4364ZM125.852 93.6594L127.172 98.2388L128.503 93.6594H129.446L127.727 99.2134H126.617L125.38 94.9903L124.143 99.2134H123.043L121.325 93.6594H122.268L123.588 98.2388L124.908 93.6594H125.852ZM137.518 100.785H136.638V98.4589C136.324 99.0352 135.758 99.3391 134.982 99.3391C133.327 99.3391 132.583 97.9664 132.583 96.4364C132.583 94.9064 133.327 93.5337 134.982 93.5337C135.789 93.5337 136.387 93.869 136.691 94.4873L136.722 93.6594H137.518V100.785ZM133.526 96.4364C133.526 97.4948 133.987 98.5008 135.129 98.5008C136.261 98.5008 136.732 97.4738 136.732 96.4364C136.732 95.399 136.261 94.372 135.129 94.372C133.987 94.372 133.526 95.378 133.526 96.4364ZM143.231 99.2134H142.393V98.2912C142.099 99.0143 141.46 99.3391 140.726 99.3391C139.49 99.3391 138.882 98.4065 138.882 97.2328V93.6594H139.762V96.9708C139.762 98.0083 140.108 98.5637 140.915 98.5637C141.774 98.5637 142.351 98.0083 142.351 96.9708V93.6594H143.231V99.2134ZM144.553 95.2942C144.773 94.2148 145.643 93.5337 146.827 93.5337C148.252 93.5337 149.059 94.372 149.059 95.86V98.0921C149.059 98.3226 149.164 98.4379 149.395 98.4379H149.625V99.2134H149.248C148.682 99.2134 148.19 99.0352 148.19 98.3541C147.949 98.8676 147.341 99.3391 146.461 99.3391C145.35 99.3391 144.459 98.7523 144.459 97.7568C144.459 96.6145 145.318 96.3211 146.555 96.0906L148.179 95.7657C148.169 94.8331 147.718 94.372 146.827 94.372C146.125 94.372 145.654 94.7283 145.486 95.3675L144.553 95.2942ZM145.381 97.7568C145.381 98.1969 145.758 98.5637 146.576 98.5637C147.477 98.5532 148.2 97.9244 148.2 96.625V96.5517L146.89 96.7822C146.062 96.9289 145.381 96.9813 145.381 97.7568ZM150.728 91.7732H151.608V98.0921C151.608 98.3226 151.723 98.4379 151.954 98.4379H152.436V99.2134H151.817C151.168 99.2134 150.728 98.7733 150.728 98.134V91.7732ZM153.591 93.6594H154.471V99.2134H153.591V93.6594ZM153.57 92.7896V91.7836H154.492V92.7896H153.57ZM156.18 92.4019H157.06V93.6594H158.538V94.4349H157.06V97.7358C157.06 98.1969 157.28 98.4379 157.72 98.4379H158.517V99.2134H157.72C156.725 99.2134 156.18 98.6789 156.18 97.7358V94.4349H155.363V93.6594H156.18V92.4019ZM159.046 93.6594H159.989L161.656 98.2703L163.28 93.6594H164.213L161.96 99.9155C161.75 100.513 161.352 100.785 160.723 100.785H160V100.01H160.639C160.912 100.01 161.069 99.8945 161.174 99.6221L161.373 99.1086H161.079L159.046 93.6594ZM164.208 98.0711H165.329V99.2134H164.208V98.0711Z" fill="#FF7C65"/>
</g>
</g>
<defs>
<filter id="filter0_d_53017_3400" x="0.858452" y="0.56267" width="249.082" height="186.974" filterUnits="userSpaceOnUse" color-interpolation-filters="sRGB">
<feFlood flood-opacity="0" result="BackgroundImageFix"/>
<feColorMatrix in="SourceAlpha" type="matrix" values="0 0 0 0 0 0 0 0 0 0 0 0 0 0 0 0 0 0 127 0" result="hardAlpha"/>
<feOffset dx="3.22436" dy="8.0609"/>
<feGaussianBlur stdDeviation="24.1827"/>
<feComposite in2="hardAlpha" operator="out"/>
<feColorMatrix type="matrix" values="0 0 0 0 0.335938 0 0 0 0 0.357322 0 0 0 0 0.8125 0 0 0 0.19 0"/>
<feBlend mode="normal" in2="BackgroundImageFix" result="effect1_dropShadow_53017_3400"/>
<feBlend mode="normal" in="SourceGraphic" in2="effect1_dropShadow_53017_3400" result="shape"/>
</filter>
<filter id="filter1_i_53017_3400" x="54.8665" y="68.5706" width="134.617" height="58.5098" filterUnits="userSpaceOnUse" color-interpolation-filters="sRGB">
<feFlood flood-opacity="0" result="BackgroundImageFix"/>
<feBlend mode="normal" in="SourceGraphic" in2="BackgroundImageFix" result="shape"/>
<feColorMatrix in="SourceAlpha" type="matrix" values="0 0 0 0 0 0 0 0 0 0 0 0 0 0 0 0 0 0 127 0" result="hardAlpha"/>
<feOffset dy="3.22436"/>
<feGaussianBlur stdDeviation="6.04568"/>
<feComposite in2="hardAlpha" operator="arithmetic" k2="-1" k3="1"/>
<feColorMatrix type="matrix" values="0 0 0 0 1 0 0 0 0 0.486275 0 0 0 0 0.396078 0 0 0 0.1 0"/>
<feBlend mode="normal" in2="shape" result="effect1_innerShadow_53017_3400"/>
</filter>
<clipPath id="clip0_53017_3400">
<rect width="12.8974" height="12.8974" fill="white" transform="translate(55.6726 49.4795)"/>
</clipPath>
</defs>
</svg>
