<svg width="261" height="177" viewBox="0 0 261 177" fill="none" xmlns="http://www.w3.org/2000/svg">
<g filter="url(#filter0_d_53017_3393)">
<rect x="44" y="39.3472" width="166.155" height="82.62" rx="9.40501" fill="white" shape-rendering="crispEdges"/>
<rect x="44.3919" y="39.739" width="165.371" height="81.8363" rx="9.01313" stroke="white" stroke-width="0.783751" shape-rendering="crispEdges"/>
<path d="M54.2828 49.5292H59.5277V50.7691H55.7093V52.799H59.396V54.0279H55.7093V56.0798H59.6155V57.3197H54.2828V49.5292ZM64.5776 53.6439C64.4679 52.9197 63.9412 52.5137 63.3268 52.5137C62.416 52.5137 61.9003 53.216 61.9003 54.412C61.9003 55.608 62.416 56.3102 63.3268 56.3102C63.9741 56.3102 64.4898 55.8933 64.5996 55.1033L66.0589 55.1691C65.8943 56.5736 64.7751 57.4514 63.3268 57.4514C61.5821 57.4514 60.441 56.2554 60.441 54.412C60.441 52.5686 61.5821 51.3726 63.3268 51.3726C64.7312 51.3726 65.8724 52.2065 66.026 53.5671L64.5776 53.6439ZM66.8416 49.5292H68.2461V52.2833C68.5863 51.625 69.2227 51.3726 69.9359 51.3726C71.1429 51.3726 71.9 52.2504 71.9 53.5781V57.3197H70.4955V54.0828C70.4955 53.0843 70.1992 52.5576 69.475 52.5576C68.707 52.5576 68.2461 53.0953 68.2461 54.0828V57.3197H66.8416V49.5292ZM75.6953 57.4514C73.9506 57.4514 72.8095 56.2554 72.8095 54.412C72.8095 52.5686 73.9506 51.3726 75.6953 51.3726C77.4289 51.3726 78.5701 52.5686 78.5701 54.412C78.5701 56.2554 77.4289 57.4514 75.6953 57.4514ZM74.2688 54.412C74.2688 55.608 74.7845 56.3102 75.6953 56.3102C76.595 56.3102 77.1217 55.608 77.1217 54.412C77.1217 53.216 76.595 52.5137 75.6953 52.5137C74.7845 52.5137 74.2688 53.216 74.2688 54.412ZM81.5409 57.3197L84.3498 49.5292H86.0945L88.9034 57.3197H87.4112L86.7638 55.4763H83.6805L83.0331 57.3197H81.5409ZM84.0975 54.2584H86.3468L85.2276 50.9666L84.0975 54.2584ZM89.8775 49.5292H91.3039V57.3197H89.8775V49.5292ZM94.9947 53.2818C95.2251 52.0639 96.1578 51.3726 97.5952 51.3726C99.274 51.3726 100.152 52.2394 100.152 53.8743V55.8713C100.152 56.2005 100.294 56.2993 100.514 56.2993H100.744V57.3197L100.415 57.3307C99.9652 57.3416 99.0436 57.3526 98.9338 56.4309C98.6595 57.0125 98.0012 57.4514 96.9917 57.4514C95.8176 57.4514 94.8959 56.8259 94.8959 55.7945C94.8959 54.6753 95.7408 54.2913 97.1124 54.0279L98.7363 53.7097C98.7363 52.81 98.3523 52.3821 97.5952 52.3821C96.9698 52.3821 96.5638 52.7222 96.4321 53.3586L94.9947 53.2818ZM96.3553 55.7506C96.3553 56.1456 96.6954 56.4638 97.3757 56.4638C98.1658 56.4638 98.7692 55.8823 98.7692 54.7412V54.6644L97.661 54.8619C96.9259 54.9935 96.3553 55.0923 96.3553 55.7506ZM103.813 57.0344C102.299 57.0344 101.268 55.9152 101.268 54.2584C101.268 52.5357 102.299 51.3726 103.802 51.3726C104.559 51.3726 105.207 51.7566 105.503 52.404V51.5043H106.875V56.6614C106.875 58.1975 105.734 59.0972 104.088 59.0972C102.76 59.0972 101.751 58.4389 101.443 57.4294L102.881 57.3416C103.067 57.7696 103.495 58.0439 104.099 58.0439C104.954 58.0439 105.459 57.6379 105.459 56.8369V56.1127C105.185 56.6723 104.527 57.0344 103.813 57.0344ZM102.716 54.2474C102.716 55.3117 103.276 56.003 104.132 56.003C104.954 56.003 105.503 55.3117 105.514 54.2474C105.525 53.1721 104.987 52.4918 104.132 52.4918C103.265 52.4918 102.716 53.1721 102.716 54.2474ZM107.8 54.412C107.8 52.5686 108.941 51.3726 110.686 51.3726C112.189 51.3726 113.396 52.404 113.418 54.4559V54.796H109.282C109.347 55.7616 109.852 56.3431 110.686 56.3431C111.213 56.3431 111.695 56.0359 111.904 55.5312L113.341 55.6409C112.99 56.7491 111.937 57.4514 110.686 57.4514C108.941 57.4514 107.8 56.2554 107.8 54.412ZM109.292 53.8634H111.97C111.86 52.8649 111.311 52.4808 110.686 52.4808C109.907 52.4808 109.402 52.9965 109.292 53.8634ZM114.394 51.5043H115.667L115.71 52.4699C116.018 51.6798 116.676 51.3726 117.455 51.3726C118.75 51.3726 119.452 52.2723 119.452 53.5781V57.3197H118.037V54.0279C118.037 53.0514 117.784 52.5137 117.027 52.5137C116.259 52.5137 115.798 53.0514 115.798 54.0279V57.3197H114.394V51.5043ZM121.263 50.1876H122.667V51.5043H124.204V52.5905H122.667V55.5312C122.667 55.9811 122.898 56.2334 123.326 56.2334H124.204V57.3197H123.095C121.899 57.3197 121.263 56.7162 121.263 55.5312V52.5905H120.341V51.5043H121.263V50.1876Z" fill="#515382"/>
<rect x="130.108" y="47.1847" width="39.54" height="13.27" rx="6.635" fill="url(#paint0_linear_53017_3393)" fill-opacity="0.48"/>
<path d="M136.575 57.3197L138.983 50.6421H140.074L142.482 57.3197H141.597L140.93 55.4199H138.127L137.459 57.3197H136.575ZM138.4 54.6299H140.657L139.528 51.3475L138.4 54.6299ZM146.368 54.0091C146.265 53.3602 145.719 52.9746 145.127 52.9746C144.205 52.9746 143.669 53.6706 143.669 54.8274C143.669 55.9842 144.205 56.6802 145.127 56.6802C145.748 56.6802 146.293 56.2663 146.406 55.5516L147.243 55.608C147.083 56.7366 146.18 57.4326 145.127 57.4326C143.735 57.4326 142.841 56.4074 142.841 54.8274C142.841 53.2473 143.735 52.2222 145.127 52.2222C146.143 52.2222 147.064 52.8805 147.196 53.9527L146.368 54.0091ZM148.414 51.2064H149.204V52.335H150.53V53.031H149.204V55.9936C149.204 56.4074 149.401 56.6237 149.796 56.6237H150.511V57.3197H149.796C148.903 57.3197 148.414 56.84 148.414 55.9936V53.031H147.68V52.335H148.414V51.2064ZM151.485 52.335H152.275V57.3197H151.485V52.335ZM151.466 51.5544V50.6516H152.294V51.5544H151.466ZM157.722 52.335L155.907 57.3197H154.91L153.094 52.335H153.941L155.408 56.4921L156.875 52.335H157.722ZM157.992 54.8274C157.992 53.2473 158.885 52.2222 160.277 52.2222C161.378 52.2222 162.356 52.9464 162.431 54.7145L162.441 55.0719H158.829C158.904 56.0876 159.422 56.6802 160.277 56.6802C160.804 56.6802 161.293 56.3698 161.519 55.8431L162.365 55.909C162.074 56.8495 161.227 57.4326 160.277 57.4326C158.885 57.4326 157.992 56.4074 157.992 54.8274ZM158.848 54.3759H161.575C161.444 53.332 160.879 52.9746 160.277 52.9746C159.487 52.9746 158.98 53.4919 158.848 54.3759Z" fill="#38AA86"/>
<rect x="53.405" y="66.7247" width="147.345" height="47.405" rx="4.7025" fill="#F9FCFF"/>
<path d="M62.1081 81.4272V74.7497H62.9169V77.6746H66.1804V74.7497H66.9893V81.4272H66.1804V78.4647H62.9169V81.4272H62.1081ZM68.2293 76.4426H69.0193V81.4272H68.2293V76.4426ZM68.2105 75.662V74.7591H69.0382V75.662H68.2105ZM71.1368 81.4272L70.6007 82.8756H70.1399L70.5067 81.4272H70.1211V80.4021H71.1274V81.4272H71.1368ZM74.6086 74.7497H75.4175V81.4272H74.6086V74.7497ZM76.6451 74.7497H77.4728V75.4645L77.3505 77.2138H76.7768L76.6451 75.4645V74.7497ZM78.5877 76.4426H79.3119L79.3307 77.2796C79.5658 76.6777 80.0831 76.3297 80.7697 76.3297C81.4938 76.3297 82.0111 76.7059 82.2274 77.3737C82.4437 76.7059 82.961 76.3297 83.7416 76.3297C84.748 76.3297 85.3311 77.0163 85.3311 78.2201V81.4272H84.5411V78.4459C84.5411 77.543 84.1837 77.0257 83.5817 77.0257C82.8011 77.0257 82.3497 77.5524 82.3497 78.4459V81.4272H81.5597V78.4459C81.5597 77.5618 81.2023 77.0257 80.6098 77.0257C79.8386 77.0257 79.3777 77.5618 79.3777 78.4459V81.4272H78.5877V76.4426ZM88.6882 78.9349C88.6882 77.3549 89.5817 76.3297 90.9736 76.3297C92.074 76.3297 93.0522 77.0539 93.1274 78.8221L93.1368 79.1794H89.5253C89.6005 80.1952 90.1178 80.7877 90.9736 80.7877C91.5003 80.7877 91.9894 80.4773 92.2151 79.9507L93.0616 80.0165C92.77 80.957 91.9236 81.5401 90.9736 81.5401C89.5817 81.5401 88.6882 80.515 88.6882 78.9349ZM89.5441 78.4835H92.2715C92.1399 77.4395 91.5756 77.0821 90.9736 77.0821C90.1836 77.0821 89.6758 77.5994 89.5441 78.4835ZM97.4573 78.1167C97.3538 77.4677 96.8084 77.0821 96.2158 77.0821C95.2941 77.0821 94.7581 77.7781 94.7581 78.9349C94.7581 80.0917 95.2941 80.7877 96.2158 80.7877C96.8366 80.7877 97.3821 80.3739 97.4949 79.6591L98.332 79.7155C98.1721 80.8441 97.2692 81.5401 96.2158 81.5401C94.8239 81.5401 93.9304 80.515 93.9304 78.9349C93.9304 77.3549 94.8239 76.3297 96.2158 76.3297C97.2316 76.3297 98.1533 76.9881 98.2849 78.0603L97.4573 78.1167ZM99.1523 74.7497H99.9424V77.1198C100.225 76.5743 100.808 76.3297 101.428 76.3297C102.463 76.3297 103.112 77.0633 103.112 78.2201V81.4272H102.322V78.5023C102.322 77.5524 101.974 77.0821 101.259 77.0821C100.469 77.0821 99.9424 77.5806 99.9424 78.5023V81.4272H99.1523V74.7497ZM106.36 81.5401C104.978 81.5401 104.075 80.5244 104.075 78.9349C104.075 77.3455 104.978 76.3297 106.36 76.3297C107.734 76.3297 108.636 77.3455 108.636 78.9349C108.636 80.5244 107.734 81.5401 106.36 81.5401ZM104.903 78.9349C104.903 80.0917 105.439 80.7877 106.36 80.7877C107.273 80.7877 107.809 80.0917 107.809 78.9349C107.809 77.7781 107.273 77.0821 106.36 77.0821C105.439 77.0821 104.903 77.7781 104.903 78.9349ZM112.484 76.1228C112.484 75.2858 112.898 74.7497 113.82 74.7497H114.591V75.4457H113.82C113.5 75.4457 113.274 75.6996 113.274 76.1228V76.4426H114.525V77.1386H113.274V81.4272H112.484V77.1386H111.807V76.4426H112.484V76.1228ZM115.648 76.4426H116.344L116.372 77.3549C116.542 76.7341 116.908 76.4426 117.557 76.4426H118.046V77.1386H117.557C116.796 77.1386 116.438 77.5994 116.438 78.4553V81.4272H115.648V76.4426ZM120.836 81.5401C119.453 81.5401 118.55 80.5244 118.55 78.9349C118.55 77.3455 119.453 76.3297 120.836 76.3297C122.209 76.3297 123.112 77.3455 123.112 78.9349C123.112 80.5244 122.209 81.5401 120.836 81.5401ZM119.378 78.9349C119.378 80.0917 119.914 80.7877 120.836 80.7877C121.748 80.7877 122.284 80.0917 122.284 78.9349C122.284 77.7781 121.748 77.0821 120.836 77.0821C119.914 77.0821 119.378 77.7781 119.378 78.9349ZM124.167 76.4426H124.891L124.91 77.2796C125.145 76.6777 125.662 76.3297 126.349 76.3297C127.073 76.3297 127.591 76.7059 127.807 77.3737C128.023 76.7059 128.54 76.3297 129.321 76.3297C130.327 76.3297 130.91 77.0163 130.91 78.2201V81.4272H130.12V78.4459C130.12 77.543 129.763 77.0257 129.161 77.0257C128.381 77.0257 127.929 77.5524 127.929 78.4459V81.4272H127.139V78.4459C127.139 77.5618 126.782 77.0257 126.189 77.0257C125.418 77.0257 124.957 77.5618 124.957 78.4459V81.4272H124.167V76.4426ZM137.447 77.985C137.334 77.4207 136.779 77.0821 136.224 77.0821C135.669 77.0821 135.218 77.3643 135.218 77.8439C135.218 78.333 135.866 78.5305 136.412 78.6434C137.541 78.8597 138.368 79.17 138.368 80.1576C138.368 81.1263 137.371 81.5401 136.421 81.5401C135.246 81.5401 134.343 80.8912 134.268 79.8566L135.095 79.8002C135.199 80.4021 135.678 80.7877 136.421 80.7877C136.91 80.7877 137.541 80.6278 137.541 80.1105C137.541 79.518 136.835 79.4522 136.271 79.3205C135.359 79.1136 134.39 78.8503 134.39 77.8816C134.39 76.9317 135.161 76.3297 136.309 76.3297C137.296 76.3297 138.114 76.9599 138.274 77.9286L137.447 77.985ZM143.282 81.4272H142.53V80.5996C142.267 81.2486 141.693 81.5401 141.035 81.5401C139.925 81.5401 139.379 80.7031 139.379 79.6497V76.4426H140.169V79.4146C140.169 80.3457 140.48 80.8441 141.204 80.8441C141.975 80.8441 142.492 80.3457 142.492 79.4146V76.4426H143.282V81.4272ZM144.695 82.838V76.4426H145.41L145.438 77.1856C145.711 76.6307 146.247 76.3297 146.971 76.3297C148.457 76.3297 149.125 77.5618 149.125 78.9349C149.125 80.3081 148.457 81.5401 146.971 81.5401C146.275 81.5401 145.767 81.2674 145.485 80.7501V82.838H144.695ZM145.4 78.9349C145.4 79.866 145.824 80.7877 146.839 80.7877C147.864 80.7877 148.278 79.8848 148.278 78.9349C148.278 77.985 147.864 77.0821 146.839 77.0821C145.824 77.0821 145.4 78.0038 145.4 78.9349ZM150.176 82.838V76.4426H150.891L150.919 77.1856C151.192 76.6307 151.728 76.3297 152.452 76.3297C153.938 76.3297 154.606 77.5618 154.606 78.9349C154.606 80.3081 153.938 81.5401 152.452 81.5401C151.756 81.5401 151.248 81.2674 150.966 80.7501V82.838H150.176ZM150.881 78.9349C150.881 79.866 151.305 80.7877 152.32 80.7877C153.345 80.7877 153.759 79.8848 153.759 78.9349C153.759 77.985 153.345 77.0821 152.32 77.0821C151.305 77.0821 150.881 78.0038 150.881 78.9349ZM157.678 81.5401C156.295 81.5401 155.393 80.5244 155.393 78.9349C155.393 77.3455 156.295 76.3297 157.678 76.3297C159.051 76.3297 159.954 77.3455 159.954 78.9349C159.954 80.5244 159.051 81.5401 157.678 81.5401ZM156.22 78.9349C156.22 80.0917 156.756 80.7877 157.678 80.7877C158.59 80.7877 159.126 80.0917 159.126 78.9349C159.126 77.7781 158.59 77.0821 157.678 77.0821C156.756 77.0821 156.22 77.7781 156.22 78.9349ZM161.009 76.4426H161.705L161.734 77.3549C161.903 76.7341 162.27 76.4426 162.919 76.4426H163.408V77.1386H162.919C162.157 77.1386 161.799 77.5994 161.799 78.4553V81.4272H161.009V76.4426ZM164.867 75.314H165.657V76.4426H166.983V77.1386H165.657V80.1011C165.657 80.515 165.855 80.7313 166.25 80.7313H166.964V81.4272H166.25C165.356 81.4272 164.867 80.9476 164.867 80.1011V77.1386H164.134V76.4426H164.867V75.314ZM167.859 80.4021H168.865V81.4272H167.859V80.4021ZM172.337 74.7497H173.146V81.4272H172.337V74.7497ZM179.791 77.985C179.678 77.4207 179.123 77.0821 178.568 77.0821C178.013 77.0821 177.562 77.3643 177.562 77.8439C177.562 78.333 178.211 78.5305 178.756 78.6434C179.885 78.8597 180.712 79.17 180.712 80.1576C180.712 81.1263 179.715 81.5401 178.766 81.5401C177.59 81.5401 176.687 80.8912 176.612 79.8566L177.439 79.8002C177.543 80.4021 178.023 80.7877 178.766 80.7877C179.255 80.7877 179.885 80.6278 179.885 80.1105C179.885 79.518 179.179 79.4522 178.615 79.3205C177.703 79.1136 176.734 78.8503 176.734 77.8816C176.734 76.9317 177.505 76.3297 178.653 76.3297C179.64 76.3297 180.458 76.9599 180.618 77.9286L179.791 77.985ZM181.505 78.9349C181.505 77.3549 182.398 76.3297 183.79 76.3297C184.891 76.3297 185.869 77.0539 185.944 78.8221L185.954 79.1794H182.342C182.417 80.1952 182.935 80.7877 183.79 80.7877C184.317 80.7877 184.806 80.4773 185.032 79.9507L185.878 80.0165C185.587 80.957 184.74 81.5401 183.79 81.5401C182.398 81.5401 181.505 80.515 181.505 78.9349ZM182.361 78.4835H185.088C184.957 77.4395 184.392 77.0821 183.79 77.0821C183 77.0821 182.493 77.5994 182.361 78.4835ZM186.747 78.9349C186.747 77.3549 187.641 76.3297 189.033 76.3297C190.133 76.3297 191.111 77.0539 191.186 78.8221L191.196 79.1794H187.584C187.659 80.1952 188.177 80.7877 189.033 80.7877C189.559 80.7877 190.048 80.4773 190.274 79.9507L191.121 80.0165C190.829 80.957 189.983 81.5401 189.033 81.5401C187.641 81.5401 186.747 80.515 186.747 78.9349ZM187.603 78.4835H190.331C190.199 77.4395 189.635 77.0821 189.033 77.0821C188.243 77.0821 187.735 77.5994 187.603 78.4835ZM61.4497 88.4426H62.2962L63.7916 92.5808L65.2493 88.4426H66.0864L64.0643 94.0574C63.8762 94.5935 63.5188 94.838 62.9545 94.838H62.3056V94.142H62.8793C63.1238 94.142 63.2649 94.0386 63.3589 93.794L63.5376 93.3332H63.2743L61.4497 88.4426ZM68.6889 93.5401C67.3064 93.5401 66.4035 92.5244 66.4035 90.9349C66.4035 89.3455 67.3064 88.3297 68.6889 88.3297C70.0621 88.3297 70.9649 89.3455 70.9649 90.9349C70.9649 92.5244 70.0621 93.5401 68.6889 93.5401ZM67.2311 90.9349C67.2311 92.0917 67.7672 92.7877 68.6889 92.7877C69.6012 92.7877 70.1373 92.0917 70.1373 90.9349C70.1373 89.7781 69.6012 89.0821 68.6889 89.0821C67.7672 89.0821 67.2311 89.7781 67.2311 90.9349ZM75.8775 93.4272H75.1251V92.5996C74.8618 93.2486 74.2881 93.5401 73.6297 93.5401C72.5199 93.5401 71.9744 92.7031 71.9744 91.6497V88.4426H72.7644V91.4146C72.7644 92.3457 73.0748 92.8441 73.799 92.8441C74.5702 92.8441 75.0875 92.3457 75.0875 91.4146V88.4426H75.8775V93.4272ZM76.9985 86.7497H77.8262V87.4645L77.7039 89.2138H77.1302L76.9985 87.4645V86.7497ZM78.9411 88.4426H79.6371L79.6653 89.3549C79.8346 88.7341 80.2014 88.4426 80.8503 88.4426H81.3394V89.1386H80.8503C80.0885 89.1386 79.7311 89.5994 79.7311 90.4553V93.4272H78.9411V88.4426ZM81.8431 90.9349C81.8431 89.3549 82.7366 88.3297 84.1286 88.3297C85.2289 88.3297 86.2071 89.0539 86.2823 90.8221L86.2917 91.1794H82.6802C82.7554 92.1952 83.2727 92.7877 84.1286 92.7877C84.6552 92.7877 85.1443 92.4773 85.37 91.9507L86.2165 92.0165C85.9249 92.957 85.0785 93.5401 84.1286 93.5401C82.7366 93.5401 81.8431 92.515 81.8431 90.9349ZM82.699 90.4835H85.4265C85.2948 89.4395 84.7305 89.0821 84.1286 89.0821C83.3385 89.0821 82.8307 89.5994 82.699 90.4835ZM89.4272 89.9098C89.6247 88.9411 90.4053 88.3297 91.4681 88.3297C92.7472 88.3297 93.4713 89.0821 93.4713 90.4176V92.4209C93.4713 92.6278 93.5654 92.7313 93.7723 92.7313H93.9792V93.4272H93.6406C93.1328 93.4272 92.6907 93.2674 92.6907 92.656C92.4744 93.1169 91.9289 93.5401 91.1389 93.5401C90.142 93.5401 89.3425 93.0134 89.3425 92.1199C89.3425 91.0948 90.1137 90.8315 91.2235 90.6246L92.6813 90.333C92.6719 89.496 92.2675 89.0821 91.4681 89.0821C90.8379 89.0821 90.4147 89.4019 90.2642 89.9756L89.4272 89.9098ZM90.1702 92.1199C90.1702 92.515 90.5088 92.8441 91.2424 92.8441C92.0512 92.8347 92.7001 92.2704 92.7001 91.1042V91.0384L91.5245 91.2453C90.7815 91.377 90.1702 91.424 90.1702 92.1199ZM97.7453 89.985C97.6324 89.4207 97.0775 89.0821 96.5226 89.0821C95.9677 89.0821 95.5163 89.3643 95.5163 89.8439C95.5163 90.333 96.1652 90.5305 96.7107 90.6434C97.8393 90.8597 98.6669 91.17 98.6669 92.1576C98.6669 93.1263 97.67 93.5401 96.7201 93.5401C95.5445 93.5401 94.6416 92.8912 94.5664 91.8566L95.394 91.8002C95.4975 92.4021 95.9771 92.7877 96.7201 92.7877C97.2092 92.7877 97.8393 92.6278 97.8393 92.1105C97.8393 91.518 97.1339 91.4522 96.5696 91.3205C95.6573 91.1136 94.6886 90.8503 94.6886 89.8816C94.6886 88.9317 95.4598 88.3297 96.6072 88.3297C97.5948 88.3297 98.413 88.9599 98.5729 89.9286L97.7453 89.985ZM99.724 86.7497H100.514V91.123L102.903 88.4426H103.984L102.028 90.5587L104.078 93.4272H103.11L101.483 91.1042L100.514 92.1482V93.4272H99.724V86.7497ZM105.177 88.4426H105.967V93.4272H105.177V88.4426ZM105.159 87.662V86.7591H105.986V87.662H105.159ZM107.242 88.4426H107.966L107.985 89.3079C108.239 88.6307 108.831 88.3297 109.518 88.3297C110.656 88.3297 111.201 89.1668 111.201 90.2201V93.4272H110.411V90.4459C110.411 89.5242 110.101 89.0257 109.348 89.0257C108.558 89.0257 108.032 89.5242 108.032 90.4459V93.4272H107.242V88.4426ZM114.365 93.1639C113.077 93.1639 112.164 92.167 112.164 90.7468C112.164 89.3267 113.067 88.3297 114.356 88.3297C115.033 88.3297 115.607 88.6777 115.832 89.2326V88.4426H116.585V92.9382C116.585 94.2549 115.682 94.9509 114.384 94.9509C113.321 94.9509 112.531 94.3772 112.305 93.5025L113.133 93.4461C113.331 93.9163 113.763 94.1985 114.384 94.1985C115.259 94.1985 115.795 93.8223 115.795 93.1169V92.2986C115.55 92.8253 114.995 93.1639 114.365 93.1639ZM112.992 90.7468C112.992 91.772 113.538 92.4115 114.412 92.4115C115.249 92.4115 115.795 91.772 115.804 90.7468C115.823 89.7217 115.277 89.0821 114.412 89.0821C113.538 89.0821 112.992 89.7217 112.992 90.7468ZM120.024 89.9098C120.221 88.9411 121.002 88.3297 122.065 88.3297C123.344 88.3297 124.068 89.0821 124.068 90.4176V92.4209C124.068 92.6278 124.162 92.7313 124.369 92.7313H124.576V93.4272H124.237C123.73 93.4272 123.287 93.2674 123.287 92.656C123.071 93.1169 122.526 93.5401 121.736 93.5401C120.739 93.5401 119.939 93.0134 119.939 92.1199C119.939 91.0948 120.711 90.8315 121.82 90.6246L123.278 90.333C123.269 89.496 122.864 89.0821 122.065 89.0821C121.435 89.0821 121.011 89.4019 120.861 89.9756L120.024 89.9098ZM120.767 92.1199C120.767 92.515 121.106 92.8441 121.839 92.8441C122.648 92.8347 123.297 92.2704 123.297 91.1042V91.0384L122.121 91.2453C121.378 91.377 120.767 91.424 120.767 92.1199ZM125.565 86.7497H126.355V89.1009C126.628 88.6307 127.221 88.3297 127.888 88.3297C129.186 88.3297 129.995 89.3361 129.995 90.9349C129.995 92.5338 129.186 93.5401 127.888 93.5401C127.192 93.5401 126.59 93.2203 126.308 92.7125L126.28 93.4272H125.565V86.7497ZM126.28 90.9349C126.28 92.0729 126.844 92.7877 127.728 92.7877C128.603 92.7877 129.167 92.0729 129.167 90.9349C129.167 89.7781 128.603 89.0445 127.728 89.0445C126.844 89.0445 126.28 89.7781 126.28 90.9349ZM133.067 93.5401C131.685 93.5401 130.782 92.5244 130.782 90.9349C130.782 89.3455 131.685 88.3297 133.067 88.3297C134.44 88.3297 135.343 89.3455 135.343 90.9349C135.343 92.5244 134.44 93.5401 133.067 93.5401ZM131.61 90.9349C131.61 92.0917 132.146 92.7877 133.067 92.7877C133.98 92.7877 134.516 92.0917 134.516 90.9349C134.516 89.7781 133.98 89.0821 133.067 89.0821C132.146 89.0821 131.61 89.7781 131.61 90.9349ZM140.256 93.4272H139.503V92.5996C139.24 93.2486 138.666 93.5401 138.008 93.5401C136.898 93.5401 136.353 92.7031 136.353 91.6497V88.4426H137.143V91.4146C137.143 92.3457 137.453 92.8441 138.177 92.8441C138.949 92.8441 139.466 92.3457 139.466 91.4146V88.4426H140.256V93.4272ZM141.992 87.314H142.782V88.4426H144.109V89.1386H142.782V92.1011C142.782 92.515 142.98 92.7313 143.375 92.7313H144.09V93.4272H143.375C142.481 93.4272 141.992 92.9476 141.992 92.1011V89.1386H141.259V88.4426H141.992V87.314ZM147.368 86.7497H148.158V89.1009C148.43 88.6307 149.023 88.3297 149.691 88.3297C150.989 88.3297 151.797 89.3361 151.797 90.9349C151.797 92.5338 150.989 93.5401 149.691 93.5401C148.995 93.5401 148.393 93.2203 148.111 92.7125L148.082 93.4272H147.368V86.7497ZM148.082 90.9349C148.082 92.0729 148.647 92.7877 149.531 92.7877C150.406 92.7877 150.97 92.0729 150.97 90.9349C150.97 89.7781 150.406 89.0445 149.531 89.0445C148.647 89.0445 148.082 89.7781 148.082 90.9349ZM152.711 88.4426H153.501V93.4272H152.711V88.4426ZM152.692 87.662V86.7591H153.52V87.662H152.692ZM154.913 86.7497H155.703V92.4209C155.703 92.6278 155.806 92.7313 156.013 92.7313H156.446V93.4272H155.891C155.308 93.4272 154.913 93.0322 154.913 92.4585V86.7497ZM157.482 86.7497H158.273V92.4209C158.273 92.6278 158.376 92.7313 158.583 92.7313H159.016V93.4272H158.461C157.877 93.4272 157.482 93.0322 157.482 92.4585V86.7497ZM160.052 88.4426H160.842V93.4272H160.052V88.4426ZM160.033 87.662V86.7591H160.861V87.662H160.033ZM162.116 88.4426H162.84L162.859 89.3079C163.113 88.6307 163.706 88.3297 164.392 88.3297C165.53 88.3297 166.076 89.1668 166.076 90.2201V93.4272H165.286V90.4459C165.286 89.5242 164.975 89.0257 164.223 89.0257C163.433 89.0257 162.906 89.5242 162.906 90.4459V93.4272H162.116V88.4426ZM169.24 93.1639C167.951 93.1639 167.039 92.167 167.039 90.7468C167.039 89.3267 167.942 88.3297 169.23 88.3297C169.907 88.3297 170.481 88.6777 170.707 89.2326V88.4426H171.459V92.9382C171.459 94.2549 170.556 94.9509 169.259 94.9509C168.196 94.9509 167.406 94.3772 167.18 93.5025L168.008 93.4461C168.205 93.9163 168.638 94.1985 169.259 94.1985C170.133 94.1985 170.669 93.8223 170.669 93.1169V92.2986C170.425 92.8253 169.87 93.1639 169.24 93.1639ZM167.867 90.7468C167.867 91.772 168.412 92.4115 169.287 92.4115C170.124 92.4115 170.669 91.772 170.679 90.7468C170.697 89.7217 170.152 89.0821 169.287 89.0821C168.412 89.0821 167.867 89.7217 167.867 90.7468ZM174.814 90.3142H182.517V91.0478H174.814V90.3142ZM62.4937 100.314H63.2837V101.443H64.6098V102.139H63.2837V105.101C63.2837 105.515 63.4812 105.731 63.8762 105.731H64.591V106.427H63.8762C62.9827 106.427 62.4937 105.948 62.4937 105.101V102.139H61.7601V101.443H62.4937V100.314ZM65.6117 101.443H66.3077L66.3359 102.355C66.5052 101.734 66.872 101.443 67.5209 101.443H68.01V102.139H67.5209C66.7591 102.139 66.4017 102.599 66.4017 103.455V106.427H65.6117V101.443ZM68.6994 102.91C68.8969 101.941 69.6775 101.33 70.7403 101.33C72.0194 101.33 72.7436 102.082 72.7436 103.418V105.421C72.7436 105.628 72.8376 105.731 73.0445 105.731H73.2515V106.427H72.9129C72.405 106.427 71.963 106.267 71.963 105.656C71.7466 106.117 71.2012 106.54 70.4111 106.54C69.4142 106.54 68.6148 106.013 68.6148 105.12C68.6148 104.095 69.386 103.831 70.4958 103.625L71.9536 103.333C71.9442 102.496 71.5397 102.082 70.7403 102.082C70.1102 102.082 69.687 102.402 69.5365 102.976L68.6994 102.91ZM69.4424 105.12C69.4424 105.515 69.781 105.844 70.5146 105.844C71.3234 105.835 71.9724 105.27 71.9724 104.104V104.038L70.7967 104.245C70.0537 104.377 69.4424 104.424 69.4424 105.12ZM74.1673 101.443H74.8915L74.9103 102.308C75.1643 101.631 75.7568 101.33 76.4433 101.33C77.5814 101.33 78.1268 102.167 78.1268 103.22V106.427H77.3368V103.446C77.3368 102.524 77.0265 102.026 76.2741 102.026C75.484 102.026 74.9574 102.524 74.9574 103.446V106.427H74.1673V101.443ZM82.2689 102.985C82.156 102.421 81.6011 102.082 81.0462 102.082C80.4913 102.082 80.0399 102.364 80.0399 102.844C80.0399 103.333 80.6888 103.531 81.2343 103.643C82.3629 103.86 83.1906 104.17 83.1906 105.158C83.1906 106.126 82.1936 106.54 81.2437 106.54C80.0681 106.54 79.1652 105.891 79.09 104.857L79.9176 104.8C80.0211 105.402 80.5007 105.788 81.2437 105.788C81.7328 105.788 82.3629 105.628 82.3629 105.111C82.3629 104.518 81.6575 104.452 81.0932 104.321C80.181 104.114 79.2122 103.85 79.2122 102.882C79.2122 101.932 79.9835 101.33 81.1309 101.33C82.1184 101.33 82.9366 101.96 83.0965 102.929L82.2689 102.985ZM84.5989 101.123C84.5989 100.286 85.0127 99.7497 85.9344 99.7497H86.7056V100.446H85.9344C85.6146 100.446 85.3889 100.7 85.3889 101.123V101.443H86.6398V102.139H85.3889V106.427H84.5989V102.139H83.9217V101.443H84.5989V101.123ZM87.168 103.935C87.168 102.355 88.0615 101.33 89.4534 101.33C90.5538 101.33 91.5319 102.054 91.6072 103.822L91.6166 104.179H88.005C88.0803 105.195 88.5976 105.788 89.4534 105.788C89.9801 105.788 90.4692 105.477 90.6949 104.951L91.5413 105.016C91.2498 105.957 90.4033 106.54 89.4534 106.54C88.0615 106.54 87.168 105.515 87.168 103.935ZM88.0239 103.483H90.7513C90.6196 102.44 90.0553 102.082 89.4534 102.082C88.6634 102.082 88.1555 102.599 88.0239 103.483ZM92.6746 101.443H93.3706L93.3988 102.355C93.5681 101.734 93.9349 101.443 94.5838 101.443H95.0729V102.139H94.5838C93.822 102.139 93.4647 102.599 93.4647 103.455V106.427H92.6746V101.443ZM95.8962 101.443H96.5922L96.6204 102.355C96.7897 101.734 97.1565 101.443 97.8054 101.443H98.2945V102.139H97.8054C97.0436 102.139 96.6862 102.599 96.6862 103.455V106.427H95.8962V101.443ZM99.3933 101.443H100.183V106.427H99.3933V101.443ZM99.3745 100.662V99.7591H100.202V100.662H99.3745ZM101.458 101.443H102.182L102.201 102.308C102.455 101.631 103.047 101.33 103.734 101.33C104.872 101.33 105.417 102.167 105.417 103.22V106.427H104.627V103.446C104.627 102.524 104.317 102.026 103.564 102.026C102.774 102.026 102.248 102.524 102.248 103.446V106.427H101.458V101.443ZM108.581 106.164C107.293 106.164 106.38 105.167 106.38 103.747C106.38 102.327 107.283 101.33 108.572 101.33C109.249 101.33 109.823 101.678 110.048 102.233V101.443H110.801V105.938C110.801 107.255 109.898 107.951 108.6 107.951C107.537 107.951 106.747 107.377 106.521 106.502L107.349 106.446C107.547 106.916 107.979 107.198 108.6 107.198C109.475 107.198 110.011 106.822 110.011 106.117V105.299C109.766 105.825 109.211 106.164 108.581 106.164ZM107.208 103.747C107.208 104.772 107.753 105.412 108.628 105.412C109.465 105.412 110.011 104.772 110.02 103.747C110.039 102.722 109.493 102.082 108.628 102.082C107.753 102.082 107.208 102.722 107.208 103.747ZM113.92 101.443H114.767L116.262 105.581L117.72 101.443H118.557L116.535 107.057C116.347 107.593 115.989 107.838 115.425 107.838H114.776V107.142H115.35C115.594 107.142 115.735 107.039 115.829 106.794L116.008 106.333H115.745L113.92 101.443ZM121.159 106.54C119.777 106.54 118.874 105.524 118.874 103.935C118.874 102.345 119.777 101.33 121.159 101.33C122.532 101.33 123.435 102.345 123.435 103.935C123.435 105.524 122.532 106.54 121.159 106.54ZM119.702 103.935C119.702 105.092 120.238 105.788 121.159 105.788C122.072 105.788 122.608 105.092 122.608 103.935C122.608 102.778 122.072 102.082 121.159 102.082C120.238 102.082 119.702 102.778 119.702 103.935ZM128.348 106.427H127.595V105.6C127.332 106.249 126.758 106.54 126.1 106.54C124.99 106.54 124.445 105.703 124.445 104.65V101.443H125.235V104.415C125.235 105.346 125.545 105.844 126.269 105.844C127.041 105.844 127.558 105.346 127.558 104.415V101.443H128.348V106.427ZM132.018 101.443H132.742L132.761 102.308C133.015 101.631 133.607 101.33 134.294 101.33C135.432 101.33 135.977 102.167 135.977 103.22V106.427H135.187V103.446C135.187 102.524 134.877 102.026 134.124 102.026C133.334 102.026 132.808 102.524 132.808 103.446V106.427H132.018V101.443ZM139.226 106.54C137.843 106.54 136.94 105.524 136.94 103.935C136.94 102.345 137.843 101.33 139.226 101.33C140.599 101.33 141.502 102.345 141.502 103.935C141.502 105.524 140.599 106.54 139.226 106.54ZM137.768 103.935C137.768 105.092 138.304 105.788 139.226 105.788C140.138 105.788 140.674 105.092 140.674 103.935C140.674 102.778 140.138 102.082 139.226 102.082C138.304 102.082 137.768 102.778 137.768 103.935ZM145.882 101.443L147.067 105.553L148.261 101.443H149.108L147.565 106.427H146.568L145.459 102.637L144.349 106.427H143.361L141.819 101.443H142.665L143.85 105.553L145.035 101.443H145.882ZM149.105 105.402H150.112V106.427H149.105V105.402Z" fill="#515382"/>
</g>
<defs>
<filter id="filter0_d_53017_3393" x="0.109959" y="0.159632" width="260.205" height="176.67" filterUnits="userSpaceOnUse" color-interpolation-filters="sRGB">
<feFlood flood-opacity="0" result="BackgroundImageFix"/>
<feColorMatrix in="SourceAlpha" type="matrix" values="0 0 0 0 0 0 0 0 0 0 0 0 0 0 0 0 0 0 127 0" result="hardAlpha"/>
<feOffset dx="3.135" dy="7.83751"/>
<feGaussianBlur stdDeviation="23.5125"/>
<feComposite in2="hardAlpha" operator="out"/>
<feColorMatrix type="matrix" values="0 0 0 0 0.335938 0 0 0 0 0.357322 0 0 0 0 0.8125 0 0 0 0.19 0"/>
<feBlend mode="normal" in2="BackgroundImageFix" result="effect1_dropShadow_53017_3393"/>
<feBlend mode="normal" in="SourceGraphic" in2="effect1_dropShadow_53017_3393" result="shape"/>
</filter>
<linearGradient id="paint0_linear_53017_3393" x1="149.878" y1="46.4395" x2="149.878" y2="64.5546" gradientUnits="userSpaceOnUse">
<stop stop-color="#38AA86" stop-opacity="0"/>
<stop offset="1" stop-color="#9FFFE1"/>
</linearGradient>
</defs>
</svg>
