<svg width="123" height="29" viewBox="0 0 123 29" fill="none" xmlns="http://www.w3.org/2000/svg">
<rect x="84.1294" y="6.61328" width="15.4491" height="15.4491" rx="7.72453" fill="black" fill-opacity="0.52"/>
<path d="M91.8542 11.4414C91.5341 11.4414 91.2271 11.5686 91.0007 11.7949C90.7744 12.0213 90.6472 12.3283 90.6472 12.6484V14.3381C90.6472 14.6582 90.7744 14.9652 91.0007 15.1916C91.2271 15.4179 91.5341 15.5451 91.8542 15.5451C92.1743 15.5451 92.4813 15.4179 92.7076 15.1916C92.934 14.9652 93.0611 14.6582 93.0611 14.3381V12.6484C93.0611 12.3283 92.934 12.0213 92.7076 11.7949C92.4813 11.5686 92.1743 11.4414 91.8542 11.4414ZM89.923 14.0967C89.9871 14.0967 90.0485 14.1221 90.0937 14.1674C90.139 14.2127 90.1644 14.2741 90.1644 14.3381C90.1644 14.7863 90.3424 15.216 90.6593 15.5329C90.9762 15.8498 91.406 16.0278 91.8542 16.0278C92.3023 16.0278 92.7321 15.8498 93.049 15.5329C93.3659 15.216 93.5439 14.7863 93.5439 14.3381C93.5439 14.2741 93.5693 14.2127 93.6146 14.1674C93.6599 14.1221 93.7213 14.0967 93.7853 14.0967C93.8493 14.0967 93.9107 14.1221 93.956 14.1674C94.0013 14.2127 94.0267 14.2741 94.0267 14.3381C94.0268 14.8726 93.8299 15.3883 93.4736 15.7867C93.1173 16.1851 92.6267 16.4382 92.0956 16.4976V16.9934C92.0956 17.0574 92.0701 17.1188 92.0249 17.1641C91.9796 17.2094 91.9182 17.2348 91.8542 17.2348C91.7901 17.2348 91.7287 17.2094 91.6835 17.1641C91.6382 17.1188 91.6128 17.0574 91.6128 16.9934V16.4976C91.0816 16.4382 90.591 16.1851 90.2347 15.7867C89.8785 15.3883 89.6815 14.8726 89.6816 14.3381C89.6816 14.2741 89.7071 14.2127 89.7523 14.1674C89.7976 14.1221 89.859 14.0967 89.923 14.0967Z" fill="white"/>
<rect x="23.5806" y="6.61328" width="15.4491" height="15.4491" rx="7.72453" fill="black" fill-opacity="0.52"/>
<path d="M29.0822 16.4297C28.9776 16.4297 28.8861 16.3905 28.8076 16.312C28.7292 16.2336 28.6899 16.1421 28.6899 16.0375V12.6379C28.6899 12.5333 28.7292 12.4417 28.8076 12.3633C28.8861 12.2848 28.9776 12.2456 29.0822 12.2456H32.4818C32.5864 12.2456 32.6779 12.2848 32.7564 12.3633C32.8348 12.4417 32.8741 12.5333 32.8741 12.6379V14.0435L33.9201 12.9974V15.6779L32.8741 14.6319V16.0375C32.8741 16.1421 32.8348 16.2336 32.7564 16.312C32.6779 16.3905 32.5864 16.4297 32.4818 16.4297H29.0822Z" fill="white"/>
<rect x="107.304" y="6.61328" width="15.4491" height="15.4491" rx="7.72453" fill="black" fill-opacity="0.52"/>
<g clip-path="url(#clip0_53159_243)">
<path d="M115.471 17.02H114.585C114.536 17.02 114.493 17.0044 114.455 16.9731C114.417 16.9418 114.393 16.9016 114.384 16.8524L114.277 16.1751C114.192 16.1439 114.103 16.1014 114.009 16.0477C113.915 15.9941 113.832 15.9382 113.761 15.8801L113.137 16.1684C113.088 16.1908 113.039 16.1941 112.99 16.1785C112.94 16.1629 112.902 16.1304 112.876 16.0813L112.433 15.2968C112.406 15.252 112.4 15.2051 112.413 15.1559C112.426 15.1068 112.453 15.0665 112.493 15.0352L113.07 14.6128C113.061 14.5726 113.056 14.5268 113.053 14.4753C113.051 14.4239 113.05 14.3781 113.05 14.3379C113.05 14.2977 113.051 14.2518 113.053 14.2004C113.056 14.149 113.061 14.1032 113.07 14.063L112.493 13.6405C112.453 13.6092 112.426 13.569 112.413 13.5198C112.4 13.4707 112.406 13.4237 112.433 13.379L112.876 12.5945C112.902 12.5453 112.94 12.5129 112.99 12.4973C113.039 12.4816 113.088 12.485 113.137 12.5073L113.761 12.7957C113.832 12.7376 113.915 12.6817 114.009 12.628C114.103 12.5744 114.192 12.5342 114.277 12.5073L114.384 11.8234C114.393 11.7742 114.417 11.734 114.455 11.7027C114.493 11.6714 114.536 11.6558 114.585 11.6558H115.471C115.52 11.6558 115.563 11.6714 115.601 11.7027C115.639 11.734 115.663 11.7742 115.672 11.8234L115.779 12.5006C115.864 12.5319 115.954 12.5733 116.051 12.6247C116.147 12.6761 116.228 12.7331 116.295 12.7957L116.919 12.5073C116.968 12.485 117.017 12.4816 117.066 12.4973C117.116 12.5129 117.154 12.5453 117.18 12.5945L117.623 13.3723C117.65 13.417 117.658 13.4651 117.646 13.5165C117.635 13.5679 117.607 13.6092 117.563 13.6405L116.986 14.0496C116.995 14.0943 117.001 14.1423 117.003 14.1937C117.005 14.2451 117.006 14.2932 117.006 14.3379C117.006 14.3826 117.005 14.4295 117.003 14.4787C117.001 14.5279 116.995 14.5748 116.986 14.6195L117.563 15.0352C117.603 15.0665 117.63 15.1068 117.643 15.1559C117.657 15.2051 117.65 15.252 117.623 15.2968L117.18 16.0813C117.154 16.1304 117.116 16.1629 117.066 16.1785C117.017 16.1941 116.968 16.1908 116.919 16.1684L116.295 15.8801C116.224 15.9382 116.142 15.9952 116.051 16.0511C115.959 16.107 115.868 16.1483 115.779 16.1751L115.672 16.8524C115.663 16.9016 115.639 16.9418 115.601 16.9731C115.563 17.0044 115.52 17.02 115.471 17.02ZM115.028 15.2096C115.269 15.2096 115.475 15.1246 115.645 14.9548C115.815 14.7849 115.9 14.5793 115.9 14.3379C115.9 14.0965 115.815 13.8909 115.645 13.721C115.475 13.5511 115.269 13.4662 115.028 13.4662C114.787 13.4662 114.581 13.5511 114.411 13.721C114.241 13.8909 114.156 14.0965 114.156 14.3379C114.156 14.5793 114.241 14.7849 114.411 14.9548C114.581 15.1246 114.787 15.2096 115.028 15.2096Z" fill="white"/>
</g>
<rect x="47.6162" y="0.1875" width="28.3009" height="28.3009" rx="14.1504" fill="#F8000F"/>
<path d="M61.6624 10.9191C65.1352 11.0054 67.6719 11.7923 69.2679 13.2784C69.9394 13.9038 70.239 14.8119 70.0531 15.6652L69.8665 16.5255C69.6906 17.3313 68.9186 17.8559 68.0638 17.7511L66.3607 17.5411C65.6194 17.4495 64.9986 16.9037 64.8275 16.1935L64.3529 14.215C63.5814 13.8748 62.7255 13.7062 61.7865 13.7091C60.8823 13.7047 59.9862 13.8817 59.1517 14.2296L58.7777 16.0616C58.6354 16.7548 58.0455 17.2599 57.3158 17.3136L55.6146 17.4405C54.7652 17.5033 53.9672 16.943 53.7474 16.13L53.5121 15.2589C53.278 14.3914 53.5307 13.491 54.1761 12.8966C55.6999 11.4915 58.1948 10.8331 61.6624 10.9191Z" fill="white"/>
<rect x="0.914551" y="6.61328" width="15.4491" height="15.4491" rx="7.72453" fill="black" fill-opacity="0.52"/>
<path d="M9.59485 11.7593C9.59476 11.6987 9.57762 11.6393 9.54538 11.588C9.51315 11.5367 9.46714 11.4955 9.41263 11.4693C9.35813 11.443 9.29734 11.4327 9.23726 11.4396C9.17718 11.4464 9.12024 11.4701 9.07299 11.5079L7.55434 12.7262H6.06011C5.97488 12.7262 5.89315 12.7601 5.83289 12.8206C5.77262 12.881 5.73877 12.963 5.73877 13.0485V15.6267C5.73877 15.7122 5.77262 15.7942 5.83289 15.8546C5.89315 15.9151 5.97488 15.949 6.06011 15.949H7.55434L9.07299 17.1672C9.12024 17.2051 9.17718 17.2288 9.23726 17.2356C9.29734 17.2425 9.35813 17.2322 9.41263 17.2059C9.46714 17.1797 9.51315 17.1385 9.54538 17.0872C9.57762 17.0359 9.59476 16.9765 9.59485 16.9159V11.7593ZM11.539 14.3376C11.5394 14.7186 11.4649 15.0959 11.3195 15.4479C11.1741 15.7999 10.9609 16.1196 10.6919 16.3886L10.2375 15.9329C10.4467 15.7236 10.6126 15.475 10.7256 15.2012C10.8387 14.9274 10.8967 14.6339 10.8963 14.3376C10.8966 14.0413 10.8386 13.7478 10.7256 13.474C10.6125 13.2003 10.4467 12.9516 10.2375 12.7423L10.6919 12.2866C10.9609 12.5556 11.1741 12.8753 11.3195 13.2273C11.4649 13.5793 11.5394 13.9566 11.539 14.3376Z" fill="white"/>
<defs>
<clipPath id="clip0_53159_243">
<rect width="6.43711" height="6.43711" fill="white" transform="translate(111.81 11.1191)"/>
</clipPath>
</defs>
</svg>
