<svg width="21" height="21" viewBox="0 0 21 21" fill="none" xmlns="http://www.w3.org/2000/svg">
<path d="M21 13.3476C21 14.3136 20.216 15.0976 19.25 15.0976H5.9752L8.2852 17.4076C8.9684 18.0908 8.9684 19.1996 8.2852 19.8828C7.602 20.566 6.4932 20.566 5.81 19.8828L0.512401 14.5852C0.196001 14.2688 0 13.8306 0 13.3476C0 12.3816 0.784 11.5976 1.75 11.5976H19.25C20.216 11.5976 21 12.3816 21 13.3476ZM1.75 8.7976H19.25C20.216 8.7976 21 8.0136 21 7.0476C21 6.5646 20.804 6.1264 20.4876 5.81C20.1712 5.4936 15.19 0.5124 15.19 0.5124C14.5068 -0.1708 13.398 -0.1708 12.7148 0.5124C12.0316 1.1956 12.0316 2.3044 12.7148 2.9876L15.0248 5.2976H1.75C0.784 5.2976 0 6.0816 0 7.0476C0 8.0136 0.784 8.7976 1.75 8.7976Z" fill="white"/>
</svg>
