<svg width="251" height="110" viewBox="0 0 251 110" fill="none" xmlns="http://www.w3.org/2000/svg">
<rect width="76" height="33" rx="8" fill="white"/>
<path d="M26.8253 15.0696C26.7424 14.8011 26.6281 14.5608 26.4822 14.3487C26.3397 14.1333 26.1674 13.9493 25.9652 13.7969C25.7663 13.6444 25.5376 13.5301 25.2791 13.4538C25.0206 13.3743 24.7389 13.3345 24.4339 13.3345C23.8871 13.3345 23.3999 13.4721 22.9723 13.7472C22.5447 14.0223 22.2083 14.4266 21.9631 14.9602C21.7211 15.4905 21.6001 16.1368 21.6001 16.8991C21.6001 17.6681 21.7211 18.3194 21.9631 18.853C22.205 19.3866 22.5414 19.7926 22.9723 20.071C23.4032 20.3461 23.9036 20.4837 24.4737 20.4837C24.9908 20.4837 25.4382 20.3842 25.8161 20.1854C26.1972 19.9865 26.4905 19.7048 26.696 19.3402C26.9015 18.9723 27.0043 18.5414 27.0043 18.0476L27.4219 18.1122H24.6577V16.6705H28.7891V17.8935C28.7891 18.7652 28.6035 19.5192 28.2322 20.1555C27.861 20.7919 27.3506 21.2824 26.701 21.6271C26.0514 21.9685 25.3056 22.1392 24.4638 22.1392C23.5258 22.1392 22.7022 21.9287 21.9929 21.5078C21.2869 21.0836 20.7351 20.482 20.3374 19.7031C19.9429 18.9209 19.7457 17.9929 19.7457 16.919C19.7457 16.0971 19.8617 15.3629 20.0938 14.7166C20.3291 14.0703 20.6572 13.5218 21.0781 13.071C21.4991 12.617 21.9929 12.2723 22.5597 12.0369C23.1264 11.7983 23.7429 11.679 24.4091 11.679C24.9725 11.679 25.4979 11.7618 25.9851 11.9276C26.4723 12.09 26.9048 12.322 27.2827 12.6236C27.6638 12.9252 27.977 13.2831 28.2223 13.6974C28.4676 14.1117 28.6283 14.5691 28.7045 15.0696H26.8253ZM30.4931 22V14.3636H32.2381V15.6364H32.3176C32.4569 15.1955 32.6955 14.8558 33.0336 14.6172C33.3749 14.3752 33.7644 14.2543 34.2019 14.2543C34.3013 14.2543 34.4123 14.2592 34.535 14.2692C34.6609 14.2758 34.7653 14.2874 34.8482 14.304V15.9595C34.772 15.933 34.651 15.9098 34.4853 15.8899C34.3229 15.8667 34.1654 15.8551 34.013 15.8551C33.6848 15.8551 33.3899 15.9264 33.128 16.0689C32.8695 16.2081 32.6657 16.402 32.5165 16.6506C32.3674 16.8991 32.2928 17.1858 32.2928 17.5107V22H30.4931ZM39.1101 22.1491C38.3445 22.1491 37.6832 21.9901 37.1264 21.6719C36.5729 21.3504 36.147 20.8963 35.8487 20.3097C35.5504 19.7197 35.4013 19.0253 35.4013 18.2266C35.4013 17.4411 35.5504 16.7517 35.8487 16.1584C36.1503 15.5618 36.5713 15.0978 37.1115 14.7663C37.6518 14.4316 38.2865 14.2642 39.0156 14.2642C39.4863 14.2642 39.9304 14.3404 40.348 14.4929C40.7689 14.642 41.1402 14.8741 41.4616 15.1889C41.7865 15.5038 42.0417 15.9048 42.2273 16.392C42.4129 16.8759 42.5057 17.4527 42.5057 18.1222V18.674H36.2464V17.4609H40.7805C40.7772 17.1162 40.7027 16.8097 40.5568 16.5412C40.411 16.2694 40.2071 16.0556 39.9453 15.8999C39.6868 15.7441 39.3852 15.6662 39.0405 15.6662C38.6726 15.6662 38.3494 15.7557 38.071 15.9347C37.7926 16.1103 37.5755 16.3423 37.4197 16.6307C37.2673 16.9157 37.1894 17.2289 37.1861 17.5703V18.6293C37.1861 19.0734 37.2673 19.4545 37.4297 19.7727C37.5921 20.0876 37.8191 20.3295 38.1108 20.4986C38.4025 20.6643 38.7438 20.7472 39.1349 20.7472C39.3968 20.7472 39.6338 20.7107 39.8459 20.6378C40.058 20.5616 40.242 20.4505 40.3977 20.3047C40.5535 20.1589 40.6712 19.9782 40.7507 19.7628L42.4311 19.9517C42.325 20.3958 42.1229 20.7836 41.8246 21.1151C41.5296 21.4432 41.1518 21.6984 40.6911 21.8807C40.2304 22.0597 39.7034 22.1491 39.1101 22.1491ZM47.4089 22.1491C46.6433 22.1491 45.9821 21.9901 45.4252 21.6719C44.8717 21.3504 44.4458 20.8963 44.1475 20.3097C43.8493 19.7197 43.7001 19.0253 43.7001 18.2266C43.7001 17.4411 43.8493 16.7517 44.1475 16.1584C44.4492 15.5618 44.8701 15.0978 45.4103 14.7663C45.9506 14.4316 46.5853 14.2642 47.3145 14.2642C47.7851 14.2642 48.2292 14.3404 48.6468 14.4929C49.0678 14.642 49.439 14.8741 49.7605 15.1889C50.0853 15.5038 50.3405 15.9048 50.5261 16.392C50.7117 16.8759 50.8045 17.4527 50.8045 18.1222V18.674H44.5453V17.4609H49.0794C49.0761 17.1162 49.0015 16.8097 48.8556 16.5412C48.7098 16.2694 48.506 16.0556 48.2441 15.8999C47.9856 15.7441 47.684 15.6662 47.3393 15.6662C46.9714 15.6662 46.6483 15.7557 46.3699 15.9347C46.0914 16.1103 45.8743 16.3423 45.7186 16.6307C45.5661 16.9157 45.4882 17.2289 45.4849 17.5703V18.6293C45.4849 19.0734 45.5661 19.4545 45.7285 19.7727C45.8909 20.0876 46.118 20.3295 46.4096 20.4986C46.7013 20.6643 47.0427 20.7472 47.4338 20.7472C47.6956 20.7472 47.9326 20.7107 48.1447 20.6378C48.3568 20.5616 48.5408 20.4505 48.6966 20.3047C48.8523 20.1589 48.97 19.9782 49.0495 19.7628L50.7299 19.9517C50.6239 20.3958 50.4217 20.7836 50.1234 21.1151C49.8284 21.4432 49.4506 21.6984 48.9899 21.8807C48.5292 22.0597 48.0022 22.1491 47.4089 22.1491ZM56.1403 14.3636V15.7557H51.7504V14.3636H56.1403ZM52.8342 12.5341H54.6339V19.7031C54.6339 19.9451 54.6703 20.1307 54.7433 20.2599C54.8195 20.3859 54.9189 20.4721 55.0415 20.5185C55.1642 20.5649 55.3001 20.5881 55.4492 20.5881C55.5619 20.5881 55.6647 20.5798 55.7575 20.5632C55.8536 20.5466 55.9265 20.5317 55.9762 20.5185L56.2795 21.9254C56.1834 21.9586 56.0458 21.995 55.8668 22.0348C55.6912 22.0746 55.4757 22.0978 55.2205 22.1044C54.7698 22.1177 54.3638 22.0497 54.0025 21.9006C53.6412 21.7481 53.3545 21.5128 53.1424 21.1946C52.9336 20.8764 52.8308 20.4787 52.8342 20.0014V12.5341Z" fill="#1623B5"/>
<rect x="10" y="77" width="76" height="33" rx="8" fill="#FFF7DB"/>
<path d="M36.5376 91.6172C36.4912 91.183 36.2957 90.8449 35.951 90.603C35.6096 90.361 35.1655 90.2401 34.6186 90.2401C34.2341 90.2401 33.9044 90.2981 33.6293 90.4141C33.3542 90.5301 33.1437 90.6875 32.9979 90.8864C32.852 91.0852 32.7775 91.3123 32.7741 91.5675C32.7741 91.7796 32.8222 91.9635 32.9183 92.1193C33.0178 92.2751 33.152 92.4077 33.321 92.517C33.4901 92.6231 33.6773 92.7126 33.8828 92.7855C34.0883 92.8584 34.2955 92.9197 34.5043 92.9695L35.4588 93.2081C35.8433 93.2976 36.2128 93.4186 36.5675 93.571C36.9254 93.7235 37.2453 93.9157 37.527 94.1477C37.812 94.3797 38.0374 94.6598 38.2031 94.9879C38.3688 95.3161 38.4517 95.7005 38.4517 96.1413C38.4517 96.7379 38.2992 97.2633 37.9943 97.7173C37.6894 98.1681 37.2486 98.5211 36.6719 98.7763C36.0985 99.0282 35.4041 99.1541 34.5888 99.1541C33.7966 99.1541 33.1089 99.0315 32.5256 98.7862C31.9455 98.541 31.4915 98.183 31.1634 97.7124C30.8385 97.2417 30.6629 96.6683 30.6364 95.9922H32.451C32.4775 96.3468 32.5869 96.6418 32.7791 96.8771C32.9714 97.1125 33.2216 97.2881 33.5298 97.4041C33.8414 97.5201 34.1894 97.5781 34.5739 97.5781C34.9749 97.5781 35.3262 97.5185 35.6278 97.3991C35.9328 97.2765 36.1714 97.1075 36.3438 96.892C36.5161 96.6733 36.6039 96.4181 36.6072 96.1264C36.6039 95.8613 36.526 95.6425 36.3736 95.4702C36.2211 95.2945 36.0073 95.1487 35.7322 95.0327C35.4605 94.9134 35.1423 94.8073 34.7777 94.7145L33.6193 94.4162C32.7808 94.2008 32.1179 93.8743 31.6307 93.4368C31.1468 92.996 30.9048 92.411 30.9048 91.6818C30.9048 91.0819 31.0672 90.5566 31.392 90.1058C31.7202 89.6551 32.166 89.3054 32.7294 89.0568C33.2929 88.8049 33.9309 88.679 34.6435 88.679C35.366 88.679 35.9991 88.8049 36.5426 89.0568C37.0895 89.3054 37.5187 89.6518 37.8303 90.0959C38.1418 90.5367 38.3026 91.0438 38.3125 91.6172H36.5376ZM42.214 99.1541C41.7301 99.1541 41.2942 99.0679 40.9064 98.8956C40.522 98.7199 40.217 98.4614 39.9917 98.12C39.7696 97.7786 39.6586 97.3577 39.6586 96.8572C39.6586 96.4264 39.7381 96.0701 39.8972 95.7884C40.0563 95.5066 40.2734 95.2812 40.5485 95.1122C40.8236 94.9432 41.1335 94.8156 41.4782 94.7294C41.8262 94.6399 42.1858 94.5753 42.557 94.5355C43.0044 94.4891 43.3674 94.4477 43.6458 94.4112C43.9242 94.3714 44.1264 94.3118 44.2523 94.2322C44.3816 94.1494 44.4462 94.0218 44.4462 93.8494V93.8196C44.4462 93.4451 44.3352 93.1551 44.1131 92.9496C43.891 92.7441 43.5712 92.6413 43.1536 92.6413C42.7128 92.6413 42.3631 92.7375 42.1046 92.9297C41.8494 93.1219 41.677 93.349 41.5875 93.6108L39.9071 93.3722C40.0397 92.9081 40.2585 92.5204 40.5634 92.2088C40.8683 91.8939 41.2412 91.6586 41.682 91.5028C42.1228 91.3438 42.61 91.2642 43.1436 91.2642C43.5115 91.2642 43.8778 91.3073 44.2424 91.3935C44.6069 91.4796 44.94 91.6222 45.2417 91.821C45.5433 92.0166 45.7852 92.2834 45.9675 92.6214C46.1531 92.9595 46.2459 93.3821 46.2459 93.8892V99H44.5158V97.951H44.4561C44.3468 98.1631 44.1926 98.362 43.9938 98.5476C43.7982 98.7299 43.5513 98.8774 43.253 98.9901C42.958 99.0994 42.6117 99.1541 42.214 99.1541ZM42.6813 97.8317C43.0426 97.8317 43.3558 97.7604 43.6209 97.6179C43.8861 97.4721 44.0899 97.2798 44.2324 97.0412C44.3783 96.8026 44.4512 96.5424 44.4512 96.2607V95.3608C44.3948 95.4072 44.2987 95.4503 44.1628 95.4901C44.0302 95.5298 43.8811 95.5646 43.7154 95.5945C43.5497 95.6243 43.3856 95.6508 43.2232 95.674C43.0608 95.6972 42.9199 95.7171 42.8006 95.7337C42.5321 95.7701 42.2918 95.8298 42.0797 95.9126C41.8676 95.9955 41.7002 96.1115 41.5776 96.2607C41.455 96.4065 41.3936 96.5954 41.3936 96.8274C41.3936 97.1589 41.5146 97.4091 41.7566 97.5781C41.9985 97.7472 42.3068 97.8317 42.6813 97.8317ZM49.8553 88.8182V99H48.0556V88.8182H49.8553ZM55.0866 99.1491C54.321 99.1491 53.6598 98.9901 53.103 98.6719C52.5495 98.3504 52.1236 97.8963 51.8253 97.3097C51.527 96.7197 51.3778 96.0253 51.3778 95.2266C51.3778 94.4411 51.527 93.7517 51.8253 93.1584C52.1269 92.5618 52.5478 92.0978 53.0881 91.7663C53.6283 91.4316 54.263 91.2642 54.9922 91.2642C55.4628 91.2642 55.907 91.3404 56.3246 91.4929C56.7455 91.642 57.1167 91.8741 57.4382 92.1889C57.763 92.5038 58.0182 92.9048 58.2038 93.392C58.3894 93.8759 58.4822 94.4527 58.4822 95.1222V95.674H52.223V94.4609H56.7571C56.7538 94.1162 56.6792 93.8097 56.5334 93.5412C56.3875 93.2694 56.1837 93.0556 55.9219 92.8999C55.6634 92.7441 55.3617 92.6662 55.017 92.6662C54.6491 92.6662 54.326 92.7557 54.0476 92.9347C53.7692 93.1103 53.5521 93.3423 53.3963 93.6307C53.2438 93.9157 53.166 94.2289 53.1626 94.5703V95.6293C53.1626 96.0734 53.2438 96.4545 53.4062 96.7727C53.5687 97.0876 53.7957 97.3295 54.0874 97.4986C54.379 97.6643 54.7204 97.7472 55.1115 97.7472C55.3733 97.7472 55.6103 97.7107 55.8224 97.6378C56.0346 97.5616 56.2185 97.4505 56.3743 97.3047C56.5301 97.1589 56.6477 96.9782 56.7273 96.7628L58.4077 96.9517C58.3016 97.3958 58.0994 97.7836 57.8011 98.1151C57.5062 98.4432 57.1283 98.6984 56.6676 98.8807C56.2069 99.0597 55.6799 99.1491 55.0866 99.1491ZM66.0403 93.3821L64.3997 93.5611C64.3533 93.3954 64.2721 93.2396 64.1561 93.0938C64.0434 92.9479 63.8909 92.8303 63.6987 92.7408C63.5065 92.6513 63.2711 92.6065 62.9927 92.6065C62.6182 92.6065 62.3033 92.6877 62.0481 92.8501C61.7962 93.0125 61.6719 93.223 61.6752 93.4815C61.6719 93.7036 61.7531 93.8842 61.9189 94.0234C62.0879 94.1626 62.3663 94.277 62.7541 94.3665L64.0566 94.6449C64.7792 94.8007 65.3161 95.0476 65.6674 95.3857C66.0221 95.7237 66.2011 96.1662 66.2044 96.7131C66.2011 97.1937 66.0602 97.6179 65.7818 97.9858C65.5067 98.3504 65.1239 98.6354 64.6333 98.8409C64.1428 99.0464 63.5794 99.1491 62.943 99.1491C62.0083 99.1491 61.256 98.9536 60.6859 98.5625C60.1158 98.1681 59.7761 97.6196 59.6667 96.9169L61.4217 96.7479C61.5012 97.0926 61.6703 97.3527 61.9288 97.5284C62.1873 97.7041 62.5237 97.7919 62.938 97.7919C63.3656 97.7919 63.7086 97.7041 63.9672 97.5284C64.229 97.3527 64.3599 97.1357 64.3599 96.8771C64.3599 96.6584 64.2754 96.4777 64.1064 96.3352C63.9406 96.1927 63.6821 96.0833 63.3308 96.0071L62.0282 95.7337C61.2958 95.5812 60.7538 95.3243 60.4025 94.9631C60.0512 94.5985 59.8772 94.1378 59.8805 93.581C59.8772 93.1103 60.0048 92.7027 60.2633 92.358C60.5252 92.0099 60.8881 91.7415 61.3521 91.5526C61.8194 91.3603 62.358 91.2642 62.9679 91.2642C63.8627 91.2642 64.5671 91.4548 65.0808 91.8359C65.5978 92.2171 65.9177 92.7325 66.0403 93.3821Z" fill="#1623B5"/>
<path d="M38 33.5V39.5C38 46.1274 43.3726 51.5 50 51.5H87.5" stroke="white" stroke-width="1.5"/>
<path d="M123.75 68V82C123.75 88.6274 118.377 94 111.75 94H97.75" stroke="white" stroke-width="2" stroke-dasharray="2 2"/>
<circle cx="98" cy="94" r="4.5" fill="#62FCBC" stroke="#5260E9" stroke-width="3"/>
<rect x="86" y="34" width="76" height="33" rx="8" fill="#E9C2FF"/>
<path d="M101.004 56V45.8182H104.822C105.605 45.8182 106.261 45.964 106.791 46.2557C107.325 46.5473 107.728 46.9484 107.999 47.4588C108.274 47.9659 108.412 48.5426 108.412 49.1889C108.412 49.8419 108.274 50.4219 107.999 50.929C107.724 51.4361 107.318 51.8355 106.781 52.1271C106.244 52.4155 105.583 52.5597 104.798 52.5597H102.267V51.0433H104.549C105.006 51.0433 105.381 50.9638 105.673 50.8047C105.964 50.6456 106.18 50.4268 106.319 50.1484C106.461 49.87 106.533 49.5502 106.533 49.1889C106.533 48.8277 106.461 48.5095 106.319 48.2344C106.18 47.9593 105.963 47.7455 105.668 47.593C105.376 47.4373 105 47.3594 104.539 47.3594H102.849V56H101.004ZM109.934 56V48.3636H111.68V49.6364H111.759C111.898 49.1955 112.137 48.8558 112.475 48.6172C112.816 48.3752 113.206 48.2543 113.643 48.2543C113.743 48.2543 113.854 48.2592 113.976 48.2692C114.102 48.2758 114.207 48.2874 114.29 48.304V49.9595C114.213 49.933 114.092 49.9098 113.927 49.8899C113.764 49.8667 113.607 49.8551 113.454 49.8551C113.126 49.8551 112.831 49.9264 112.569 50.0689C112.311 50.2081 112.107 50.402 111.958 50.6506C111.809 50.8991 111.734 51.1858 111.734 51.5107V56H109.934ZM118.551 56.1491C117.786 56.1491 117.125 55.9901 116.568 55.6719C116.014 55.3504 115.588 54.8963 115.29 54.3097C114.992 53.7197 114.843 53.0253 114.843 52.2266C114.843 51.4411 114.992 50.7517 115.29 50.1584C115.592 49.5618 116.013 49.0978 116.553 48.7663C117.093 48.4316 117.728 48.2642 118.457 48.2642C118.928 48.2642 119.372 48.3404 119.789 48.4929C120.21 48.642 120.582 48.8741 120.903 49.1889C121.228 49.5038 121.483 49.9048 121.669 50.392C121.854 50.8759 121.947 51.4527 121.947 52.1222V52.674H115.688V51.4609H120.222C120.219 51.1162 120.144 50.8097 119.998 50.5412C119.852 50.2694 119.649 50.0556 119.387 49.8999C119.128 49.7441 118.827 49.6662 118.482 49.6662C118.114 49.6662 117.791 49.7557 117.512 49.9347C117.234 50.1103 117.017 50.3423 116.861 50.6307C116.709 50.9157 116.631 51.2289 116.627 51.5703V52.6293C116.627 53.0734 116.709 53.4545 116.871 53.7727C117.033 54.0876 117.261 54.3295 117.552 54.4986C117.844 54.6643 118.185 54.7472 118.576 54.7472C118.838 54.7472 119.075 54.7107 119.287 54.6378C119.499 54.5616 119.683 54.4505 119.839 54.3047C119.995 54.1589 120.113 53.9782 120.192 53.7628L121.873 53.9517C121.766 54.3958 121.564 54.7836 121.266 55.1151C120.971 55.4432 120.593 55.6984 120.132 55.8807C119.672 56.0597 119.145 56.1491 118.551 56.1491ZM129.505 50.3821L127.865 50.5611C127.818 50.3954 127.737 50.2396 127.621 50.0938C127.508 49.9479 127.356 49.8303 127.164 49.7408C126.971 49.6513 126.736 49.6065 126.458 49.6065C126.083 49.6065 125.768 49.6877 125.513 49.8501C125.261 50.0125 125.137 50.223 125.14 50.4815C125.137 50.7036 125.218 50.8842 125.384 51.0234C125.553 51.1626 125.831 51.277 126.219 51.3665L127.521 51.6449C128.244 51.8007 128.781 52.0476 129.132 52.3857C129.487 52.7237 129.666 53.1662 129.669 53.7131C129.666 54.1937 129.525 54.6179 129.247 54.9858C128.972 55.3504 128.589 55.6354 128.098 55.8409C127.608 56.0464 127.044 56.1491 126.408 56.1491C125.473 56.1491 124.721 55.9536 124.151 55.5625C123.581 55.1681 123.241 54.6196 123.132 53.9169L124.887 53.7479C124.966 54.0926 125.135 54.3527 125.394 54.5284C125.652 54.7041 125.989 54.7919 126.403 54.7919C126.83 54.7919 127.173 54.7041 127.432 54.5284C127.694 54.3527 127.825 54.1357 127.825 53.8771C127.825 53.6584 127.74 53.4777 127.571 53.3352C127.405 53.1927 127.147 53.0833 126.796 53.0071L125.493 52.7337C124.761 52.5812 124.219 52.3243 123.867 51.9631C123.516 51.5985 123.342 51.1378 123.345 50.581C123.342 50.1103 123.47 49.7027 123.728 49.358C123.99 49.0099 124.353 48.7415 124.817 48.5526C125.284 48.3603 125.823 48.2642 126.433 48.2642C127.328 48.2642 128.032 48.4548 128.546 48.8359C129.063 49.2171 129.383 49.7325 129.505 50.3821ZM137.189 50.3821L135.548 50.5611C135.502 50.3954 135.421 50.2396 135.305 50.0938C135.192 49.9479 135.039 49.8303 134.847 49.7408C134.655 49.6513 134.42 49.6065 134.141 49.6065C133.767 49.6065 133.452 49.6877 133.197 49.8501C132.945 50.0125 132.82 50.223 132.824 50.4815C132.82 50.7036 132.902 50.8842 133.067 51.0234C133.236 51.1626 133.515 51.277 133.903 51.3665L135.205 51.6449C135.928 51.8007 136.465 52.0476 136.816 52.3857C137.171 52.7237 137.349 53.1662 137.353 53.7131C137.349 54.1937 137.209 54.6179 136.93 54.9858C136.655 55.3504 136.272 55.6354 135.782 55.8409C135.291 56.0464 134.728 56.1491 134.091 56.1491C133.157 56.1491 132.404 55.9536 131.834 55.5625C131.264 55.1681 130.925 54.6196 130.815 53.9169L132.57 53.7479C132.65 54.0926 132.819 54.3527 133.077 54.5284C133.336 54.7041 133.672 54.7919 134.086 54.7919C134.514 54.7919 134.857 54.7041 135.116 54.5284C135.377 54.3527 135.508 54.1357 135.508 53.8771C135.508 53.6584 135.424 53.4777 135.255 53.3352C135.089 53.1927 134.831 53.0833 134.479 53.0071L133.177 52.7337C132.444 52.5812 131.902 52.3243 131.551 51.9631C131.2 51.5985 131.026 51.1378 131.029 50.581C131.026 50.1103 131.153 49.7027 131.412 49.358C131.674 49.0099 132.037 48.7415 132.501 48.5526C132.968 48.3603 133.506 48.2642 134.116 48.2642C135.011 48.2642 135.715 48.4548 136.229 48.8359C136.746 49.2171 137.066 49.7325 137.189 50.3821ZM146.431 45.8182V56H144.586V47.6129H144.527L142.145 49.1342V47.4439L144.676 45.8182H146.431Z" fill="#1623B5"/>
<rect x="175" y="34" width="76" height="33" rx="8" fill="#C2FCFF"/>
<path d="M189.004 56V45.8182H192.822C193.605 45.8182 194.261 45.964 194.791 46.2557C195.325 46.5473 195.728 46.9484 195.999 47.4588C196.274 47.9659 196.412 48.5426 196.412 49.1889C196.412 49.8419 196.274 50.4219 195.999 50.929C195.724 51.4361 195.318 51.8355 194.781 52.1271C194.244 52.4155 193.583 52.5597 192.798 52.5597H190.267V51.0433H192.549C193.006 51.0433 193.381 50.9638 193.673 50.8047C193.964 50.6456 194.18 50.4268 194.319 50.1484C194.461 49.87 194.533 49.5502 194.533 49.1889C194.533 48.8277 194.461 48.5095 194.319 48.2344C194.18 47.9593 193.963 47.7455 193.668 47.593C193.376 47.4373 193 47.3594 192.539 47.3594H190.849V56H189.004ZM197.934 56V48.3636H199.68V49.6364H199.759C199.898 49.1955 200.137 48.8558 200.475 48.6172C200.816 48.3752 201.206 48.2543 201.643 48.2543C201.743 48.2543 201.854 48.2592 201.976 48.2692C202.102 48.2758 202.207 48.2874 202.29 48.304V49.9595C202.213 49.933 202.092 49.9098 201.927 49.8899C201.764 49.8667 201.607 49.8551 201.454 49.8551C201.126 49.8551 200.831 49.9264 200.569 50.0689C200.311 50.2081 200.107 50.402 199.958 50.6506C199.809 50.8991 199.734 51.1858 199.734 51.5107V56H197.934ZM206.551 56.1491C205.786 56.1491 205.125 55.9901 204.568 55.6719C204.014 55.3504 203.588 54.8963 203.29 54.3097C202.992 53.7197 202.843 53.0253 202.843 52.2266C202.843 51.4411 202.992 50.7517 203.29 50.1584C203.592 49.5618 204.013 49.0978 204.553 48.7663C205.093 48.4316 205.728 48.2642 206.457 48.2642C206.928 48.2642 207.372 48.3404 207.789 48.4929C208.21 48.642 208.582 48.8741 208.903 49.1889C209.228 49.5038 209.483 49.9048 209.669 50.392C209.854 50.8759 209.947 51.4527 209.947 52.1222V52.674H203.688V51.4609H208.222C208.219 51.1162 208.144 50.8097 207.998 50.5412C207.852 50.2694 207.649 50.0556 207.387 49.8999C207.128 49.7441 206.827 49.6662 206.482 49.6662C206.114 49.6662 205.791 49.7557 205.512 49.9347C205.234 50.1103 205.017 50.3423 204.861 50.6307C204.709 50.9157 204.631 51.2289 204.627 51.5703V52.6293C204.627 53.0734 204.709 53.4545 204.871 53.7727C205.033 54.0876 205.261 54.3295 205.552 54.4986C205.844 54.6643 206.185 54.7472 206.576 54.7472C206.838 54.7472 207.075 54.7107 207.287 54.6378C207.499 54.5616 207.683 54.4505 207.839 54.3047C207.995 54.1589 208.113 53.9782 208.192 53.7628L209.873 53.9517C209.766 54.3958 209.564 54.7836 209.266 55.1151C208.971 55.4432 208.593 55.6984 208.132 55.8807C207.672 56.0597 207.145 56.1491 206.551 56.1491ZM217.505 50.3821L215.865 50.5611C215.818 50.3954 215.737 50.2396 215.621 50.0938C215.508 49.9479 215.356 49.8303 215.164 49.7408C214.971 49.6513 214.736 49.6065 214.458 49.6065C214.083 49.6065 213.768 49.6877 213.513 49.8501C213.261 50.0125 213.137 50.223 213.14 50.4815C213.137 50.7036 213.218 50.8842 213.384 51.0234C213.553 51.1626 213.831 51.277 214.219 51.3665L215.521 51.6449C216.244 51.8007 216.781 52.0476 217.132 52.3857C217.487 52.7237 217.666 53.1662 217.669 53.7131C217.666 54.1937 217.525 54.6179 217.247 54.9858C216.972 55.3504 216.589 55.6354 216.098 55.8409C215.608 56.0464 215.044 56.1491 214.408 56.1491C213.473 56.1491 212.721 55.9536 212.151 55.5625C211.581 55.1681 211.241 54.6196 211.132 53.9169L212.887 53.7479C212.966 54.0926 213.135 54.3527 213.394 54.5284C213.652 54.7041 213.989 54.7919 214.403 54.7919C214.83 54.7919 215.173 54.7041 215.432 54.5284C215.694 54.3527 215.825 54.1357 215.825 53.8771C215.825 53.6584 215.74 53.4777 215.571 53.3352C215.405 53.1927 215.147 53.0833 214.796 53.0071L213.493 52.7337C212.761 52.5812 212.219 52.3243 211.867 51.9631C211.516 51.5985 211.342 51.1378 211.345 50.581C211.342 50.1103 211.47 49.7027 211.728 49.358C211.99 49.0099 212.353 48.7415 212.817 48.5526C213.284 48.3603 213.823 48.2642 214.433 48.2642C215.328 48.2642 216.032 48.4548 216.546 48.8359C217.063 49.2171 217.383 49.7325 217.505 50.3821ZM225.189 50.3821L223.548 50.5611C223.502 50.3954 223.421 50.2396 223.305 50.0938C223.192 49.9479 223.039 49.8303 222.847 49.7408C222.655 49.6513 222.42 49.6065 222.141 49.6065C221.767 49.6065 221.452 49.6877 221.197 49.8501C220.945 50.0125 220.82 50.223 220.824 50.4815C220.82 50.7036 220.902 50.8842 221.067 51.0234C221.236 51.1626 221.515 51.277 221.903 51.3665L223.205 51.6449C223.928 51.8007 224.465 52.0476 224.816 52.3857C225.171 52.7237 225.349 53.1662 225.353 53.7131C225.349 54.1937 225.209 54.6179 224.93 54.9858C224.655 55.3504 224.272 55.6354 223.782 55.8409C223.291 56.0464 222.728 56.1491 222.091 56.1491C221.157 56.1491 220.404 55.9536 219.834 55.5625C219.264 55.1681 218.925 54.6196 218.815 53.9169L220.57 53.7479C220.65 54.0926 220.819 54.3527 221.077 54.5284C221.336 54.7041 221.672 54.7919 222.086 54.7919C222.514 54.7919 222.857 54.7041 223.116 54.5284C223.377 54.3527 223.508 54.1357 223.508 53.8771C223.508 53.6584 223.424 53.4777 223.255 53.3352C223.089 53.1927 222.831 53.0833 222.479 53.0071L221.177 52.7337C220.444 52.5812 219.902 52.3243 219.551 51.9631C219.2 51.5985 219.026 51.1378 219.029 50.581C219.026 50.1103 219.153 49.7027 219.412 49.358C219.674 49.0099 220.037 48.7415 220.501 48.5526C220.968 48.3603 221.506 48.2642 222.116 48.2642C223.011 48.2642 223.715 48.4548 224.229 48.8359C224.746 49.2171 225.066 49.7325 225.189 50.3821ZM230.29 56V54.6676L233.824 51.2024C234.162 50.861 234.444 50.5578 234.67 50.2926C234.895 50.0275 235.064 49.7706 235.177 49.522C235.289 49.2734 235.346 49.0083 235.346 48.7266C235.346 48.4051 235.273 48.13 235.127 47.9013C234.981 47.6693 234.781 47.4903 234.525 47.3643C234.27 47.2384 233.98 47.1754 233.655 47.1754C233.321 47.1754 233.027 47.245 232.775 47.3842C232.523 47.5201 232.328 47.714 232.189 47.9659C232.053 48.2178 231.985 48.5178 231.985 48.8658H230.23C230.23 48.2195 230.377 47.6577 230.672 47.1804C230.967 46.7031 231.373 46.3336 231.89 46.0717C232.411 45.8099 233.007 45.679 233.68 45.679C234.363 45.679 234.963 45.8066 235.48 46.0618C235.997 46.317 236.398 46.6667 236.683 47.1108C236.971 47.5549 237.116 48.062 237.116 48.6321C237.116 49.0133 237.043 49.3878 236.897 49.7557C236.751 50.1236 236.494 50.5312 236.126 50.9787C235.762 51.4261 235.25 51.968 234.59 52.6044L232.835 54.3892V54.4588H237.27V56H230.29Z" fill="#1623B5"/>
<circle cx="86" cy="51" r="4.5" fill="#62FCBC" stroke="#5260E9" stroke-width="3"/>
<path d="M75.5 16H201.5C208.127 16 213.5 21.3726 213.5 28V35" stroke="white"/>
<circle cx="213" cy="34" r="4.5" fill="#62FCBC" stroke="#404ACA" stroke-width="3"/>
</svg>
