<svg width="28" height="28" viewBox="0 0 28 28" fill="none" xmlns="http://www.w3.org/2000/svg">
<path d="M21.0507 4.90311L26.798 15.5016C28.2712 18.2184 27.3632 21.5639 24.7623 22.9742L17.8201 26.7388C15.7205 27.8773 13.1429 27.7577 11.0609 26.4236L2.86965 21.1789C2.50675 20.9429 2.22512 20.6308 2.03034 20.2716C1.63405 19.5408 1.61207 18.6338 2.04664 17.8906C2.62659 16.8975 3.84639 16.5193 4.91551 17.0027L9.19591 18.9345L1.16272 4.12051C0.555968 3.0016 0.961551 1.61158 2.08047 1.08498C3.12783 0.586489 4.40672 1.12719 4.98434 2.19239L11.1995 13.6538C11.3585 13.947 11.7111 14.0603 11.9913 13.9084C12.2715 13.7564 12.3689 13.3991 12.2099 13.106L8.71721 6.6651C8.92022 6.35197 9.20697 6.08962 9.5694 5.91979C10.6168 5.4213 11.8956 5.962 12.4733 7.02723L14.9607 11.6143C15.1197 11.9074 15.4723 12.0208 15.7485 11.871C16.0287 11.719 16.1261 11.3617 15.9671 11.0685L13.0028 5.60205C13.2058 5.28893 13.4965 5.02444 13.859 4.8546C14.9046 4.36238 16.1835 4.90308 16.7611 5.96831L18.7179 9.57684C18.8769 9.86999 19.2295 9.98335 19.5097 9.83139C19.7899 9.67945 19.8873 9.32212 19.7283 9.02896L17.2946 4.54099C17.4976 4.22787 17.7883 3.96337 18.1508 3.79356C19.1941 3.2972 20.4731 3.83788 21.0507 4.90311Z" fill="white"/>
</svg>
