<svg width="252" height="133" viewBox="0 0 252 133" fill="none" xmlns="http://www.w3.org/2000/svg">
<rect x="0.185547" y="0.857422" width="76" height="33" rx="8" fill="white"/>
<path d="M27.0108 15.927C26.928 15.6586 26.8136 15.4183 26.6678 15.2061C26.5253 14.9907 26.3529 14.8068 26.1507 14.6543C25.9519 14.5018 25.7232 14.3875 25.4647 14.3113C25.2061 14.2317 24.9244 14.1919 24.6195 14.1919C24.0726 14.1919 23.5854 14.3295 23.1578 14.6046C22.7303 14.8797 22.3939 15.284 22.1486 15.8176C21.9067 16.348 21.7857 16.9943 21.7857 17.7566C21.7857 18.5255 21.9067 19.1768 22.1486 19.7104C22.3906 20.244 22.727 20.65 23.1578 20.9284C23.5887 21.2035 24.0892 21.3411 24.6593 21.3411C25.1763 21.3411 25.6238 21.2417 26.0016 21.0428C26.3828 20.8439 26.6761 20.5622 26.8816 20.1976C27.0871 19.8297 27.1898 19.3989 27.1898 18.905L27.6074 18.9696H24.8432V17.5279H28.9746V18.7509C28.9746 19.6226 28.789 20.3766 28.4178 21.013C28.0466 21.6493 27.5362 22.1399 26.8865 22.4846C26.2369 22.8259 25.4912 22.9966 24.6493 22.9966C23.7114 22.9966 22.8877 22.7862 22.1784 22.3652C21.4725 21.941 20.9206 21.3394 20.5229 20.5605C20.1285 19.7783 19.9313 18.8503 19.9313 17.7765C19.9313 16.9545 20.0473 16.2203 20.2793 15.574C20.5146 14.9277 20.8427 14.3792 21.2637 13.9284C21.6846 13.4744 22.1784 13.1297 22.7452 12.8944C23.312 12.6557 23.9284 12.5364 24.5946 12.5364C25.1581 12.5364 25.6834 12.6193 26.1706 12.785C26.6578 12.9474 27.0904 13.1794 27.4682 13.481C27.8494 13.7826 28.1626 14.1406 28.4078 14.5549C28.6531 14.9692 28.8139 15.4266 28.8901 15.927H27.0108ZM30.6786 22.8574V15.2211H32.4237V16.4938H32.5032C32.6424 16.053 32.881 15.7132 33.2191 15.4746C33.5605 15.2327 33.9499 15.1117 34.3874 15.1117C34.4869 15.1117 34.5979 15.1167 34.7205 15.1266C34.8465 15.1332 34.9509 15.1448 35.0337 15.1614V16.8169C34.9575 16.7904 34.8365 16.7672 34.6708 16.7473C34.5084 16.7241 34.351 16.7125 34.1985 16.7125C33.8704 16.7125 33.5754 16.7838 33.3136 16.9263C33.055 17.0655 32.8512 17.2594 32.7021 17.508C32.5529 17.7566 32.4783 18.0433 32.4783 18.3681V22.8574H30.6786ZM39.2956 23.0066C38.53 23.0066 37.8688 22.8475 37.312 22.5293C36.7585 22.2078 36.3326 21.7537 36.0343 21.1671C35.736 20.5771 35.5868 19.8828 35.5868 19.084C35.5868 18.2985 35.736 17.6091 36.0343 17.0158C36.3359 16.4192 36.7568 15.9552 37.2971 15.6238C37.8373 15.289 38.472 15.1216 39.2012 15.1216C39.6718 15.1216 40.1159 15.1979 40.5336 15.3503C40.9545 15.4995 41.3257 15.7315 41.6472 16.0463C41.972 16.3612 42.2272 16.7623 42.4128 17.2495C42.5984 17.7334 42.6912 18.3101 42.6912 18.9796V19.5314H36.432V18.3184H40.9661C40.9628 17.9737 40.8882 17.6671 40.7424 17.3986C40.5965 17.1268 40.3927 16.9131 40.1309 16.7573C39.8723 16.6015 39.5707 16.5236 39.226 16.5236C38.8581 16.5236 38.535 16.6131 38.2566 16.7921C37.9782 16.9677 37.7611 17.1998 37.6053 17.4881C37.4528 17.7731 37.3749 18.0864 37.3716 18.4277V19.4867C37.3716 19.9308 37.4528 20.312 37.6152 20.6301C37.7776 20.945 38.0047 21.187 38.2963 21.356C38.588 21.5217 38.9294 21.6046 39.3205 21.6046C39.5823 21.6046 39.8193 21.5681 40.0314 21.4952C40.2435 21.419 40.4275 21.3079 40.5833 21.1621C40.7391 21.0163 40.8567 20.8356 40.9363 20.6202L42.6167 20.8091C42.5106 21.2533 42.3084 21.641 42.0101 21.9725C41.7151 22.3006 41.3373 22.5558 40.8766 22.7381C40.4159 22.9171 39.8889 23.0066 39.2956 23.0066ZM47.5945 23.0066C46.8288 23.0066 46.1676 22.8475 45.6108 22.5293C45.0573 22.2078 44.6314 21.7537 44.3331 21.1671C44.0348 20.5771 43.8857 19.8828 43.8857 19.084C43.8857 18.2985 44.0348 17.6091 44.3331 17.0158C44.6347 16.4192 45.0556 15.9552 45.5959 15.6238C46.1361 15.289 46.7708 15.1216 47.5 15.1216C47.9706 15.1216 48.4148 15.1979 48.8324 15.3503C49.2533 15.4995 49.6245 15.7315 49.946 16.0463C50.2708 16.3612 50.526 16.7623 50.7116 17.2495C50.8973 17.7334 50.9901 18.3101 50.9901 18.9796V19.5314H44.7308V18.3184H49.2649C49.2616 17.9737 49.187 17.6671 49.0412 17.3986C48.8954 17.1268 48.6915 16.9131 48.4297 16.7573C48.1712 16.6015 47.8696 16.5236 47.5249 16.5236C47.157 16.5236 46.8338 16.6131 46.5554 16.7921C46.277 16.9677 46.0599 17.1998 45.9041 17.4881C45.7517 17.7731 45.6738 18.0864 45.6705 18.4277V19.4867C45.6705 19.9308 45.7517 20.312 45.9141 20.6301C46.0765 20.945 46.3035 21.187 46.5952 21.356C46.8868 21.5217 47.2282 21.6046 47.6193 21.6046C47.8812 21.6046 48.1181 21.5681 48.3303 21.4952C48.5424 21.419 48.7263 21.3079 48.8821 21.1621C49.0379 21.0163 49.1555 20.8356 49.2351 20.6202L50.9155 20.8091C50.8094 21.2533 50.6072 21.641 50.3089 21.9725C50.014 22.3006 49.6361 22.5558 49.1754 22.7381C48.7147 22.9171 48.1877 23.0066 47.5945 23.0066ZM56.3258 15.2211V16.6131H51.9359V15.2211H56.3258ZM53.0197 13.3915H54.8194V20.5605C54.8194 20.8025 54.8559 20.9881 54.9288 21.1174C55.005 21.2433 55.1045 21.3295 55.2271 21.3759C55.3497 21.4223 55.4856 21.4455 55.6348 21.4455C55.7475 21.4455 55.8502 21.4372 55.943 21.4206C56.0391 21.4041 56.112 21.3891 56.1618 21.3759L56.465 22.7828C56.3689 22.816 56.2314 22.8525 56.0524 22.8922C55.8767 22.932 55.6613 22.9552 55.4061 22.9618C54.9553 22.9751 54.5493 22.9071 54.188 22.758C53.8268 22.6055 53.5401 22.3702 53.3279 22.052C53.1191 21.7338 53.0164 21.3361 53.0197 20.8588V13.3915Z" fill="#1623B5"/>
<rect x="10.1855" y="77.8574" width="76" height="33" rx="8" fill="#FFF7DB"/>
<path d="M36.7232 92.4746C36.6768 92.0404 36.4812 91.7024 36.1365 91.4604C35.7952 91.2185 35.351 91.0975 34.8042 91.0975C34.4197 91.0975 34.0899 91.1555 33.8148 91.2715C33.5397 91.3875 33.3292 91.5449 33.1834 91.7438C33.0376 91.9426 32.963 92.1697 32.9597 92.4249C32.9597 92.637 33.0078 92.821 33.1039 92.9767C33.2033 93.1325 33.3375 93.2651 33.5066 93.3745C33.6756 93.4805 33.8629 93.57 34.0684 93.6429C34.2739 93.7158 34.481 93.7772 34.6898 93.8269L35.6444 94.0655C36.0288 94.155 36.3984 94.276 36.753 94.4284C37.111 94.5809 37.4308 94.7731 37.7125 95.0051C37.9976 95.2372 38.223 95.5172 38.3887 95.8453C38.5544 96.1735 38.6373 96.5579 38.6373 96.9988C38.6373 97.5953 38.4848 98.1207 38.1799 98.5748C37.8749 99.0255 37.4341 99.3785 36.8574 99.6337C36.284 99.8856 35.5897 100.012 34.7743 100.012C33.9822 100.012 33.2944 99.8889 32.7111 99.6436C32.1311 99.3984 31.677 99.0404 31.3489 98.5698C31.0241 98.0991 30.8484 97.5257 30.8219 96.8496H32.6365C32.6631 97.2042 32.7724 97.4992 32.9647 97.7346C33.1569 97.9699 33.4071 98.1455 33.7154 98.2615C34.0269 98.3775 34.3749 98.4355 34.7594 98.4355C35.1605 98.4355 35.5118 98.3759 35.8134 98.2566C36.1183 98.1339 36.3569 97.9649 36.5293 97.7495C36.7016 97.5307 36.7895 97.2755 36.7928 96.9838C36.7895 96.7187 36.7116 96.4999 36.5591 96.3276C36.4067 96.1519 36.1929 96.0061 35.9178 95.8901C35.646 95.7708 35.3278 95.6647 34.9632 95.5719L33.8049 95.2736C32.9663 95.0582 32.3034 94.7317 31.8162 94.2942C31.3323 93.8534 31.0904 93.2684 31.0904 92.5392C31.0904 91.9393 31.2528 91.414 31.5776 90.9632C31.9057 90.5125 32.3515 90.1628 32.915 89.9142C33.4784 89.6623 34.1164 89.5364 34.829 89.5364C35.5516 89.5364 36.1846 89.6623 36.7282 89.9142C37.275 90.1628 37.7042 90.5092 38.0158 90.9533C38.3274 91.3941 38.4881 91.9012 38.498 92.4746H36.7232ZM42.3995 100.012C41.9156 100.012 41.4798 99.9254 41.092 99.753C40.7075 99.5774 40.4026 99.3188 40.1772 98.9775C39.9551 98.6361 39.8441 98.2151 39.8441 97.7147C39.8441 97.2838 39.9237 96.9275 40.0827 96.6458C40.2418 96.3641 40.4589 96.1387 40.734 95.9696C41.0091 95.8006 41.319 95.673 41.6637 95.5868C42.0117 95.4973 42.3713 95.4327 42.7425 95.3929C43.19 95.3465 43.5529 95.3051 43.8313 95.2686C44.1097 95.2289 44.3119 95.1692 44.4379 95.0897C44.5671 95.0068 44.6317 94.8792 44.6317 94.7069V94.677C44.6317 94.3025 44.5207 94.0125 44.2987 93.807C44.0766 93.6015 43.7567 93.4988 43.3391 93.4988C42.8983 93.4988 42.5487 93.5949 42.2901 93.7871C42.0349 93.9793 41.8626 94.2064 41.7731 94.4682L40.0927 94.2296C40.2253 93.7656 40.444 93.3778 40.7489 93.0662C41.0539 92.7514 41.4267 92.516 41.8675 92.3603C42.3084 92.2012 42.7956 92.1216 43.3292 92.1216C43.6971 92.1216 44.0633 92.1647 44.4279 92.2509C44.7925 92.3371 45.1256 92.4796 45.4272 92.6784C45.7288 92.874 45.9708 93.1408 46.1531 93.4789C46.3387 93.8169 46.4315 94.2395 46.4315 94.7466V99.8574H44.7013V98.8084H44.6417C44.5323 99.0205 44.3782 99.2194 44.1793 99.405C43.9838 99.5873 43.7369 99.7348 43.4386 99.8475C43.1436 99.9569 42.7972 100.012 42.3995 100.012ZM42.8668 98.6891C43.2281 98.6891 43.5413 98.6178 43.8065 98.4753C44.0716 98.3295 44.2754 98.1373 44.418 97.8986C44.5638 97.66 44.6367 97.3998 44.6367 97.1181V96.2182C44.5804 96.2646 44.4843 96.3077 44.3484 96.3475C44.2158 96.3873 44.0666 96.4221 43.9009 96.4519C43.7352 96.4817 43.5711 96.5082 43.4087 96.5314C43.2463 96.5546 43.1055 96.5745 42.9862 96.5911C42.7177 96.6275 42.4774 96.6872 42.2653 96.7701C42.0531 96.8529 41.8858 96.9689 41.7631 97.1181C41.6405 97.2639 41.5792 97.4528 41.5792 97.6848C41.5792 98.0163 41.7002 98.2665 41.9421 98.4355C42.1841 98.6046 42.4923 98.6891 42.8668 98.6891ZM50.0408 89.6756V99.8574H48.2411V89.6756H50.0408ZM55.2722 100.007C54.5066 100.007 53.8453 99.8475 53.2885 99.5293C52.735 99.2078 52.3091 98.7537 52.0108 98.1671C51.7125 97.5771 51.5634 96.8828 51.5634 96.084C51.5634 95.2985 51.7125 94.6091 52.0108 94.0158C52.3124 93.4192 52.7334 92.9552 53.2736 92.6238C53.8139 92.289 54.4486 92.1216 55.1777 92.1216C55.6484 92.1216 56.0925 92.1979 56.5101 92.3503C56.931 92.4995 57.3023 92.7315 57.6238 93.0463C57.9486 93.3612 58.2038 93.7623 58.3894 94.2495C58.575 94.7334 58.6678 95.3101 58.6678 95.9796V96.5314H52.4086V95.3184H56.9426C56.9393 94.9737 56.8648 94.6671 56.7189 94.3986C56.5731 94.1268 56.3693 93.9131 56.1074 93.7573C55.8489 93.6015 55.5473 93.5236 55.2026 93.5236C54.8347 93.5236 54.5115 93.6131 54.2331 93.7921C53.9547 93.9677 53.7376 94.1998 53.5819 94.4881C53.4294 94.7731 53.3515 95.0864 53.3482 95.4277V96.4867C53.3482 96.9308 53.4294 97.312 53.5918 97.6301C53.7542 97.945 53.9812 98.187 54.2729 98.356C54.5646 98.5217 54.906 98.6046 55.2971 98.6046C55.5589 98.6046 55.7959 98.5681 56.008 98.4952C56.2201 98.419 56.4041 98.3079 56.5598 98.1621C56.7156 98.0163 56.8333 97.8356 56.9128 97.6202L58.5932 97.8091C58.4872 98.2533 58.285 98.641 57.9867 98.9725C57.6917 99.3006 57.3139 99.5558 56.8532 99.7381C56.3925 99.9171 55.8655 100.007 55.2722 100.007ZM66.2259 94.2395L64.5852 94.4185C64.5388 94.2528 64.4576 94.097 64.3416 93.9512C64.2289 93.8053 64.0765 93.6877 63.8842 93.5982C63.692 93.5087 63.4567 93.464 63.1783 93.464C62.8037 93.464 62.4889 93.5452 62.2337 93.7076C61.9818 93.87 61.8575 94.0804 61.8608 94.339C61.8575 94.561 61.9387 94.7417 62.1044 94.8809C62.2734 95.0201 62.5518 95.1344 62.9396 95.2239L64.2422 95.5023C64.9647 95.6581 65.5017 95.905 65.853 96.2431C66.2076 96.5811 66.3866 97.0236 66.3899 97.5705C66.3866 98.0511 66.2457 98.4753 65.9673 98.8432C65.6922 99.2078 65.3094 99.4928 64.8189 99.6983C64.3284 99.9038 63.7649 100.007 63.1286 100.007C62.1939 100.007 61.4415 99.811 60.8714 99.4199C60.3014 99.0255 59.9616 98.477 59.8523 97.7743L61.6072 97.6053C61.6868 97.95 61.8558 98.2102 62.1143 98.3858C62.3729 98.5615 62.7093 98.6493 63.1236 98.6493C63.5511 98.6493 63.8942 98.5615 64.1527 98.3858C64.4145 98.2102 64.5455 97.9931 64.5455 97.7346C64.5455 97.5158 64.4609 97.3352 64.2919 97.1926C64.1262 97.0501 63.8677 96.9408 63.5163 96.8645L62.2138 96.5911C61.4813 96.4386 60.9394 96.1818 60.5881 95.8205C60.2367 95.4559 60.0627 94.9952 60.0661 94.4384C60.0627 93.9677 60.1903 93.5601 60.4489 93.2154C60.7107 92.8674 61.0736 92.5989 61.5376 92.41C62.005 92.2177 62.5436 92.1216 63.1534 92.1216C64.0483 92.1216 64.7526 92.3122 65.2663 92.6934C65.7834 93.0745 66.1032 93.5899 66.2259 94.2395Z" fill="#1623B5"/>
<path d="M38.1855 34.3574V40.3574C38.1855 46.9848 43.5581 52.3574 50.1855 52.3574H87.6855" stroke="white" stroke-width="1.5"/>
<path d="M123.936 68.8574V82.8574C123.936 89.4848 118.563 94.8574 111.936 94.8574H97.9355" stroke="white" stroke-width="2" stroke-dasharray="2 2"/>
<circle cx="98.1855" cy="94.8574" r="4.5" fill="#62FCBC" stroke="#5260E9" stroke-width="3"/>
<path d="M120.236 105.761L125.984 116.359C127.457 119.076 126.549 122.421 123.948 123.832L117.006 127.596C114.906 128.735 112.328 128.615 110.246 127.281L102.055 122.036C101.692 121.8 101.411 121.488 101.216 121.129C100.82 120.398 100.798 119.491 101.232 118.748C101.812 117.755 103.032 117.377 104.101 117.86L108.381 119.792L100.348 104.978C99.7415 103.859 100.147 102.469 101.266 101.942C102.313 101.444 103.592 101.985 104.17 103.05L110.385 114.511C110.544 114.804 110.897 114.918 111.177 114.766C111.457 114.614 111.554 114.257 111.395 113.963L107.903 107.523C108.106 107.209 108.393 106.947 108.755 106.777C109.802 106.279 111.081 106.819 111.659 107.885L114.146 112.472C114.305 112.765 114.658 112.878 114.934 112.728C115.214 112.576 115.312 112.219 115.153 111.926L112.188 106.459C112.391 106.146 112.682 105.882 113.045 105.712C114.09 105.22 115.369 105.761 115.947 106.826L117.903 110.434C118.062 110.727 118.415 110.841 118.695 110.689C118.975 110.537 119.073 110.18 118.914 109.886L116.48 105.398C116.683 105.085 116.974 104.821 117.336 104.651C118.38 104.155 119.659 104.695 120.236 105.761Z" fill="white"/>
<rect x="86.1855" y="34.8574" width="76" height="33" rx="8" fill="#E9C2FF"/>
<path d="M101.19 56.8574V46.6756H105.008C105.79 46.6756 106.446 46.8214 106.977 47.1131C107.51 47.4048 107.913 47.8058 108.185 48.3162C108.46 48.8233 108.597 49.4 108.597 50.0463C108.597 50.6993 108.46 51.2793 108.185 51.7864C107.91 52.2935 107.504 52.6929 106.967 52.9846C106.43 53.2729 105.769 53.4171 104.983 53.4171H102.453V51.9007H104.735C105.192 51.9007 105.566 51.8212 105.858 51.6621C106.15 51.503 106.365 51.2843 106.504 51.0059C106.647 50.7275 106.718 50.4076 106.718 50.0463C106.718 49.6851 106.647 49.3669 106.504 49.0918C106.365 48.8167 106.148 48.6029 105.853 48.4505C105.561 48.2947 105.185 48.2168 104.725 48.2168H103.034V56.8574H101.19ZM110.12 56.8574V49.2211H111.865V50.4938H111.945C112.084 50.053 112.322 49.7132 112.661 49.4746C113.002 49.2327 113.391 49.1117 113.829 49.1117C113.928 49.1117 114.039 49.1167 114.162 49.1266C114.288 49.1332 114.392 49.1448 114.475 49.1614V50.8169C114.399 50.7904 114.278 50.7672 114.112 50.7473C113.95 50.7241 113.792 50.7125 113.64 50.7125C113.312 50.7125 113.017 50.7838 112.755 50.9263C112.496 51.0655 112.293 51.2594 112.143 51.508C111.994 51.7566 111.92 52.0433 111.92 52.3681V56.8574H110.12ZM118.737 57.0066C117.971 57.0066 117.31 56.8475 116.753 56.5293C116.2 56.2078 115.774 55.7537 115.476 55.1671C115.177 54.5771 115.028 53.8828 115.028 53.084C115.028 52.2985 115.177 51.6091 115.476 51.0158C115.777 50.4192 116.198 49.9552 116.738 49.6238C117.279 49.289 117.913 49.1216 118.643 49.1216C119.113 49.1216 119.557 49.1979 119.975 49.3503C120.396 49.4995 120.767 49.7315 121.089 50.0463C121.413 50.3612 121.669 50.7623 121.854 51.2495C122.04 51.7334 122.133 52.3101 122.133 52.9796V53.5314H115.873V52.3184H120.407C120.404 51.9737 120.33 51.6671 120.184 51.3986C120.038 51.1268 119.834 50.9131 119.572 50.7573C119.314 50.6015 119.012 50.5236 118.667 50.5236C118.3 50.5236 117.976 50.6131 117.698 50.7921C117.42 50.9677 117.202 51.1998 117.047 51.4881C116.894 51.7731 116.816 52.0864 116.813 52.4277V53.4867C116.813 53.9308 116.894 54.312 117.057 54.6301C117.219 54.945 117.446 55.187 117.738 55.356C118.029 55.5217 118.371 55.6046 118.762 55.6046C119.024 55.6046 119.261 55.5681 119.473 55.4952C119.685 55.419 119.869 55.3079 120.025 55.1621C120.18 55.0163 120.298 54.8356 120.378 54.6202L122.058 54.8091C121.952 55.2533 121.75 55.641 121.452 55.9725C121.157 56.3006 120.779 56.5558 120.318 56.7381C119.857 56.9171 119.33 57.0066 118.737 57.0066ZM129.691 51.2395L128.05 51.4185C128.004 51.2528 127.922 51.097 127.806 50.9512C127.694 50.8053 127.541 50.6877 127.349 50.5982C127.157 50.5087 126.922 50.464 126.643 50.464C126.269 50.464 125.954 50.5452 125.699 50.7076C125.447 50.87 125.322 51.0804 125.326 51.339C125.322 51.561 125.404 51.7417 125.569 51.8809C125.738 52.0201 126.017 52.1344 126.404 52.2239L127.707 52.5023C128.43 52.6581 128.967 52.905 129.318 53.2431C129.672 53.5811 129.851 54.0236 129.855 54.5705C129.851 55.0511 129.711 55.4753 129.432 55.8432C129.157 56.2078 128.774 56.4928 128.284 56.6983C127.793 56.9038 127.23 57.0066 126.593 57.0066C125.659 57.0066 124.906 56.811 124.336 56.4199C123.766 56.0255 123.426 55.477 123.317 54.7743L125.072 54.6053C125.152 54.95 125.321 55.2102 125.579 55.3858C125.838 55.5615 126.174 55.6493 126.588 55.6493C127.016 55.6493 127.359 55.5615 127.618 55.3858C127.879 55.2102 128.01 54.9931 128.01 54.7346C128.01 54.5158 127.926 54.3352 127.757 54.1926C127.591 54.0501 127.333 53.9408 126.981 53.8645L125.679 53.5911C124.946 53.4386 124.404 53.1818 124.053 52.8205C123.702 52.4559 123.528 51.9952 123.531 51.4384C123.528 50.9677 123.655 50.5601 123.914 50.2154C124.176 49.8674 124.538 49.5989 125.002 49.41C125.47 49.2177 126.008 49.1216 126.618 49.1216C127.513 49.1216 128.217 49.3122 128.731 49.6934C129.248 50.0745 129.568 50.5899 129.691 51.2395ZM137.374 51.2395L135.734 51.4185C135.687 51.2528 135.606 51.097 135.49 50.9512C135.377 50.8053 135.225 50.6877 135.033 50.5982C134.84 50.5087 134.605 50.464 134.327 50.464C133.952 50.464 133.637 50.5452 133.382 50.7076C133.13 50.87 133.006 51.0804 133.009 51.339C133.006 51.561 133.087 51.7417 133.253 51.8809C133.422 52.0201 133.7 52.1344 134.088 52.2239L135.391 52.5023C136.113 52.6581 136.65 52.905 137.001 53.2431C137.356 53.5811 137.535 54.0236 137.538 54.5705C137.535 55.0511 137.394 55.4753 137.116 55.8432C136.841 56.2078 136.458 56.4928 135.967 56.6983C135.477 56.9038 134.913 57.0066 134.277 57.0066C133.342 57.0066 132.59 56.811 132.02 56.4199C131.45 56.0255 131.11 55.477 131.001 54.7743L132.756 54.6053C132.835 54.95 133.004 55.2102 133.263 55.3858C133.521 55.5615 133.858 55.6493 134.272 55.6493C134.7 55.6493 135.043 55.5615 135.301 55.3858C135.563 55.2102 135.694 54.9931 135.694 54.7346C135.694 54.5158 135.609 54.3352 135.44 54.1926C135.275 54.0501 135.016 53.9408 134.665 53.8645L133.362 53.5911C132.63 53.4386 132.088 53.1818 131.737 52.8205C131.385 52.4559 131.211 51.9952 131.214 51.4384C131.211 50.9677 131.339 50.5601 131.597 50.2154C131.859 49.8674 132.222 49.5989 132.686 49.41C133.153 49.2177 133.692 49.1216 134.302 49.1216C135.197 49.1216 135.901 49.3122 136.415 49.6934C136.932 50.0745 137.252 50.5899 137.374 51.2395ZM146.616 46.6756V56.8574H144.772V48.4703H144.712L142.331 49.9917V48.3013L144.862 46.6756H146.616Z" fill="#1623B5"/>
<rect x="175.186" y="34.8574" width="76" height="33" rx="8" fill="#C2FCFF"/>
<path d="M189.19 56.8574V46.6756H193.008C193.79 46.6756 194.446 46.8214 194.977 47.1131C195.51 47.4048 195.913 47.8058 196.185 48.3162C196.46 48.8233 196.597 49.4 196.597 50.0463C196.597 50.6993 196.46 51.2793 196.185 51.7864C195.91 52.2935 195.504 52.6929 194.967 52.9846C194.43 53.2729 193.769 53.4171 192.983 53.4171H190.453V51.9007H192.735C193.192 51.9007 193.566 51.8212 193.858 51.6621C194.15 51.503 194.365 51.2843 194.504 51.0059C194.647 50.7275 194.718 50.4076 194.718 50.0463C194.718 49.6851 194.647 49.3669 194.504 49.0918C194.365 48.8167 194.148 48.6029 193.853 48.4505C193.561 48.2947 193.185 48.2168 192.725 48.2168H191.034V56.8574H189.19ZM198.12 56.8574V49.2211H199.865V50.4938H199.945C200.084 50.053 200.322 49.7132 200.661 49.4746C201.002 49.2327 201.391 49.1117 201.829 49.1117C201.928 49.1117 202.039 49.1167 202.162 49.1266C202.288 49.1332 202.392 49.1448 202.475 49.1614V50.8169C202.399 50.7904 202.278 50.7672 202.112 50.7473C201.95 50.7241 201.792 50.7125 201.64 50.7125C201.312 50.7125 201.017 50.7838 200.755 50.9263C200.496 51.0655 200.293 51.2594 200.143 51.508C199.994 51.7566 199.92 52.0433 199.92 52.3681V56.8574H198.12ZM206.737 57.0066C205.971 57.0066 205.31 56.8475 204.753 56.5293C204.2 56.2078 203.774 55.7537 203.476 55.1671C203.177 54.5771 203.028 53.8828 203.028 53.084C203.028 52.2985 203.177 51.6091 203.476 51.0158C203.777 50.4192 204.198 49.9552 204.738 49.6238C205.279 49.289 205.913 49.1216 206.643 49.1216C207.113 49.1216 207.557 49.1979 207.975 49.3503C208.396 49.4995 208.767 49.7315 209.089 50.0463C209.413 50.3612 209.669 50.7623 209.854 51.2495C210.04 51.7334 210.133 52.3101 210.133 52.9796V53.5314H203.873V52.3184H208.407C208.404 51.9737 208.33 51.6671 208.184 51.3986C208.038 51.1268 207.834 50.9131 207.572 50.7573C207.314 50.6015 207.012 50.5236 206.667 50.5236C206.3 50.5236 205.976 50.6131 205.698 50.7921C205.42 50.9677 205.202 51.1998 205.047 51.4881C204.894 51.7731 204.816 52.0864 204.813 52.4277V53.4867C204.813 53.9308 204.894 54.312 205.057 54.6301C205.219 54.945 205.446 55.187 205.738 55.356C206.029 55.5217 206.371 55.6046 206.762 55.6046C207.024 55.6046 207.261 55.5681 207.473 55.4952C207.685 55.419 207.869 55.3079 208.025 55.1621C208.18 55.0163 208.298 54.8356 208.378 54.6202L210.058 54.8091C209.952 55.2533 209.75 55.641 209.452 55.9725C209.157 56.3006 208.779 56.5558 208.318 56.7381C207.857 56.9171 207.33 57.0066 206.737 57.0066ZM217.691 51.2395L216.05 51.4185C216.004 51.2528 215.922 51.097 215.806 50.9512C215.694 50.8053 215.541 50.6877 215.349 50.5982C215.157 50.5087 214.922 50.464 214.643 50.464C214.269 50.464 213.954 50.5452 213.699 50.7076C213.447 50.87 213.322 51.0804 213.326 51.339C213.322 51.561 213.404 51.7417 213.569 51.8809C213.738 52.0201 214.017 52.1344 214.404 52.2239L215.707 52.5023C216.43 52.6581 216.967 52.905 217.318 53.2431C217.672 53.5811 217.851 54.0236 217.855 54.5705C217.851 55.0511 217.711 55.4753 217.432 55.8432C217.157 56.2078 216.774 56.4928 216.284 56.6983C215.793 56.9038 215.23 57.0066 214.593 57.0066C213.659 57.0066 212.906 56.811 212.336 56.4199C211.766 56.0255 211.426 55.477 211.317 54.7743L213.072 54.6053C213.152 54.95 213.321 55.2102 213.579 55.3858C213.838 55.5615 214.174 55.6493 214.588 55.6493C215.016 55.6493 215.359 55.5615 215.618 55.3858C215.879 55.2102 216.01 54.9931 216.01 54.7346C216.01 54.5158 215.926 54.3352 215.757 54.1926C215.591 54.0501 215.333 53.9408 214.981 53.8645L213.679 53.5911C212.946 53.4386 212.404 53.1818 212.053 52.8205C211.702 52.4559 211.528 51.9952 211.531 51.4384C211.528 50.9677 211.655 50.5601 211.914 50.2154C212.176 49.8674 212.538 49.5989 213.002 49.41C213.47 49.2177 214.008 49.1216 214.618 49.1216C215.513 49.1216 216.217 49.3122 216.731 49.6934C217.248 50.0745 217.568 50.5899 217.691 51.2395ZM225.374 51.2395L223.734 51.4185C223.687 51.2528 223.606 51.097 223.49 50.9512C223.377 50.8053 223.225 50.6877 223.033 50.5982C222.84 50.5087 222.605 50.464 222.327 50.464C221.952 50.464 221.637 50.5452 221.382 50.7076C221.13 50.87 221.006 51.0804 221.009 51.339C221.006 51.561 221.087 51.7417 221.253 51.8809C221.422 52.0201 221.7 52.1344 222.088 52.2239L223.391 52.5023C224.113 52.6581 224.65 52.905 225.001 53.2431C225.356 53.5811 225.535 54.0236 225.538 54.5705C225.535 55.0511 225.394 55.4753 225.116 55.8432C224.841 56.2078 224.458 56.4928 223.967 56.6983C223.477 56.9038 222.913 57.0066 222.277 57.0066C221.342 57.0066 220.59 56.811 220.02 56.4199C219.45 56.0255 219.11 55.477 219.001 54.7743L220.756 54.6053C220.835 54.95 221.004 55.2102 221.263 55.3858C221.521 55.5615 221.858 55.6493 222.272 55.6493C222.7 55.6493 223.043 55.5615 223.301 55.3858C223.563 55.2102 223.694 54.9931 223.694 54.7346C223.694 54.5158 223.609 54.3352 223.44 54.1926C223.275 54.0501 223.016 53.9408 222.665 53.8645L221.362 53.5911C220.63 53.4386 220.088 53.1818 219.737 52.8205C219.385 52.4559 219.211 51.9952 219.214 51.4384C219.211 50.9677 219.339 50.5601 219.597 50.2154C219.859 49.8674 220.222 49.5989 220.686 49.41C221.153 49.2177 221.692 49.1216 222.302 49.1216C223.197 49.1216 223.901 49.3122 224.415 49.6934C224.932 50.0745 225.252 50.5899 225.374 51.2395ZM230.475 56.8574V55.525L234.01 52.0598C234.348 51.7185 234.63 51.4152 234.855 51.15C235.08 50.8849 235.25 50.628 235.362 50.3794C235.475 50.1309 235.531 49.8657 235.531 49.584C235.531 49.2625 235.458 48.9874 235.312 48.7587C235.167 48.5267 234.966 48.3477 234.711 48.2218C234.456 48.0958 234.166 48.0328 233.841 48.0328C233.506 48.0328 233.213 48.1024 232.961 48.2417C232.709 48.3775 232.513 48.5714 232.374 48.8233C232.238 49.0752 232.17 49.3752 232.17 49.7232H230.415C230.415 49.0769 230.563 48.5151 230.858 48.0378C231.153 47.5605 231.559 47.191 232.076 46.9292C232.596 46.6673 233.193 46.5364 233.866 46.5364C234.549 46.5364 235.148 46.664 235.665 46.9192C236.183 47.1744 236.584 47.5241 236.869 47.9682C237.157 48.4123 237.301 48.9194 237.301 49.4895C237.301 49.8707 237.228 50.2452 237.082 50.6131C236.937 50.981 236.68 51.3887 236.312 51.8361C235.947 52.2836 235.435 52.8255 234.776 53.4618L233.021 55.2466V55.3162H237.455V56.8574H230.475Z" fill="#1623B5"/>
<circle cx="86.1855" cy="51.8574" r="4.5" fill="#62FCBC" stroke="#5260E9" stroke-width="3"/>
<path d="M75.6855 16.8574H201.686C208.313 16.8574 213.686 22.23 213.686 28.8574V35.8574" stroke="white"/>
<circle cx="213.186" cy="34.8574" r="4.5" fill="#62FCBC" stroke="#404ACA" stroke-width="3"/>
</svg>
